<svg width="14" height="14" viewBox="0 0 14 14" fill="none" xmlns="http://www.w3.org/2000/svg">
<circle cx="7" cy="7" r="7" fill="#315CA0"/>
<path d="M6.73235 3.00687C10.0237 2.82086 12.1634 6.45141 10.3197 9.22038C8.67266 11.6942 5.00331 11.563 3.52702 8.98842C2.06439 6.43771 3.81151 3.17256 6.73235 3.00731V3.00687ZM9.27298 9.2522C10.9804 7.5149 10.1873 4.5471 7.84343 3.91263C5.49247 3.27595 3.33294 5.36847 3.88429 7.74289C4.44932 10.177 7.51836 11.0376 9.27298 9.2522Z" fill="white"/>
<path d="M8.09522 7.51769C8.21608 7.63787 8.38016 7.77705 8.48469 7.90474C8.81815 8.31211 8.31356 8.80476 7.91702 8.47338C7.55666 8.11064 7.19409 7.7501 6.83373 7.38735C6.72743 7.28043 6.61363 7.20974 6.59863 7.0383V4.94003C6.6895 4.48406 7.31274 4.49025 7.39126 4.94975L7.39302 6.8165L8.09522 7.51725V7.51769Z" fill="white"/>
</svg>
