<svg width="97" height="92" viewBox="0 0 97 92" fill="none" xmlns="http://www.w3.org/2000/svg">
<path d="M90.0994 34.1859C90.211 34.3303 92.4777 35.5281 93.1311 36.1132C98.3368 40.7723 98.2845 49.5923 93.0028 54.1617C92.3446 54.732 90.4415 55.7255 90.1706 56.1738C89.5054 57.2644 88.5669 61.5251 87.8683 63.2233C82.9383 75.2208 72.5007 84.9448 60.5236 88.6003C57.48 89.5291 54.6787 89.6561 51.7302 90.3409C49.5776 90.8414 49.2948 91.8599 46.5673 90.8912C41.2332 88.9962 43.9727 82.3998 49.7106 83.3635C50.7869 83.5453 51.6827 84.4592 52.614 84.5563C58.5278 85.1863 69.5664 78.6148 73.8859 74.4663C105.165 44.4129 72.016 -9.44376 32.5492 8.98074C15.2285 17.0662 6.48502 37.9111 11.8689 56.9059C1.68798 57.5359 -3.92163 44.4801 3.1872 36.7283C3.86197 35.9912 5.82926 34.9379 6.17614 34.3826C6.70123 33.5459 7.20255 30.6897 7.65161 29.4546C21.463 -8.65688 72.477 -10.1759 87.8683 27.1861C88.3483 28.354 89.8808 33.897 90.0994 34.1859Z" fill="#D9D9D9"/>
<path fill-rule="evenodd" clip-rule="evenodd" d="M68.2183 57.8293L68.2184 57.8293C77.4961 39.9076 63.8908 18.6965 44.7188 20.4009L44.228 14.4487L44.7188 20.4009C28.236 21.8664 17.9213 41.0414 25.4137 56.9801L25.4138 56.9802C34.0077 75.2633 58.9344 75.7635 68.2183 57.8293ZM73.3411 60.6881C84.804 38.5453 68.003 12.2705 44.2227 14.3844C23.4884 16.228 10.9836 40.0497 20.1872 59.6287C30.8634 82.3417 61.8173 82.9489 73.3411 60.6881Z" fill="#D9D9D9"/>
<path d="M59.9118 54.408C57.5331 65.6324 36.4405 65.5343 34.2353 54.2058C42.5088 57.0737 51.6022 57.2555 59.9118 54.408Z" fill="#D9D9D9"/>
</svg>
