<svg width="257" height="38" viewBox="0 0 257 38" fill="none" xmlns="http://www.w3.org/2000/svg">
<g clip-path="url(#clip0_882_2659)">
<path fill-rule="evenodd" clip-rule="evenodd" d="M3.86695 13.1865C3.86695 13.5338 4.04527 13.7121 4.21421 13.8904C4.38315 14.0687 4.73979 14.0687 5.26537 14.0687C5.61263 14.0687 5.96928 14.0687 6.1476 13.8904C6.32592 13.7121 6.49486 13.7121 6.49486 13.5431C6.49486 13.3742 6.1476 13.1959 5.26537 13.0176H4.91811C3.5103 12.8392 2.62808 12.492 2.28082 12.3137C2.1025 12.1353 1.93356 11.9664 1.93356 11.7881C1.75524 11.6098 1.75524 11.4408 1.75524 11.2625C1.75524 10.7369 2.1025 10.3803 2.63746 10.033C3.34137 9.68575 4.22359 9.68575 5.45308 9.68575C6.68257 9.68575 7.56479 9.86408 8.09037 10.033C8.61595 10.202 8.9726 10.7369 8.9726 11.2625H6.51363C6.51363 11.0842 6.33531 10.9152 6.16637 10.7369C5.98805 10.5586 5.64079 10.5586 5.11521 10.5586C4.76795 10.5586 4.58962 10.5586 4.4113 10.7369C4.23298 10.7369 4.06404 10.9152 4.06404 11.0842C4.06404 11.2531 4.58962 11.4314 5.47185 11.6098H5.99743C6.70134 11.7881 7.22692 11.7881 7.58356 11.957C7.94021 12.126 8.10914 12.1353 8.28747 12.3043C8.46579 12.4826 8.63473 12.6515 8.81305 12.8299C8.99137 13.0082 8.99137 13.1771 8.99137 13.3554C8.99137 13.881 8.64411 14.4066 7.94021 14.5849C7.2363 14.9322 6.18514 15.1105 4.95565 15.1105C3.72617 15.1105 2.66562 14.9322 2.14004 14.7632C1.61446 14.416 1.25781 14.0593 1.25781 13.3554V13.1771H3.89511L3.86695 13.1865ZM10.0238 15.1199V9.49805H16.5278V10.7275H12.4827V11.6098H16.1712V12.8392H12.4827V13.8904H16.7062V15.1199H10.0238ZM17.7573 15.1199V9.49805H20.9202L24.2614 13.1865V9.49805H26.5514V14.951H23.3886L20.2257 11.2625V14.951H17.7667V15.1293L17.7573 15.1199ZM32.8772 12.8392L31.6477 10.9059L30.4182 12.8392H32.8772ZM29.0104 15.1199H26.5514L30.2399 9.66698H32.8772L36.3967 15.1199H33.7594L33.2338 14.0687H29.367L29.0198 15.1199H29.0104Z" fill="#00A000"/>
<path fill-rule="evenodd" clip-rule="evenodd" d="M7.20798 34.2848L5.09626 32.3514L11.7787 20.7511C12.1259 20.0472 11.6003 19.3433 10.8964 19.3433H0V16.5277H17.5788C17.5788 16.3494 7.20798 34.2848 7.20798 34.2848Z" fill="#00A000"/>
<path fill-rule="evenodd" clip-rule="evenodd" d="M30.9435 34.2846L33.0552 32.1729L26.3728 20.5725C26.0256 19.8686 26.3728 19.1647 27.255 19.1647H38.1609V16.3491H20.582L30.9529 34.2846H30.9435Z" fill="#00A000"/>
<path fill-rule="evenodd" clip-rule="evenodd" d="M18.9868 19.5122L28.832 35.8615L26.1947 37.2694L19.869 26.5419C19.5217 25.838 18.6395 25.838 18.2829 26.5419C16.1712 30.0614 11.9571 37.2694 11.9571 37.2694L9.31982 35.8615C9.31982 35.8615 18.4612 20.385 18.9868 19.5122Z" fill="#00A000"/>
<path d="M19.1647 8.0902C21.3988 8.0902 23.2098 6.27915 23.2098 4.0451C23.2098 1.81105 21.3988 0 19.1647 0C16.9307 0 15.1196 1.81105 15.1196 4.0451C15.1196 6.27915 16.9307 8.0902 19.1647 8.0902Z" fill="#00A000"/>
<path d="M45.3594 1.05127V37.1005" stroke="#606060" stroke-width="0.5" stroke-miterlimit="10"/>
<path d="M64.3556 14.7348C64.0271 15.8986 63.4358 16.7433 62.5724 17.2782C61.7089 17.8132 60.6859 18.076 59.5128 18.076C58.3396 18.076 57.4104 17.8507 56.6033 17.4002C55.7961 16.9497 55.1673 16.2928 54.7356 15.4481C54.3039 14.6034 54.0786 13.5804 54.0786 12.3791C54.0786 11.1777 54.2945 10.1641 54.7356 9.31004C55.1767 8.45597 55.7961 7.80838 56.6033 7.35788C57.4104 6.90738 58.3771 6.68213 59.494 6.68213C60.6108 6.68213 61.6526 6.92615 62.5067 7.42357C63.3701 7.91161 63.9333 8.6906 64.2148 9.73238L61.6808 10.7554C61.5212 10.0703 61.2678 9.60098 60.9206 9.33819C60.5733 9.0754 60.1228 8.94401 59.5878 8.94401C58.7807 8.94401 58.1519 9.23495 57.7014 9.81685C57.2509 10.3987 57.0256 11.2528 57.0256 12.3791C57.0256 13.5053 57.2415 14.3594 57.6732 14.9413C58.1049 15.5232 58.7525 15.8141 59.6066 15.8141C60.1416 15.8141 60.6015 15.6639 60.9769 15.373C61.3523 15.0727 61.6057 14.6222 61.7371 14.0027L64.3556 14.7442V14.7348Z" fill="#39A900"/>
<path d="M69.8553 18.0666C68.4569 18.0666 67.3588 17.6912 66.5423 16.9309C65.7351 16.1707 65.3315 15.1008 65.3315 13.7118C65.3315 12.792 65.5192 12.013 65.8947 11.356C66.2701 10.699 66.7863 10.2016 67.4339 9.86374C68.0908 9.52587 68.8511 9.35693 69.7239 9.35693C70.5967 9.35693 71.357 9.52587 71.9764 9.86374C72.5958 10.2016 73.0651 10.6709 73.3936 11.2716C73.7221 11.8722 73.8816 12.5573 73.8816 13.327C73.8816 13.5428 73.8816 13.7399 73.8535 13.937C73.8347 14.1341 73.8253 14.2936 73.8159 14.4344H68.1002C68.1753 15.0163 68.3724 15.4293 68.6727 15.6827C68.9731 15.9361 69.3673 16.0581 69.8647 16.0581C70.287 16.0581 70.6249 15.9736 70.8783 15.8047C71.1317 15.6358 71.3194 15.4011 71.4414 15.1008L73.7221 15.8516C73.5625 16.3303 73.2903 16.7338 72.9055 17.0623C72.5207 17.3908 72.0609 17.6442 71.5353 17.8038C71.0097 17.9633 70.4466 18.0572 69.8647 18.0572L69.8553 18.0666ZM69.7239 11.3466C68.8229 11.3466 68.2786 11.8628 68.119 12.9046H71.188C71.066 11.8628 70.578 11.3466 69.7333 11.3466H69.7239Z" fill="#39A900"/>
<path d="M75.468 17.8976V9.51649H77.9833L78.0959 11.3279C78.293 10.7178 78.6027 10.2298 79.025 9.88251C79.4474 9.52587 79.9824 9.35693 80.6393 9.35693C80.8552 9.35693 81.0335 9.3757 81.1837 9.41325C81.3339 9.45079 81.4559 9.49771 81.5403 9.53526L81.2588 11.8816C81.1462 11.8441 81.0054 11.8159 80.827 11.7784C80.6487 11.7408 80.4422 11.7314 80.1982 11.7314C79.682 11.7314 79.2409 11.891 78.8655 12.2195C78.4901 12.548 78.3024 13.0266 78.3024 13.6742V17.8976H75.4492H75.468Z" fill="#39A900"/>
<path d="M88.4761 9.51642V11.5437H85.9796V14.913C85.9796 15.3166 86.0734 15.6075 86.2705 15.7765C86.4676 15.9548 86.7398 16.0393 87.087 16.0393C87.3592 16.0393 87.5844 16.0111 87.7722 15.9454C87.9599 15.8797 88.1382 15.7952 88.3071 15.6732L88.6075 17.4377C88.3259 17.6254 87.9693 17.7849 87.5469 17.8976C87.1152 18.0102 86.6835 18.0759 86.2517 18.0759C85.2944 18.0759 84.5342 17.8694 83.9805 17.4658C83.4267 17.0623 83.1452 16.3677 83.1358 15.3917V11.553H81.6904V9.5258H83.1358V7.64872L85.9889 6.86035V9.5258H88.4854L88.4761 9.51642Z" fill="#39A900"/>
<path d="M91.2262 8.5501C90.6443 8.5501 90.2219 8.43748 89.9591 8.22161C89.6963 8.00575 89.5649 7.65849 89.5649 7.18922C89.5649 6.71995 89.6963 6.36331 89.9591 6.13806C90.2219 5.92219 90.6443 5.80957 91.2262 5.80957C91.808 5.80957 92.2116 5.92219 92.4838 6.13806C92.756 6.35392 92.8874 6.70118 92.8874 7.18922C92.8874 7.67726 92.756 8.00575 92.4838 8.22161C92.2116 8.43748 91.7987 8.5501 91.2262 8.5501ZM92.6527 9.5168V17.8979H89.7996V9.5168H92.6527Z" fill="#39A900"/>
<path d="M100.48 9.51679V11.544H98.0961V17.8979H95.243V11.544H93.9009V9.51679H95.243V8.74719C95.243 8.0339 95.3932 7.45201 95.7029 7.0109C96.0126 6.56978 96.4162 6.24129 96.923 6.03482C97.4298 5.82834 97.9835 5.7251 98.5748 5.7251C99.0347 5.7251 99.4383 5.77202 99.7855 5.86588C100.133 5.95973 100.386 6.07236 100.555 6.19437L100.274 7.9682C100.152 7.90251 100.011 7.84619 99.8512 7.78988C99.6917 7.74296 99.4946 7.7148 99.2693 7.7148C98.8657 7.7148 98.5466 7.80865 98.2932 7.98698C98.0492 8.1653 97.9272 8.47502 97.9272 8.92551V9.50741H100.471L100.48 9.51679ZM103.061 8.5501C102.479 8.5501 102.057 8.43747 101.794 8.22161C101.531 8.00575 101.4 7.65849 101.4 7.18922C101.4 6.71995 101.531 6.3633 101.794 6.13805C102.057 5.92219 102.479 5.80957 103.061 5.80957C103.643 5.80957 104.046 5.92219 104.319 6.13805C104.591 6.35392 104.722 6.70118 104.722 7.18922C104.722 7.67726 104.591 8.00575 104.319 8.22161C104.046 8.43747 103.634 8.5501 103.061 8.5501ZM104.478 9.51679V17.8979H101.625V9.51679H104.478Z" fill="#39A900"/>
<path d="M110.485 9.34766C111.329 9.34766 112.043 9.46967 112.606 9.71369C113.169 9.95771 113.61 10.2768 113.92 10.671C114.23 11.0652 114.436 11.4875 114.52 11.9474L111.893 12.8202C111.827 12.3416 111.686 11.9756 111.47 11.7409C111.254 11.4969 110.954 11.3843 110.569 11.3843C110.034 11.3843 109.631 11.572 109.359 11.9568C109.086 12.3416 108.946 12.9329 108.946 13.7494C108.946 14.5659 109.096 15.1666 109.387 15.5139C109.678 15.8611 110.081 16.0394 110.588 16.0394C111.386 16.0394 111.846 15.5889 111.977 14.6786L114.539 15.5045C114.417 16.2271 114.014 16.8372 113.329 17.3346C112.643 17.8227 111.733 18.0761 110.607 18.0761C109.236 18.0761 108.138 17.6913 107.312 16.931C106.487 16.1708 106.083 15.0915 106.083 13.7212C106.083 12.8015 106.271 12.0225 106.646 11.3749C107.022 10.7273 107.538 10.2299 108.195 9.88262C108.852 9.53536 109.621 9.36643 110.494 9.36643L110.485 9.34766Z" fill="#39A900"/>
<path d="M120.686 12.5857C120.686 12.1915 120.574 11.8818 120.358 11.6566C120.142 11.4313 119.851 11.3093 119.476 11.3093C119.1 11.3093 118.791 11.4032 118.528 11.5815C118.265 11.7598 118.087 12.0883 117.983 12.5576L115.571 11.9851C115.731 11.1779 116.144 10.5397 116.81 10.0611C117.477 9.5824 118.425 9.33838 119.645 9.33838C120.865 9.33838 121.822 9.61055 122.498 10.1549C123.174 10.6993 123.511 11.4876 123.511 12.5294V15.5984C123.511 16.0302 123.709 16.2554 124.093 16.2554C124.29 16.2554 124.459 16.2366 124.581 16.1897L124.412 17.8134C124.075 17.9729 123.671 18.048 123.192 18.048C122.667 18.048 122.216 17.9448 121.831 17.7383C121.447 17.5318 121.193 17.2127 121.062 16.7904C120.827 17.2221 120.452 17.5506 119.945 17.7571C119.438 17.9635 118.894 18.0668 118.331 18.0668C117.467 18.0668 116.782 17.8697 116.275 17.4755C115.769 17.0813 115.515 16.5088 115.515 15.758C115.515 15.1573 115.693 14.6505 116.059 14.2563C116.426 13.8621 116.998 13.5806 117.777 13.4304L120.677 12.8297V12.5951L120.686 12.5857ZM118.34 15.4858C118.34 15.7298 118.434 15.9175 118.612 16.0395C118.791 16.1616 119.006 16.2273 119.251 16.2273C119.626 16.2273 119.964 16.1146 120.255 15.88C120.546 15.6454 120.686 15.2887 120.686 14.8007V14.3314L119.326 14.613C118.988 14.6787 118.744 14.7819 118.584 14.9039C118.425 15.0353 118.34 15.223 118.34 15.4858Z" fill="#39A900"/>
<path d="M129.621 9.34766C130.476 9.34766 131.179 9.46967 131.743 9.71369C132.306 9.95771 132.747 10.2768 133.057 10.671C133.366 11.0652 133.573 11.4875 133.657 11.9474L131.029 12.8202C130.964 12.3416 130.823 11.9756 130.607 11.7409C130.391 11.4969 130.091 11.3843 129.706 11.3843C129.171 11.3843 128.767 11.572 128.495 11.9568C128.223 12.3416 128.082 12.9329 128.082 13.7494C128.082 14.5659 128.232 15.1666 128.523 15.5139C128.814 15.8705 129.218 16.0394 129.725 16.0394C130.522 16.0394 130.982 15.5889 131.114 14.6786L133.676 15.5045C133.554 16.2271 133.15 16.8372 132.465 17.3346C131.78 17.832 130.87 18.0761 129.743 18.0761C128.373 18.0761 127.275 17.6913 126.449 16.931C125.623 16.1708 125.22 15.0915 125.22 13.7212C125.22 12.8015 125.407 12.0225 125.783 11.3749C126.158 10.7273 126.674 10.2299 127.331 9.88262C127.988 9.53536 128.758 9.36643 129.631 9.36643L129.621 9.34766Z" fill="#39A900"/>
<path d="M136.576 8.5501C135.994 8.5501 135.572 8.43748 135.309 8.22161C135.046 8.00575 134.915 7.65849 134.915 7.18922C134.915 6.71995 135.046 6.36331 135.309 6.13806C135.572 5.92219 135.994 5.80957 136.576 5.80957C137.158 5.80957 137.562 5.92219 137.834 6.13806C138.106 6.35392 138.237 6.70118 138.237 7.18922C138.237 7.67726 138.106 8.00575 137.834 8.22161C137.562 8.43748 137.149 8.5501 136.576 8.5501ZM138.003 9.5168V17.8979H135.15V9.5168H138.003Z" fill="#39A900"/>
<path d="M144.019 9.34768C144.901 9.34768 145.671 9.51662 146.337 9.86388C147.003 10.2111 147.52 10.7086 147.895 11.3562C148.27 12.0037 148.458 12.7827 148.458 13.7025C148.458 14.6223 148.27 15.4013 147.895 16.0488C147.52 16.6964 147.003 17.1939 146.337 17.5411C145.671 17.8884 144.901 18.0573 144.019 18.0573C143.137 18.0573 142.376 17.8884 141.71 17.5411C141.044 17.1939 140.527 16.6964 140.152 16.0488C139.777 15.4013 139.589 14.6223 139.589 13.7025C139.589 12.7827 139.777 12.0037 140.152 11.3562C140.527 10.7086 141.044 10.2111 141.71 9.86388C142.376 9.51662 143.146 9.34768 144.019 9.34768ZM144.019 11.3843C143.531 11.3843 143.146 11.5626 142.874 11.9287C142.602 12.2947 142.461 12.886 142.461 13.7119C142.461 14.5378 142.602 15.1197 142.874 15.4857C143.146 15.8518 143.531 16.0395 144.019 16.0395C144.507 16.0395 144.91 15.8518 145.183 15.4857C145.455 15.1197 145.596 14.5284 145.596 13.7119C145.596 12.8954 145.455 12.2853 145.183 11.9287C144.91 11.5626 144.516 11.3843 144.019 11.3843ZM143.85 5.52783H146.497L144.807 8.42792H142.733L143.859 5.52783H143.85Z" fill="#39A900"/>
<path d="M150.072 17.8977V9.51659H152.616L152.7 11.206C152.954 10.5959 153.329 10.1266 153.826 9.81693C154.314 9.50721 154.896 9.34766 155.572 9.34766C156.436 9.34766 157.13 9.60106 157.665 10.0985C158.2 10.6053 158.472 11.3374 158.472 12.3134V17.8977H155.619V13.0737C155.619 12.4918 155.506 12.0882 155.281 11.8629C155.056 11.6377 154.774 11.5251 154.427 11.5251C154.014 11.5251 153.657 11.6658 153.367 11.9568C153.076 12.2477 152.925 12.7452 152.925 13.4491V17.8884H150.072V17.8977Z" fill="#39A900"/>
<path d="M64.6374 29.311C64.3089 30.4747 63.7176 31.3194 62.8541 31.8544C61.9907 32.3894 60.9677 32.6522 59.7945 32.6522C58.6213 32.6522 57.6922 32.4269 56.885 31.9764C56.0779 31.5259 55.4491 30.8689 55.0173 30.0243C54.5856 29.1796 54.3604 28.1566 54.3604 26.9552C54.3604 25.7539 54.5762 24.7403 55.0173 23.8862C55.4584 23.0321 56.0779 22.3845 56.885 21.934C57.6922 21.4836 58.6589 21.2583 59.7757 21.2583C60.8926 21.2583 61.9344 21.5023 62.7884 21.9997C63.6519 22.4878 64.215 23.2668 64.4966 24.3086L61.9625 25.3316C61.803 24.6464 61.5496 24.1772 61.2023 23.9144C60.855 23.6516 60.4045 23.5202 59.8696 23.5202C59.0624 23.5202 58.4336 23.8111 57.9831 24.393C57.5326 24.9749 57.3074 25.829 57.3074 26.9552C57.3074 28.0815 57.5232 28.9355 57.955 29.5174C58.3867 30.0993 59.0343 30.3903 59.8883 30.3903C60.4233 30.3903 60.8832 30.2401 61.2586 29.9492C61.634 29.6488 61.8874 29.1983 62.0188 28.5789L64.6374 29.3203V29.311Z" fill="#39A900"/>
<path d="M70.0339 23.9331C70.9161 23.9331 71.6951 24.102 72.3521 24.4493C73.0185 24.7966 73.5347 25.294 73.9101 25.9416C74.2855 26.5892 74.4732 27.3682 74.4732 28.2879C74.4732 29.2077 74.2855 29.9867 73.9101 30.6343C73.5347 31.2819 73.0185 31.7793 72.3521 32.1265C71.6857 32.4738 70.9161 32.6427 70.0339 32.6427C69.1517 32.6427 68.3915 32.4738 67.7251 32.1265C67.0587 31.7793 66.5425 31.2819 66.1671 30.6343C65.7917 29.9867 65.604 29.2077 65.604 28.2879C65.604 27.3682 65.7917 26.5892 66.1671 25.9416C66.5425 25.294 67.0587 24.7966 67.7251 24.4493C68.3915 24.102 69.1611 23.9331 70.0339 23.9331ZM70.0339 25.9603C69.5459 25.9603 69.1611 26.1387 68.8889 26.5047C68.6167 26.8707 68.4759 27.462 68.4759 28.2879C68.4759 29.1138 68.6167 29.6957 68.8889 30.0618C69.1611 30.4278 69.5459 30.6155 70.0339 30.6155C70.5219 30.6155 70.9255 30.4278 71.1977 30.0618C71.4699 29.6957 71.6107 29.1045 71.6107 28.2879C71.6107 27.4714 71.4699 26.8613 71.1977 26.5047C70.9255 26.1481 70.5313 25.9603 70.0339 25.9603Z" fill="#39A900"/>
<path d="M76.0876 32.4832V24.102H78.6311L78.7155 25.7257C78.9877 25.1344 79.3631 24.6839 79.8512 24.3836C80.3392 24.0833 80.9023 23.9331 81.5311 23.9331C82.16 23.9331 82.6855 24.0739 83.1454 24.3554C83.6053 24.637 83.9526 25.05 84.1778 25.5943C84.4312 25.05 84.816 24.637 85.3228 24.3554C85.8296 24.0739 86.3834 23.9331 86.9934 23.9331C87.8193 23.9331 88.5045 24.1771 89.0488 24.6746C89.5932 25.172 89.8654 25.9134 89.8654 26.8989V32.4832H87.0122V27.5559C87.0122 27.0209 86.909 26.6455 86.6931 26.4296C86.4772 26.2138 86.2051 26.1105 85.8672 26.1105C85.4448 26.1105 85.0882 26.2701 84.816 26.5892C84.5345 26.9083 84.3937 27.3775 84.3937 28.0064V32.4832H81.5405V27.5559C81.5405 27.0209 81.4373 26.6455 81.2214 26.4296C81.0056 26.2138 80.7334 26.1105 80.3955 26.1105C80.0013 26.1105 79.6634 26.2607 79.3631 26.561C79.0628 26.8613 78.922 27.3588 78.922 28.0533V32.4738H76.0688L76.0876 32.4832Z" fill="#39A900"/>
<path d="M91.8645 36.0027V24.102H94.4267L94.5111 25.7914C94.7458 25.2283 95.1024 24.7872 95.5717 24.4399C96.0504 24.102 96.6041 23.9331 97.2517 23.9331C98.2841 23.9331 99.11 24.3085 99.7388 25.0687C100.368 25.829 100.687 26.8895 100.687 28.2504C100.687 29.6113 100.368 30.7187 99.72 31.4883C99.0818 32.2579 98.2465 32.6427 97.2141 32.6427C96.6135 32.6427 96.0973 32.4926 95.6749 32.2016C95.2526 31.9013 94.9241 31.5165 94.6989 31.0378V36.0027H91.8457H91.8645ZM96.2475 30.5498C96.7355 30.5498 97.1203 30.3715 97.4018 30.0054C97.6834 29.6394 97.8242 29.0669 97.8242 28.2879C97.8242 27.5089 97.6834 26.9364 97.4112 26.5704C97.1391 26.2044 96.7543 26.026 96.2662 26.026C95.7782 26.026 95.4028 26.2231 95.1306 26.6079C94.849 26.9927 94.7082 27.5559 94.7082 28.2879C94.7082 29.02 94.8396 29.5456 95.1118 29.9491C95.384 30.3527 95.7594 30.5498 96.2475 30.5498Z" fill="#39A900"/>
<path d="M106.459 32.652C105.06 32.652 103.962 32.2766 103.146 31.5164C102.339 30.7562 101.935 29.6862 101.935 28.2972C101.935 27.3774 102.123 26.5984 102.498 25.9415C102.874 25.2845 103.39 24.7871 104.037 24.4492C104.694 24.1113 105.455 23.9424 106.327 23.9424C107.2 23.9424 107.96 24.1113 108.58 24.4492C109.199 24.7871 109.669 25.2563 109.997 25.857C110.326 26.4577 110.485 27.1428 110.485 27.9124C110.485 28.1283 110.485 28.3254 110.457 28.5225C110.438 28.7195 110.429 28.8791 110.419 29.0199H104.704C104.779 29.6018 104.976 30.0147 105.276 30.2681C105.577 30.5215 105.971 30.6435 106.468 30.6435C106.891 30.6435 107.228 30.5591 107.482 30.3901C107.735 30.2212 107.923 29.9866 108.045 29.6862L110.326 30.4371C110.166 30.9157 109.894 31.3193 109.509 31.6478C109.124 31.9763 108.664 32.2297 108.139 32.3892C107.613 32.5488 107.05 32.6426 106.468 32.6426L106.459 32.652ZM106.327 25.9227C105.426 25.9227 104.882 26.4389 104.723 27.4807H107.792C107.67 26.4389 107.181 25.9227 106.337 25.9227H106.327Z" fill="#39A900"/>
<path d="M117.975 24.1019V26.1291H115.478V29.4985C115.478 29.902 115.572 30.193 115.769 30.3619C115.966 30.5402 116.238 30.6247 116.586 30.6247C116.858 30.6247 117.083 30.5965 117.271 30.5309C117.458 30.4652 117.637 30.3807 117.806 30.2587L118.106 32.0231C117.824 32.2108 117.468 32.3704 117.045 32.483C116.614 32.5956 116.182 32.6613 115.75 32.6613C114.793 32.6613 114.033 32.4549 113.479 32.0513C112.925 31.6477 112.644 30.9532 112.634 29.9771V26.1385H111.189V24.1113H112.634V22.2342L115.487 21.4458V24.1113H117.984L117.975 24.1019Z" fill="#39A900"/>
<path d="M123.39 32.652C121.992 32.652 120.893 32.2766 120.077 31.5164C119.27 30.7562 118.866 29.6862 118.866 28.2972C118.866 27.3774 119.054 26.5984 119.429 25.9415C119.805 25.2845 120.321 24.7871 120.969 24.4492C121.626 24.1113 122.386 23.9424 123.259 23.9424C124.131 23.9424 124.892 24.1113 125.511 24.4492C126.13 24.7871 126.6 25.2563 126.928 25.857C127.257 26.4577 127.416 27.1428 127.416 27.9124C127.416 28.1283 127.416 28.3254 127.388 28.5225C127.369 28.7195 127.36 28.8791 127.351 29.0199H121.635C121.71 29.6018 121.907 30.0147 122.207 30.2681C122.508 30.5215 122.902 30.6435 123.399 30.6435C123.822 30.6435 124.16 30.5591 124.413 30.3901C124.666 30.2212 124.854 29.9866 124.976 29.6862L127.257 30.4371C127.097 30.9157 126.825 31.3193 126.44 31.6478C126.055 31.9763 125.596 32.2297 125.07 32.3892C124.544 32.5488 123.981 32.6426 123.399 32.6426L123.39 32.652ZM123.249 25.9227C122.348 25.9227 121.804 26.4389 121.644 27.4807H124.713C124.591 26.4389 124.103 25.9227 123.259 25.9227H123.249Z" fill="#39A900"/>
<path d="M129.002 32.4832V24.102H131.546L131.63 25.7914C131.884 25.1814 132.259 24.7121 132.757 24.4024C133.245 24.0927 133.827 23.9331 134.502 23.9331C135.366 23.9331 136.06 24.1865 136.595 24.6839C137.13 25.1907 137.402 25.9228 137.402 26.8989V32.4832H134.549V27.6591C134.549 27.0772 134.437 26.6736 134.211 26.4484C133.986 26.2231 133.705 26.1105 133.357 26.1105C132.944 26.1105 132.588 26.2513 132.297 26.5422C132.006 26.8332 131.856 27.3306 131.856 28.0345V32.4738H129.002V32.4832Z" fill="#39A900"/>
<path d="M143.362 23.9331C144.216 23.9331 144.92 24.0551 145.483 24.2991C146.046 24.5432 146.488 24.8623 146.797 25.2564C147.107 25.6506 147.313 26.073 147.398 26.5329L144.77 27.4057C144.704 26.927 144.564 26.561 144.348 26.3264C144.132 26.0824 143.831 25.9697 143.447 25.9697C142.912 25.9697 142.508 26.1574 142.236 26.5422C141.964 26.927 141.823 27.5183 141.823 28.3349C141.823 29.1514 141.973 29.752 142.264 30.0993C142.555 30.4466 142.959 30.6249 143.465 30.6249C144.263 30.6249 144.723 30.1744 144.854 29.264L147.417 30.0899C147.295 30.8126 146.891 31.4226 146.206 31.9201C145.521 32.4175 144.61 32.6615 143.484 32.6615C142.114 32.6615 141.016 32.2767 140.19 31.5165C139.364 30.7563 138.96 29.677 138.96 28.3067C138.96 27.3869 139.148 26.6079 139.524 25.9603C139.899 25.3128 140.415 24.8153 141.072 24.4681C141.729 24.1208 142.499 23.9519 143.372 23.9519L143.362 23.9331Z" fill="#39A900"/>
<path d="M150.316 23.1258C149.735 23.1258 149.312 23.0132 149.049 22.7973C148.787 22.5814 148.655 22.2342 148.655 21.7649C148.655 21.2956 148.787 20.939 149.049 20.7137C149.312 20.4979 149.735 20.3853 150.316 20.3853C150.898 20.3853 151.302 20.4979 151.574 20.7137C151.846 20.9296 151.978 21.2769 151.978 21.7649C151.978 22.2529 151.846 22.5814 151.574 22.7973C151.302 23.0132 150.889 23.1258 150.316 23.1258ZM151.743 24.1019V32.483H148.89V24.1019H151.743Z" fill="#39A900"/>
<path d="M158.444 27.1707C158.444 26.7765 158.332 26.4668 158.116 26.2415C157.9 26.0163 157.609 25.8943 157.234 25.8943C156.858 25.8943 156.548 25.9881 156.286 26.1664C156.023 26.3542 155.845 26.6733 155.741 27.1425L153.329 26.57C153.489 25.7629 153.902 25.1247 154.568 24.646C155.234 24.1674 156.182 23.9233 157.403 23.9233C158.623 23.9233 159.58 24.1955 160.256 24.7399C160.931 25.2842 161.269 26.0726 161.269 27.1144V30.1834C161.269 30.6151 161.466 30.8404 161.851 30.8404C162.048 30.8404 162.217 30.8216 162.339 30.7747L162.17 32.3983C161.832 32.5579 161.429 32.633 160.95 32.633C160.425 32.633 159.974 32.5297 159.589 32.3233C159.214 32.1168 158.951 31.7977 158.82 31.3753C158.585 31.8071 158.21 32.1356 157.703 32.342C157.196 32.5485 156.652 32.6517 156.089 32.6517C155.225 32.6517 154.54 32.4547 154.033 32.0605C153.526 31.6663 153.273 31.0938 153.273 30.3429C153.273 29.7423 153.451 29.2355 153.817 28.8413C154.183 28.4471 154.756 28.1655 155.535 28.0154L158.435 27.4147V27.1801L158.444 27.1707ZM156.098 30.0708C156.098 30.3148 156.192 30.5025 156.37 30.6245C156.548 30.7465 156.764 30.8122 157.008 30.8122C157.384 30.8122 157.722 30.6996 158.013 30.465C158.304 30.2303 158.444 29.8737 158.444 29.3856V28.9164L157.083 29.1979C156.746 29.2636 156.502 29.3669 156.342 29.4889C156.182 29.6203 156.098 29.808 156.098 30.0708Z" fill="#39A900"/>
<path d="M166.994 32.6521C166.159 32.6521 165.38 32.5113 164.667 32.2392C163.953 31.967 163.353 31.5728 162.874 31.0566L164.216 29.4799C164.498 29.8365 164.864 30.1368 165.333 30.3809C165.793 30.6249 166.309 30.7375 166.882 30.7375C167.229 30.7375 167.51 30.6906 167.736 30.5873C167.961 30.4841 168.074 30.3339 168.074 30.1181C168.074 29.9773 168.017 29.8459 167.905 29.752C167.792 29.6488 167.567 29.5643 167.238 29.4986L166.065 29.264C165.014 29.0481 164.272 28.7384 163.831 28.3161C163.39 27.8937 163.165 27.3494 163.165 26.6643C163.165 26.2044 163.306 25.7726 163.587 25.3597C163.869 24.9467 164.301 24.6089 164.882 24.3367C165.464 24.0645 166.206 23.9331 167.116 23.9331C168.853 23.9331 170.11 24.4118 170.908 25.3785L169.547 26.9177C169.275 26.5798 168.928 26.317 168.505 26.1293C168.083 25.9416 167.661 25.8477 167.229 25.8477C166.412 25.8477 166.009 26.0542 166.009 26.4672C166.009 26.6079 166.084 26.7393 166.215 26.852C166.356 26.9646 166.619 27.0491 166.994 27.1241L168.524 27.4245C169.387 27.5934 170.007 27.8844 170.382 28.2879C170.767 28.7009 170.955 29.1889 170.955 29.7708C170.955 30.5873 170.626 31.2725 169.979 31.8262C169.331 32.38 168.336 32.6521 167.022 32.6521H166.994Z" fill="#39A900"/>
<path d="M180.284 30.2491H185.831V32.4829H177.403V21.4175H180.284V30.2491Z" fill="#39A900"/>
<path d="M191.969 27.1707C191.969 26.7765 191.856 26.4668 191.64 26.2415C191.424 26.0163 191.133 25.8943 190.758 25.8943C190.383 25.8943 190.073 25.9881 189.81 26.1664C189.547 26.3542 189.369 26.6733 189.266 27.1425L186.854 26.57C187.013 25.7629 187.426 25.1247 188.093 24.646C188.759 24.1674 189.707 23.9233 190.927 23.9233C192.147 23.9233 193.104 24.1955 193.78 24.7399C194.456 25.2842 194.794 26.0726 194.794 27.1144V30.1834C194.794 30.6151 194.991 30.8404 195.376 30.8404C195.573 30.8404 195.742 30.8216 195.864 30.7747L195.695 32.3983C195.357 32.5579 194.953 32.633 194.475 32.633C193.949 32.633 193.499 32.5297 193.114 32.3233C192.738 32.1168 192.476 31.7977 192.344 31.3753C192.109 31.8071 191.734 32.1356 191.227 32.342C190.72 32.5485 190.176 32.6517 189.613 32.6517C188.75 32.6517 188.064 32.4547 187.558 32.0605C187.051 31.6663 186.797 31.0938 186.797 30.3429C186.797 29.7423 186.976 29.2355 187.342 28.8413C187.708 28.4471 188.28 28.1655 189.059 28.0154L191.959 27.4147V27.1801L191.969 27.1707ZM189.622 30.0708C189.622 30.3148 189.716 30.5025 189.895 30.6245C190.073 30.7465 190.289 30.8122 190.533 30.8122C190.908 30.8122 191.246 30.6996 191.537 30.465C191.828 30.2303 191.969 29.8737 191.969 29.3856V28.9164L190.608 29.1979C190.27 29.2636 190.026 29.3669 189.866 29.4889C189.707 29.6203 189.622 29.808 189.622 30.0708Z" fill="#39A900"/>
<path d="M202.377 32.652C201.692 32.652 201.11 32.4643 200.632 32.0982C200.153 31.7322 199.806 31.2442 199.59 30.6435L199.487 32.483H196.99V20.5542H199.843V25.5472C200.069 25.0686 200.397 24.6744 200.838 24.3834C201.279 24.0831 201.824 23.9423 202.471 23.9423C203.119 23.9423 203.691 24.1113 204.198 24.4585C204.705 24.8058 205.099 25.3032 205.39 25.9602C205.681 26.6172 205.822 27.4055 205.822 28.3347C205.822 29.6956 205.503 30.7561 204.865 31.5163C204.226 32.2765 203.391 32.652 202.368 32.652H202.377ZM201.392 30.5496C201.88 30.5496 202.265 30.3713 202.546 30.0053C202.828 29.6393 202.969 29.0667 202.969 28.2878C202.969 27.5088 202.828 26.9363 202.546 26.5702C202.265 26.2042 201.88 26.0259 201.392 26.0259C200.904 26.0259 200.538 26.223 200.256 26.6265C199.975 27.0301 199.843 27.5839 199.843 28.3065C199.843 29.0292 199.984 29.5923 200.266 29.9771C200.547 30.3619 200.923 30.559 201.392 30.559V30.5496Z" fill="#39A900"/>
<path d="M211.5 23.9331C212.382 23.9331 213.152 24.102 213.818 24.4493C214.484 24.7966 215 25.294 215.376 25.9416C215.751 26.5892 215.939 27.3682 215.939 28.2879C215.939 29.2077 215.751 29.9867 215.376 30.6343C215 31.2819 214.484 31.7793 213.818 32.1265C213.152 32.4738 212.382 32.6427 211.5 32.6427C210.618 32.6427 209.857 32.4738 209.191 32.1265C208.525 31.7793 208.008 31.2819 207.633 30.6343C207.258 29.9867 207.07 29.2077 207.07 28.2879C207.07 27.3682 207.258 26.5892 207.633 25.9416C208.008 25.294 208.525 24.7966 209.191 24.4493C209.857 24.102 210.627 23.9331 211.5 23.9331ZM211.5 25.9603C211.012 25.9603 210.627 26.1387 210.355 26.5047C210.083 26.8707 209.942 27.462 209.942 28.2879C209.942 29.1138 210.083 29.6957 210.355 30.0618C210.627 30.4278 211.012 30.6155 211.5 30.6155C211.988 30.6155 212.391 30.4278 212.664 30.0618C212.936 29.6957 213.076 29.1045 213.076 28.2879C213.076 27.4714 212.936 26.8613 212.664 26.5047C212.391 26.1387 211.997 25.9603 211.5 25.9603Z" fill="#39A900"/>
<path d="M217.544 32.4831V24.1019H220.059L220.181 25.9133C220.378 25.3033 220.688 24.8152 221.11 24.468C221.533 24.1113 222.068 23.9424 222.725 23.9424C222.941 23.9424 223.119 23.9612 223.269 23.9987C223.419 24.0362 223.541 24.0832 223.626 24.1207L223.344 26.4671C223.232 26.4295 223.091 26.4014 222.912 26.3638C222.734 26.3263 222.528 26.3169 222.284 26.3169C221.767 26.3169 221.326 26.4764 220.951 26.8049C220.576 27.1334 220.388 27.6121 220.388 28.2597V32.4831H217.535H217.544Z" fill="#39A900"/>
<path d="M229.332 27.1707C229.332 26.7765 229.219 26.4668 229.004 26.2415C228.788 26.0163 228.497 25.8943 228.121 25.8943C227.746 25.8943 227.436 25.9881 227.173 26.1664C226.911 26.3542 226.732 26.6733 226.629 27.1425L224.217 26.57C224.377 25.7629 224.789 25.1247 225.456 24.646C226.122 24.1674 227.07 23.9233 228.29 23.9233C229.51 23.9233 230.468 24.1955 231.143 24.7399C231.819 25.2842 232.157 26.0726 232.157 27.1144V30.1834C232.157 30.6151 232.354 30.8404 232.739 30.8404C232.936 30.8404 233.105 30.8216 233.227 30.7747L233.058 32.3983C232.72 32.5579 232.317 32.633 231.838 32.633C231.312 32.633 230.862 32.5297 230.477 32.3233C230.102 32.1168 229.839 31.7977 229.707 31.3753C229.473 31.8071 229.097 32.1356 228.591 32.342C228.084 32.5485 227.539 32.6517 226.976 32.6517C226.113 32.6517 225.428 32.4547 224.921 32.0605C224.414 31.6663 224.161 31.0938 224.161 30.3429C224.161 29.7423 224.339 29.2355 224.705 28.8413C225.071 28.4471 225.644 28.1655 226.423 28.0154L229.323 27.4147V27.1801L229.332 27.1707ZM226.986 30.0708C226.986 30.3148 227.08 30.5025 227.258 30.6245C227.436 30.7465 227.652 30.8122 227.896 30.8122C228.271 30.8122 228.609 30.6996 228.9 30.465C229.191 30.2303 229.332 29.8737 229.332 29.3856V28.9164L227.971 29.1979C227.633 29.2636 227.389 29.3669 227.23 29.4889C227.07 29.6203 226.986 29.808 226.986 30.0708Z" fill="#39A900"/>
<path d="M237.169 20.545V29.6301C237.169 29.9961 237.235 30.2589 237.357 30.4185C237.479 30.578 237.685 30.6531 237.976 30.6531C238.145 30.6531 238.286 30.6437 238.398 30.6155C238.511 30.5968 238.642 30.5592 238.802 30.5123L238.614 32.2205C238.417 32.3425 238.154 32.4457 237.826 32.5208C237.497 32.5959 237.188 32.6334 236.869 32.6334C235.977 32.6334 235.329 32.4269 234.926 32.014C234.522 31.601 234.325 30.9253 234.325 29.9867V20.5356H237.178L237.169 20.545Z" fill="#39A900"/>
<path d="M243.927 32.652C242.528 32.652 241.43 32.2766 240.614 31.5164C239.806 30.7562 239.403 29.6862 239.403 28.2972C239.403 27.3774 239.591 26.5984 239.966 25.9415C240.341 25.2845 240.858 24.7871 241.505 24.4492C242.162 24.1113 242.922 23.9424 243.795 23.9424C244.668 23.9424 245.428 24.1113 246.048 24.4492C246.667 24.7871 247.136 25.2563 247.465 25.857C247.784 26.4577 247.953 27.1428 247.953 27.9124C247.953 28.1283 247.953 28.3254 247.925 28.5225C247.906 28.7195 247.897 28.8791 247.887 29.0199H242.172C242.247 29.6018 242.444 30.0147 242.744 30.2681C243.044 30.5215 243.439 30.6435 243.936 30.6435C244.358 30.6435 244.696 30.5591 244.95 30.3901C245.203 30.2212 245.391 29.9866 245.513 29.6862L247.793 30.4371C247.634 30.9157 247.362 31.3193 246.977 31.6478C246.592 31.9763 246.132 32.2297 245.607 32.3892C245.081 32.5488 244.518 32.6426 243.936 32.6426L243.927 32.652ZM243.795 25.9227C242.894 25.9227 242.35 26.4389 242.19 27.4807H245.259C245.137 26.4389 244.649 25.9227 243.805 25.9227H243.795Z" fill="#39A900"/>
<path d="M253.058 32.6521C252.223 32.6521 251.444 32.5113 250.731 32.2392C250.017 31.967 249.417 31.5728 248.938 31.0566L250.28 29.4799C250.562 29.8365 250.928 30.1368 251.397 30.3809C251.857 30.6249 252.373 30.7375 252.946 30.7375C253.293 30.7375 253.574 30.6906 253.8 30.5873C254.025 30.4841 254.137 30.3339 254.137 30.1181C254.137 29.9773 254.081 29.8459 253.969 29.752C253.856 29.6488 253.631 29.5643 253.302 29.4986L252.129 29.264C251.078 29.0481 250.336 28.7384 249.895 28.3161C249.454 27.8937 249.229 27.3494 249.229 26.6643C249.229 26.2044 249.37 25.7726 249.651 25.3597C249.933 24.9467 250.365 24.6089 250.946 24.3367C251.528 24.0645 252.27 23.9331 253.18 23.9331C254.916 23.9331 256.174 24.4118 256.972 25.3785L255.611 26.9177C255.339 26.5798 254.992 26.317 254.569 26.1293C254.147 25.9416 253.725 25.8477 253.293 25.8477C252.476 25.8477 252.073 26.0542 252.073 26.4672C252.073 26.6079 252.148 26.7393 252.279 26.852C252.42 26.9646 252.683 27.0491 253.058 27.1241L254.588 27.4245C255.451 27.5934 256.071 27.8844 256.446 28.2879C256.831 28.7009 257.019 29.1889 257.019 29.7708C257.019 30.5873 256.69 31.2725 256.043 31.8262C255.395 32.38 254.4 32.6521 253.086 32.6521H253.058Z" fill="#39A900"/>
</g>
<defs>
<clipPath id="clip0_882_2659">
<rect width="257" height="37.2788" fill="white"/>
</clipPath>
</defs>
</svg>
