<svg width="35" height="35" viewBox="0 0 35 35" fill="none" xmlns="http://www.w3.org/2000/svg">
<rect width="35" height="35" rx="17.5" fill="#7A1F7E"/>
<path d="M11.7916 25.5V22.86C13.1516 22.012 14.3116 21.22 15.2716 20.484C16.2316 19.748 17.0076 19.052 17.5996 18.396C18.2076 17.74 18.6556 17.116 18.9436 16.524C19.2316 15.932 19.3756 15.356 19.3756 14.796C19.3756 14.188 19.1916 13.684 18.8236 13.284C18.4716 12.868 17.9436 12.66 17.2396 12.66C16.4876 12.66 15.9036 12.94 15.4876 13.5C15.0716 14.044 14.8476 14.844 14.8156 15.9L11.2876 14.82C11.3196 13.636 11.5996 12.644 12.1276 11.844C12.6716 11.044 13.4076 10.444 14.3356 10.044C15.2636 9.628 16.3196 9.42 17.5036 9.42C18.5436 9.42 19.4396 9.572 20.1916 9.876C20.9596 10.164 21.5836 10.556 22.0636 11.052C22.5436 11.532 22.8956 12.076 23.1196 12.684C23.3596 13.276 23.4796 13.884 23.4796 14.508C23.4796 15.532 23.2156 16.492 22.6876 17.388C22.1596 18.268 21.3916 19.124 20.3836 19.956C19.3916 20.772 18.1836 21.596 16.7596 22.428V22.452C17.0316 22.436 17.3516 22.42 17.7196 22.404C18.0876 22.388 18.4716 22.38 18.8716 22.38C19.2716 22.364 19.6316 22.356 19.9516 22.356H23.6716V25.5H11.7916Z" fill="white"/>
</svg>
