<svg width="35" height="35" viewBox="0 0 35 35" fill="none" xmlns="http://www.w3.org/2000/svg">
<rect width="35" height="35" rx="17.5" fill="#7A1F7E"/>
<path d="M16.916 25.5V16.38C16.916 15.964 16.916 15.54 16.916 15.108C16.932 14.66 16.94 14.204 16.94 13.74C16.412 14.22 15.828 14.644 15.188 15.012C14.548 15.364 13.876 15.604 13.172 15.732L12.788 12.324C13.204 12.292 13.644 12.188 14.108 12.012C14.588 11.836 15.06 11.62 15.524 11.364C15.988 11.108 16.404 10.836 16.772 10.548C17.14 10.244 17.42 9.948 17.612 9.66H20.9V25.5H16.916Z" fill="white"/>
</svg>
