<svg width="14" height="14" viewBox="0 0 14 14" fill="none" xmlns="http://www.w3.org/2000/svg">
<circle cx="7" cy="7" r="7" fill="#315CA0"/>
<path d="M4.67166 3C5.17119 3.19697 5.64541 3.63294 5.95919 4.06434C6.15809 4.33727 6.46175 4.82285 6.20263 5.13324C5.79471 5.62187 4.92421 5.64871 5.18283 6.49785C5.32858 6.97585 6.08622 7.71208 6.46023 8.065C6.83424 8.41793 7.46637 9.02656 8.01043 8.83364C8.44112 8.68072 8.64458 7.6584 9.177 7.69081C9.74637 7.72575 10.6741 8.6311 10.9139 9.12732C10.9625 9.22758 11.0152 9.34758 10.9959 9.45999C10.9357 9.81342 10.2358 10.381 9.95134 10.6033C9.83544 10.6935 9.54291 10.9355 9.42701 10.9856C9.33541 11.0251 9.0444 10.973 8.93407 10.9522C7.81558 10.7416 6.18137 9.8276 5.33618 9.06504C4.39533 8.21589 3.40792 6.51152 3.10122 5.28262L3 4.73526V4.59449C3.26014 4.24157 3.51319 3.87649 3.8123 3.55445C4.01828 3.33267 4.24502 3.1114 4.53147 3H4.67166Z" fill="white"/>
</svg>
