<?xml version="1.0" encoding="UTF-8"?>
<svg id="Capa_1" xmlns="http://www.w3.org/2000/svg" width="20cm" height="8.5cm" viewBox="0 0 566.93 240.99">
  <defs>
    <style>
      .cls-1 {
        fill: #ffee3b;
      }

      .cls-2 {
        fill: #70267a;
      }

      .cls-3 {
        fill: #fff;
      }

      .cls-4 {
        fill: #d02e26;
      }

      .cls-5 {
        fill: #001bdb;
      }
    </style>
  </defs>
  <rect class="cls-2" x="-1.08" y="-.19" width="567.6" height="242.06"/>
  <g>
    <g>
      <rect class="cls-1" x="26.04" y="181.32" width="244.44" height="5.26"/>
      <rect class="cls-5" x="270.25" y="181.32" width="129.86" height="5.26"/>
      <rect class="cls-4" x="399.88" y="181.32" width="129.86" height="5.26"/>
    </g>
    <path class="cls-3" d="M541.91,58.57c-.04-15-.14-30-.23-45-.01-2.24-1.42-3.28-3.59-2.74-3.5.87-6.99,1.73-10.47,2.67-11.54,3.1-23.07,6.25-34.61,9.35-10.16,2.73-20.34,5.4-30.51,8.11-1.57.42-2.3,1.27-2.32,2.55-.02,1.26.65,2.74,2.14,3.2l33.06.16c-17.85,24-58.55,78.7-61.12,82.26-1.2,1.65-2.52,1.82-3.79-.14-1.37-2.1-2.96-4.06-4.36-6.14-7.67-11.43-15.31-22.88-22.95-34.32-9.62-14.4-19.43-28.67-28.75-43.25-4.13-6.45-13.45-9.91-21.21-9.56h-77.41c-26.96,0-37.06,23.46-51.42,42.96-5.33,7.24-10.44,14.64-15.62,21.98-5.25,7.44-10.49,14.89-15.7,22.36-3.77,5.41-7.41,10.91-11.22,16.29-2.78,3.92-5.61,7.79-8.44,11.67-2.82-2.89-5.64-5.79-8.47-8.68-2.85-2.9-3.09-5.06.85-7.17,2.25-1.2,4.29-2.86,6.23-4.54,14.39-12.39,18.89-28.38,17.34-46.77-.99-11.81-5.43-21.95-13.72-30.26-12.24-12.27-27.99-16.73-44.57-17.24-24.59-.76-49.21-.37-73.82-.09-2.55.03-5.97,1.99-7.46,4.12-5.78,8.28-10.97,16.98-16.32,25.56-1.37,2.19-2.54,4.51-4.33,7.73,3.12.22,4.93.46,6.74.46,30.63.02,61.26,0,91.9.04,3.43,0,6.9.09,10.3.56,7.51,1.03,13,6.43,14.26,13.64,1.13,6.49-2.17,13.11-9.23,16.07-4.28,1.8-9.25,2.69-13.92,2.73-31.32.22-62.64.09-93.96.11-5.8,0-7.07,1.15-7.09,6.88-.06,20.45.05,40.9-.07,61.35-.02,4.13,1.49,6.08,5.67,6.05,8.6-.06,17.21-.05,25.81-.03,3.8,0,5.63-1.6,5.54-5.63-.16-8.07.13-16.16-.11-24.23-.13-4.57,1.34-6.51,6.19-6.43,13.07.23,26.16-.09,39.23.24,2.58.07,5.7,1.46,7.55,3.28,9.68,9.52,18.89,19.52,28.62,28.99,2.08,2.03,5.59,3.52,8.49,3.61,6.39.19,12.78.05,19.16-.15,11.33-.05,21.94.1,33.42,0,0,0,61.54.41,92.27.16,7.44-.06,14.89.06,22.33.08,1.37,0,2.81,0,4-.67,4.92-2.72-.49-8.05-2.41-10.71-1.65-2.28-3.3-4.55-4.95-6.81-3.35-4.59-6.73-9.18-10.1-13.76-2.89-3.93-6.31-6.36-11.8-6.27-16.26.29-32.54.08-48.81.06-3.74,0-7.48,0-12,0,.8-1.59,1.07-2.34,1.52-2.96,6.33-8.79,12.84-17.45,18.98-26.37,6.2-9.01,12.14-18.18,18.19-27.28,2.48,4.15,5.2,8.17,8.01,12.09,11.51,16.05,23.18,31.98,34.84,47.92,7.38,10.08,13.03,18.64,20.64,28.55,4.12,5.37,12.57,6.21,12.57,6.21h39.72c4.63.05,10.42-1.32,6.72-6.8-4.58-6.77-9.31-13.44-13.99-20.14-12.56-17.96-25.08-35.94-37.69-53.87-6.23-8.85-12.47-17.7-18.88-26.42,7.94.24,12.94,1.53,18.25,9.07,11.11,15.77,22.13,31.61,33.39,47.28,7.99,11.12,16.15,22.12,24.35,33.09,4.83,6.45,9.44,12.61,17.13,15.79,11.05,4.57,22.85,1.47,31.43-6.47,5.18-4.79,8.78-10.82,12.84-16.52,4.34-6.1,8.86-12.06,13.21-18.16,2.62-3.67,26.51-36.51,44.1-60.68,2.9,4.92,5.79,9.84,8.7,14.74,2.24,3.77,4.51,7.51,6.8,11.25.77,1.26,1.86,1.7,3.04,1.36,1.17-.33,1.81-1.28,1.86-2.77.01-.34,0-.69,0-1.03.01-10.86.06-21.72.02-32.58Z"/>
  </g>
  <g>
    <path class="cls-3" d="M38.64,198.71c2.62,0,4.71.66,6.26,1.97,1.55,1.31,2.32,3.08,2.32,5.31,0,1.78-.48,3.25-1.43,4.4-.95,1.15-2.26,1.95-3.92,2.4l6.8,10.44h-4.57l-6.24-9.81h-5.28v9.81h-3.94v-24.52h10ZM38.35,210.12c3.17,0,4.76-1.34,4.76-4.01s-1.59-4.01-4.76-4.01h-5.76v8.03h5.76Z"/>
    <path class="cls-3" d="M59.34,223.61c-1.21,0-2.33-.22-3.36-.67-1.03-.45-1.85-1.16-2.47-2.16-.62-.99-.93-2.28-.93-3.87v-12.26h3.98v11.26c0,1.68.35,2.84,1.06,3.47s1.71.95,3.03.95c.84,0,1.63-.19,2.38-.58.74-.38,1.34-.99,1.8-1.82.46-.83.69-1.9.69-3.21v-10.07h3.98v18.58h-3.49l-.19-3.01c-.64,1.17-1.51,2.02-2.6,2.56-1.09.54-2.38.82-3.87.82Z"/>
    <path class="cls-3" d="M87.51,204.66v3.12h-6.39v9.88c0,.89.25,1.56.74,1.99.5.43,1.14.65,1.93.65.69,0,1.28-.11,1.76-.32.48-.21.93-.5,1.36-.87l.89,2.9c-.57.5-1.27.89-2.1,1.17s-1.75.43-2.77.43c-1.63,0-3.01-.4-4.12-1.21-1.12-.8-1.67-2.16-1.67-4.07v-10.55h-3.57v-3.12h3.57v-4.35l3.98-1.12v5.46h6.39Z"/>
    <path class="cls-3" d="M102.3,211.31c0-1.24-.34-2.2-1.02-2.88s-1.62-1.02-2.81-1.02c-1.11,0-2.08.26-2.88.78-.8.52-1.38,1.36-1.73,2.53l-3.34-1.41c.47-1.51,1.39-2.72,2.77-3.64,1.38-.92,3.15-1.38,5.33-1.38,1.46,0,2.77.24,3.92.72s2.06,1.21,2.71,2.19c.66.98.98,2.21.98,3.7v8.29c0,.92.46,1.38,1.38,1.38.45,0,.88-.06,1.3-.19l-.22,2.75c-.57.27-1.29.41-2.16.41-.99,0-1.85-.22-2.56-.67-.72-.45-1.2-1.11-1.45-2.01-.59.92-1.45,1.6-2.56,2.06-1.11.46-2.23.69-3.34.69-1.76,0-3.22-.42-4.38-1.26-1.17-.84-1.75-2.11-1.75-3.79,0-1.36.45-2.49,1.36-3.38s2.19-1.51,3.85-1.86l6.61-1.3v-.71ZM94.49,218.26c0,.69.27,1.25.8,1.65.53.41,1.25.61,2.14.61.84,0,1.63-.14,2.38-.41s1.34-.72,1.8-1.34c.46-.62.69-1.42.69-2.42v-1.56l-4.68.97c-1.07.2-1.85.48-2.36.85-.51.37-.76.92-.76,1.63Z"/>
    <path class="cls-3" d="M131.24,223.61c-1.54,0-2.92-.38-4.16-1.15-1.24-.77-2.22-1.87-2.95-3.31-.73-1.44-1.1-3.16-1.1-5.17s.38-3.84,1.15-5.28c.77-1.44,1.8-2.53,3.08-3.29s2.7-1.13,4.24-1.13c1.34,0,2.51.32,3.51.95,1,.63,1.75,1.47,2.25,2.51v-11.45h3.98v26.94h-3.53l-.22-3.53c-.5,1.24-1.31,2.2-2.45,2.88-1.14.68-2.4,1.02-3.79,1.02ZM132.1,220.41c1.56,0,2.81-.59,3.75-1.78.94-1.19,1.41-2.82,1.41-4.91,0-1.93-.46-3.45-1.39-4.55s-2.14-1.65-3.62-1.65c-1.66,0-2.95.57-3.86,1.71-.92,1.14-1.38,2.71-1.38,4.72s.45,3.59,1.34,4.74c.89,1.15,2.14,1.73,3.75,1.73Z"/>
    <path class="cls-3" d="M155.58,223.61c-1.86,0-3.49-.38-4.89-1.15-1.4-.77-2.5-1.88-3.29-3.33s-1.19-3.18-1.19-5.18.39-3.73,1.17-5.18,1.86-2.56,3.23-3.33,2.95-1.15,4.74-1.15,3.34.37,4.61,1.12c1.26.74,2.23,1.76,2.9,3.05.67,1.29,1,2.75,1,4.38,0,.47-.01.9-.04,1.3-.03.4-.06.73-.11,1h-13.6c.17,1.73.74,3.05,1.69,3.96.95.91,2.19,1.36,3.7,1.36,1.24,0,2.24-.24,3.01-.71.77-.47,1.37-1.13,1.82-1.97l3.16,1.49c-.64,1.36-1.67,2.43-3.07,3.2-1.4.77-3.02,1.15-4.85,1.15ZM155.28,207.45c-1.36,0-2.48.4-3.36,1.19-.88.79-1.44,1.95-1.69,3.46h9.77c-.1-1.49-.57-2.63-1.41-3.44-.84-.8-1.95-1.21-3.31-1.21Z"/>
    <path class="cls-3" d="M190.44,211.38c0-1.07-.3-1.9-.91-2.49-.61-.59-1.41-.89-2.4-.89-.92,0-1.72.24-2.42.71-.69.47-1.2,1.25-1.52,2.34l-4.35-1.34c.42-1.64,1.34-2.95,2.77-3.94,1.42-.99,3.34-1.49,5.74-1.49s4.39.58,5.89,1.73c1.5,1.15,2.25,2.87,2.25,5.15v7.54c0,.94.45,1.41,1.34,1.41.42,0,.82-.06,1.19-.19l-.3,3.16c-.64.32-1.45.48-2.42.48-1.06,0-1.99-.22-2.77-.67-.78-.45-1.31-1.12-1.58-2.01-.59.89-1.44,1.57-2.55,2.03-1.1.46-2.24.69-3.4.69-1.88,0-3.38-.43-4.48-1.28s-1.65-2.1-1.65-3.73c0-1.39.45-2.52,1.34-3.4.89-.88,2.17-1.48,3.83-1.8l6.39-1.3v-.71ZM183.97,218.11c0,.62.23,1.09.69,1.41.46.32,1.01.48,1.65.48.72,0,1.39-.11,2.01-.33s1.13-.6,1.52-1.13c.4-.53.59-1.25.59-2.14v-1.15l-3.9.78c-.84.17-1.48.4-1.91.69-.43.29-.65.75-.65,1.39Z"/>
    <path class="cls-3" d="M212.95,204.66v3.79h-5.95v8.73c0,.89.23,1.54.69,1.95.46.41,1.08.61,1.88.61.64,0,1.19-.09,1.65-.28.46-.19.87-.44,1.25-.76l.82,3.38c-.62.47-1.37.84-2.25,1.12-.88.27-1.82.41-2.81.41-1.86,0-3.38-.43-4.55-1.28-1.18-.85-1.77-2.3-1.77-4.33v-9.55h-3.42v-3.79h3.42v-4.27l5.09-1.41v5.69h5.95Z"/>
    <path class="cls-3" d="M225.03,223.61c-2.92,0-5.26-.85-7.02-2.55-1.76-1.7-2.64-4.07-2.64-7.12,0-2.03.4-3.76,1.19-5.2.79-1.44,1.9-2.54,3.33-3.31,1.42-.77,3.05-1.15,4.89-1.15s3.48.38,4.79,1.13c1.31.76,2.32,1.78,3.01,3.08.69,1.3,1.04,2.78,1.04,4.44,0,.5-.01.97-.04,1.41-.02.45-.06.84-.11,1.19h-13.12c.2,1.44.7,2.51,1.5,3.21s1.85,1.06,3.14,1.06c1.09,0,1.97-.21,2.64-.63.67-.42,1.19-1,1.56-1.75l4.05,1.56c-.59,1.46-1.63,2.6-3.12,3.4s-3.18,1.21-5.09,1.21ZM224.73,208.04c-2.4,0-3.85,1.33-4.35,3.98h8.36c-.15-1.29-.56-2.27-1.25-2.95-.68-.68-1.6-1.02-2.77-1.02Z"/>
    <path class="cls-3" d="M237.92,223.24v-18.58h4.57l.19,3.49c.57-1.29,1.41-2.25,2.51-2.9,1.1-.64,2.37-.97,3.81-.97,1.93,0,3.53.56,4.79,1.69,1.26,1.13,1.9,2.82,1.9,5.07v12.19h-5.09v-10.74c0-1.58-.32-2.68-.95-3.29-.63-.61-1.43-.91-2.4-.91-.69,0-1.37.17-2.03.5-.66.33-1.19.87-1.6,1.62-.41.74-.61,1.73-.61,2.97v9.85h-5.09Z"/>
    <path class="cls-3" d="M269.36,204.29c2.48,0,4.4.53,5.78,1.6,1.38,1.07,2.29,2.35,2.73,3.87l-4.76,1.71c-.5-2.25-1.72-3.38-3.68-3.38-1.41,0-2.51.5-3.29,1.49-.78.99-1.17,2.47-1.17,4.42s.4,3.45,1.21,4.4c.8.95,1.9,1.43,3.29,1.43,2.15,0,3.44-1.1,3.86-3.31l4.61,1.49c-.42,1.66-1.36,3.01-2.81,4.05-1.45,1.04-3.33,1.56-5.63,1.56-1.93,0-3.62-.38-5.07-1.15-1.45-.77-2.57-1.87-3.36-3.31-.79-1.44-1.19-3.17-1.19-5.2s.4-3.76,1.21-5.2c.8-1.44,1.92-2.54,3.34-3.31,1.42-.77,3.07-1.15,4.92-1.15Z"/>
    <path class="cls-3" d="M284.45,201.98c-2.11,0-3.16-.9-3.16-2.71s1.05-2.75,3.16-2.75,3.16.92,3.16,2.75-1.05,2.71-3.16,2.71ZM286.97,204.66v18.58h-5.09v-18.58h5.09Z"/>
    <path class="cls-3" d="M300.83,204.29c1.86,0,3.5.38,4.94,1.15,1.44.77,2.56,1.87,3.36,3.31.8,1.44,1.21,3.17,1.21,5.2s-.4,3.77-1.21,5.2c-.81,1.44-1.93,2.54-3.36,3.31-1.44.77-3.08,1.15-4.94,1.15s-3.54-.38-4.96-1.15c-1.42-.77-2.54-1.87-3.34-3.31-.81-1.44-1.21-3.17-1.21-5.2s.4-3.76,1.21-5.2c.8-1.44,1.92-2.54,3.34-3.31s3.08-1.15,4.96-1.15ZM300.83,208.08c-1.39,0-2.47.49-3.25,1.47-.78.98-1.17,2.45-1.17,4.4s.39,3.43,1.17,4.4c.78.98,1.86,1.47,3.25,1.47s2.43-.49,3.21-1.47c.78-.98,1.17-2.45,1.17-4.4s-.39-3.42-1.17-4.4c-.78-.98-1.85-1.47-3.21-1.47ZM300.94,195.67h4.91l-3.72,6.32h-3.75l2.56-6.32Z"/>
    <path class="cls-3" d="M314.62,223.24v-18.58h4.57l.19,3.49c.57-1.29,1.41-2.25,2.51-2.9,1.1-.64,2.37-.97,3.81-.97,1.93,0,3.53.56,4.79,1.69,1.26,1.13,1.9,2.82,1.9,5.07v12.19h-5.09v-10.74c0-1.58-.32-2.68-.95-3.29-.63-.61-1.43-.91-2.4-.91-.69,0-1.37.17-2.02.5-.66.33-1.19.87-1.6,1.62-.41.74-.61,1.73-.61,2.97v9.85h-5.09Z"/>
    <path class="cls-3" d="M359.58,211.38c0-1.07-.3-1.9-.91-2.49-.61-.59-1.41-.89-2.4-.89-.92,0-1.72.24-2.42.71-.69.47-1.2,1.25-1.52,2.34l-4.35-1.34c.42-1.64,1.34-2.95,2.77-3.94,1.42-.99,3.34-1.49,5.74-1.49s4.39.58,5.89,1.73c1.5,1.15,2.25,2.87,2.25,5.15v7.54c0,.94.45,1.41,1.34,1.41.42,0,.82-.06,1.19-.19l-.3,3.16c-.64.32-1.45.48-2.42.48-1.07,0-1.99-.22-2.77-.67-.78-.45-1.31-1.12-1.58-2.01-.59.89-1.44,1.57-2.55,2.03-1.1.46-2.24.69-3.4.69-1.88,0-3.38-.43-4.48-1.28-1.1-.85-1.65-2.1-1.65-3.73,0-1.39.45-2.52,1.34-3.4.89-.88,2.17-1.48,3.83-1.8l6.39-1.3v-.71ZM353.12,218.11c0,.62.23,1.09.69,1.41.46.32,1.01.48,1.65.48.72,0,1.39-.11,2.01-.33s1.13-.6,1.52-1.13c.4-.53.59-1.25.59-2.14v-1.15l-3.9.78c-.84.17-1.48.4-1.91.69-.43.29-.65.75-.65,1.39Z"/>
    <path class="cls-3" d="M392.5,204.66h5.28l-7.06,18.58h-5.87l-7.06-18.58h5.46l4.57,14.68,4.68-14.68Z"/>
    <path class="cls-3" d="M405.7,204.66v18.58h-5.09v-18.58h5.09ZM403.28,195.67h4.91l-3.72,6.32h-3.75l2.56-6.32Z"/>
    <path class="cls-3" d="M419.52,204.29c2.48,0,4.4.53,5.78,1.6,1.38,1.07,2.29,2.35,2.73,3.87l-4.76,1.71c-.5-2.25-1.72-3.38-3.68-3.38-1.41,0-2.51.5-3.29,1.49-.78.99-1.17,2.47-1.17,4.42s.4,3.45,1.21,4.4c.8.95,1.9,1.43,3.29,1.43,2.16,0,3.44-1.1,3.87-3.31l4.61,1.49c-.42,1.66-1.36,3.01-2.81,4.05-1.45,1.04-3.33,1.56-5.63,1.56-1.93,0-3.62-.38-5.07-1.15-1.45-.77-2.57-1.87-3.36-3.31-.79-1.44-1.19-3.17-1.19-5.2s.4-3.76,1.21-5.2c.8-1.44,1.92-2.54,3.34-3.31s3.07-1.15,4.92-1.15Z"/>
    <path class="cls-3" d="M444.56,204.66v3.79h-5.95v8.73c0,.89.23,1.54.69,1.95.46.41,1.08.61,1.88.61.64,0,1.2-.09,1.65-.28s.87-.44,1.25-.76l.82,3.38c-.62.47-1.37.84-2.25,1.12-.88.27-1.81.41-2.81.41-1.86,0-3.38-.43-4.55-1.28s-1.76-2.3-1.76-4.33v-9.55h-3.42v-3.79h3.42v-4.27l5.09-1.41v5.69h5.95Z"/>
    <path class="cls-3" d="M450.58,201.98c-2.11,0-3.16-.9-3.16-2.71s1.05-2.75,3.16-2.75,3.16.92,3.16,2.75-1.05,2.71-3.16,2.71ZM453.11,204.66v18.58h-5.09v-18.58h5.09Z"/>
    <path class="cls-3" d="M458.5,223.24v-18.58h4.57l.19,3.34c.62-1.24,1.47-2.17,2.55-2.79,1.08-.62,2.27-.93,3.59-.93s2.54.3,3.62.91c1.08.61,1.89,1.53,2.43,2.77.57-1.24,1.45-2.16,2.64-2.77,1.19-.61,2.42-.91,3.68-.91s2.32.25,3.33.74c1,.5,1.8,1.24,2.4,2.23.59.99.89,2.25.89,3.79v12.19h-5.09v-11.18c0-1.36-.3-2.33-.91-2.9-.61-.57-1.37-.85-2.29-.85-1.14,0-2.11.42-2.9,1.24-.79.83-1.19,2.06-1.19,3.7v10h-5.09v-11.18c0-1.36-.3-2.33-.91-2.9-.61-.57-1.38-.85-2.32-.85-.64,0-1.28.17-1.91.52-.63.35-1.15.89-1.56,1.64-.41.74-.61,1.72-.61,2.94v9.85h-5.09Z"/>
    <path class="cls-3" d="M504.2,211.38c0-1.07-.3-1.9-.91-2.49-.61-.59-1.41-.89-2.4-.89-.92,0-1.72.24-2.42.71-.69.47-1.2,1.25-1.52,2.34l-4.35-1.34c.42-1.64,1.34-2.95,2.77-3.94,1.42-.99,3.34-1.49,5.74-1.49s4.39.58,5.89,1.73c1.5,1.15,2.25,2.87,2.25,5.15v7.54c0,.94.45,1.41,1.34,1.41.42,0,.82-.06,1.19-.19l-.3,3.16c-.64.32-1.45.48-2.42.48-1.07,0-1.99-.22-2.77-.67-.78-.45-1.31-1.12-1.58-2.01-.59.89-1.44,1.57-2.55,2.03-1.1.46-2.24.69-3.4.69-1.88,0-3.38-.43-4.48-1.28-1.1-.85-1.65-2.1-1.65-3.73,0-1.39.45-2.52,1.34-3.4.89-.88,2.17-1.48,3.83-1.8l6.39-1.3v-.71ZM497.74,218.11c0,.62.23,1.09.69,1.41.46.32,1.01.48,1.65.48.72,0,1.39-.11,2.01-.33s1.13-.6,1.52-1.13c.4-.53.59-1.25.59-2.14v-1.15l-3.9.78c-.84.17-1.48.4-1.91.69-.43.29-.65.75-.65,1.39Z"/>
    <path class="cls-3" d="M522.37,223.61c-1.88,0-3.6-.33-5.15-1-1.55-.67-2.81-1.61-3.77-2.82l2.94-2.97c.59.89,1.39,1.62,2.38,2.19.99.57,2.17.85,3.53.85.97,0,1.74-.14,2.32-.43s.87-.74.87-1.36c0-.4-.14-.74-.41-1.02-.27-.29-.82-.51-1.63-.69l-3.27-.67c-2.16-.45-3.69-1.12-4.59-2.03-.91-.9-1.36-2.07-1.36-3.51,0-1.02.3-1.97.91-2.86.61-.89,1.52-1.62,2.73-2.17,1.21-.56,2.72-.84,4.53-.84,3.76,0,6.47,1.15,8.1,3.46l-3.05,2.97c-.55-.87-1.26-1.53-2.14-1.99-.88-.46-1.8-.69-2.77-.69-2.18,0-3.27.61-3.27,1.82,0,.4.17.74.52,1.02.35.29.98.53,1.9.72l3.79.78c1.83.37,3.15,1,3.94,1.88s1.19,1.94,1.19,3.18c0,1.78-.71,3.26-2.14,4.42-1.42,1.17-3.46,1.75-6.11,1.75Z"/>
  </g>
</svg>