<svg width="91" height="66" viewBox="0 0 91 66" fill="none" xmlns="http://www.w3.org/2000/svg">
<path d="M60.4855 34.489C60.4855 34.0533 60.345 33.6954 60.064 33.4153L43.5799 16.9829C43.299 16.7028 42.9399 16.5628 42.5029 16.5628C42.0658 16.5628 41.7068 16.7028 41.4258 16.9829L24.9886 33.3686C24.6764 33.7421 24.5203 34.1155 24.5203 34.489C24.5203 34.9247 24.6608 35.2826 24.9418 35.5627C25.2227 35.8428 25.5817 35.9829 26.0188 35.9829H36.5087V52.4153C36.5087 52.8198 36.657 53.17 36.9536 53.4656C37.2501 53.7613 37.6014 53.9091 38.0072 53.9091H46.9985C47.4044 53.9091 47.7556 53.7613 48.0522 53.4656C48.3488 53.17 48.4971 52.8198 48.4971 52.4153V35.9829H58.9869C59.3928 35.9829 59.744 35.835 60.0406 35.5394C60.3372 35.2437 60.4855 34.8936 60.4855 34.489ZM90.4565 47.9337C90.4565 52.8821 88.7004 57.1069 85.1882 60.6081C81.6759 64.1093 77.4378 65.86 72.4739 65.86H21.5231C15.7475 65.86 10.807 63.8137 6.70155 59.7212C2.59615 55.6286 0.543457 50.7035 0.543457 44.946C0.543457 40.9001 1.63614 37.1655 3.82152 33.7421C6.00693 30.3187 8.9416 27.7511 12.6255 26.0394C12.5631 25.1058 12.5318 24.4366 12.5318 24.032C12.5318 17.4342 14.8733 11.8011 19.5563 7.13281C24.2393 2.46452 29.8901 0.130371 36.5087 0.130371C41.379 0.130371 45.8356 1.48418 49.8786 4.19179C53.9215 6.8994 56.864 10.494 58.706 14.9756C60.9226 13.046 63.5138 12.0812 66.4797 12.0812C69.789 12.0812 72.6144 13.2483 74.9559 15.5824C77.2974 17.9166 78.4681 20.7331 78.4681 24.032C78.4681 26.3973 77.8281 28.5447 76.5481 30.4743C80.6066 31.4391 83.9394 33.5476 86.5462 36.7998C89.1531 40.0521 90.4565 43.7633 90.4565 47.9337Z" fill="#000B77"/>
</svg>
