<svg width="61" height="40" viewBox="0 0 61 40" fill="none" xmlns="http://www.w3.org/2000/svg">
<path d="M34.15 19.3951L22.8984 17.4282V31.9613C22.8984 32.625 23.4415 33.163 24.1116 33.163H43.5266C44.1966 33.163 44.7398 32.625 44.7398 31.9613V26.6068L34.15 19.3951Z" fill="#185C37"/>
<path d="M34.15 6.93848H24.1116C23.4415 6.93848 22.8984 7.47651 22.8984 8.14022V13.4946L34.15 20.0508L40.1067 22.0176L44.7398 20.0508V13.4946L34.15 6.93848Z" fill="#21A366"/>
<path d="M22.8984 13.4946H34.15V20.0508H22.8984V13.4946Z" fill="#107C41"/>
<path d="M17.493 12.8389H29.6275C30.2975 12.8389 30.8407 13.3769 30.8407 14.0406V26.0607C30.8407 26.7244 30.2975 27.2624 29.6275 27.2624H17.493C16.8229 27.2624 16.2798 26.7244 16.2798 26.0607V14.0406C16.2798 13.3769 16.8229 12.8389 17.493 12.8389Z" fill="url(#paint0_linear_103_620)"/>
<path d="M20.0372 23.957L22.5893 20.0397L20.251 16.144H22.132L23.408 18.6354C23.5258 18.8721 23.6066 19.0478 23.6503 19.1638H23.6668C23.7493 18.9778 23.8376 18.7943 23.9316 18.6137L25.2956 16.1454H27.0224L24.6245 20.0181L27.0833 23.957H25.246L23.772 21.2225C23.7026 21.1061 23.6437 20.9839 23.596 20.8573H23.5742C23.531 20.9813 23.4737 21.1001 23.4034 21.2113L21.8858 23.957H20.0372Z" fill="white"/>
<path d="M43.5266 6.93848H34.15V13.4946H44.7398V8.14022C44.7398 7.47651 44.1966 6.93848 43.5266 6.93848Z" fill="#33C481"/>
<path d="M34.15 20.0508H44.7398V26.6069H34.15V20.0508Z" fill="#107C41"/>
<defs>
<linearGradient id="paint0_linear_103_620" x1="18.8093" y1="11.8999" x2="28.1767" y2="28.2783" gradientUnits="userSpaceOnUse">
<stop stop-color="#18884F"/>
<stop offset="0.5" stop-color="#117E43"/>
<stop offset="1" stop-color="#0B6631"/>
</linearGradient>
</defs>
</svg>
