<svg width="1877" height="1090" viewBox="0 0 1877 1090" fill="none" xmlns="http://www.w3.org/2000/svg">
<path d="M1383.05 1081.13C1679.65 817.816 1768.77 619.332 1867.07 258.831C1868.61 253.188 1877 254.284 1877 260.133V1085C1877 1087.76 1874.76 1090 1872 1090H1386.26C1381.65 1090 1379.6 1084.19 1383.05 1081.13Z" fill="#34657C" fill-opacity="0.85"/>
<path d="M314.467 1081.75C23.6569 712.79 27.5548 474.193 316.177 7.77303C318.241 4.43739 315.923 0 312 0H5C2.23858 0 0 2.2386 0 5.00002V1085C0 1087.76 2.23857 1090 4.99999 1090H310.631C314.817 1090 317.059 1085.04 314.467 1081.75Z" fill="#34657C" fill-opacity="0.85"/>
</svg>
