<svg width="142" height="27" viewBox="0 0 142 27" fill="none" xmlns="http://www.w3.org/2000/svg">
<path d="M22.5729 8.93218L20.7757 9.55794L20.6026 10.0039L20.2001 10.2446C20.086 8.87308 20.0124 8.32897 19.9806 8.32897L20.6298 8.32105L21.8255 6.98057L20.0867 7.66604L19.9302 8.13277L18.2238 9.32152C18.2616 9.61521 18.3591 10.5078 18.2935 11.3816L18.6708 11.1482C18.834 17.6806 15.5838 20.1379 15.5838 20.1379C14.7621 19.7894 14.5499 19.5341 14.5499 19.5341C17.5143 16.4991 17.3783 12.1115 17.373 11.9549L17.0607 12.1444C17.0607 12.1444 17.1886 10.7564 17.1051 10.1002L16.5586 10.481C16.546 10.0326 16.5175 9.65969 16.4844 9.39952C16.8146 9.41962 17.1555 9.37393 17.4353 9.1887C17.7305 8.99189 17.887 8.41183 17.936 8.16263C17.9851 7.91464 17.9274 7.83056 17.7636 7.73307C17.5998 7.63619 17.255 7.3492 17.115 7.22003C17.115 7.22003 17.3975 7.10853 18.0587 7.39368C18.7723 7.70382 19.3141 7.55271 19.9229 6.72345L19.1921 6.82155L19.2564 6.35847C19.2683 6.36335 19.2809 6.36944 19.2942 6.37675C19.3957 6.44134 19.7412 6.55772 19.905 6.58757C20.0694 6.61804 20.0648 6.5961 20.1683 6.65277C20.2717 6.70821 20.3599 6.73198 20.4143 6.70822C20.4143 6.70822 20.8221 6.91903 20.9859 6.70822C20.9859 6.70822 21.1438 6.79474 21.2234 6.82094C21.346 6.86237 21.5443 6.92696 21.6087 6.91538C21.6743 6.9038 21.8302 6.96473 21.8554 6.9757C22.1127 7.09451 22.2698 7.03297 22.3063 6.9757C22.3441 6.91903 22.1465 6.73137 21.994 6.61438C21.8421 6.4974 21.7108 6.47485 21.7108 6.47485C21.7605 6.44439 21.7479 6.39869 21.6491 6.28962C21.551 6.17934 21.2273 6.0331 21.2273 6.0331C21.2313 5.94597 20.8613 5.73515 20.6411 5.581C20.4176 5.42624 20.5091 5.43416 20.275 5.21237C20.0416 4.98876 18.9699 4.20763 18.4361 3.85789C17.9029 3.50814 16.4386 2.48268 15.1859 2.11284C13.9358 1.74238 13.195 1.82646 12.6665 2.12807C12.1366 2.42967 12.2679 2.83303 12.3634 3.08224C12.4563 3.33145 12.6386 3.64402 12.7454 3.83595C12.8515 4.02849 12.7653 4.02484 12.7162 4.05591C12.6672 4.08455 12.7196 4.16071 12.6718 4.15279C12.6227 4.14548 12.5922 4.20214 12.5306 4.26612C12.5 4.29841 12.4092 4.32644 12.2912 4.34838C12.2679 4.25759 12.3296 4.18935 12.3296 4.18935C12.2467 4.14487 12.1048 4.13025 12.1048 4.13025C12.122 4.09856 12.187 4.07663 12.187 4.07663C12.0968 4.0553 11.9244 4.08333 11.9244 4.08333C11.9523 4.04251 11.9768 4.0358 11.9768 4.0358C11.815 3.98523 11.6704 4.10587 11.6121 4.16498C11.5404 4.04738 11.4489 3.96451 11.3581 3.88591C11.2606 3.80244 11.2108 3.6818 11.1061 3.58735C11.1061 3.58735 11.1916 3.46793 11.1299 3.34851C11.0696 3.22969 10.9018 3.13403 10.8037 3.11149C10.8037 3.11149 10.8905 3.07066 10.8779 2.98049C10.866 2.89031 10.7738 2.85619 10.675 2.88543C10.5755 2.91285 10.4601 2.91285 10.3859 2.97561C10.3859 2.97561 10.305 2.98353 10.242 2.97622C10.3229 2.72823 10.3633 2.38946 9.90043 2.12746C9.37189 1.82585 8.63378 1.74238 7.38172 2.11223C6.13032 2.48268 4.66538 3.50754 4.13286 3.85728C3.59967 4.20702 2.52667 4.98815 2.29522 5.21176C2.0598 5.43355 2.14999 5.42563 1.92982 5.58039C1.70766 5.73455 1.33827 5.94537 1.34225 6.0325C1.34225 6.0325 1.01863 6.17934 0.919813 6.28901C0.821664 6.39808 0.809064 6.44378 0.857475 6.47424C0.857475 6.47424 0.727495 6.49679 0.574966 6.61377C0.423101 6.73076 0.22614 6.91843 0.262614 6.97509C0.300414 7.03237 0.454932 7.09391 0.714231 6.97509C0.738105 6.96412 0.894613 6.90319 0.960267 6.91477C1.02592 6.92574 1.22354 6.86176 1.34623 6.82033C1.42581 6.79352 1.58431 6.70761 1.58431 6.70761C1.74811 6.91843 2.15463 6.70761 2.15463 6.70761C2.20768 6.73076 2.29854 6.70761 2.4 6.65216C2.50279 6.59549 2.49882 6.61743 2.66196 6.58696C2.82708 6.55711 3.17259 6.44134 3.27406 6.37614C3.28799 6.36639 3.30257 6.36091 3.31517 6.35665L3.38083 6.82155L2.65002 6.72345C3.25682 7.55271 3.79929 7.70443 4.51286 7.39368C5.1747 7.10853 5.45721 7.22003 5.45721 7.22003C5.31794 7.3492 4.97177 7.63619 4.80863 7.73307C4.64483 7.83116 4.58713 7.91464 4.63687 8.16263C4.68528 8.41183 4.84046 8.99189 5.13756 9.1887C5.41742 9.37393 5.75829 9.41901 6.08854 9.39952C6.05538 9.65908 6.02753 10.0326 6.0136 10.481L5.46185 10.0966C5.37829 10.7522 5.50562 12.1444 5.50562 12.1444L5.19393 11.9549C5.1873 12.1121 5.05267 16.4991 8.01836 19.5341C8.01836 19.5341 7.80416 19.7894 6.98382 20.1379C6.98382 20.1379 3.73231 17.68 3.8981 11.1482L4.27544 11.3816C4.20846 10.5054 4.30661 9.60973 4.34375 9.31848L2.64272 8.13277L2.48555 7.66604L0.746726 6.98057L1.94374 8.32105L2.59232 8.32897C2.55916 8.32897 2.48555 8.87308 2.37082 10.2446L1.96961 10.0039L1.79652 9.55794L0 8.93218L1.27129 10.2361L1.90329 10.1995C1.90329 10.1995 1.25604 15.9824 3.39277 19.0942C5.17271 21.6831 7.76171 21.7038 10.1186 20.2494C10.0351 20.5023 9.75055 21.2548 8.95409 22.6263C8.95409 22.6263 9.41366 22.6263 9.90574 22.7031C9.90574 22.7031 9.80825 23.0796 9.75652 23.193C9.70612 23.3093 9.71474 23.5001 9.9568 23.5104C10.2002 23.5171 10.5159 23.5451 10.5159 23.5451C10.5159 23.5451 10.4727 23.8169 10.4661 23.9613C10.4588 24.1563 10.4383 24.2373 11.2831 24.2702C12.1685 24.2373 12.1108 24.1563 12.1021 23.9613C12.0955 23.8169 12.0551 23.5451 12.0551 23.5451C12.0551 23.5451 12.3714 23.5177 12.6141 23.5104C12.8562 23.5001 12.8648 23.3093 12.8137 23.193C12.764 23.079 12.6625 22.7031 12.6625 22.7031C13.1559 22.6263 13.6155 22.6263 13.6155 22.6263C12.8177 21.2499 12.5319 20.4998 12.4477 20.2494C14.8065 21.7032 17.3975 21.6855 19.1788 19.0942C21.3149 15.9824 20.6676 10.1995 20.6676 10.1995L21.2996 10.2361L22.5729 8.93218ZM12.2878 6.69359C12.3581 6.40234 12.4152 6.1574 12.4808 6.19884C12.5458 6.24027 12.6612 6.24453 12.7023 6.19579C12.7441 6.14522 12.756 6.13912 12.7892 6.19092C12.8223 6.24332 13.0186 6.33045 13.1506 6.12328C13.2819 5.91612 13.2448 6.02153 13.2819 6.10074C13.3197 6.17934 13.4219 6.21346 13.5366 6.13059C13.6513 6.04834 13.7415 5.97522 13.8237 5.93805C13.9046 5.90149 13.9086 5.91977 13.9537 5.84422C13.9995 5.76806 14.0731 5.73394 14.0764 5.68519C14.0804 5.63584 14.0273 5.57978 14.1062 5.54201C14.1838 5.50423 14.221 5.47742 14.2913 5.50788C14.3616 5.53835 14.3808 5.47742 14.4179 5.51885C14.4544 5.56029 14.5028 5.56455 14.5492 5.51885C14.5943 5.47376 14.6275 5.40247 14.6805 5.48534C14.7336 5.5676 14.8523 5.58648 14.8768 5.54505C14.9027 5.50423 14.9226 5.49996 14.9551 5.56455C14.9883 5.62853 15.107 5.67788 15.2343 5.65899C15.2343 5.65899 15.353 5.80949 15.4976 5.78695C15.6421 5.76379 15.6985 5.69677 15.7018 5.6072C15.7065 5.51641 15.6527 5.21176 15.7509 5.27818C15.8497 5.34581 15.8457 5.31595 15.8736 5.26233C15.9028 5.21115 15.9479 5.26599 15.9976 5.25441C16.0467 5.24466 16.038 5.18678 16.1203 5.26233C16.2032 5.3385 16.2105 5.37566 16.2887 5.39455C16.3663 5.41283 16.3995 5.43233 16.4817 5.51154C16.5646 5.59075 16.6548 5.67727 16.8014 5.62792C16.8014 5.62792 16.8955 5.74064 16.995 5.73333C16.995 5.73333 17.1959 5.93379 17.3107 5.90393C17.3107 5.90393 17.507 5.97827 17.5733 5.97157C17.6396 5.96425 17.6515 5.92343 17.6933 5.94415C17.7338 5.96791 17.7179 5.87286 17.7789 5.93683C17.8392 6.00142 17.9513 6.11475 18.0209 6.09586C18.0209 6.09586 18.186 6.22382 18.312 6.23722C18.44 6.25306 18.4772 6.2878 18.5176 6.2878C18.5581 6.2878 18.5382 6.25002 18.6125 6.30303C18.6854 6.35604 18.7935 6.38163 18.8631 6.35604C18.9328 6.32862 18.9606 6.33227 19.0236 6.3402C19.0442 6.34263 19.0707 6.34019 19.0999 6.33776C18.8936 6.5632 18.6244 6.74234 18.1237 6.60037C17.4599 6.41148 17.2609 6.50166 17.1237 6.63022C16.9837 6.75757 16.6807 7.12803 16.5971 7.362C16.5169 7.59536 16.558 7.77633 17.0481 8.30459C17.0481 8.30459 16.4081 8.34176 15.5639 8.09256C14.7183 7.84457 13.9385 7.75378 13.1513 8.07854C13.0147 8.13521 12.888 8.187 12.77 8.24123C12.6824 8.15958 12.4642 7.95303 12.3833 7.85919C12.3833 7.85919 12.4364 7.61852 12.4324 7.47838C12.4278 7.31996 12.4205 7.24562 12.3588 7.1658C12.2958 7.08964 12.2195 6.98362 12.2878 6.69359ZM15.6687 9.24658C15.296 9.46288 14.6626 9.71696 13.7243 9.71696C12.9921 9.71696 12.4278 9.5622 12.0272 9.38977C12.1937 9.29593 12.8389 8.95899 13.6513 8.93949C14.595 8.91634 15.0055 9.03637 15.4571 9.18138C15.5188 9.20149 15.5911 9.22282 15.6687 9.24658ZM11.7812 8.01517C11.7865 8.01761 11.7911 8.01883 11.7964 8.02066C11.9629 8.08098 12.136 8.05844 12.136 8.05844C12.1897 8.0889 12.4231 8.29058 12.5073 8.36674C12.2693 8.48556 12.059 8.60986 11.8535 8.7701C11.8037 8.58305 11.7308 8.27779 11.752 8.17542C11.7639 8.11815 11.7745 8.06331 11.7812 8.01517ZM10.612 3.89201C10.7042 3.94806 10.8832 4.04494 10.9456 4.18508C10.9628 4.22712 10.9768 4.26734 10.9887 4.30573C10.858 4.27587 10.7572 4.27404 10.6803 4.28562C10.547 4.08759 10.3985 3.95842 10.2599 3.87312C10.4051 3.85423 10.5304 3.84144 10.612 3.89201ZM9.82218 3.83534C9.82417 3.83108 9.82682 3.82803 9.82881 3.82133C9.94155 3.97426 10.1849 4.23931 10.5749 4.31669C10.5344 4.33497 10.5039 4.35813 10.482 4.37823C10.2705 4.35264 10.0848 4.31669 10.0351 4.2649C9.97338 4.20092 9.94553 4.14426 9.89579 4.15157C9.84738 4.15949 9.89977 4.08272 9.85136 4.05469C9.80162 4.02484 9.71739 4.02788 9.82218 3.83534ZM9.6597 6.25306C9.67694 6.35482 9.70679 6.46693 9.76448 6.57843C9.74923 6.60402 9.73464 6.62962 9.72071 6.65642C9.68755 6.42428 9.5841 6.27317 9.56354 6.24514C9.59736 6.2555 9.62986 6.25672 9.6597 6.25306ZM5.5222 8.30703C6.01427 7.77816 6.05472 7.5978 5.97315 7.36444C5.89092 7.13046 5.58785 6.76001 5.44792 6.63266C5.30866 6.50471 5.11236 6.41392 4.4472 6.60281C3.94651 6.74416 3.67925 6.56686 3.47168 6.3408C3.49954 6.34263 3.52407 6.34446 3.5433 6.34202C3.60631 6.3341 3.6335 6.33106 3.70512 6.35786C3.77409 6.38346 3.88152 6.35786 3.95447 6.30486C4.02874 6.25246 4.00819 6.28962 4.04864 6.28962C4.08976 6.28962 4.12689 6.25489 4.25356 6.23905C4.38089 6.22504 4.54535 6.09769 4.54535 6.09769C4.61565 6.11597 4.72507 6.00264 4.78807 5.93866C4.84975 5.87469 4.8325 5.96974 4.87428 5.94597C4.91474 5.92526 4.928 5.96608 4.99299 5.97339C5.05798 5.9801 5.25627 5.90576 5.25627 5.90576C5.37033 5.93623 5.5726 5.73515 5.5726 5.73515C5.67008 5.74308 5.76492 5.62975 5.76492 5.62975C5.91214 5.6791 6.00366 5.59197 6.08589 5.51337C6.1668 5.43416 6.19995 5.41466 6.27821 5.39638C6.35646 5.37688 6.36376 5.33972 6.44533 5.26416C6.52822 5.18861 6.51894 5.2471 6.56868 5.25624C6.61775 5.26782 6.66351 5.21237 6.69203 5.26416C6.72187 5.31778 6.71723 5.34764 6.81471 5.28C6.9122 5.21298 6.85981 5.51763 6.86379 5.60903C6.86975 5.6986 6.92612 5.76623 7.06937 5.78877C7.21328 5.81193 7.33265 5.66082 7.33265 5.66082C7.45865 5.6791 7.57868 5.63035 7.61117 5.56638C7.64433 5.50179 7.66489 5.50606 7.68877 5.54688C7.7133 5.58892 7.83267 5.56942 7.88705 5.48717C7.93944 5.4043 7.97128 5.47498 8.0177 5.52068C8.06279 5.56638 8.11187 5.56211 8.149 5.52068C8.18548 5.47925 8.20736 5.53957 8.277 5.50971C8.34597 5.47925 8.38377 5.50606 8.46069 5.54383C8.53828 5.58161 8.48589 5.63767 8.48987 5.68702C8.49385 5.73576 8.56879 5.76989 8.61322 5.84605C8.65898 5.9216 8.66362 5.90271 8.74453 5.93988C8.82676 5.97705 8.91695 6.05017 9.03168 6.13242C9.13712 6.20798 9.23063 6.15984 9.27506 6.09525C9.29164 6.16228 9.31618 6.27195 9.35133 6.27195C9.38648 6.27195 9.41632 6.18665 9.44218 6.13364C9.47866 6.17995 9.51911 6.16837 9.5589 6.18239C9.53967 6.21651 9.25251 6.7466 9.60267 7.22125H9.60333C9.61991 7.22125 9.63317 7.20175 9.64577 7.17007C9.68225 7.47838 9.66235 7.54784 9.66235 7.54784C9.66235 7.54784 9.50452 7.73246 9.39112 8.05844C8.61388 7.7483 7.84262 7.84579 7.00902 8.09073C6.16215 8.33872 5.5222 8.30703 5.5222 8.30703ZM9.11922 8.95107C9.02173 9.21977 8.89308 9.49518 8.718 9.71453C7.85058 9.69198 7.25704 9.45435 6.90225 9.24658C6.9805 9.22282 7.05146 9.20149 7.1138 9.18138C7.56542 9.03637 7.97658 8.91695 8.91961 8.93949C8.98791 8.94132 9.05357 8.9468 9.11922 8.95107ZM6.32463 9.35199C6.40023 9.3398 6.47517 9.33676 6.56204 9.31726C6.80476 9.54087 7.4865 10.0399 8.77106 10.0399C10.4343 10.0399 11.2838 9.30568 11.2838 9.30568C11.2838 9.30568 12.132 10.0423 13.7952 10.0423C15.0811 10.0423 15.7615 9.5488 16.0036 9.32579C16.0924 9.34529 16.166 9.3398 16.2416 9.35138C16.4432 10.8868 16.1083 13.0669 16.1083 13.0669H11.2831H6.45726C6.45726 13.0675 6.12369 10.8874 6.32463 9.35199ZM6.45726 13.3326H11.2831H16.1077C16.1077 13.3326 15.9598 15.0289 15.1726 16.4516H11.2831H7.39233C6.60449 15.0283 6.45726 13.3326 6.45726 13.3326ZM11.2831 20.5937C8.39106 18.6701 7.54022 16.702 7.54022 16.702H11.2831H15.0247C15.0247 16.702 14.1772 18.6701 11.2831 20.5937Z" fill="white"/>
<path d="M13.0917 12.8611C13.2595 12.8575 13.414 12.8026 13.544 12.7112C13.6137 12.7326 13.6846 12.7435 13.7589 12.7411C14.0189 12.7387 14.245 12.5827 14.369 12.3542C14.4871 12.3688 14.6064 12.3542 14.7152 12.3012C14.9519 12.1848 15.06 11.9222 15.009 11.6565C15.0229 11.6486 15.0335 11.6389 15.0461 11.6303C15.261 11.4652 15.2563 11.1386 15.0395 10.8961C15.0328 10.8882 15.0269 10.8821 15.0182 10.876C15.0919 10.8254 15.1409 10.7529 15.1409 10.6676C15.1409 10.5171 14.9433 10.3965 14.7616 10.3965C14.5819 10.3965 14.3836 10.5171 14.3836 10.6676V10.6688C14.3836 10.6774 14.2702 10.706 14.2052 10.7578C14.113 10.8273 14.0885 10.9296 14.0759 11.0405C14.0427 11.0515 14.0222 11.0612 13.9903 11.0777C13.9459 11.0978 13.9141 11.127 13.8796 11.1575C13.8265 11.1453 13.7781 11.1386 13.7224 11.1404C13.6435 11.1411 13.5692 11.1575 13.4976 11.1843C13.3676 11.1027 13.2171 11.0558 13.0539 11.06C12.5851 11.0667 12.2144 11.478 12.2243 11.9746C12.2349 12.4736 12.6242 12.869 13.0917 12.8611Z" fill="white"/>
<path d="M7.56104 11.6297C7.57231 11.6382 7.58425 11.648 7.59818 11.6559C7.54711 11.9216 7.65455 12.1842 7.89063 12.3006C7.99807 12.3536 8.11876 12.3682 8.23747 12.3536C8.36148 12.5821 8.58696 12.738 8.84692 12.7405C8.9212 12.7429 8.99282 12.7326 9.06179 12.7106C9.1911 12.802 9.34562 12.8569 9.5134 12.8605C9.98226 12.8684 10.3702 12.473 10.3815 11.9746C10.3908 11.4774 10.0194 11.0667 9.55054 11.06C9.38873 11.0558 9.23686 11.1027 9.10556 11.1837C9.03592 11.1575 8.95966 11.1417 8.88008 11.1404C8.82504 11.1386 8.77132 11.1453 8.72158 11.1563C8.68577 11.127 8.64731 11.0978 8.60221 11.0777C8.57104 11.0612 8.53722 11.0503 8.50406 11.0405C8.49279 10.9296 8.47754 10.8273 8.38469 10.7578C8.3197 10.7054 8.19105 10.6774 8.19105 10.6688V10.6676C8.19105 10.5171 8.00868 10.3965 7.8283 10.3965C7.64659 10.3965 7.48212 10.5171 7.48212 10.6676C7.48212 10.7529 7.52059 10.8254 7.59353 10.876C7.58757 10.8815 7.57762 10.8882 7.57032 10.8961C7.35148 11.1368 7.34551 11.464 7.56104 11.6297Z" fill="white"/>
<path d="M11.3143 16.2617L11.7148 15.7042L11.6386 15.4403L11.9536 15.4799C11.9748 15.6006 12.0597 15.7389 12.1857 15.756C12.313 15.7767 12.5232 15.756 12.5232 15.756L12.6426 15.628C12.4954 15.4988 12.313 15.3898 12.313 15.3898C12.2706 14.6202 12.124 14.0974 12.0159 13.8202C11.9111 13.543 11.7712 13.535 11.5033 13.5673C11.2367 13.5996 10.5125 14.0012 10.5125 14.0012L10.4628 14.3875L10.7101 14.4124C10.7101 14.4124 10.5689 14.8457 10.5191 15.0016C10.4701 15.1576 10.5125 15.1503 10.6034 15.2094C10.6942 15.2667 11.0397 15.3435 11.0397 15.3435L10.9409 15.7444L11.3143 16.2617Z" fill="white"/>
<path d="M10.3727 11.3683C10.5166 12.1317 11.0517 12.2012 11.2633 12.1969C11.26 12.4662 11.2096 12.6795 11.2096 12.6795L11.4729 12.8452C11.5014 12.5247 11.4954 12.2706 11.4735 12.0683C12.1062 11.9843 12.2355 11.1197 12.2355 11.1197C11.6194 11.375 11.4894 11.7844 11.4622 11.9702C11.4185 11.6619 11.3382 11.4938 11.2958 11.4243C11.6963 11.3835 12.0067 11.0721 12.0067 10.6931C12.0067 10.4811 11.9092 10.2898 11.7507 10.1557L11.882 9.92968L11.6028 9.98086L11.4881 9.78467L11.2832 9.93639L11.1605 9.78467L11.0292 9.95893L10.7825 9.83097L10.8515 10.0363C10.5875 10.1557 10.4058 10.4049 10.4058 10.6931C10.4058 11.0575 10.695 11.3585 11.073 11.4188C11.1976 11.5986 11.2467 11.8271 11.2606 12.0403C10.9151 11.5334 10.3727 11.3683 10.3727 11.3683ZM11.2407 11.4121C11.0478 11.4121 10.8906 11.0953 10.8906 10.7035C10.8906 10.3148 11.0478 9.99792 11.2407 9.99792C11.4337 9.99792 11.5902 10.3148 11.5902 10.7035C11.5902 11.0953 11.4337 11.4121 11.2407 11.4121Z" fill="white"/>
<path d="M11.9388 17.6507C11.8678 17.4927 11.8678 17.3365 11.9388 17.1772H10.9759C10.9043 17.3365 10.9043 17.4927 10.9759 17.6507H11.9388Z" fill="white"/>
<path d="M10.9768 18.7573C10.9052 18.9154 10.9052 19.2327 10.9768 19.3919H11.9397C11.8687 19.2327 11.8687 18.916 11.9397 18.7573H10.9768Z" fill="white"/>
<path d="M12.1684 18.1265L12.3833 17.8092H10.9117L10.7499 17.6499H10.6829H10.1358L10.2121 17.8092H10.36L10.5172 18.1265H12.1684Z" fill="white"/>
<path d="M12.1565 19.5498H12.1021H11.8581H11.6505H11.4071H11.2506H10.9907H10.9104L10.8216 19.3911H10.4979L10.5967 19.5717L10.8607 19.7054H12.13L12.386 19.5693L12.4218 19.3911H12.2142L12.1565 19.5498Z" fill="white"/>
<path d="M51.3968 8.28077C50.0068 7.02926 47.9497 6.36511 46.1432 6.36511C41.5846 6.36511 38.9438 9.50608 38.9717 13.2862C38.9717 16.5551 41.0846 19.7223 46.1432 19.7223C47.8111 19.7223 49.3397 19.339 50.8961 18.1387V14.5121H45.476V11.9585H53.7875V19.2885C51.8418 21.2553 49.4232 22.4045 46.1432 22.4045C38.9996 22.4045 35.9138 18.0376 35.9138 13.2868C35.9138 8.12783 39.4996 3.73535 46.1432 3.73535C48.7282 3.73535 51.3411 4.6292 53.3425 6.44249L51.3968 8.28077Z" fill="white"/>
<path d="M76.2255 13.1201C76.2255 17.9665 73.0158 22.4035 66.2336 22.4035C59.4513 22.4035 56.2416 17.8642 56.2416 13.1457C56.2416 7.68328 60.4003 3.73438 66.2893 3.73438C72.9601 3.75997 76.2255 8.27309 76.2255 13.1201ZM66.2336 19.7615C71.0899 19.7615 73.1278 16.6072 73.1278 13.1707C73.1278 9.86277 71.0621 6.42629 66.2899 6.34951C61.7684 6.34951 59.3399 9.24737 59.3399 13.1707C59.3956 16.3513 61.405 19.7615 66.2336 19.7615Z" fill="white"/>
<path d="M88.4603 22.4029H85.0888L76.7037 3.79102H80.3345L86.7606 18.8555L93.2153 3.79102H96.8169L88.4603 22.4029Z" fill="white"/>
<path d="M98.9264 20.5252C98.9264 23.0295 94.8546 23.0295 94.8546 20.5252C94.8539 18.0508 98.9264 18.0508 98.9264 20.5252Z" fill="white"/>
<path d="M118.651 19.7288C116.636 21.5542 114.033 22.403 111.29 22.403C104.181 22.403 100.991 17.9027 100.963 13.1714C100.935 8.44016 104.293 3.73389 111.29 3.73389C113.921 3.73389 116.468 4.63383 118.455 6.45992L116.356 8.3116C114.957 7.05155 113.11 6.45992 111.29 6.45992C106.309 6.45992 104.041 9.82877 104.07 13.1458C104.098 16.4373 106.225 19.7032 111.29 19.7032C113.11 19.7032 115.125 19.0086 116.496 17.7485L118.651 19.7288Z" fill="white"/>
<path d="M141.205 13.1481C141.205 17.9799 138.006 22.4029 131.244 22.4029C124.482 22.4029 121.283 17.8775 121.283 13.1737C121.283 7.72835 125.429 3.79102 131.3 3.79102C137.95 3.81661 141.205 8.31633 141.205 13.1481ZM131.244 19.77C136.086 19.77 138.117 16.6254 138.117 13.1993C138.117 9.90113 136.058 6.47561 131.3 6.39884C126.792 6.39884 124.371 9.28756 124.371 13.1993C124.427 16.3695 126.43 19.77 131.244 19.77Z" fill="white"/>
<path d="M29.9719 0H27.7854V11.2015H29.9719V0Z" fill="#FBD000"/>
<path d="M29.9719 11.2017H27.7855V18.6693H29.9719V11.2017Z" fill="#00549F"/>
<path d="M29.9719 18.6689H27.7855V26.1372H29.9719V18.6689Z" fill="#D21A3A"/>
</svg>
