<svg width="36" height="36" viewBox="0 0 36 36" fill="none" xmlns="http://www.w3.org/2000/svg">
<path d="M12.1856 25.7626L13.7774 24.1169C15.6134 25.8233 17.7737 26.684 20.2724 26.5252C22.1437 26.4183 23.9212 25.6719 25.3063 24.4112C28.2792 21.749 29.0006 17.432 27.0531 14.0071C25.0702 10.5246 21.0536 8.92236 17.1911 10.1068C13.0823 11.3661 11.1753 15.2502 11.3233 18.1269H14.7288C14.7126 18.228 14.7187 18.2685 14.7005 18.2867C13.1877 19.8039 11.6718 21.3151 10.2046 22.7807L5.53857 18.1542H8.92489C9.06168 14.3844 10.5856 11.3671 13.6913 9.2258C15.7988 7.77534 18.1658 7.20284 20.7 7.43447C22.9874 7.63417 25.1493 8.56467 26.8651 10.0879C28.5808 11.6112 29.759 13.646 30.2246 15.8905C31.245 20.6758 28.8972 25.5218 24.6051 27.6894C20.2785 29.8793 15.1767 28.8486 12.1856 25.7626Z" fill="white"/>
<path d="M18.5766 13.3279H20.3522V15.7446C20.3522 16.4949 20.3695 17.2462 20.3451 17.9965C20.3339 18.3353 20.4599 18.5154 20.7435 18.6802C22.0018 19.4121 23.2459 20.1675 24.5184 20.9321L23.689 22.3385C22.8607 21.8472 22.076 21.3835 21.2924 20.9168C20.4914 20.4398 19.6854 19.9699 18.8967 19.4735C18.7534 19.3834 18.5918 19.1787 18.5918 19.0262C18.5684 17.1448 18.5766 15.2686 18.5766 13.3279Z" fill="white"/>
</svg>
