<svg width="17" height="11" viewBox="0 0 17 11" fill="none" xmlns="http://www.w3.org/2000/svg">
<path d="M0.854749 6.16315C0.742456 6.03064 -0.0124956 5.09857 0.000157221 5.00966C0.868456 3.72027 1.96714 2.56056 3.21397 1.69417C6.50265 -0.590144 10.1641 -0.561264 13.4269 1.76156C14.6331 2.62002 15.6981 3.75142 16.5453 5.0091C15.8599 6.06518 14.9958 7.02217 14.0427 7.80419C9.60575 11.4447 4.48927 10.4469 0.854222 6.16258L0.854749 6.16315ZM5.84786 8.38857C5.49148 8.12866 5.17674 7.75322 4.94055 7.36646C3.94836 5.73958 4.10968 3.58437 5.31961 2.14436C5.45299 1.98523 5.65016 1.8397 5.76878 1.69247C5.79462 1.66076 5.83205 1.64604 5.82098 1.59338C4.0343 2.23043 2.44584 3.4462 1.26386 5.0091C1.25279 5.07592 1.92602 5.83584 2.02513 5.93947C3.0885 7.05332 4.38014 7.92763 5.79304 8.43387L5.84786 8.38857ZM10.6981 8.38857L10.7529 8.43387C12.5285 7.79513 14.108 6.58388 15.2826 5.02892C14.1207 3.4496 12.5159 2.24402 10.7371 1.59564L10.6981 1.64944C10.7761 1.68625 10.8731 1.77175 10.9359 1.83348C12.6846 3.55096 12.692 6.44232 10.9622 8.17622C10.8926 8.24644 10.784 8.34327 10.6981 8.38857ZM8.13591 1.77119C5.68443 1.91049 4.37645 4.92925 5.88951 7.0267C7.30979 8.99561 10.2516 8.5341 11.0867 6.21524C11.8506 4.09344 10.454 1.86405 8.36472 1.76326L8.13539 1.77119H8.13591Z" fill="#71277A"/>
<path d="M6.71824 4.39605C6.83844 4.44305 6.92859 4.54102 7.05354 4.58802C7.65771 4.81565 8.22656 4.32697 8.16751 3.64575C8.15486 3.50022 8.07789 3.39206 8.0742 3.26182C8.7448 3.13554 9.48183 3.59025 9.76809 4.24826C10.1719 5.1758 9.78022 6.28228 8.89769 6.66565C7.55807 7.24777 6.22689 5.8406 6.71877 4.39548L6.71824 4.39605Z" fill="#71277A"/>
</svg>
