<svg width="12" height="12" viewBox="0 0 12 12" fill="none" xmlns="http://www.w3.org/2000/svg">
<path d="M8.22802 0.000282306L6.74072 1.50014H1.50571V9.87896C1.50571 10.15 1.89905 10.5018 2.1736 10.4999L9.80983 10.501C10.171 10.4728 10.4583 10.191 10.4997 9.83181L10.5048 5.26645L11.9989 3.77336L12 9.80951C11.9692 10.8065 11.2458 11.7301 10.2616 11.937C10.1371 11.9633 10.013 11.9704 9.8911 12H2.11491C1.07118 11.9167 0.204366 11.1456 0.03676 10.1068C-0.0148762 7.15369 -0.00838642 4.18645 0.0330919 1.23332C0.147933 0.568659 0.718753 0.0595765 1.38861 0H8.22773L8.22802 0.000282306Z" fill="#71277A"/>
<path d="M10.1017 0.000244141L10.2662 0.0818441L11.905 1.72316C12.0063 1.84627 11.9933 2.00693 11.9256 2.14189L6.62345 7.47638L4.52979 5.337L9.38698 0.468103C9.5907 0.31055 9.72191 0.0719618 9.9846 0.000244141H10.1017Z" fill="#71277A"/>
<path d="M6.14329 8.08597L3.1687 8.81246L3.91841 5.83618L6.14329 8.08597Z" fill="#71277A"/>
</svg>
