<svg width="12" height="13" viewBox="0 0 12 13" fill="none" xmlns="http://www.w3.org/2000/svg">
<path d="M7.10958 0C7.55361 0.0971429 7.95126 0.338487 8.15697 0.753614C8.18857 0.817143 8.29445 1.09244 8.29445 1.14487V1.83664H11.6094C11.762 1.83664 11.9768 2.08874 12 2.23933V2.36504C11.9661 2.53378 11.7661 2.76773 11.5839 2.76773H11.0165L10.1566 12.4393C10.1234 12.6914 9.93311 12.8921 9.66891 12.8834H2.30622C2.0437 12.8797 1.86454 12.6669 1.84101 12.4165L0.983529 2.76773H0.416134C0.234286 2.76773 0.0339496 2.53378 0 2.36504V2.23933C0.0231933 2.08908 0.238319 1.83664 0.390588 1.83664H3.70555V1.14487C3.70555 0.782185 4.19933 0.207059 4.55361 0.104202L4.89042 0H7.10891H7.10958ZM7.38689 1.83664V1.2958C7.38689 1.16908 7.15966 0.934454 7.01916 0.933109C6.38151 0.967059 5.68437 0.880336 5.05378 0.929748C4.90185 0.941849 4.78017 0.991933 4.69345 1.1237C4.67899 1.14555 4.61378 1.28471 4.61378 1.2958V1.83664H7.38689ZM10.1096 2.76773H1.89109L2.72303 11.9516H9.27765L10.1096 2.76773Z" fill="#71277A"/>
<path d="M8.26384 3.67878C8.5556 3.64953 8.77981 3.90836 8.77409 4.18802C8.77308 4.22903 8.75023 4.27239 8.74821 4.31542C8.65947 6.39642 8.41644 8.47138 8.31628 10.5521C8.22619 11.3194 7.24602 11.1326 7.38686 10.3793L7.84233 4.09088C7.87527 3.88348 8.05073 3.70029 8.2635 3.67911L8.26384 3.67878Z" fill="#71277A"/>
<path d="M3.65047 3.67886C3.89821 3.65398 4.12039 3.85365 4.1577 4.09062L4.61316 10.379C4.75031 11.131 3.77484 11.3199 3.68375 10.5518C3.58325 8.47113 3.34056 6.39617 3.25182 4.31516C3.25014 4.27214 3.22695 4.22911 3.22594 4.18776C3.22089 3.93936 3.39468 3.70407 3.65014 3.67852L3.65047 3.67886Z" fill="#71277A"/>
<path d="M5.96967 3.67848C6.21841 3.65932 6.44799 3.86537 6.45505 4.11277V10.6563C6.35892 11.1269 5.74648 11.186 5.56597 10.7366L5.54614 4.08857C5.57102 3.86806 5.74681 3.69563 5.96934 3.67848H5.96967Z" fill="#71277A"/>
</svg>
