<svg width="75" height="75" viewBox="0 0 75 75" fill="none" xmlns="http://www.w3.org/2000/svg">
<path d="M50.4367 6.67603C50.2867 7.61351 50.2117 8.551 50.2117 9.48848C50.2117 17.9259 57.0366 24.747 65.4365 24.747C66.374 24.747 67.274 24.6383 68.2115 24.4883V54.7466C68.2115 67.4626 60.7116 75 47.9618 75H20.2534C7.49989 75 0 67.4626 0 54.7466V27.0007C0 14.2509 7.49989 6.67603 20.2534 6.67603H50.4367ZM51.1905 29.4757C50.1742 29.3632 49.1655 29.8132 48.5618 30.6382L39.4907 42.3755L29.0996 34.2006C28.4621 33.7131 27.7121 33.5219 26.9621 33.6006C26.2159 33.7131 25.5409 34.1219 25.0871 34.7219L13.991 49.1629L13.7623 49.5004C13.1248 50.6966 13.4248 52.2341 14.5498 53.0628C15.0748 53.4003 15.6373 53.6253 16.2748 53.6253C17.141 53.6628 17.9622 53.2091 18.4872 52.5003L27.8996 40.3843L38.5869 48.4129L38.9244 48.6341C40.1244 49.2716 41.6244 48.9754 42.4869 47.8467L53.3242 33.8631L53.1742 33.9381C53.7742 33.1131 53.8867 32.0631 53.4742 31.1257C53.0655 30.1882 52.1617 29.5507 51.1905 29.4757ZM65.9619 0C70.9493 0 74.9992 4.04994 74.9992 9.03736C74.9992 14.0248 70.9493 18.0747 65.9619 18.0747C60.9745 18.0747 56.9245 14.0248 56.9245 9.03736C56.9245 4.04994 60.9745 0 65.9619 0Z" fill="white"/>
</svg>
