<svg width="57" height="65" viewBox="0 0 57 65" fill="none" xmlns="http://www.w3.org/2000/svg">
<path d="M34.0242 53C34.0014 52.9797 34 52.9764 34 52.946C34 52.627 34.0128 52.3029 34.0142 51.9822C34.0171 51.2834 34.0355 50.7061 34.1578 50.0158C34.6411 47.2746 36.3455 44.9469 38.5631 44.0034C40.097 44.876 41.8952 44.8777 43.4277 44C45.6808 44.9672 47.3952 47.3505 47.8515 50.1474C47.9965 51.0336 47.9496 51.7611 47.9723 52.6438C47.9752 52.7569 48.0391 52.9072 47.9624 52.9983H34.0242V53Z" fill="white"/>
<path d="M40.7787 36.0069C43.9153 35.8259 46.029 39.2272 44.4808 41.9735C43.0934 44.4318 39.6188 44.7135 37.867 42.4891C35.8576 39.9377 37.5528 36.193 40.7787 36.0069Z" fill="white"/>
<path d="M32.75 0V5.33333H44V16H14V5.33333H25.25V0H32.75Z" fill="white"/>
<path d="M20.6601 25H46.3246C46.6919 25.0743 46.8554 25.2284 46.9226 25.45C47.0345 25.8081 47.0278 28.3649 46.8845 28.6622C46.8195 28.7932 46.674 28.8919 46.4836 28.9608L20.6623 29C20.463 28.9649 20.2592 28.8703 20.1674 28.7581C19.9883 28.5365 19.9524 25.8054 20.0622 25.45C20.1316 25.2284 20.2951 25.0743 20.6601 25Z" fill="white"/>
<path d="M20.3423 37H33.6498C33.8402 37.0743 33.925 37.2284 33.9598 37.45C34.0179 37.8081 34.0144 40.3649 33.9401 40.6622C33.9064 40.7932 33.831 40.8919 33.7322 40.9608L20.3434 41C20.2401 40.9649 20.1344 40.8703 20.0868 40.7581C19.9939 40.5365 19.9753 37.8054 20.0322 37.45C20.0682 37.2284 20.153 37.0743 20.3423 37Z" fill="white"/>
<path d="M20.2445 49H29.7499C29.8859 49.0743 29.9464 49.2284 29.9713 49.45C30.0128 49.8081 30.0103 52.3649 29.9572 52.6622C29.9332 52.7932 29.8793 52.8919 29.8087 52.9608L20.2453 53C20.1715 52.9649 20.096 52.8703 20.062 52.7581C19.9957 52.5365 19.9824 49.8054 20.023 49.45C20.0487 49.2284 20.1093 49.0743 20.2445 49Z" fill="white"/>
<path d="M12.8576 24.0104C16.7124 23.7179 17.2083 29.7115 13.2964 29.9898C9.24424 30.2791 8.73201 24.3234 12.8576 24.0104Z" fill="white"/>
<path d="M12.8537 36.0109C16.7565 35.7105 17.1713 41.7135 13.2929 41.9902C9.3134 42.2732 8.67328 36.3318 12.8537 36.0109Z" fill="white"/>
<path d="M12.8319 48.0094C16.0071 47.765 17.3247 52.3441 14.278 53.6813C9.94781 55.5813 7.98932 48.3816 12.8319 48.0094Z" fill="white"/>
<path d="M11.4 8V12.75H5.7V60.25H51.3V12.75H45.6V8H57V65H0V8H11.4Z" fill="white"/>
</svg>
