<svg width="190" height="81" viewBox="0 0 190 81" fill="none" xmlns="http://www.w3.org/2000/svg">
<path d="M10.7898 66.0452H8.3118L7.6678 63.9592H4.5038L3.8458 66.0452H1.4238L4.6718 56.8052H7.5558L10.7898 66.0452ZM4.9518 62.3212H7.2198L6.0858 58.5832L4.9518 62.3212ZM18.4724 57.1692L18.6684 58.7652C18.6124 58.7465 18.5564 58.7372 18.5004 58.7372C18.4444 58.7278 18.3884 58.7232 18.3324 58.7232C17.9217 58.7232 17.6137 58.8258 17.4084 59.0312C17.2124 59.2272 17.1144 59.4745 17.1144 59.7732L16.2744 59.4652C16.2744 59.0825 16.3444 58.7138 16.4844 58.3592C16.6244 58.0045 16.8391 57.7152 17.1284 57.4912C17.4271 57.2672 17.8004 57.1552 18.2484 57.1552C18.2764 57.1552 18.3091 57.1552 18.3464 57.1552C18.3931 57.1552 18.4351 57.1598 18.4724 57.1692ZM16.0644 64.4912C16.8764 64.4912 17.4971 64.6638 17.9264 65.0092C18.3651 65.3452 18.5844 65.8305 18.5844 66.4652C18.5844 67.0438 18.4257 67.5245 18.1084 67.9072C17.7911 68.2898 17.3431 68.5745 16.7644 68.7612C16.1951 68.9572 15.5184 69.0552 14.7344 69.0552C13.4651 69.0552 12.5504 68.8965 11.9904 68.5792C11.4304 68.2618 11.1504 67.8325 11.1504 67.2912C11.1504 66.8992 11.3091 66.5818 11.6264 66.3392C11.9437 66.0965 12.4711 65.9658 13.2084 65.9472L13.1524 66.1712C12.5831 66.0965 12.1584 65.9285 11.8784 65.6672C11.5984 65.4058 11.4584 65.0512 11.4584 64.6032C11.4584 64.1552 11.6357 63.7912 11.9904 63.5112C12.3451 63.2312 12.8164 63.0772 13.4044 63.0492L14.2724 63.4552H14.0484C13.6844 63.4738 13.4277 63.5345 13.2784 63.6372C13.1291 63.7398 13.0544 63.8658 13.0544 64.0152C13.0544 64.1738 13.1197 64.2952 13.2504 64.3792C13.3811 64.4538 13.5771 64.4912 13.8384 64.4912H16.0644ZM14.7484 67.5152C15.1964 67.5152 15.5651 67.4825 15.8544 67.4172C16.1531 67.3612 16.3771 67.2772 16.5264 67.1652C16.6757 67.0625 16.7504 66.9412 16.7504 66.8012C16.7504 66.6612 16.6991 66.5492 16.5964 66.4652C16.4937 66.3905 16.3071 66.3532 16.0364 66.3532H13.5304C13.3531 66.3532 13.2084 66.3998 13.0964 66.4932C12.9937 66.5865 12.9424 66.7032 12.9424 66.8432C12.9424 67.0578 13.1011 67.2212 13.4184 67.3332C13.7357 67.4545 14.1791 67.5152 14.7484 67.5152ZM14.8324 58.9052C15.5417 58.9052 16.1484 58.9985 16.6524 59.1852C17.1564 59.3718 17.5391 59.6425 17.8004 59.9972C18.0711 60.3425 18.2064 60.7718 18.2064 61.2852C18.2064 61.7892 18.0711 62.2185 17.8004 62.5732C17.5391 62.9278 17.1564 63.1985 16.6524 63.3852C16.1484 63.5625 15.5417 63.6512 14.8324 63.6512C13.7217 63.6512 12.8771 63.4458 12.2984 63.0352C11.7291 62.6245 11.4444 62.0412 11.4444 61.2852C11.4444 60.7718 11.5751 60.3425 11.8364 59.9972C12.1071 59.6425 12.4944 59.3718 12.9984 59.1852C13.5024 58.9985 14.1137 58.9052 14.8324 58.9052ZM14.8324 60.2632C14.5244 60.2632 14.2724 60.3518 14.0764 60.5292C13.8897 60.7065 13.7964 60.9585 13.7964 61.2852C13.7964 61.6025 13.8897 61.8498 14.0764 62.0272C14.2724 62.2045 14.5244 62.2932 14.8324 62.2932C15.1311 62.2932 15.3784 62.2045 15.5744 62.0272C15.7704 61.8498 15.8684 61.6025 15.8684 61.2852C15.8684 60.9585 15.7704 60.7065 15.5744 60.5292C15.3784 60.3518 15.1311 60.2632 14.8324 60.2632ZM22.9464 66.1852C22.1717 66.1852 21.4997 66.0405 20.9304 65.7512C20.3704 65.4618 19.9364 65.0465 19.6284 64.5052C19.3204 63.9638 19.1664 63.3105 19.1664 62.5452C19.1664 61.7798 19.3204 61.1265 19.6284 60.5852C19.9364 60.0438 20.3657 59.6285 20.9164 59.3392C21.4764 59.0498 22.1157 58.9052 22.8344 58.9052C23.5717 58.9052 24.1971 59.0498 24.7104 59.3392C25.2331 59.6192 25.6297 60.0112 25.9004 60.5152C26.1711 61.0098 26.3064 61.5792 26.3064 62.2232C26.3064 62.3912 26.3017 62.5592 26.2924 62.7272C26.2831 62.8952 26.2691 63.0352 26.2504 63.1472H20.7064V61.8732H25.2004L24.0664 62.3072C24.0664 61.7472 23.9637 61.3178 23.7584 61.0192C23.5624 60.7205 23.2544 60.5712 22.8344 60.5712C22.5357 60.5712 22.2791 60.6412 22.0644 60.7812C21.8591 60.9212 21.7004 61.1405 21.5884 61.4392C21.4857 61.7378 21.4344 62.1205 21.4344 62.5872C21.4344 63.0445 21.4951 63.4178 21.6164 63.7072C21.7377 63.9872 21.9104 64.1925 22.1344 64.3232C22.3584 64.4445 22.6291 64.5052 22.9464 64.5052C23.3011 64.5052 23.5811 64.4352 23.7864 64.2952C24.0011 64.1552 24.1597 63.9592 24.2624 63.7072L26.1664 64.3372C26.0357 64.7385 25.8071 65.0792 25.4804 65.3592C25.1631 65.6298 24.7804 65.8352 24.3324 65.9752C23.8937 66.1152 23.4317 66.1852 22.9464 66.1852ZM27.6378 66.0452V59.0452H29.7658L29.8918 61.4532L29.6258 61.1872C29.7191 60.6832 29.8825 60.2632 30.1158 59.9272C30.3585 59.5912 30.6571 59.3392 31.0118 59.1712C31.3758 58.9938 31.7818 58.9052 32.2298 58.9052C32.7151 58.9052 33.1351 58.9985 33.4898 59.1852C33.8538 59.3718 34.1385 59.6472 34.3438 60.0112C34.5491 60.3752 34.6518 60.8325 34.6518 61.3832V66.0452H32.2718V62.0132C32.2718 61.5278 32.1785 61.1918 31.9918 61.0052C31.8051 60.8185 31.5671 60.7252 31.2778 60.7252C31.0538 60.7252 30.8438 60.7812 30.6478 60.8932C30.4518 60.9958 30.2978 61.1638 30.1858 61.3972C30.0738 61.6305 30.0178 61.9432 30.0178 62.3352V66.0452H27.6378ZM39.6375 58.9052C40.3468 58.9052 40.9348 59.0078 41.4015 59.2132C41.8775 59.4092 42.2461 59.6752 42.5075 60.0112C42.7781 60.3378 42.9461 60.6925 43.0115 61.0752L40.8135 61.8032C40.7481 61.4018 40.6268 61.1032 40.4495 60.9072C40.2815 60.7018 40.0341 60.5992 39.7075 60.5992C39.4088 60.5992 39.1568 60.6692 38.9515 60.8092C38.7555 60.9398 38.6061 61.1545 38.5035 61.4532C38.4008 61.7425 38.3495 62.1158 38.3495 62.5732C38.3495 63.0305 38.4055 63.4038 38.5175 63.6932C38.6295 63.9732 38.7881 64.1785 38.9935 64.3092C39.1988 64.4305 39.4415 64.4912 39.7215 64.4912C39.9548 64.4912 40.1461 64.4492 40.2955 64.3652C40.4541 64.2718 40.5848 64.1412 40.6875 63.9732C40.7901 63.8052 40.8555 63.5998 40.8835 63.3572L43.0255 64.0432C42.9601 64.4538 42.7828 64.8225 42.4935 65.1492C42.2135 65.4665 41.8401 65.7185 41.3735 65.9052C40.9068 66.0918 40.3608 66.1852 39.7355 66.1852C38.9701 66.1852 38.3028 66.0452 37.7335 65.7652C37.1641 65.4758 36.7255 65.0605 36.4175 64.5192C36.1095 63.9685 35.9555 63.3105 35.9555 62.5452C35.9555 61.7798 36.1095 61.1265 36.4175 60.5852C36.7255 60.0345 37.1548 59.6192 37.7055 59.3392C38.2655 59.0498 38.9095 58.9052 39.6375 58.9052ZM45.4528 58.2332C44.9675 58.2332 44.6128 58.1445 44.3888 57.9672C44.1741 57.7805 44.0668 57.4912 44.0668 57.0992C44.0668 56.6978 44.1741 56.4085 44.3888 56.2312C44.6128 56.0445 44.9675 55.9512 45.4528 55.9512C45.9288 55.9512 46.2788 56.0445 46.5028 56.2312C46.7268 56.4085 46.8388 56.6978 46.8388 57.0992C46.8388 57.4912 46.7268 57.7805 46.5028 57.9672C46.2788 58.1445 45.9288 58.2332 45.4528 58.2332ZM46.6428 59.0452V66.0452H44.2628V59.0452H46.6428ZM52.243 61.6072C52.243 61.2805 52.1497 61.0238 51.963 60.8372C51.7857 60.6412 51.543 60.5432 51.235 60.5432C50.927 60.5432 50.661 60.6225 50.437 60.7812C50.2224 60.9305 50.073 61.2012 49.989 61.5932L47.973 61.1172C48.1037 60.4452 48.449 59.9085 49.009 59.5072C49.569 59.1058 50.3577 58.9052 51.375 58.9052C52.0564 58.9052 52.635 59.0078 53.111 59.2132C53.5964 59.4092 53.965 59.7078 54.217 60.1092C54.4784 60.5012 54.609 60.9865 54.609 61.5652V64.1272C54.609 64.4912 54.7724 64.6732 55.099 64.6732C55.267 64.6732 55.4024 64.6545 55.505 64.6172L55.365 65.9752C55.085 66.1058 54.7444 66.1712 54.343 66.1712C53.979 66.1712 53.657 66.1152 53.377 66.0032C53.097 65.8818 52.8777 65.7045 52.719 65.4712C52.5604 65.2285 52.481 64.9252 52.481 64.5612V64.4772L52.747 64.3792C52.747 64.7805 52.6257 65.1165 52.383 65.3872C52.1497 65.6578 51.8417 65.8585 51.459 65.9892C51.0857 66.1198 50.6937 66.1852 50.283 66.1852C49.807 66.1852 49.3917 66.1105 49.037 65.9612C48.6824 65.8118 48.407 65.5972 48.211 65.3172C48.0244 65.0278 47.931 64.6732 47.931 64.2532C47.931 63.7492 48.0804 63.3338 48.379 63.0072C48.687 62.6712 49.1677 62.4378 49.821 62.3072L52.467 61.7612L52.453 63.0212L51.109 63.3012C50.829 63.3572 50.619 63.4412 50.479 63.5532C50.3484 63.6558 50.283 63.8145 50.283 64.0292C50.283 64.2345 50.3577 64.3885 50.507 64.4912C50.6564 64.5938 50.8337 64.6452 51.039 64.6452C51.1977 64.6452 51.347 64.6218 51.487 64.5752C51.6364 64.5285 51.767 64.4585 51.879 64.3652C51.991 64.2625 52.0797 64.1365 52.145 63.9872C52.2104 63.8378 52.243 63.6605 52.243 63.4552V61.6072ZM64.7236 56.8052C65.4796 56.8052 66.1236 56.9265 66.6556 57.1692C67.1876 57.4118 67.5936 57.7618 67.8736 58.2192C68.1536 58.6765 68.2936 59.2318 68.2936 59.8852C68.2936 60.5385 68.1536 61.0938 67.8736 61.5512C67.5936 62.0085 67.1876 62.3585 66.6556 62.6012C66.1236 62.8438 65.4796 62.9652 64.7236 62.9652H62.8896V66.0452H60.4816V56.8052H64.7236ZM64.3456 61.1592C64.8496 61.1592 65.2276 61.0565 65.4796 60.8512C65.7409 60.6365 65.8716 60.3145 65.8716 59.8852C65.8716 59.4558 65.7409 59.1385 65.4796 58.9332C65.2276 58.7185 64.8496 58.6112 64.3456 58.6112H62.8896V61.1592H64.3456ZM72.0312 66.1852C71.5552 66.1852 71.1352 66.1058 70.7712 65.9472C70.4165 65.7792 70.1365 65.5132 69.9312 65.1492C69.7258 64.7852 69.6232 64.3092 69.6232 63.7212V59.0452H72.0032V63.1612C72.0032 63.6092 72.0918 63.9218 72.2692 64.0992C72.4465 64.2765 72.6985 64.3652 73.0252 64.3652C73.1932 64.3652 73.3518 64.3372 73.5012 64.2812C73.6505 64.2158 73.7812 64.1225 73.8932 64.0012C74.0052 63.8705 74.0892 63.7072 74.1452 63.5112C74.2105 63.3058 74.2432 63.0678 74.2432 62.7972V59.0452H76.6232V66.0452H74.4952L74.4252 64.7292C74.2012 65.2238 73.8885 65.5925 73.4872 65.8352C73.0858 66.0685 72.6005 66.1852 72.0312 66.1852ZM72.9412 55.7692H75.1532L73.7392 58.1912H72.0032L72.9412 55.7692ZM82.8271 66.1852C82.3698 66.1852 81.9638 66.0825 81.6091 65.8772C81.2638 65.6718 80.9791 65.3918 80.7551 65.0372C80.5311 64.6732 80.3865 64.2625 80.3211 63.8052L80.5451 63.5112L80.4191 66.0452H78.3331V56.0772H80.7131V61.2432L80.4891 60.9072C80.6198 60.3285 80.8858 59.8525 81.2871 59.4792C81.6885 59.0965 82.2298 58.9052 82.9111 58.9052C83.4525 58.9052 83.9331 59.0498 84.3531 59.3392C84.7825 59.6285 85.1138 60.0485 85.3471 60.5992C85.5898 61.1405 85.7111 61.7985 85.7111 62.5732C85.7111 63.3292 85.5898 63.9778 85.3471 64.5192C85.1045 65.0605 84.7685 65.4758 84.3391 65.7652C83.9098 66.0452 83.4058 66.1852 82.8271 66.1852ZM82.0011 64.4352C82.4118 64.4352 82.7338 64.2858 82.9671 63.9872C83.2005 63.6792 83.3171 63.1985 83.3171 62.5452C83.3171 61.8918 83.2005 61.4158 82.9671 61.1172C82.7338 60.8092 82.4118 60.6552 82.0011 60.6552C81.7305 60.6552 81.4971 60.7345 81.3011 60.8932C81.1145 61.0425 80.9698 61.2572 80.8671 61.5372C80.7645 61.8172 80.7131 62.1578 80.7131 62.5592C80.7131 62.9605 80.7645 63.3012 80.8671 63.5812C80.9698 63.8612 81.1191 64.0758 81.3151 64.2252C81.5111 64.3652 81.7398 64.4352 82.0011 64.4352ZM89.4625 56.0772V63.6652C89.4625 63.9732 89.5138 64.1925 89.6165 64.3232C89.7191 64.4538 89.8918 64.5192 90.1345 64.5192C90.2745 64.5192 90.3911 64.5098 90.4845 64.4912C90.5778 64.4725 90.6898 64.4445 90.8205 64.4072L90.6665 65.8352C90.4985 65.9378 90.2791 66.0218 90.0085 66.0872C89.7378 66.1525 89.4718 66.1852 89.2105 66.1852C88.4638 66.1852 87.9225 66.0125 87.5865 65.6672C87.2505 65.3218 87.0825 64.7572 87.0825 63.9732V56.0772H89.4625ZM92.8805 58.2332C92.3952 58.2332 92.0405 58.1445 91.8165 57.9672C91.6019 57.7805 91.4945 57.4912 91.4945 57.0992C91.4945 56.6978 91.6019 56.4085 91.8165 56.2312C92.0405 56.0445 92.3952 55.9512 92.8805 55.9512C93.3565 55.9512 93.7065 56.0445 93.9305 56.2312C94.1545 56.4085 94.2665 56.6978 94.2665 57.0992C94.2665 57.4912 94.1545 57.7805 93.9305 57.9672C93.7065 58.1445 93.3565 58.2332 92.8805 58.2332ZM94.0705 59.0452V66.0452H91.6905V59.0452H94.0705ZM99.0828 58.9052C99.7921 58.9052 100.38 59.0078 100.847 59.2132C101.323 59.4092 101.691 59.6752 101.953 60.0112C102.223 60.3378 102.391 60.6925 102.457 61.0752L100.259 61.8032C100.193 61.4018 100.072 61.1032 99.8948 60.9072C99.7268 60.7018 99.4794 60.5992 99.1528 60.5992C98.8541 60.5992 98.6021 60.6692 98.3968 60.8092C98.2008 60.9398 98.0514 61.1545 97.9488 61.4532C97.8461 61.7425 97.7948 62.1158 97.7948 62.5732C97.7948 63.0305 97.8508 63.4038 97.9628 63.6932C98.0748 63.9732 98.2334 64.1785 98.4388 64.3092C98.6441 64.4305 98.8868 64.4912 99.1668 64.4912C99.4001 64.4912 99.5914 64.4492 99.7408 64.3652C99.8994 64.2718 100.03 64.1412 100.133 63.9732C100.235 63.8052 100.301 63.5998 100.329 63.3572L102.471 64.0432C102.405 64.4538 102.228 64.8225 101.939 65.1492C101.659 65.4665 101.285 65.7185 100.819 65.9052C100.352 66.0918 99.8061 66.1852 99.1808 66.1852C98.4154 66.1852 97.7481 66.0452 97.1788 65.7652C96.6094 65.4758 96.1708 65.0605 95.8628 64.5192C95.5548 63.9685 95.4008 63.3105 95.4008 62.5452C95.4008 61.7798 95.5548 61.1265 95.8628 60.5852C96.1708 60.0345 96.6001 59.6192 97.1508 59.3392C97.7108 59.0498 98.3548 58.9052 99.0828 58.9052ZM107.614 61.6072C107.614 61.2805 107.521 61.0238 107.334 60.8372C107.157 60.6412 106.914 60.5432 106.606 60.5432C106.298 60.5432 106.032 60.6225 105.808 60.7812C105.593 60.9305 105.444 61.2012 105.36 61.5932L103.344 61.1172C103.475 60.4452 103.82 59.9085 104.38 59.5072C104.94 59.1058 105.729 58.9052 106.746 58.9052C107.427 58.9052 108.006 59.0078 108.482 59.2132C108.967 59.4092 109.336 59.7078 109.588 60.1092C109.849 60.5012 109.98 60.9865 109.98 61.5652V64.1272C109.98 64.4912 110.143 64.6732 110.47 64.6732C110.638 64.6732 110.773 64.6545 110.876 64.6172L110.736 65.9752C110.456 66.1058 110.115 66.1712 109.714 66.1712C109.35 66.1712 109.028 66.1152 108.748 66.0032C108.468 65.8818 108.249 65.7045 108.09 65.4712C107.931 65.2285 107.852 64.9252 107.852 64.5612V64.4772L108.118 64.3792C108.118 64.7805 107.997 65.1165 107.754 65.3872C107.521 65.6578 107.213 65.8585 106.83 65.9892C106.457 66.1198 106.065 66.1852 105.654 66.1852C105.178 66.1852 104.763 66.1105 104.408 65.9612C104.053 65.8118 103.778 65.5972 103.582 65.3172C103.395 65.0278 103.302 64.6732 103.302 64.2532C103.302 63.7492 103.451 63.3338 103.75 63.0072C104.058 62.6712 104.539 62.4378 105.192 62.3072L107.838 61.7612L107.824 63.0212L106.48 63.3012C106.2 63.3572 105.99 63.4412 105.85 63.5532C105.719 63.6558 105.654 63.8145 105.654 64.0292C105.654 64.2345 105.729 64.3885 105.878 64.4912C106.027 64.5938 106.205 64.6452 106.41 64.6452C106.569 64.6452 106.718 64.6218 106.858 64.5752C107.007 64.5285 107.138 64.4585 107.25 64.3652C107.362 64.2625 107.451 64.1365 107.516 63.9872C107.581 63.8378 107.614 63.6605 107.614 63.4552V61.6072ZM118.261 66.1852C117.682 66.1852 117.173 66.0452 116.735 65.7652C116.305 65.4758 115.969 65.0605 115.727 64.5192C115.493 63.9778 115.377 63.3292 115.377 62.5732C115.377 61.7892 115.498 61.1265 115.741 60.5852C115.993 60.0438 116.338 59.6285 116.777 59.3392C117.225 59.0498 117.738 58.9052 118.317 58.9052C118.951 58.9052 119.46 59.1012 119.843 59.4932C120.235 59.8758 120.487 60.3658 120.599 60.9632L120.375 61.2572V56.0772H122.755V66.0452H120.627L120.473 63.6652L120.753 63.8752C120.697 64.3418 120.552 64.7478 120.319 65.0932C120.095 65.4385 119.805 65.7092 119.451 65.9052C119.105 66.0918 118.709 66.1852 118.261 66.1852ZM119.087 64.4352C119.357 64.4352 119.586 64.3652 119.773 64.2252C119.969 64.0758 120.118 63.8565 120.221 63.5672C120.323 63.2778 120.375 62.9232 120.375 62.5032C120.375 62.1112 120.323 61.7798 120.221 61.5092C120.127 61.2292 119.983 61.0192 119.787 60.8792C119.6 60.7298 119.371 60.6552 119.101 60.6552C118.69 60.6552 118.363 60.8092 118.121 61.1172C117.887 61.4158 117.771 61.8918 117.771 62.5452C117.771 63.1985 117.887 63.6792 118.121 63.9872C118.354 64.2858 118.676 64.4352 119.087 64.4352ZM127.878 66.1852C127.103 66.1852 126.431 66.0405 125.862 65.7512C125.302 65.4618 124.868 65.0465 124.56 64.5052C124.252 63.9638 124.098 63.3105 124.098 62.5452C124.098 61.7798 124.252 61.1265 124.56 60.5852C124.868 60.0438 125.297 59.6285 125.848 59.3392C126.408 59.0498 127.047 58.9052 127.766 58.9052C128.503 58.9052 129.129 59.0498 129.642 59.3392C130.165 59.6192 130.561 60.0112 130.832 60.5152C131.103 61.0098 131.238 61.5792 131.238 62.2232C131.238 62.3912 131.233 62.5592 131.224 62.7272C131.215 62.8952 131.201 63.0352 131.182 63.1472H125.638V61.8732H130.132L128.998 62.3072C128.998 61.7472 128.895 61.3178 128.69 61.0192C128.494 60.7205 128.186 60.5712 127.766 60.5712C127.467 60.5712 127.211 60.6412 126.996 60.7812C126.791 60.9212 126.632 61.1405 126.52 61.4392C126.417 61.7378 126.366 62.1205 126.366 62.5872C126.366 63.0445 126.427 63.4178 126.548 63.7072C126.669 63.9872 126.842 64.1925 127.066 64.3232C127.29 64.4445 127.561 64.5052 127.878 64.5052C128.233 64.5052 128.513 64.4352 128.718 64.2952C128.933 64.1552 129.091 63.9592 129.194 63.7072L131.098 64.3372C130.967 64.7385 130.739 65.0792 130.412 65.3592C130.095 65.6298 129.712 65.8352 129.264 65.9752C128.825 66.1152 128.363 66.1852 127.878 66.1852ZM136.743 66.0452V56.8052H143.939V58.6672H139.151V60.5432H142.959V62.2932H139.151V64.1832H144.121V66.0452H136.743ZM145.407 66.0452V59.0452H147.535L147.605 60.4032C147.829 59.9085 148.142 59.5352 148.543 59.2832C148.954 59.0312 149.425 58.9052 149.957 58.9052C150.48 58.9052 150.933 59.0218 151.315 59.2552C151.698 59.4885 151.983 59.8338 152.169 60.2912C152.319 59.9832 152.51 59.7265 152.743 59.5212C152.986 59.3158 153.261 59.1618 153.569 59.0592C153.877 58.9565 154.195 58.9052 154.521 58.9052C154.988 58.9052 155.399 58.9985 155.753 59.1852C156.108 59.3625 156.388 59.6378 156.593 60.0112C156.808 60.3752 156.915 60.8325 156.915 61.3832V66.0452H154.535V61.9292C154.535 61.4812 154.447 61.1685 154.269 60.9912C154.101 60.8138 153.873 60.7252 153.583 60.7252C153.35 60.7252 153.135 60.7858 152.939 60.9072C152.753 61.0192 152.608 61.1918 152.505 61.4252C152.403 61.6585 152.351 61.9525 152.351 62.3072V66.0452H149.971V61.9292C149.971 61.4812 149.883 61.1685 149.705 60.9912C149.528 60.8138 149.299 60.7252 149.019 60.7252C148.805 60.7252 148.599 60.7812 148.403 60.8932C148.217 61.0052 148.067 61.1825 147.955 61.4252C147.843 61.6585 147.787 61.9665 147.787 62.3492V66.0452H145.407ZM158.587 68.9852V59.0452H160.729L160.855 61.5792L160.575 61.2852C160.64 60.8185 160.785 60.4078 161.009 60.0532C161.233 59.6985 161.522 59.4185 161.877 59.2132C162.232 59.0078 162.638 58.9052 163.095 58.9052C163.674 58.9052 164.178 59.0498 164.607 59.3392C165.036 59.6192 165.368 60.0298 165.601 60.5712C165.844 61.1032 165.965 61.7518 165.965 62.5172C165.965 63.2825 165.844 63.9405 165.601 64.4912C165.358 65.0418 165.018 65.4618 164.579 65.7512C164.15 66.0405 163.646 66.1852 163.067 66.1852C162.432 66.1852 161.919 65.9985 161.527 65.6252C161.135 65.2425 160.874 64.7618 160.743 64.1832L160.967 63.8472V68.9852H158.587ZM162.255 64.4352C162.666 64.4352 162.988 64.2858 163.221 63.9872C163.454 63.6792 163.571 63.1985 163.571 62.5452C163.571 61.8918 163.454 61.4158 163.221 61.1172C162.997 60.8092 162.68 60.6552 162.269 60.6552C162.008 60.6552 161.779 60.7298 161.583 60.8792C161.387 61.0192 161.233 61.2292 161.121 61.5092C161.018 61.7892 160.967 62.1345 160.967 62.5452C160.967 62.9372 161.014 63.2778 161.107 63.5672C161.21 63.8472 161.359 64.0618 161.555 64.2112C161.751 64.3605 161.984 64.4352 162.255 64.4352ZM169.716 56.0772V63.6652C169.716 63.9732 169.768 64.1925 169.87 64.3232C169.973 64.4538 170.146 64.5192 170.388 64.5192C170.528 64.5192 170.645 64.5098 170.738 64.4912C170.832 64.4725 170.944 64.4445 171.074 64.4072L170.92 65.8352C170.752 65.9378 170.533 66.0218 170.262 66.0872C169.992 66.1525 169.726 66.1852 169.464 66.1852C168.718 66.1852 168.176 66.0125 167.84 65.6672C167.504 65.3218 167.336 64.7572 167.336 63.9732V56.0772H169.716ZM175.36 66.1852C174.586 66.1852 173.914 66.0405 173.344 65.7512C172.784 65.4618 172.35 65.0465 172.042 64.5052C171.734 63.9638 171.58 63.3105 171.58 62.5452C171.58 61.7798 171.734 61.1265 172.042 60.5852C172.35 60.0438 172.78 59.6285 173.33 59.3392C173.89 59.0498 174.53 58.9052 175.248 58.9052C175.986 58.9052 176.611 59.0498 177.124 59.3392C177.647 59.6192 178.044 60.0112 178.314 60.5152C178.585 61.0098 178.72 61.5792 178.72 62.2232C178.72 62.3912 178.716 62.5592 178.706 62.7272C178.697 62.8952 178.683 63.0352 178.664 63.1472H173.12V61.8732H177.614L176.48 62.3072C176.48 61.7472 176.378 61.3178 176.172 61.0192C175.976 60.7205 175.668 60.5712 175.248 60.5712C174.95 60.5712 174.693 60.6412 174.478 60.7812C174.273 60.9212 174.114 61.1405 174.002 61.4392C173.9 61.7378 173.848 62.1205 173.848 62.5872C173.848 63.0445 173.909 63.4178 174.03 63.7072C174.152 63.9872 174.324 64.1925 174.548 64.3232C174.772 64.4445 175.043 64.5052 175.36 64.5052C175.715 64.5052 175.995 64.4352 176.2 64.2952C176.415 64.1552 176.574 63.9592 176.676 63.7072L178.58 64.3372C178.45 64.7385 178.221 65.0792 177.894 65.3592C177.577 65.6298 177.194 65.8352 176.746 65.9752C176.308 66.1152 175.846 66.1852 175.36 66.1852ZM183.384 58.9052C184.121 58.9052 184.765 59.0498 185.316 59.3392C185.876 59.6192 186.31 60.0345 186.618 60.5852C186.935 61.1265 187.094 61.7798 187.094 62.5452C187.094 63.3105 186.935 63.9685 186.618 64.5192C186.31 65.0605 185.876 65.4758 185.316 65.7652C184.765 66.0452 184.121 66.1852 183.384 66.1852C182.665 66.1852 182.026 66.0452 181.466 65.7652C180.906 65.4758 180.467 65.0605 180.15 64.5192C179.842 63.9685 179.688 63.3105 179.688 62.5452C179.688 61.7798 179.842 61.1265 180.15 60.5852C180.467 60.0345 180.906 59.6192 181.466 59.3392C182.026 59.0498 182.665 58.9052 183.384 58.9052ZM183.384 60.5992C183.113 60.5992 182.88 60.6645 182.684 60.7952C182.488 60.9258 182.339 61.1358 182.236 61.4252C182.133 61.7145 182.082 62.0878 182.082 62.5452C182.082 63.0025 182.133 63.3758 182.236 63.6652C182.339 63.9452 182.488 64.1552 182.684 64.2952C182.88 64.4258 183.113 64.4912 183.384 64.4912C183.664 64.4912 183.902 64.4258 184.098 64.2952C184.294 64.1552 184.443 63.9452 184.546 63.6652C184.649 63.3758 184.7 63.0025 184.7 62.5452C184.7 62.0878 184.649 61.7145 184.546 61.4252C184.443 61.1358 184.294 60.9258 184.098 60.7952C183.902 60.6645 183.664 60.5992 183.384 60.5992Z" fill="white"/>
<path d="M172.17 35.1459C162.452 35.1459 154.553 27.2022 154.626 17.4658C154.7 7.92521 162.489 0.133083 172.033 0.0591543C181.769 -0.0147748 189.713 7.88455 189.713 17.6025C189.713 19.6319 188.068 21.2731 186.043 21.2731H162.655C164.134 25.0878 167.841 27.801 172.17 27.801C174.103 27.801 175.944 27.2724 177.533 26.2855C178.927 25.4205 180.738 25.6312 181.936 26.7512C183.688 28.3925 183.426 31.2683 181.378 32.5288C178.631 34.2218 175.437 35.1459 172.17 35.1459ZM162.655 13.9319H181.688C180.21 10.1172 176.502 7.40401 172.173 7.40401C167.845 7.40401 164.134 10.1172 162.659 13.9319H162.655Z" fill="white"/>
<path d="M92.9622 35.0868C83.2886 35.0868 75.4188 27.217 75.4188 17.5434C75.4188 7.86977 83.2886 1.52588e-05 92.9622 1.52588e-05C102.636 1.52588e-05 110.506 7.86977 110.506 17.5434C110.506 27.217 102.636 35.0868 92.9622 35.0868ZM92.9622 7.34487C87.3362 7.34487 82.7637 11.9211 82.7637 17.5434C82.7637 23.1657 87.3399 27.7419 92.9622 27.7419C98.5845 27.7419 103.161 23.1657 103.161 17.5434C103.161 11.9211 98.5845 7.34487 92.9622 7.34487Z" fill="white"/>
<path d="M106.835 35.2642C104.806 35.2642 103.164 33.6193 103.164 31.5936V17.5471H110.509V31.5936C110.509 33.623 108.864 35.2642 106.839 35.2642H106.835Z" fill="white"/>
<path d="M133.179 35.0868C123.506 35.0868 115.636 27.217 115.636 17.5434C115.636 7.86977 123.506 1.52588e-05 133.179 1.52588e-05C142.853 1.52588e-05 150.723 7.86977 150.723 17.5434C150.723 27.217 142.853 35.0868 133.179 35.0868ZM133.179 7.34487C127.553 7.34487 122.981 11.9211 122.981 17.5434C122.981 23.1657 127.557 27.7419 133.179 27.7419C138.802 27.7419 143.378 23.1657 143.378 17.5434C143.378 11.9211 138.802 7.34487 133.179 7.34487Z" fill="white"/>
<path d="M119.307 52.8667C117.277 52.8667 115.636 51.2218 115.636 49.1961V17.5471H122.981V49.1961C122.981 51.2255 121.336 52.8667 119.31 52.8667H119.307Z" fill="white"/>
<path d="M66.6175 35.1163C64.5882 35.1163 62.9469 33.4714 62.9469 31.4457C62.9469 27.6938 59.8937 24.6406 56.1418 24.6406C52.3899 24.6406 49.3366 27.6938 49.3366 31.4457C49.3366 33.4751 47.6917 35.1163 45.666 35.1163C43.6403 35.1163 41.9954 33.4714 41.9954 31.4457C41.9954 23.6425 48.3422 17.2957 56.1455 17.2957C63.9487 17.2957 70.2955 23.6425 70.2955 31.4457C70.2955 33.4751 68.6506 35.1163 66.6249 35.1163H66.6175Z" fill="white"/>
<path d="M56.1417 0.0591431C51.8945 0.0591431 48.4383 3.51533 48.4383 7.76256C48.4383 12.0098 51.8945 15.466 56.1417 15.466C60.3889 15.466 63.8451 12.0098 63.8451 7.76256C63.8451 3.51533 60.3889 0.0591431 56.1417 0.0591431Z" fill="white"/>
<path d="M45.6217 35.1605C43.5923 35.1605 41.9511 33.5156 41.9511 31.4899C41.9511 27.738 38.8978 24.6848 35.1459 24.6848C31.394 24.6848 28.3407 27.738 28.3407 31.4899C28.3407 33.5193 26.6958 35.1605 24.6702 35.1605C22.6445 35.1605 20.9996 33.5156 20.9996 31.4899C20.9996 23.6867 27.3464 17.3399 35.1496 17.3399C42.9528 17.3399 49.2996 23.6867 49.2996 31.4899C49.2996 33.5193 47.6547 35.1605 45.6291 35.1605H45.6217Z" fill="white"/>
<path d="M35.1423 0.0591431C30.8951 0.0591431 27.4389 3.51533 27.4389 7.76256C27.4389 12.0098 30.8951 15.466 35.1423 15.466C39.3895 15.466 42.8457 12.0098 42.8457 7.76256C42.8457 3.51533 39.3895 0.0591431 35.1423 0.0591431Z" fill="white"/>
<path d="M24.6221 35.2052C22.5927 35.2052 20.9515 33.5603 20.9515 31.5347C20.9515 27.7828 17.8982 24.7295 14.1463 24.7295C10.3944 24.7295 7.34116 27.7828 7.34116 31.5347C7.34116 33.564 5.69624 35.2052 3.67058 35.2052C1.64492 35.2052 0 33.5603 0 31.5347C0 23.7314 6.34681 17.3846 14.15 17.3846C21.9532 17.3846 28.3001 23.7314 28.3001 31.5347C28.3001 33.564 26.6551 35.2052 24.6295 35.2052H24.6221Z" fill="white"/>
<path d="M14.1463 0.0591431C9.89912 0.0591431 6.44293 3.51533 6.44293 7.76256C6.44293 12.0098 9.89912 15.466 14.1463 15.466C18.3936 15.466 21.8498 12.0098 21.8498 7.76256C21.8498 3.51533 18.3936 0.0591431 14.1463 0.0591431Z" fill="white"/>
</svg>
