<svg width="182" height="68" viewBox="0 0 182 68" fill="none" xmlns="http://www.w3.org/2000/svg">
<path d="M10.6073 64.3691H8.19007L7.56322 62.3369H4.47813L3.83489 64.3691H1.47498L4.64201 55.3596H7.4526L10.6073 64.3691ZM4.91651 60.735H7.12893L6.02272 57.0886L4.91651 60.735Z" fill="white"/>
<path d="M15.7533 62.8532C16.544 62.8532 17.1545 63.0212 17.5765 63.353C17.9985 63.6849 18.2115 64.1602 18.2115 64.7788C18.2115 65.3442 18.0558 65.8113 17.7485 66.1841C17.4372 66.5569 17.0029 66.8355 16.4457 67.024C15.8844 67.2125 15.2247 67.3026 14.4586 67.3026C13.2213 67.3026 12.3281 67.1469 11.7832 66.8396C11.2383 66.5283 10.9638 66.1104 10.9638 65.5818C10.9638 65.2008 11.1195 64.8894 11.4268 64.6518C11.7381 64.4142 12.2503 64.2872 12.9673 64.2708L12.914 64.4879C12.3568 64.4142 11.943 64.2503 11.6726 63.9963C11.4022 63.7423 11.2629 63.394 11.2629 62.9597C11.2629 62.5254 11.435 62.169 11.7832 61.8945C12.1315 61.62 12.5903 61.4725 13.1639 61.4438L14.012 61.8412H13.7949C13.4384 61.8576 13.1885 61.9191 13.0451 62.0174C12.9017 62.1157 12.828 62.2386 12.828 62.3861C12.828 62.5418 12.8935 62.6565 13.0205 62.7344C13.1475 62.8122 13.3401 62.8491 13.5941 62.8491H15.7656L15.7533 62.8532ZM14.5528 57.4082C15.2452 57.4082 15.8352 57.4983 16.3269 57.6827C16.8185 57.863 17.1913 58.1252 17.4535 58.4693C17.7158 58.8135 17.8428 59.2314 17.8428 59.7312C17.8428 60.2311 17.7117 60.6408 17.4535 60.989C17.1954 61.3332 16.8185 61.5954 16.3269 61.7757C15.8352 61.9518 15.2452 62.042 14.5528 62.042C13.4712 62.042 12.6477 61.8412 12.0905 61.4397C11.5292 61.0382 11.2506 60.4687 11.2506 59.7353C11.2506 59.2355 11.3817 58.8135 11.6398 58.4734C11.8979 58.1334 12.2749 57.8712 12.7665 57.6868C13.2581 57.5024 13.8522 57.4123 14.5528 57.4123V57.4082ZM14.4709 65.799C14.9093 65.799 15.2698 65.7703 15.5566 65.7088C15.8434 65.6474 16.0605 65.5695 16.2039 65.463C16.3473 65.3565 16.4211 65.2377 16.4211 65.1025C16.4211 64.9673 16.3719 64.8567 16.2695 64.7829C16.1671 64.7051 15.9868 64.6682 15.7246 64.6682H13.2827C13.1107 64.6682 12.9714 64.7133 12.8648 64.8034C12.7583 64.8935 12.7091 65.0082 12.7091 65.1435C12.7091 65.3524 12.8648 65.5122 13.1721 65.6269C13.4794 65.7416 13.9137 65.799 14.4668 65.799H14.4709ZM14.5528 58.7315C14.2537 58.7315 14.0079 58.8176 13.8235 58.9897C13.6392 59.1617 13.5449 59.4076 13.5449 59.7271C13.5449 60.0467 13.6392 60.2761 13.8235 60.4523C14.012 60.6244 14.2537 60.7104 14.5528 60.7104C14.8519 60.7104 15.0854 60.6244 15.278 60.4523C15.4706 60.2802 15.5648 60.0385 15.5648 59.7271C15.5648 59.4157 15.4706 59.1617 15.278 58.9897C15.0854 58.8176 14.8437 58.7315 14.5528 58.7315ZM18.1009 55.712L18.2934 57.2689C18.2402 57.2525 18.1828 57.2402 18.1296 57.2361C18.0763 57.232 18.0189 57.2279 17.9657 57.2279C17.5642 57.2279 17.2692 57.3262 17.0725 57.5229C16.8759 57.7196 16.7775 57.9613 16.7775 58.2522L15.9581 57.9531C15.9581 57.5803 16.0278 57.2197 16.163 56.8756C16.2982 56.5314 16.5112 56.2487 16.798 56.0275C17.0848 55.8103 17.4454 55.6997 17.8837 55.6997H17.9862C18.0271 55.6997 18.064 55.7038 18.1009 55.712Z" fill="white"/>
<path d="M22.4561 64.5043C21.7104 64.5043 21.0631 64.365 20.51 64.0823C19.961 63.7996 19.5349 63.3981 19.2399 62.8737C18.9449 62.3493 18.7974 61.7101 18.7974 60.9563C18.7974 60.2024 18.9449 59.5633 19.2399 59.0388C19.5349 58.5144 19.9528 58.1129 20.4936 57.8302C21.0344 57.5475 21.6571 57.4082 22.3577 57.4082C23.0583 57.4082 23.6852 57.5475 24.1891 57.8261C24.689 58.1047 25.0741 58.4857 25.3404 58.9733C25.6067 59.4608 25.7419 60.018 25.7419 60.6449C25.7419 60.817 25.7378 60.9849 25.7296 61.1447C25.7214 61.3045 25.7051 61.4397 25.6887 61.5462H20.2846V60.2884H24.6808L23.5623 60.7268C23.5623 60.1819 23.464 59.764 23.2673 59.469C23.0706 59.1781 22.7675 59.0306 22.3577 59.0306C22.0669 59.0306 21.8169 59.1003 21.6121 59.2355C21.4072 59.3707 21.2515 59.5838 21.1491 59.8705C21.0426 60.1573 20.9934 60.5261 20.9934 60.9849C20.9934 61.4438 21.0508 61.8044 21.1696 62.0789C21.2884 62.3534 21.4564 62.55 21.6735 62.6811C21.8907 62.8122 22.157 62.8737 22.4643 62.8737C22.8084 62.8737 23.087 62.804 23.2919 62.6688C23.4967 62.5336 23.6483 62.3411 23.7508 62.0953L25.6067 62.7221C25.4797 63.1031 25.2585 63.4309 24.943 63.6972C24.6275 63.9676 24.2588 64.1684 23.8286 64.3036C23.4025 64.4388 22.9395 64.5084 22.452 64.5084L22.4561 64.5043Z" fill="white"/>
<path d="M27.0407 64.3691V57.5434H29.1138L29.2367 59.891L28.9786 59.6329C29.0687 59.1412 29.2326 58.7315 29.4621 58.4037C29.6956 58.076 29.9865 57.8301 30.3347 57.6581C30.6871 57.4901 31.0804 57.4041 31.5147 57.4041C31.9858 57.4041 32.3997 57.4942 32.7479 57.6786C33.0962 57.8629 33.3748 58.1292 33.5755 58.4816C33.7763 58.838 33.8746 59.2846 33.8746 59.8213V64.365H31.5557V60.4318C31.5557 59.9606 31.4655 59.6329 31.2812 59.4485C31.1009 59.2682 30.8674 59.174 30.5847 59.174C30.3675 59.174 30.1627 59.2272 29.9701 59.3297C29.7775 59.4362 29.63 59.6001 29.5194 59.8295C29.4088 60.0549 29.3555 60.3621 29.3555 60.7432V64.3609H27.0366L27.0407 64.3691Z" fill="white"/>
<path d="M38.7378 57.4081C39.4302 57.4081 40.0038 57.5064 40.4627 57.7031C40.9216 57.8997 41.2821 58.1579 41.5402 58.4815C41.7983 58.8052 41.9622 59.1534 42.0237 59.5263L39.8809 60.2351C39.8154 59.8459 39.7006 59.5509 39.5327 59.3542C39.3647 59.1575 39.123 59.0592 38.8034 59.0592C38.5125 59.0592 38.2667 59.1248 38.0741 59.2559C37.8815 59.387 37.73 59.5959 37.6316 59.8827C37.5292 60.1695 37.48 60.5342 37.48 60.9807C37.48 61.4273 37.5333 61.7879 37.6439 62.0665C37.7545 62.3451 37.9061 62.5458 38.1069 62.6687C38.3076 62.7916 38.5453 62.8531 38.8157 62.8531C39.041 62.8531 39.2336 62.8121 39.3811 62.722C39.5327 62.636 39.6556 62.5089 39.758 62.3451C39.8563 62.1812 39.9219 61.9804 39.9506 61.7428L42.0401 62.4106C41.9745 62.8121 41.8065 63.1686 41.5279 63.484C41.2493 63.7995 40.8847 64.0453 40.4299 64.2297C39.9752 64.41 39.4425 64.5042 38.8321 64.5042C38.0864 64.5042 37.435 64.3649 36.8819 64.0863C36.3288 63.8077 35.8986 63.4021 35.5995 62.8695C35.3004 62.3369 35.1488 61.6977 35.1488 60.9521C35.1488 60.2064 35.3004 59.5672 35.5995 59.0346C35.8986 58.502 36.3206 58.0964 36.8614 57.8178C37.4022 57.5392 38.029 57.3999 38.7378 57.3999V57.4081Z" fill="white"/>
<path d="M44.404 56.7528C43.9288 56.7528 43.5887 56.6626 43.3716 56.4865C43.1585 56.3103 43.052 56.0276 43.052 55.6466C43.052 55.2656 43.1585 54.9706 43.3716 54.7944C43.5846 54.6182 43.9288 54.5281 44.404 54.5281C44.8793 54.5281 45.2071 54.6182 45.4283 54.7944C45.6455 54.9706 45.7561 55.2574 45.7561 55.6466C45.7561 56.0358 45.6455 56.3103 45.4283 56.4865C45.2112 56.6626 44.867 56.7528 44.404 56.7528ZM45.5635 57.5435V64.3692H43.2446V57.5435H45.5635Z" fill="white"/>
<path d="M51.025 60.0427C51.025 59.7231 50.9348 59.4732 50.7586 59.2847C50.5825 59.0962 50.3407 59.0061 50.0417 59.0061C49.7426 59.0061 49.4845 59.0799 49.2714 59.2315C49.0584 59.383 48.9109 59.6494 48.8289 60.0304L46.8623 59.5674C46.9893 58.9119 47.3253 58.3875 47.8743 57.9982C48.4192 57.609 49.1895 57.4124 50.181 57.4124C50.8447 57.4124 51.4101 57.5107 51.8812 57.7073C52.3483 57.904 52.7088 58.1949 52.9588 58.58C53.2087 58.9651 53.3357 59.4404 53.3357 60.0058V62.505C53.3357 62.8615 53.4955 63.0376 53.8151 63.0376C53.9789 63.0376 54.11 63.0212 54.2125 62.9844L54.0773 64.3077C53.8028 64.4347 53.4709 64.5003 53.0817 64.5003C52.7252 64.5003 52.4139 64.4429 52.1394 64.3282C51.8649 64.2135 51.6518 64.0414 51.4961 63.8079C51.3404 63.5743 51.2626 63.2834 51.2626 62.927V62.8451L51.5207 62.7508C51.5207 63.1442 51.406 63.4678 51.1724 63.7341C50.9389 64.0004 50.6398 64.193 50.2711 64.32C49.9024 64.447 49.5172 64.5126 49.1198 64.5126C48.6568 64.5126 48.2512 64.4388 47.903 64.2954C47.5588 64.152 47.2925 63.939 47.1041 63.6604C46.9156 63.3818 46.8255 63.0417 46.8255 62.6279C46.8255 62.1363 46.9729 61.7307 47.2679 61.407C47.5629 61.0833 48.03 60.858 48.6691 60.731L51.2503 60.1984L51.238 61.4275L49.9269 61.702C49.6524 61.7552 49.4517 61.8372 49.3206 61.9396C49.1895 62.042 49.1239 62.2018 49.1239 62.4108C49.1239 62.6197 49.1977 62.7631 49.3411 62.8615C49.4845 62.9639 49.6606 63.013 49.8614 63.013C50.0171 63.013 50.1646 62.9885 50.3039 62.9434C50.4432 62.8983 50.5702 62.8287 50.6808 62.7303C50.7914 62.6361 50.8775 62.5132 50.9389 62.3698C51.0045 62.2264 51.0331 62.0502 51.0331 61.8495V60.0468L51.025 60.0427Z" fill="white"/>
<path d="M62.722 55.3596C63.3325 55.3596 63.861 55.4702 64.3117 55.6956C64.7624 55.9209 65.1147 56.2364 65.3688 56.6461C65.6228 57.0558 65.7498 57.5434 65.7498 58.1047C65.7498 58.666 65.6228 59.1576 65.3688 59.5632C65.1147 59.9729 64.7624 60.2884 64.3117 60.5096C63.861 60.735 63.3325 60.8456 62.722 60.8456H60.6325V64.3691H59.5427V55.3596H62.722ZM62.5582 59.8213C63.267 59.8213 63.7873 59.6738 64.1151 59.3788C64.4428 59.0839 64.6067 58.6578 64.6067 58.1047C64.6067 57.5516 64.4428 57.1132 64.1151 56.8223C63.7873 56.5314 63.267 56.3839 62.5582 56.3839H60.6325V59.8254H62.5582V59.8213Z" fill="white"/>
<path d="M70.1337 64.5042C69.6953 64.5042 69.2856 64.4223 68.9004 64.2584C68.5153 64.0945 68.1998 63.8282 67.9581 63.4594C67.7164 63.0907 67.5976 62.6114 67.5976 62.0214V57.5433H68.6874V61.7346C68.6874 62.427 68.839 62.9022 69.1381 63.1604C69.4372 63.4185 69.8633 63.5496 70.4082 63.5496C70.6622 63.5496 70.9121 63.5086 71.1579 63.4185C71.4038 63.3324 71.625 63.1972 71.8217 63.0088C72.0183 62.8244 72.174 62.5827 72.2846 62.2918C72.3993 62.0009 72.4567 61.6526 72.4567 61.2552V57.5433H73.5465V64.369H72.5919L72.5223 63.3324C72.2846 63.7421 71.9651 64.0412 71.5594 64.2256C71.1538 64.41 70.6786 64.5042 70.1337 64.5042ZM70.9408 54.2656H72.1289L70.7933 56.5436H69.9042L70.9408 54.2656Z" fill="white"/>
<path d="M79.4299 64.5043C79.0489 64.5043 78.6924 64.4346 78.3647 64.2994C78.0369 64.1642 77.7542 63.9716 77.5166 63.7258C77.2789 63.48 77.1028 63.2014 76.984 62.8941L77.1355 62.7015L77.0413 64.365H76.0867V54.4009H77.1765V59.0838L77.0413 58.879C77.2216 58.4529 77.5289 58.0964 77.9632 57.8219C78.3974 57.5433 78.8891 57.404 79.4463 57.404C80.0035 57.404 80.5279 57.5433 81.0032 57.826C81.4784 58.1087 81.8554 58.5143 82.1381 59.0429C82.4208 59.5714 82.5601 60.2064 82.5601 60.9521C82.5601 61.6978 82.4167 62.3246 82.1299 62.8572C81.8431 63.3898 81.462 63.7955 80.9909 64.0782C80.5197 64.3609 79.9994 64.5002 79.434 64.5002L79.4299 64.5043ZM79.3193 63.5496C79.9912 63.5496 80.5197 63.312 80.8967 62.8408C81.2736 62.3697 81.4621 61.7387 81.4621 60.9562C81.4621 60.1736 81.2777 59.5468 80.9008 59.0715C80.5279 58.6004 80.0035 58.3627 79.3316 58.3627C78.9055 58.3627 78.5286 58.4734 78.2049 58.6905C77.8812 58.9077 77.6313 59.2149 77.4469 59.6042C77.2626 59.9934 77.1724 60.4563 77.1724 60.9808C77.1724 61.5052 77.2626 61.9518 77.4387 62.341C77.6149 62.7261 77.8648 63.0252 78.1885 63.2342C78.5122 63.4431 78.885 63.5496 79.3152 63.5496H79.3193Z" fill="white"/>
<path d="M85.682 54.405V62.636C85.682 62.9802 85.7476 63.2219 85.8746 63.353C86.0016 63.4841 86.2065 63.5497 86.4891 63.5497C86.6694 63.5497 86.821 63.5374 86.9398 63.5087C87.0586 63.48 87.2184 63.4309 87.4192 63.3571L87.243 64.3117C87.0955 64.3773 86.9398 64.4224 86.7637 64.4551C86.5916 64.4879 86.4113 64.5043 86.231 64.5043C85.6779 64.5043 85.2641 64.3527 84.9978 64.0536C84.7274 63.7545 84.5963 63.2957 84.5963 62.677V54.405H85.6861H85.682Z" fill="white"/>
<path d="M89.3653 56.2323C89.1195 56.2323 88.9228 56.1586 88.7712 56.007C88.6196 55.8554 88.5459 55.6587 88.5459 55.4129C88.5459 55.1671 88.6196 54.9704 88.7712 54.8188C88.9228 54.6673 89.1195 54.5935 89.3653 54.5935C89.6111 54.5935 89.8078 54.6673 89.9594 54.8188C90.111 54.9704 90.1847 55.1671 90.1847 55.4129C90.1847 55.6587 90.111 55.8554 89.9594 56.007C89.8078 56.1586 89.6111 56.2323 89.3653 56.2323ZM89.9102 57.5434V64.3691H88.8204V57.5434H89.9102Z" fill="white"/>
<path d="M95.2774 57.4082C95.7485 57.4082 96.1664 57.4819 96.527 57.6253C96.8875 57.7728 97.1989 57.9818 97.4611 58.2522C97.7233 58.5226 97.9364 58.8463 98.1043 59.2232L97.0678 59.7149C96.9244 59.2765 96.7031 58.9446 96.4041 58.7111C96.1091 58.4775 95.7239 58.3628 95.2528 58.3628C94.7816 58.3628 94.4047 58.4652 94.0769 58.6701C93.7491 58.875 93.4992 59.1699 93.3272 59.5592C93.1551 59.9484 93.069 60.4114 93.069 60.9604C93.069 61.5094 93.1551 61.9601 93.3272 62.3534C93.4992 62.7467 93.7491 63.0417 94.0769 63.2465C94.4047 63.4514 94.7939 63.5538 95.2528 63.5538C95.6092 63.5538 95.9124 63.5005 96.1746 63.3899C96.4327 63.2793 96.6499 63.1236 96.8179 62.9106C96.9858 62.7016 97.1006 62.4476 97.1661 62.1444L98.1781 62.5009C98.0224 62.9188 97.8093 63.2793 97.543 63.5784C97.2726 63.8775 96.949 64.1069 96.572 64.2667C96.1951 64.4265 95.7649 64.5043 95.2815 64.5043C94.6423 64.5043 94.0769 64.365 93.5771 64.0823C93.0772 63.7996 92.6839 63.394 92.4012 62.8614C92.1185 62.3288 91.9792 61.6937 91.9792 60.9563C91.9792 60.2188 92.1226 59.5838 92.4012 59.0511C92.6839 58.5185 93.0731 58.1129 93.5771 57.8302C94.0769 57.5475 94.6464 57.4082 95.2815 57.4082H95.2774Z" fill="white"/>
<path d="M104.082 59.9565C104.082 59.4485 103.947 59.0552 103.672 58.7766C103.398 58.498 103.013 58.3587 102.513 58.3587C102.042 58.3587 101.64 58.4611 101.312 58.666C100.985 58.8708 100.743 59.2027 100.587 59.6574L99.6981 59.1125C99.8784 58.6045 100.218 58.1907 100.71 57.8752C101.202 57.5597 101.812 57.4041 102.537 57.4041C103.029 57.4041 103.476 57.486 103.877 57.6581C104.279 57.826 104.594 58.0801 104.824 58.4242C105.057 58.7643 105.172 59.2068 105.172 59.7394V63.0416C105.172 63.3694 105.344 63.5333 105.692 63.5333C105.864 63.5333 106.032 63.5128 106.196 63.4636L106.143 64.324C105.963 64.4141 105.725 64.4592 105.434 64.4592C105.172 64.4592 104.934 64.41 104.725 64.3076C104.516 64.2052 104.352 64.0536 104.234 63.8487C104.115 63.6439 104.057 63.3858 104.057 63.0785V62.9433L104.332 62.9843C104.221 63.3407 104.037 63.6275 103.771 63.8528C103.508 64.0741 103.209 64.238 102.882 64.3445C102.554 64.4469 102.23 64.5002 101.915 64.5002C101.513 64.5002 101.14 64.4305 100.796 64.2953C100.452 64.1601 100.173 63.9512 99.9685 63.6726C99.7637 63.394 99.6612 63.0498 99.6612 62.6401C99.6612 62.1321 99.8333 61.7101 100.173 61.3782C100.513 61.0463 100.989 60.821 101.599 60.7022L104.303 60.1696V61.0709L102.107 61.5216C101.661 61.6117 101.329 61.7387 101.112 61.9026C100.894 62.0665 100.784 62.296 100.784 62.5868C100.784 62.8777 100.894 63.099 101.12 63.2752C101.341 63.4513 101.661 63.5415 102.07 63.5415C102.333 63.5415 102.587 63.5087 102.828 63.439C103.07 63.3694 103.287 63.267 103.476 63.1236C103.668 62.9843 103.816 62.804 103.926 62.5909C104.037 62.3779 104.09 62.1239 104.09 61.833V59.9483L104.082 59.9565Z" fill="white"/>
<path d="M114.824 64.5043C114.259 64.5043 113.743 64.365 113.268 64.0823C112.792 63.7996 112.415 63.3939 112.137 62.8613C111.858 62.3287 111.715 61.6937 111.715 60.9562C111.715 60.2187 111.866 59.5591 112.165 59.0306C112.465 58.502 112.862 58.1005 113.354 57.8219C113.845 57.5433 114.374 57.404 114.939 57.404C115.505 57.404 115.992 57.5515 116.406 57.8424C116.82 58.1333 117.094 58.5225 117.234 59.0019L117.098 59.0961V54.4009H118.192V64.365H117.238L117.143 62.7138L117.295 62.6319C117.229 63.0334 117.078 63.3694 116.836 63.648C116.594 63.9266 116.299 64.1355 115.947 64.283C115.599 64.4305 115.226 64.5002 114.837 64.5002L114.824 64.5043ZM114.931 63.5496C115.369 63.5496 115.746 63.439 116.07 63.2219C116.394 63.0047 116.644 62.6933 116.82 62.2877C116.996 61.8821 117.086 61.4069 117.086 60.862C117.086 60.317 116.996 59.8991 116.82 59.5222C116.644 59.1494 116.398 58.8626 116.082 58.6618C115.771 58.4611 115.402 58.3627 114.984 58.3627C114.292 58.3627 113.755 58.6004 113.374 59.0715C112.993 59.5427 112.801 60.1736 112.801 60.9562C112.801 61.7387 112.989 62.3656 113.362 62.8408C113.735 63.3161 114.259 63.5496 114.931 63.5496Z" fill="white"/>
<path d="M123.572 64.5043C122.924 64.5043 122.351 64.365 121.847 64.0823C121.343 63.7996 120.95 63.394 120.667 62.8614C120.384 62.3288 120.245 61.6937 120.245 60.9563C120.245 60.2188 120.388 59.5838 120.667 59.0511C120.95 58.5185 121.335 58.1129 121.826 57.8302C122.318 57.5475 122.875 57.4082 123.506 57.4082C124.137 57.4082 124.686 57.5434 125.137 57.8179C125.587 58.0924 125.932 58.4612 126.169 58.9323C126.407 59.4035 126.526 59.9279 126.526 60.5097C126.526 60.6654 126.522 60.8047 126.513 60.9317C126.505 61.0587 126.489 61.1734 126.472 61.2717H120.958V60.3007H125.993L125.432 60.4114C125.432 59.7558 125.252 59.2519 124.891 58.8954C124.53 58.539 124.059 58.3628 123.477 58.3628C123.031 58.3628 122.646 58.4652 122.322 58.6701C121.998 58.875 121.749 59.1699 121.572 59.5592C121.396 59.9484 121.306 60.4114 121.306 60.9604C121.306 61.5094 121.396 61.9601 121.581 62.3534C121.761 62.7467 122.019 63.0417 122.351 63.2465C122.683 63.4514 123.08 63.5538 123.547 63.5538C124.047 63.5538 124.453 63.4596 124.768 63.267C125.084 63.0745 125.333 62.8163 125.526 62.4886L126.386 62.9925C126.214 63.3039 125.993 63.5702 125.723 63.7955C125.452 64.025 125.141 64.1971 124.78 64.32C124.42 64.4429 124.018 64.5043 123.572 64.5043Z" fill="white"/>
<path d="M132.225 64.3691V55.3596H139.243V57.1746H134.576V59.0019H138.288V60.7063H134.576V62.55H139.423V64.365H132.229L132.225 64.3691Z" fill="white"/>
<path d="M140.677 64.3691V57.5434H142.75L142.82 58.8667C143.037 58.3832 143.344 58.0186 143.742 57.7728C144.135 57.527 144.594 57.4041 145.114 57.4041C145.634 57.4041 146.065 57.5188 146.437 57.7441C146.81 57.9735 147.089 58.3095 147.269 58.7561C147.413 58.457 147.601 58.2071 147.835 58.0063C148.068 57.8056 148.334 57.6581 148.634 57.5556C148.933 57.4573 149.244 57.4041 149.564 57.4041C150.018 57.4041 150.42 57.4942 150.764 57.6704C151.108 57.8465 151.387 58.1169 151.592 58.4775C151.796 58.838 151.899 59.2846 151.899 59.8213V64.365H149.576V60.3539C149.576 59.9156 149.494 59.6124 149.326 59.4403C149.158 59.2682 148.933 59.1822 148.65 59.1822C148.425 59.1822 148.216 59.2395 148.031 59.3543C147.843 59.469 147.699 59.6411 147.601 59.8664C147.503 60.0917 147.449 60.3785 147.449 60.7268V64.3732H145.131V60.3621C145.131 59.9238 145.044 59.6206 144.872 59.4485C144.7 59.2764 144.475 59.1904 144.205 59.1904C143.996 59.1904 143.799 59.2436 143.611 59.3543C143.422 59.4649 143.275 59.6329 143.168 59.8664C143.057 60.0999 143.004 60.4031 143.004 60.7759V64.3814H140.685L140.677 64.3691Z" fill="white"/>
<path d="M153.521 67.233V57.5434H155.611L155.734 60.0139L155.459 59.7271C155.521 59.2724 155.664 58.8709 155.881 58.5267C156.098 58.1826 156.381 57.9081 156.729 57.7073C157.073 57.5065 157.471 57.4082 157.917 57.4082C158.483 57.4082 158.975 57.5475 159.392 57.8261C159.81 58.1047 160.134 58.5021 160.368 59.0266C160.601 59.551 160.716 60.186 160.716 60.9317C160.716 61.6774 160.597 62.3206 160.359 62.8573C160.122 63.394 159.794 63.8037 159.372 64.0864C158.95 64.3691 158.454 64.5084 157.893 64.5084C157.274 64.5084 156.774 64.3241 156.389 63.9553C156.008 63.5866 155.75 63.1195 155.623 62.5582L155.84 62.2305V67.2412H153.521V67.233ZM157.098 62.7999C157.5 62.7999 157.815 62.6525 158.04 62.3575C158.266 62.0625 158.38 61.5954 158.38 60.9563C158.38 60.3171 158.27 59.8542 158.044 59.5551C157.823 59.2601 157.508 59.1126 157.11 59.1126C156.856 59.1126 156.631 59.1822 156.443 59.3256C156.25 59.469 156.102 59.6739 156 59.9484C155.898 60.2229 155.844 60.5588 155.844 60.9604C155.844 61.3619 155.894 61.6733 155.988 61.9519C156.082 62.2305 156.225 62.4394 156.418 62.5869C156.61 62.7344 156.836 62.804 157.098 62.804V62.7999Z" fill="white"/>
<path d="M164.37 54.6467V62.046C164.37 62.3451 164.42 62.5582 164.522 62.6893C164.624 62.8204 164.792 62.8818 165.026 62.8818C165.161 62.8818 165.276 62.8736 165.366 62.8532C165.456 62.8368 165.567 62.8081 165.694 62.7712L165.542 64.1642C165.378 64.2625 165.165 64.3445 164.899 64.41C164.633 64.4756 164.374 64.5043 164.12 64.5043C163.391 64.5043 162.863 64.3363 162.535 64.0003C162.207 63.6644 162.043 63.1113 162.043 62.3492V54.6508H164.362L164.37 54.6467Z" fill="white"/>
<path d="M169.86 64.5043C169.115 64.5043 168.467 64.365 167.914 64.0823C167.365 63.7996 166.939 63.3981 166.644 62.8737C166.349 62.3493 166.202 61.7101 166.202 60.9563C166.202 60.2024 166.349 59.5633 166.644 59.0388C166.939 58.5144 167.361 58.1129 167.902 57.8302C168.443 57.5475 169.066 57.4082 169.766 57.4082C170.467 57.4082 171.094 57.5475 171.593 57.8261C172.093 58.1047 172.478 58.4857 172.749 58.9733C173.019 59.4608 173.15 60.018 173.15 60.6449C173.15 60.817 173.146 60.9849 173.138 61.1447C173.13 61.3045 173.113 61.4397 173.097 61.5462H167.693V60.2884H172.089L170.971 60.7268C170.971 60.1819 170.872 59.764 170.676 59.469C170.479 59.1781 170.176 59.0306 169.77 59.0306C169.479 59.0306 169.229 59.1003 169.025 59.2355C168.82 59.3707 168.664 59.5838 168.562 59.8705C168.459 60.1573 168.406 60.5261 168.406 60.9849C168.406 61.4438 168.467 61.8044 168.582 62.0789C168.701 62.3534 168.869 62.55 169.086 62.6811C169.303 62.8081 169.57 62.8737 169.877 62.8737C170.221 62.8737 170.495 62.804 170.7 62.6688C170.905 62.5336 171.057 62.3411 171.159 62.0953L173.015 62.7221C172.888 63.1031 172.667 63.4309 172.351 63.6972C172.04 63.9676 171.667 64.1684 171.241 64.3036C170.811 64.4388 170.352 64.5084 169.86 64.5084V64.5043Z" fill="white"/>
<path d="M177.694 57.4082C178.411 57.4082 179.042 57.5475 179.583 57.8261C180.124 58.1047 180.55 58.5103 180.853 59.0429C181.156 59.5756 181.312 60.2147 181.312 60.9604C181.312 61.706 181.16 62.3452 180.853 62.8778C180.55 63.4104 180.124 63.816 179.583 64.0946C179.042 64.3732 178.411 64.5125 177.694 64.5125C176.977 64.5125 176.371 64.3732 175.822 64.0946C175.277 63.816 174.851 63.4104 174.547 62.8778C174.244 62.3452 174.093 61.706 174.093 60.9604C174.093 60.2147 174.244 59.5756 174.547 59.0429C174.851 58.5103 175.277 58.1047 175.822 57.8261C176.367 57.5475 176.989 57.4082 177.694 57.4082ZM177.694 59.0593C177.432 59.0593 177.202 59.1249 177.01 59.2519C176.817 59.3789 176.674 59.5837 176.571 59.8664C176.469 60.1491 176.42 60.5138 176.42 60.9563C176.42 61.3987 176.469 61.7634 176.571 62.042C176.67 62.3206 176.817 62.5254 177.01 62.6565C177.202 62.7877 177.428 62.8532 177.694 62.8532C177.96 62.8532 178.198 62.7877 178.39 62.6565C178.583 62.5254 178.726 62.3206 178.829 62.042C178.927 61.7634 178.98 61.4028 178.98 60.9563C178.98 60.5097 178.931 60.145 178.829 59.8664C178.726 59.5878 178.583 59.3789 178.39 59.2519C178.198 59.1249 177.968 59.0593 177.694 59.0593Z" fill="white"/>
<path d="M165.169 33.715C155.844 33.715 148.269 26.0944 148.338 16.7531C148.408 7.60026 155.881 0.123105 165.038 0.053455C174.379 -0.0161952 182 7.55929 182 16.8842C182 18.8303 180.423 20.4077 178.477 20.4077H156.041C157.459 24.0664 161.015 26.668 165.169 26.668C167.025 26.668 168.787 26.16 170.315 25.2136C171.651 24.3819 173.388 24.5867 174.539 25.6601C176.219 27.2375 175.965 29.9948 174.007 31.2035C171.372 32.8259 168.308 33.715 165.173 33.715H165.169ZM156.041 13.3648H174.298C172.88 9.70615 169.324 7.10451 165.169 7.10451C161.015 7.10451 157.459 9.70615 156.041 13.3648Z" fill="white"/>
<path d="M89.1809 33.6615C79.901 33.6615 72.3501 26.1106 72.3501 16.8308C72.3501 7.5509 79.901 0 89.1809 0C98.4608 0 106.012 7.5509 106.012 16.8308C106.012 26.1106 98.4608 33.6615 89.1809 33.6615ZM89.1809 7.04696C83.785 7.04696 79.3971 11.4349 79.3971 16.8308C79.3971 22.2266 83.785 26.6146 89.1809 26.6146C94.5767 26.6146 98.9647 22.2266 98.9647 16.8308C98.9647 11.4349 94.5767 7.04696 89.1809 7.04696Z" fill="white"/>
<path d="M102.488 33.8295C100.542 33.8295 98.9647 32.2522 98.9647 30.3061V16.8308H106.012V30.3061C106.012 32.2522 104.434 33.8295 102.488 33.8295Z" fill="white"/>
<path d="M127.763 33.6615C118.483 33.6615 110.932 26.1106 110.932 16.8308C110.932 7.5509 118.483 0 127.763 0C137.043 0 144.594 7.5509 144.594 16.8308C144.594 26.1106 137.043 33.6615 127.763 33.6615ZM127.763 7.04696C122.367 7.04696 117.979 11.4349 117.979 16.8308C117.979 22.2266 122.367 26.6146 127.763 26.6146C133.159 26.6146 137.547 22.2266 137.547 16.8308C137.547 11.4349 133.159 7.04696 127.763 7.04696Z" fill="white"/>
<path d="M114.456 50.7136C112.51 50.7136 110.932 49.1362 110.932 47.1901V16.8308H117.979V47.1901C117.979 49.1362 116.402 50.7136 114.456 50.7136Z" fill="white"/>
<path d="M63.9101 33.6862C61.964 33.6862 60.3866 32.1088 60.3866 30.1627C60.3866 26.5614 57.4572 23.6361 53.86 23.6361C50.2628 23.6361 47.3334 26.5655 47.3334 30.1627C47.3334 32.1088 45.756 33.6862 43.8099 33.6862C41.8638 33.6862 40.2864 32.1088 40.2864 30.1627C40.2864 22.6774 46.3747 16.5891 53.86 16.5891C61.3454 16.5891 67.4336 22.6774 67.4336 30.1627C67.4336 32.1088 65.8562 33.6862 63.9101 33.6862Z" fill="white"/>
<path d="M53.86 0.057373C49.7834 0.057373 46.4689 3.3719 46.4689 7.44849C46.4689 11.5251 49.7834 14.8396 53.86 14.8396C57.9366 14.8396 61.2511 11.5251 61.2511 7.44849C61.2511 3.3719 57.9325 0.057373 53.86 0.057373Z" fill="white"/>
<path d="M43.7649 33.7311C41.8188 33.7311 40.2415 32.1537 40.2415 30.2076C40.2415 26.6063 37.3121 23.681 33.7148 23.681C30.1176 23.681 27.1882 26.6104 27.1882 30.2076C27.1882 32.1537 25.6108 33.7311 23.6647 33.7311C21.7186 33.7311 20.1412 32.1537 20.1412 30.2076C20.1412 22.7223 26.2295 16.634 33.7148 16.634C41.2002 16.634 47.2884 22.7223 47.2884 30.2076C47.2884 32.1537 45.711 33.7311 43.7649 33.7311Z" fill="white"/>
<path d="M33.7148 0.057373C29.6382 0.057373 26.3237 3.3719 26.3237 7.44849C26.3237 11.5251 29.6382 14.8396 33.7148 14.8396C37.7914 14.8396 41.1059 11.5251 41.1059 7.44849C41.1059 3.3719 37.7914 0.057373 33.7148 0.057373Z" fill="white"/>
<path d="M23.6237 33.7724C21.6776 33.7724 20.1002 32.195 20.1002 30.2489C20.1002 26.6476 17.1708 23.7223 13.5736 23.7223C9.97636 23.7223 7.04696 26.6517 7.04696 30.2489C7.04696 32.195 5.46959 33.7724 3.52348 33.7724C1.57737 33.7724 0 32.195 0 30.2489C0 22.7635 6.08824 16.6753 13.5736 16.6753C21.0589 16.6753 27.1472 22.7635 27.1472 30.2489C27.1472 32.195 25.5698 33.7724 23.6237 33.7724Z" fill="white"/>
<path d="M13.5736 0.057373C9.49699 0.057373 6.18246 3.3719 6.18246 7.44439C6.18246 11.5169 9.49699 14.8355 13.5736 14.8355C17.6502 14.8355 20.9647 11.521 20.9647 7.44439C20.9647 3.36781 17.6461 0.057373 13.5736 0.057373Z" fill="white"/>
</svg>
