<svg width="313" height="73" viewBox="0 0 313 73" fill="none" xmlns="http://www.w3.org/2000/svg">
<path d="M110 0V73" stroke="white"/>
<path d="M37.5147 1.49242e-09C33.0522 1.3149e-09 29.4974 3.62806 29.4974 8.01197C29.4974 12.4715 33.1279 16.0239 37.5147 16.0239C41.9771 16.0239 45.5319 12.3959 45.5319 8.01197C45.5319 3.62806 41.9771 1.66995e-09 37.5147 1.49242e-09ZM11.0426 18.5938C9.60557 18.5938 8.16852 18.6694 6.88273 19.0473C5.97512 19.2741 5.14314 19.652 4.6137 20.1811C3.93299 20.9369 3.85736 21.844 4.15989 22.6754C4.46243 23.4312 5.29441 23.9603 6.20202 24.2627C8.16852 24.9429 10.3619 25.0941 12.404 25.472C12.7822 25.5476 13.236 25.6988 13.4629 25.9255C13.6898 26.2279 13.5386 26.6814 13.1604 26.8325C12.4797 27.2105 11.6477 27.2105 10.8157 27.1349C10.135 27.1349 9.30303 27.0593 8.77359 26.6814C8.31979 26.4546 8.31979 26.0011 8.39542 25.6232L3.78172 25.6232C3.78172 26.3034 3.93299 27.0593 4.3868 27.664C4.8406 28.1931 5.52131 28.571 6.27766 28.7222C7.48781 29.1001 8.77359 29.1757 10.0594 29.1757C11.799 29.1757 13.5386 29.1757 15.2025 28.7977C16.1858 28.571 17.169 28.1931 17.7741 27.5128C18.9086 26.379 18.6061 24.565 17.169 23.7336C16.4127 23.2801 15.5051 23.0533 14.5974 22.8266C13.236 22.5242 11.9502 22.373 10.5888 22.1463C10.135 22.0707 9.60557 21.9951 9.2274 21.7684C8.84923 21.5416 8.77359 21.0125 9.2274 20.7858C9.75684 20.4834 10.5132 20.4834 11.1939 20.4834C11.8746 20.4834 12.6309 20.559 13.236 20.8614C13.5386 21.0125 13.6898 21.3149 13.6898 21.6172L18.0766 21.6172C18.0766 21.0881 17.9254 20.4834 17.5472 20.0299C17.0934 19.4252 16.2614 19.0473 15.4294 18.8206C13.8411 18.6694 12.404 18.5938 11.0426 18.5938ZM20.4969 18.8962L20.4969 29.3268L33.2791 29.3268L33.2791 27.0593L25.1863 27.0593L25.1863 25.0185L32.3715 25.0185L32.3715 22.8266L25.1863 22.8266L25.1863 21.1637L32.9766 21.1637L32.9766 18.8962L20.4969 18.8962ZM41.5989 18.8962C41.5989 18.8962 37.6659 18.8962 35.6994 18.8962L35.6994 29.3268L40.1619 29.3268L40.1619 22.2975L46.2883 29.3268L52.4147 29.3268L52.4147 18.8962L47.9522 18.8962L47.9522 25.8499L41.5989 18.8962ZM60.4319 18.8962C60.4319 18.8962 55.5913 25.8499 53.171 29.3268L57.8603 29.3268L58.9948 27.4372L66.2558 27.4372L67.3146 29.3268L72.5334 29.3268L65.6507 18.8962L60.4319 18.8962ZM62.7766 21.3904L65.0456 25.1697L60.4319 25.1697L62.7766 21.3904ZM-1.28693e-09 32.3502L0.0756344 38.0191L21.4045 37.9435C22.4634 38.1702 23.1441 38.8505 22.9172 40.5134L9.75684 63.4155L13.9924 67.4215L34.2624 32.3502L-1.28693e-09 32.3502ZM40.6157 32.3502L60.5832 67.2703L64.97 63.3399L51.7339 40.4378C51.507 38.8505 52.1121 38.0946 53.2466 37.8679L74.5755 37.9435L74.5755 32.3502L40.6157 32.3502ZM37.2878 38.1702L18.5304 70.2181L23.5223 72.6368L36.002 51.5487C36.4558 51.1708 36.834 51.0196 37.2878 51.0196C37.7416 51.0196 38.1954 51.1708 38.6492 51.5487L51.1289 72.7124L56.272 70.0669L37.2878 38.1702Z" fill="white"/>
<path d="M154.655 64.1591H152.525L151.971 62.3656H149.251L148.685 64.1591H146.602L149.395 56.2146H151.875L154.655 64.1591ZM149.636 60.9572H151.586L150.611 57.7433L149.636 60.9572ZM161.261 56.5275L161.429 57.8998C161.381 57.8837 161.333 57.8757 161.285 57.8757C161.237 57.8677 161.189 57.8637 161.14 57.8637C160.787 57.8637 160.523 57.952 160.346 58.1285C160.177 58.297 160.093 58.5097 160.093 58.7665L159.371 58.5017C159.371 58.1726 159.431 57.8557 159.552 57.5507C159.672 57.2458 159.856 56.997 160.105 56.8044C160.362 56.6118 160.683 56.5155 161.068 56.5155C161.092 56.5155 161.12 56.5155 161.153 56.5155C161.193 56.5155 161.229 56.5195 161.261 56.5275ZM159.19 62.823C159.889 62.823 160.422 62.9715 160.791 63.2684C161.169 63.5573 161.357 63.9746 161.357 64.5203C161.357 65.0178 161.221 65.4311 160.948 65.7601C160.675 66.0891 160.29 66.3339 159.792 66.4944C159.303 66.6629 158.721 66.7472 158.047 66.7472C156.956 66.7472 156.169 66.6107 155.688 66.3379C155.206 66.065 154.965 65.6959 154.965 65.2305C154.965 64.8934 155.102 64.6206 155.375 64.4119C155.647 64.2033 156.101 64.0909 156.735 64.0749L156.687 64.2675C156.197 64.2033 155.832 64.0588 155.591 63.8341C155.351 63.6094 155.23 63.3045 155.23 62.9193C155.23 62.5341 155.383 62.2212 155.688 61.9804C155.993 61.7397 156.398 61.6073 156.903 61.5832L157.65 61.9323H157.457C157.144 61.9483 156.923 62.0005 156.795 62.0887C156.667 62.177 156.602 62.2854 156.602 62.4138C156.602 62.5502 156.659 62.6545 156.771 62.7267C156.883 62.7909 157.052 62.823 157.277 62.823H159.19ZM158.059 65.4231C158.444 65.4231 158.761 65.395 159.01 65.3388C159.267 65.2906 159.459 65.2184 159.588 65.1221C159.716 65.0339 159.78 64.9295 159.78 64.8092C159.78 64.6888 159.736 64.5925 159.648 64.5203C159.56 64.4561 159.399 64.424 159.166 64.424H157.012C156.859 64.424 156.735 64.4641 156.639 64.5443C156.55 64.6246 156.506 64.7249 156.506 64.8453C156.506 65.0298 156.643 65.1703 156.915 65.2666C157.188 65.3709 157.569 65.4231 158.059 65.4231ZM158.131 58.0202C158.741 58.0202 159.263 58.1004 159.696 58.2609C160.129 58.4214 160.458 58.6541 160.683 58.9591C160.916 59.256 161.032 59.6251 161.032 60.0665C161.032 60.4998 160.916 60.869 160.683 61.1739C160.458 61.4789 160.129 61.7116 159.696 61.8721C159.263 62.0245 158.741 62.1008 158.131 62.1008C157.176 62.1008 156.45 61.9242 155.952 61.5711C155.463 61.2181 155.218 60.7165 155.218 60.0665C155.218 59.6251 155.33 59.256 155.555 58.9591C155.788 58.6541 156.121 58.4214 156.554 58.2609C156.988 58.1004 157.513 58.0202 158.131 58.0202ZM158.131 59.1878C157.866 59.1878 157.65 59.264 157.481 59.4165C157.321 59.569 157.24 59.7856 157.24 60.0665C157.24 60.3393 157.321 60.552 157.481 60.7045C157.65 60.8569 157.866 60.9332 158.131 60.9332C158.388 60.9332 158.601 60.8569 158.769 60.7045C158.938 60.552 159.022 60.3393 159.022 60.0665C159.022 59.7856 158.938 59.569 158.769 59.4165C158.601 59.264 158.388 59.1878 158.131 59.1878ZM165.108 64.2795C164.442 64.2795 163.864 64.1551 163.374 63.9064C162.893 63.6576 162.52 63.3005 162.255 62.8351C161.99 62.3696 161.858 61.8079 161.858 61.1498C161.858 60.4918 161.99 59.9301 162.255 59.4646C162.52 58.9992 162.889 58.6421 163.362 58.3933C163.844 58.1445 164.393 58.0202 165.011 58.0202C165.645 58.0202 166.183 58.1445 166.624 58.3933C167.074 58.6341 167.415 58.9711 167.647 59.4044C167.88 59.8298 167.997 60.3193 167.997 60.873C167.997 61.0174 167.993 61.1619 167.984 61.3063C167.976 61.4508 167.964 61.5711 167.948 61.6674H163.182V60.5721H167.046L166.071 60.9452C166.071 60.4637 165.982 60.0946 165.806 59.8378C165.637 59.581 165.372 59.4526 165.011 59.4526C164.754 59.4526 164.534 59.5128 164.349 59.6332C164.173 59.7535 164.036 59.9421 163.94 60.1989C163.852 60.4557 163.808 60.7847 163.808 61.186C163.808 61.5792 163.86 61.9002 163.964 62.1489C164.068 62.3897 164.217 62.5662 164.409 62.6786C164.602 62.7829 164.835 62.8351 165.108 62.8351C165.413 62.8351 165.653 62.7749 165.83 62.6545C166.014 62.5341 166.151 62.3656 166.239 62.1489L167.876 62.6906C167.764 63.0357 167.567 63.3286 167.286 63.5693C167.013 63.802 166.684 63.9786 166.299 64.099C165.922 64.2193 165.525 64.2795 165.108 64.2795ZM169.141 64.1591V58.1405H170.971L171.079 60.2109L170.851 59.9822C170.931 59.5489 171.071 59.1878 171.272 58.8989C171.481 58.61 171.737 58.3933 172.042 58.2489C172.355 58.0964 172.704 58.0202 173.089 58.0202C173.507 58.0202 173.868 58.1004 174.173 58.2609C174.486 58.4214 174.731 58.6581 174.907 58.9711C175.084 59.2841 175.172 59.6773 175.172 60.1508V64.1591H173.126V60.6924C173.126 60.2751 173.045 59.9862 172.885 59.8257C172.724 59.6653 172.52 59.585 172.271 59.585C172.078 59.585 171.898 59.6332 171.729 59.7294C171.561 59.8177 171.428 59.9622 171.332 60.1628C171.236 60.3634 171.188 60.6322 171.188 60.9693V64.1591H169.141ZM179.459 58.0202C180.068 58.0202 180.574 58.1084 180.975 58.285C181.385 58.4535 181.702 58.6822 181.926 58.9711C182.159 59.252 182.303 59.5569 182.36 59.8859L180.47 60.5119C180.414 60.1668 180.309 59.91 180.157 59.7415C180.012 59.5649 179.8 59.4767 179.519 59.4767C179.262 59.4767 179.045 59.5369 178.869 59.6572C178.7 59.7696 178.572 59.9541 178.484 60.2109C178.395 60.4597 178.351 60.7807 178.351 61.1739C178.351 61.5671 178.399 61.8881 178.496 62.1369C178.592 62.3776 178.728 62.5542 178.905 62.6665C179.081 62.7709 179.29 62.823 179.531 62.823C179.731 62.823 179.896 62.7869 180.024 62.7147C180.161 62.6344 180.273 62.5221 180.361 62.3776C180.45 62.2332 180.506 62.0566 180.53 61.848L182.372 62.4378C182.315 62.7909 182.163 63.1079 181.914 63.3888C181.673 63.6616 181.352 63.8783 180.951 64.0388C180.55 64.1993 180.081 64.2795 179.543 64.2795C178.885 64.2795 178.311 64.1591 177.822 63.9184C177.332 63.6696 176.955 63.3125 176.69 62.8471C176.425 62.3736 176.293 61.8079 176.293 61.1498C176.293 60.4918 176.425 59.9301 176.69 59.4646C176.955 58.9912 177.324 58.6341 177.797 58.3933C178.279 58.1445 178.833 58.0202 179.459 58.0202ZM184.459 57.4424C184.041 57.4424 183.736 57.3661 183.544 57.2137C183.359 57.0532 183.267 56.8044 183.267 56.4674C183.267 56.1223 183.359 55.8735 183.544 55.7211C183.736 55.5606 184.041 55.4803 184.459 55.4803C184.868 55.4803 185.169 55.5606 185.361 55.7211C185.554 55.8735 185.65 56.1223 185.65 56.4674C185.65 56.8044 185.554 57.0532 185.361 57.2137C185.169 57.3661 184.868 57.4424 184.459 57.4424ZM185.482 58.1405V64.1591H183.435V58.1405H185.482ZM190.297 60.3433C190.297 60.0625 190.217 59.8418 190.056 59.6813C189.904 59.5128 189.695 59.4285 189.43 59.4285C189.165 59.4285 188.937 59.4967 188.744 59.6332C188.56 59.7615 188.431 59.9943 188.359 60.3313L186.626 59.922C186.738 59.3443 187.035 58.8828 187.516 58.5378C187.998 58.1927 188.676 58.0202 189.551 58.0202C190.136 58.0202 190.634 58.1084 191.043 58.285C191.46 58.4535 191.777 58.7103 191.994 59.0554C192.219 59.3924 192.331 59.8097 192.331 60.3072V62.51C192.331 62.823 192.472 62.9795 192.752 62.9795C192.897 62.9795 193.013 62.9635 193.102 62.9314L192.981 64.099C192.74 64.2113 192.448 64.2675 192.102 64.2675C191.79 64.2675 191.513 64.2193 191.272 64.123C191.031 64.0187 190.843 63.8662 190.706 63.6656C190.57 63.457 190.502 63.1962 190.502 62.8832V62.811L190.73 62.7267C190.73 63.0718 190.626 63.3607 190.417 63.5934C190.217 63.8261 189.952 63.9987 189.623 64.111C189.302 64.2233 188.965 64.2795 188.612 64.2795C188.202 64.2795 187.845 64.2153 187.54 64.0869C187.235 63.9585 186.999 63.774 186.83 63.5332C186.67 63.2844 186.589 62.9795 186.589 62.6184C186.589 62.185 186.718 61.8279 186.975 61.5471C187.239 61.2582 187.653 61.0576 188.214 60.9452L190.489 60.4758L190.477 61.5591L189.322 61.7999C189.081 61.848 188.901 61.9202 188.78 62.0165C188.668 62.1048 188.612 62.2412 188.612 62.4258C188.612 62.6023 188.676 62.7347 188.804 62.823C188.933 62.9113 189.085 62.9554 189.262 62.9554C189.398 62.9554 189.527 62.9354 189.647 62.8952C189.775 62.8551 189.888 62.7949 189.984 62.7147C190.08 62.6264 190.156 62.5181 190.213 62.3897C190.269 62.2613 190.297 62.1088 190.297 61.9323V60.3433ZM201.028 56.2146C201.678 56.2146 202.231 56.3189 202.689 56.5275C203.146 56.7362 203.495 57.0371 203.736 57.4303C203.977 57.8236 204.097 58.301 204.097 58.8628C204.097 59.4245 203.977 59.902 203.736 60.2952C203.495 60.6884 203.146 60.9893 202.689 61.198C202.231 61.4066 201.678 61.511 201.028 61.511H199.451V64.1591H197.38V56.2146H201.028ZM200.703 59.9582C201.136 59.9582 201.461 59.8699 201.678 59.6933C201.902 59.5088 202.015 59.2319 202.015 58.8628C202.015 58.4936 201.902 58.2208 201.678 58.0442C201.461 57.8597 201.136 57.7674 200.703 57.7674H199.451V59.9582H200.703ZM207.311 64.2795C206.901 64.2795 206.54 64.2113 206.227 64.0749C205.922 63.9304 205.682 63.7017 205.505 63.3888C205.329 63.0758 205.24 62.6665 205.24 62.161V58.1405H207.287V61.6795C207.287 62.0647 207.363 62.3335 207.515 62.486C207.668 62.6384 207.885 62.7147 208.165 62.7147C208.31 62.7147 208.446 62.6906 208.575 62.6425C208.703 62.5863 208.815 62.506 208.912 62.4017C209.008 62.2894 209.08 62.1489 209.128 61.9804C209.185 61.8039 209.213 61.5992 209.213 61.3665V58.1405H211.259V64.1591H209.429L209.369 63.0276C209.177 63.453 208.908 63.7699 208.563 63.9786C208.218 64.1792 207.8 64.2795 207.311 64.2795ZM208.093 55.3238H209.995L208.779 57.4063H207.287L208.093 55.3238ZM216.593 64.2795C216.2 64.2795 215.851 64.1912 215.546 64.0147C215.249 63.8382 215.004 63.5974 214.812 63.2925C214.619 62.9795 214.495 62.6264 214.438 62.2332L214.631 61.9804L214.523 64.1591H212.729V55.5886H214.776V60.0304L214.583 59.7415C214.695 59.2439 214.924 58.8347 215.269 58.5137C215.614 58.1847 216.08 58.0202 216.665 58.0202C217.131 58.0202 217.544 58.1445 217.905 58.3933C218.274 58.6421 218.559 59.0032 218.76 59.4767C218.969 59.9421 219.073 60.5079 219.073 61.1739C219.073 61.8239 218.969 62.3817 218.76 62.8471C218.551 63.3125 218.262 63.6696 217.893 63.9184C217.524 64.1591 217.091 64.2795 216.593 64.2795ZM215.883 62.7749C216.236 62.7749 216.513 62.6465 216.714 62.3897C216.914 62.1249 217.014 61.7116 217.014 61.1498C217.014 60.5881 216.914 60.1788 216.714 59.922C216.513 59.6572 216.236 59.5248 215.883 59.5248C215.65 59.5248 215.45 59.593 215.281 59.7294C215.121 59.8578 214.996 60.0424 214.908 60.2832C214.82 60.5239 214.776 60.8168 214.776 61.1619C214.776 61.5069 214.82 61.7999 214.908 62.0406C214.996 62.2813 215.125 62.4659 215.293 62.5943C215.462 62.7147 215.658 62.7749 215.883 62.7749ZM222.298 55.5886V62.1128C222.298 62.3776 222.342 62.5662 222.431 62.6786C222.519 62.7909 222.667 62.8471 222.876 62.8471C222.996 62.8471 223.097 62.8391 223.177 62.823C223.257 62.807 223.353 62.7829 223.466 62.7508L223.333 63.9786C223.189 64.0669 223 64.1391 222.768 64.1953C222.535 64.2514 222.306 64.2795 222.082 64.2795C221.44 64.2795 220.974 64.1311 220.685 63.8341C220.396 63.5372 220.252 63.0517 220.252 62.3776V55.5886H222.298ZM225.237 57.4424C224.82 57.4424 224.515 57.3661 224.322 57.2137C224.138 57.0532 224.045 56.8044 224.045 56.4674C224.045 56.1223 224.138 55.8735 224.322 55.7211C224.515 55.5606 224.82 55.4803 225.237 55.4803C225.646 55.4803 225.947 55.5606 226.14 55.7211C226.332 55.8735 226.429 56.1223 226.429 56.4674C226.429 56.8044 226.332 57.0532 226.14 57.2137C225.947 57.3661 225.646 57.4424 225.237 57.4424ZM226.26 58.1405V64.1591H224.214V58.1405H226.26ZM230.57 58.0202C231.18 58.0202 231.685 58.1084 232.086 58.285C232.496 58.4535 232.813 58.6822 233.037 58.9711C233.27 59.252 233.415 59.5569 233.471 59.8859L231.581 60.5119C231.525 60.1668 231.42 59.91 231.268 59.7415C231.123 59.5649 230.911 59.4767 230.63 59.4767C230.373 59.4767 230.157 59.5369 229.98 59.6572C229.811 59.7696 229.683 59.9541 229.595 60.2109C229.506 60.4597 229.462 60.7807 229.462 61.1739C229.462 61.5671 229.511 61.8881 229.607 62.1369C229.703 62.3776 229.84 62.5542 230.016 62.6665C230.193 62.7709 230.401 62.823 230.642 62.823C230.843 62.823 231.007 62.7869 231.136 62.7147C231.272 62.6344 231.384 62.5221 231.473 62.3776C231.561 62.2332 231.617 62.0566 231.641 61.848L233.483 62.4378C233.427 62.7909 233.274 63.1079 233.025 63.3888C232.785 63.6616 232.464 63.8783 232.062 64.0388C231.661 64.1993 231.192 64.2795 230.654 64.2795C229.996 64.2795 229.422 64.1591 228.933 63.9184C228.443 63.6696 228.066 63.3125 227.801 62.8471C227.536 62.3736 227.404 61.8079 227.404 61.1498C227.404 60.4918 227.536 59.9301 227.801 59.4646C228.066 58.9912 228.435 58.6341 228.909 58.3933C229.39 58.1445 229.944 58.0202 230.57 58.0202ZM237.905 60.3433C237.905 60.0625 237.825 59.8418 237.664 59.6813C237.512 59.5128 237.303 59.4285 237.038 59.4285C236.774 59.4285 236.545 59.4967 236.352 59.6332C236.168 59.7615 236.039 59.9943 235.967 60.3313L234.234 59.922C234.346 59.3443 234.643 58.8828 235.124 58.5378C235.606 58.1927 236.284 58.0202 237.159 58.0202C237.745 58.0202 238.242 58.1084 238.651 58.285C239.069 58.4535 239.386 58.7103 239.602 59.0554C239.827 59.3924 239.939 59.8097 239.939 60.3072V62.51C239.939 62.823 240.08 62.9795 240.361 62.9795C240.505 62.9795 240.621 62.9635 240.71 62.9314L240.589 64.099C240.349 64.2113 240.056 64.2675 239.711 64.2675C239.398 64.2675 239.121 64.2193 238.88 64.123C238.639 64.0187 238.451 63.8662 238.314 63.6656C238.178 63.457 238.11 63.1962 238.11 62.8832V62.811L238.338 62.7267C238.338 63.0718 238.234 63.3607 238.025 63.5934C237.825 63.8261 237.56 63.9987 237.231 64.111C236.91 64.2233 236.573 64.2795 236.22 64.2795C235.811 64.2795 235.453 64.2153 235.149 64.0869C234.844 63.9585 234.607 63.774 234.438 63.5332C234.278 63.2844 234.198 62.9795 234.198 62.6184C234.198 62.185 234.326 61.8279 234.583 61.5471C234.848 61.2582 235.261 61.0576 235.823 60.9452L238.098 60.4758L238.086 61.5591L236.93 61.7999C236.689 61.848 236.509 61.9202 236.388 62.0165C236.276 62.1048 236.22 62.2412 236.22 62.4258C236.22 62.6023 236.284 62.7347 236.412 62.823C236.541 62.9113 236.693 62.9554 236.87 62.9554C237.006 62.9554 237.135 62.9354 237.255 62.8952C237.383 62.8551 237.496 62.7949 237.592 62.7147C237.688 62.6264 237.765 62.5181 237.821 62.3897C237.877 62.2613 237.905 62.1088 237.905 61.9323V60.3433ZM247.059 64.2795C246.561 64.2795 246.124 64.1591 245.747 63.9184C245.378 63.6696 245.089 63.3125 244.88 62.8471C244.68 62.3817 244.579 61.8239 244.579 61.1739C244.579 60.4998 244.684 59.9301 244.892 59.4646C245.109 58.9992 245.406 58.6421 245.783 58.3933C246.168 58.1445 246.61 58.0202 247.107 58.0202C247.653 58.0202 248.09 58.1887 248.419 58.5257C248.756 58.8547 248.973 59.276 249.069 59.7896L248.877 60.0424V55.5886H250.923V64.1591H249.093L248.961 62.1128L249.202 62.2934C249.153 62.6946 249.029 63.0437 248.828 63.3406C248.636 63.6375 248.387 63.8703 248.082 64.0388C247.785 64.1993 247.444 64.2795 247.059 64.2795ZM247.769 62.7749C248.002 62.7749 248.199 62.7147 248.359 62.5943C248.528 62.4659 248.656 62.2773 248.744 62.0286C248.832 61.7798 248.877 61.4748 248.877 61.1137C248.877 60.7767 248.832 60.4918 248.744 60.2591C248.664 60.0183 248.54 59.8378 248.371 59.7174C248.211 59.589 248.014 59.5248 247.781 59.5248C247.428 59.5248 247.147 59.6572 246.939 59.922C246.738 60.1788 246.638 60.5881 246.638 61.1498C246.638 61.7116 246.738 62.1249 246.939 62.3897C247.139 62.6465 247.416 62.7749 247.769 62.7749ZM255.328 64.2795C254.662 64.2795 254.084 64.1551 253.595 63.9064C253.113 63.6576 252.74 63.3005 252.475 62.8351C252.21 62.3696 252.078 61.8079 252.078 61.1498C252.078 60.4918 252.21 59.9301 252.475 59.4646C252.74 58.9992 253.109 58.6421 253.583 58.3933C254.064 58.1445 254.614 58.0202 255.232 58.0202C255.866 58.0202 256.403 58.1445 256.845 58.3933C257.294 58.6341 257.635 58.9711 257.868 59.4044C258.101 59.8298 258.217 60.3193 258.217 60.873C258.217 61.0174 258.213 61.1619 258.205 61.3063C258.197 61.4508 258.185 61.5711 258.169 61.6674H253.402V60.5721H257.266L256.291 60.9452C256.291 60.4637 256.203 60.0946 256.026 59.8378C255.858 59.581 255.593 59.4526 255.232 59.4526C254.975 59.4526 254.754 59.5128 254.57 59.6332C254.393 59.7535 254.257 59.9421 254.16 60.1989C254.072 60.4557 254.028 60.7847 254.028 61.186C254.028 61.5792 254.08 61.9002 254.184 62.1489C254.289 62.3897 254.437 62.5662 254.63 62.6786C254.822 62.7829 255.055 62.8351 255.328 62.8351C255.633 62.8351 255.874 62.7749 256.05 62.6545C256.235 62.5341 256.371 62.3656 256.46 62.1489L258.097 62.6906C257.984 63.0357 257.788 63.3286 257.507 63.5693C257.234 63.802 256.905 63.9786 256.52 64.099C256.143 64.2193 255.745 64.2795 255.328 64.2795ZM262.95 64.1591V56.2146H269.138V57.8155H265.021V59.4285H268.295V60.9332H265.021V62.5582H269.294V64.1591H262.95ZM270.4 64.1591V58.1405H272.229L272.29 59.3081C272.482 58.8828 272.751 58.5618 273.096 58.3452C273.449 58.1285 273.854 58.0202 274.312 58.0202C274.761 58.0202 275.15 58.1205 275.479 58.3211C275.808 58.5217 276.053 58.8186 276.214 59.2118C276.342 58.947 276.507 58.7263 276.707 58.5498C276.916 58.3733 277.153 58.2408 277.417 58.1526C277.682 58.0643 277.955 58.0202 278.236 58.0202C278.637 58.0202 278.99 58.1004 279.295 58.2609C279.6 58.4134 279.841 58.6501 280.017 58.9711C280.202 59.2841 280.294 59.6773 280.294 60.1508V64.1591H278.248V60.6202C278.248 60.235 278.172 59.9662 278.019 59.8137C277.875 59.6612 277.678 59.585 277.429 59.585C277.229 59.585 277.044 59.6372 276.876 59.7415C276.715 59.8378 276.591 59.9862 276.503 60.1869C276.414 60.3875 276.37 60.6403 276.37 60.9452V64.1591H274.324V60.6202C274.324 60.235 274.248 59.9662 274.095 59.8137C273.943 59.6612 273.746 59.585 273.505 59.585C273.321 59.585 273.144 59.6332 272.976 59.7294C272.815 59.8257 272.687 59.9782 272.591 60.1869C272.494 60.3875 272.446 60.6523 272.446 60.9813V64.1591H270.4ZM281.732 66.687V58.1405H283.573L283.682 60.3193L283.441 60.0665C283.497 59.6653 283.622 59.3122 283.814 59.0072C284.007 58.7023 284.255 58.4615 284.56 58.285C284.865 58.1084 285.214 58.0202 285.608 58.0202C286.105 58.0202 286.539 58.1445 286.908 58.3933C287.277 58.6341 287.562 58.9872 287.762 59.4526C287.971 59.91 288.075 60.4677 288.075 61.1258C288.075 61.7838 287.971 62.3496 287.762 62.823C287.554 63.2965 287.261 63.6576 286.884 63.9064C286.514 64.1551 286.081 64.2795 285.584 64.2795C285.038 64.2795 284.597 64.119 284.259 63.798C283.922 63.469 283.698 63.0557 283.585 62.5582L283.778 62.2693V66.687H281.732ZM284.885 62.7749C285.239 62.7749 285.515 62.6465 285.716 62.3897C285.917 62.1249 286.017 61.7116 286.017 61.1498C286.017 60.5881 285.917 60.1788 285.716 59.922C285.523 59.6572 285.251 59.5248 284.897 59.5248C284.673 59.5248 284.476 59.589 284.308 59.7174C284.139 59.8378 284.007 60.0183 283.91 60.2591C283.822 60.4998 283.778 60.7968 283.778 61.1498C283.778 61.4869 283.818 61.7798 283.898 62.0286C283.987 62.2693 284.115 62.4539 284.284 62.5823C284.452 62.7107 284.653 62.7749 284.885 62.7749ZM291.301 55.5886V62.1128C291.301 62.3776 291.345 62.5662 291.433 62.6786C291.521 62.7909 291.67 62.8471 291.878 62.8471C291.999 62.8471 292.099 62.8391 292.179 62.823C292.26 62.807 292.356 62.7829 292.468 62.7508L292.336 63.9786C292.191 64.0669 292.003 64.1391 291.77 64.1953C291.537 64.2514 291.309 64.2795 291.084 64.2795C290.442 64.2795 289.977 64.1311 289.688 63.8341C289.399 63.5372 289.254 63.0517 289.254 62.3776V55.5886H291.301ZM296.153 64.2795C295.487 64.2795 294.91 64.1551 294.42 63.9064C293.939 63.6576 293.565 63.3005 293.301 62.8351C293.036 62.3696 292.903 61.8079 292.903 61.1498C292.903 60.4918 293.036 59.9301 293.301 59.4646C293.565 58.9992 293.935 58.6421 294.408 58.3933C294.89 58.1445 295.439 58.0202 296.057 58.0202C296.691 58.0202 297.229 58.1445 297.67 58.3933C298.12 58.6341 298.461 58.9711 298.693 59.4044C298.926 59.8298 299.042 60.3193 299.042 60.873C299.042 61.0174 299.038 61.1619 299.03 61.3063C299.022 61.4508 299.01 61.5711 298.994 61.6674H294.228V60.5721H298.091L297.116 60.9452C297.116 60.4637 297.028 60.0946 296.852 59.8378C296.683 59.581 296.418 59.4526 296.057 59.4526C295.8 59.4526 295.58 59.5128 295.395 59.6332C295.219 59.7535 295.082 59.9421 294.986 60.1989C294.898 60.4557 294.853 60.7847 294.853 61.186C294.853 61.5792 294.906 61.9002 295.01 62.1489C295.114 62.3897 295.263 62.5662 295.455 62.6786C295.648 62.7829 295.881 62.8351 296.153 62.8351C296.458 62.8351 296.699 62.7749 296.876 62.6545C297.06 62.5341 297.197 62.3656 297.285 62.1489L298.922 62.6906C298.81 63.0357 298.613 63.3286 298.332 63.5693C298.059 63.802 297.73 63.9786 297.345 64.099C296.968 64.2193 296.571 64.2795 296.153 64.2795ZM303.052 58.0202C303.686 58.0202 304.24 58.1445 304.713 58.3933C305.195 58.6341 305.568 58.9912 305.833 59.4646C306.105 59.9301 306.242 60.4918 306.242 61.1498C306.242 61.8079 306.105 62.3736 305.833 62.8471C305.568 63.3125 305.195 63.6696 304.713 63.9184C304.24 64.1591 303.686 64.2795 303.052 64.2795C302.434 64.2795 301.884 64.1591 301.403 63.9184C300.921 63.6696 300.544 63.3125 300.271 62.8471C300.007 62.3736 299.874 61.8079 299.874 61.1498C299.874 60.4918 300.007 59.9301 300.271 59.4646C300.544 58.9912 300.921 58.6341 301.403 58.3933C301.884 58.1445 302.434 58.0202 303.052 58.0202ZM303.052 59.4767C302.819 59.4767 302.619 59.5328 302.45 59.6452C302.282 59.7575 302.153 59.9381 302.065 60.1869C301.977 60.4356 301.933 60.7566 301.933 61.1498C301.933 61.5431 301.977 61.8641 302.065 62.1128C302.153 62.3536 302.282 62.5341 302.45 62.6545C302.619 62.7668 302.819 62.823 303.052 62.823C303.293 62.823 303.497 62.7668 303.666 62.6545C303.834 62.5341 303.963 62.3536 304.051 62.1128C304.139 61.8641 304.184 61.5431 304.184 61.1498C304.184 60.7566 304.139 60.4356 304.051 60.1869C303.963 59.9381 303.834 59.7575 303.666 59.6452C303.497 59.5328 303.293 59.4767 303.052 59.4767Z" fill="white"/>
<path d="M289.515 38.4037C281.376 38.4037 274.759 31.7504 274.821 23.5955C274.883 15.6048 281.407 9.07842 289.4 9.0165C297.555 8.95458 304.209 15.5707 304.209 23.7101C304.209 25.4098 302.831 26.7844 301.134 26.7844H281.546C282.784 29.9795 285.89 32.2519 289.515 32.2519C291.134 32.2519 292.676 31.8092 294.007 30.9826C295.174 30.2581 296.692 30.4346 297.695 31.3727C299.162 32.7473 298.942 35.156 297.227 36.2117C294.927 37.6297 292.252 38.4037 289.515 38.4037ZM281.546 20.6358H297.487C296.249 17.4407 293.144 15.1682 289.518 15.1682C285.893 15.1682 282.784 17.4407 281.549 20.6358H281.546Z" fill="white"/>
<path d="M223.174 38.3542C215.072 38.3542 208.48 31.7628 208.48 23.6606C208.48 15.5584 215.072 8.96698 223.174 8.96698C231.276 8.96698 237.868 15.5584 237.868 23.6606C237.868 31.7628 231.276 38.3542 223.174 38.3542ZM223.174 15.1187C218.462 15.1187 214.632 18.9516 214.632 23.6606C214.632 28.3696 218.465 32.2024 223.174 32.2024C227.883 32.2024 231.716 28.3696 231.716 23.6606C231.716 18.9516 227.883 15.1187 223.174 15.1187Z" fill="white"/>
<path d="M234.793 38.5028C233.094 38.5028 231.719 37.1251 231.719 35.4285V23.6637H237.871V35.4285C237.871 37.1282 236.493 38.5028 234.796 38.5028H234.793Z" fill="white"/>
<path d="M256.858 38.3542C248.756 38.3542 242.165 31.7628 242.165 23.6606C242.165 15.5584 248.756 8.96698 256.858 8.96698C264.961 8.96698 271.552 15.5584 271.552 23.6606C271.552 31.7628 264.961 38.3542 256.858 38.3542ZM256.858 15.1187C252.146 15.1187 248.317 18.9516 248.317 23.6606C248.317 28.3696 252.149 32.2024 256.858 32.2024C261.567 32.2024 265.4 28.3696 265.4 23.6606C265.4 18.9516 261.567 15.1187 256.858 15.1187Z" fill="white"/>
<path d="M245.239 53.2459C243.539 53.2459 242.165 51.8682 242.165 50.1716V23.6637H248.317V50.1716C248.317 51.8713 246.939 53.2459 245.242 53.2459H245.239Z" fill="white"/>
<path d="M201.109 38.3789C199.409 38.3789 198.034 37.0012 198.034 35.3046C198.034 32.1622 195.477 29.6049 192.335 29.6049C189.192 29.6049 186.635 32.1622 186.635 35.3046C186.635 37.0043 185.257 38.3789 183.561 38.3789C181.864 38.3789 180.486 37.0012 180.486 35.3046C180.486 28.7689 185.802 23.4531 192.338 23.4531C198.873 23.4531 204.189 28.7689 204.189 35.3046C204.189 37.0043 202.812 38.3789 201.115 38.3789H201.109Z" fill="white"/>
<path d="M192.335 9.01648C188.777 9.01648 185.883 11.9112 185.883 15.4685C185.883 19.0258 188.777 21.9206 192.335 21.9206C195.892 21.9206 198.787 19.0258 198.787 15.4685C198.787 11.9112 195.892 9.01648 192.335 9.01648Z" fill="white"/>
<path d="M183.524 38.4159C181.824 38.4159 180.449 37.0382 180.449 35.3416C180.449 32.1992 177.892 29.6419 174.749 29.6419C171.607 29.6419 169.05 32.1992 169.05 35.3416C169.05 37.0413 167.672 38.4159 165.975 38.4159C164.279 38.4159 162.901 37.0382 162.901 35.3416C162.901 28.8059 168.217 23.4901 174.753 23.4901C181.288 23.4901 186.604 28.8059 186.604 35.3416C186.604 37.0413 185.226 38.4159 183.53 38.4159H183.524Z" fill="white"/>
<path d="M174.746 9.01648C171.189 9.01648 168.294 11.9112 168.294 15.4685C168.294 19.0258 171.189 21.9206 174.746 21.9206C178.304 21.9206 181.199 19.0258 181.199 15.4685C181.199 11.9112 178.304 9.01648 174.746 9.01648Z" fill="white"/>
<path d="M165.935 38.4534C164.236 38.4534 162.861 37.0757 162.861 35.3791C162.861 32.2366 160.304 29.6793 157.161 29.6793C154.019 29.6793 151.461 32.2366 151.461 35.3791C151.461 37.0788 150.084 38.4534 148.387 38.4534C146.69 38.4534 145.313 37.0757 145.313 35.3791C145.313 28.8434 150.629 23.5276 157.164 23.5276C163.7 23.5276 169.016 28.8434 169.016 35.3791C169.016 37.0788 167.638 38.4534 165.941 38.4534H165.935Z" fill="white"/>
<path d="M157.161 9.01648C153.604 9.01648 150.709 11.9112 150.709 15.4685C150.709 19.0258 153.604 21.9206 157.161 21.9206C160.718 21.9206 163.613 19.0258 163.613 15.4685C163.613 11.9112 160.718 9.01648 157.161 9.01648Z" fill="white"/>
</svg>
