<svg width="673" height="286" viewBox="0 0 673 286" fill="none" xmlns="http://www.w3.org/2000/svg">
<path d="M643.009 69.4901C642.961 51.6935 642.843 33.8968 642.736 16.1001C642.724 13.4425 641.051 12.2086 638.476 12.8493C634.324 13.8815 630.183 14.9018 626.054 16.0171C612.363 19.6951 598.683 23.4324 584.992 27.1104C572.937 30.3493 560.859 33.5171 548.793 36.7324C546.93 37.2307 546.064 38.2392 546.041 39.7578C546.017 41.2528 546.812 43.0087 548.58 43.5545L587.803 43.7443C566.625 72.219 518.337 137.117 515.288 141.341C513.864 143.299 512.298 143.501 510.791 141.175C509.166 138.684 507.279 136.358 505.618 133.89C496.518 120.329 487.454 106.744 478.389 93.1716C466.976 76.0868 455.337 59.1562 444.279 41.8579C439.379 34.2053 428.322 30.1002 419.115 30.5154H327.272C295.285 30.5154 283.302 58.3494 266.265 81.4851C259.941 90.075 253.879 98.8547 247.733 107.563C241.504 116.39 235.287 125.229 229.106 134.092C224.633 140.511 220.314 147.036 215.794 153.419C212.495 158.07 209.138 162.662 205.78 167.265C202.434 163.836 199.089 160.396 195.731 156.967C192.35 153.526 192.065 150.963 196.739 148.46C199.409 147.036 201.829 145.067 204.131 143.073C221.204 128.373 226.543 109.402 224.704 87.5834C223.529 73.5715 218.262 61.541 208.426 51.6816C193.904 37.1239 175.217 31.8324 155.546 31.2273C126.371 30.3256 97.1611 30.7883 67.9627 31.1205C64.9373 31.1561 60.8797 33.4816 59.1119 36.0087C52.2542 45.8324 46.0966 56.1545 39.7491 66.3342C38.1236 68.9325 36.7355 71.6851 34.6118 75.5054C38.3135 75.7664 40.4609 76.0512 42.6084 76.0512C78.9492 76.0749 115.29 76.0512 151.643 76.0986C155.712 76.0986 159.829 76.2054 163.863 76.763C172.773 77.9851 179.287 84.3919 180.782 92.9461C182.122 100.646 178.207 108.5 169.831 112.012C164.753 114.148 158.856 115.204 153.316 115.251C116.156 115.512 78.9967 115.358 41.8372 115.382C34.9558 115.382 33.4491 116.746 33.4253 123.545C33.3541 147.807 33.4846 172.07 33.3423 196.333C33.3185 201.233 35.1101 203.547 40.0694 203.511C50.2728 203.44 60.4881 203.452 70.6915 203.475C75.2 203.475 77.3712 201.577 77.2645 196.796C77.0746 187.221 77.4187 177.623 77.1339 168.048C76.9797 162.626 78.7238 160.324 84.478 160.419C99.9849 160.692 115.515 160.312 131.022 160.704C134.083 160.787 137.785 162.436 139.98 164.596C151.465 175.89 162.392 187.755 173.936 198.991C176.404 201.399 180.568 203.167 184.009 203.274C191.59 203.499 199.172 203.333 206.741 203.096C220.184 203.036 232.772 203.214 246.392 203.096C246.392 203.096 319.406 203.582 355.865 203.285C364.693 203.214 373.532 203.357 382.359 203.38C383.984 203.38 385.693 203.38 387.104 202.585C392.942 199.358 386.523 193.035 384.245 189.879C382.287 187.174 380.33 184.48 378.372 181.799C374.398 176.353 370.387 170.907 366.389 165.474C362.96 160.811 358.903 157.928 352.389 158.035C333.097 158.379 313.782 158.129 294.479 158.106C290.041 158.106 285.604 158.106 280.241 158.106C281.191 156.219 281.511 155.329 282.045 154.594C289.555 144.165 297.279 133.89 304.563 123.307C311.919 112.617 318.967 101.738 326.145 90.9411C329.087 95.8648 332.314 100.634 335.648 105.285C349.304 124.328 363.15 143.228 376.984 162.14C385.74 174.099 392.443 184.255 401.472 196.013C406.36 202.384 416.386 203.38 416.386 203.38H463.511C469.005 203.44 475.874 201.814 471.484 195.313C466.05 187.28 460.439 179.367 454.886 171.418C439.984 150.109 425.13 128.777 410.169 107.504C402.777 97.0038 395.374 86.5038 387.769 76.158C397.189 76.4427 403.121 77.9732 409.421 86.919C422.603 105.629 435.677 124.423 449.037 143.014C458.517 156.207 468.198 169.258 477.927 182.274C483.657 189.926 489.127 197.235 498.251 201.008C511.361 206.43 525.361 202.752 535.54 193.331C541.686 187.648 545.958 180.494 550.774 173.731C555.924 166.494 561.286 159.423 566.447 152.185C569.556 147.831 597.9 108.868 618.77 80.1919C622.21 86.0292 625.639 91.8665 629.092 97.6801C631.749 102.153 634.443 106.59 637.159 111.028C638.073 112.522 639.366 113.045 640.766 112.641C642.154 112.25 642.914 111.122 642.973 109.355C642.985 108.951 642.973 108.536 642.973 108.133C642.985 95.2479 643.044 82.3631 642.997 69.4783L643.009 69.4901Z" fill="white"/>
<path d="M320.972 215.126H30.9575V221.367H320.972V215.126Z" fill="#FFEE3B"/>
<path d="M474.771 215.126H320.699V221.367H474.771V215.126Z" fill="#001BDB"/>
<path d="M628.57 215.126H474.498V221.367H628.57V215.126Z" fill="#D02E26"/>
<path d="M45.9067 235.759C49.027 235.759 51.4948 236.542 53.3338 238.096C55.1728 239.65 56.0864 241.75 56.0864 244.396C56.0864 246.508 55.5169 248.252 54.3898 249.616C53.2626 250.981 51.7084 251.93 49.7389 252.464L57.8067 264.85H52.3847L44.9813 253.211H38.7168V264.85H34.0422V235.759H45.9067ZM45.5626 249.296C49.3236 249.296 51.2101 247.706 51.2101 244.538C51.2101 241.37 49.3236 239.781 45.5626 239.781H38.7287V249.308H45.5626V249.296Z" fill="white"/>
<path d="M70.4661 265.301C69.0305 265.301 67.7017 265.04 66.4796 264.506C65.2576 263.972 64.2847 263.13 63.5491 261.943C62.8135 260.769 62.4457 259.238 62.4457 257.352V242.806H67.1678V256.165C67.1678 258.159 67.583 259.535 68.4254 260.282C69.2678 261.03 70.4542 261.409 72.0203 261.409C73.017 261.409 73.9542 261.184 74.8441 260.721C75.722 260.271 76.4339 259.547 76.9797 258.562C77.5254 257.577 77.7983 256.308 77.7983 254.754V242.806H82.5204V264.85H78.3797L78.1543 261.279C77.3949 262.667 76.3627 263.676 75.0695 264.316C73.7763 264.957 72.2458 265.289 70.4898 265.289L70.4661 265.301Z" fill="white"/>
<path d="M103.888 242.818V246.52H96.3068V258.242C96.3068 259.298 96.6034 260.092 97.1848 260.603C97.778 261.113 98.5374 261.374 99.4746 261.374C100.293 261.374 100.993 261.243 101.563 260.994C102.132 260.745 102.678 260.401 103.176 259.962L104.232 263.403C103.556 263.996 102.725 264.459 101.741 264.791C100.756 265.123 99.6645 265.301 98.4543 265.301C96.5204 265.301 94.8831 264.826 93.5661 263.865C92.2492 262.904 91.5848 261.303 91.5848 259.037V246.52H87.3492V242.818H91.5848V237.657L96.3068 236.328V242.806H103.888V242.818Z" fill="white"/>
<path d="M121.436 250.708C121.436 249.237 121.032 248.098 120.226 247.291C119.419 246.484 118.304 246.081 116.892 246.081C115.575 246.081 114.424 246.389 113.475 247.006C112.514 247.623 111.837 248.62 111.422 250.008L107.459 248.335C108.017 246.543 109.109 245.108 110.746 244.016C112.383 242.925 114.483 242.379 117.07 242.379C118.802 242.379 120.356 242.664 121.72 243.233C123.085 243.803 124.165 244.669 124.936 245.831C125.719 246.994 126.098 248.454 126.098 250.221V260.057C126.098 261.148 126.644 261.694 127.736 261.694C128.27 261.694 128.78 261.623 129.278 261.469L129.017 264.732C128.341 265.052 127.487 265.218 126.454 265.218C125.28 265.218 124.259 264.957 123.417 264.423C122.563 263.889 121.993 263.106 121.697 262.038C120.997 263.13 119.976 263.937 118.659 264.482C117.343 265.028 116.014 265.301 114.697 265.301C112.609 265.301 110.876 264.803 109.5 263.806C108.124 262.809 107.424 261.303 107.424 259.309C107.424 257.696 107.958 256.355 109.037 255.299C110.117 254.243 111.636 253.508 113.605 253.093L121.448 251.55V250.708H121.436ZM112.17 258.954C112.17 259.772 112.49 260.437 113.119 260.911C113.748 261.398 114.59 261.635 115.658 261.635C116.654 261.635 117.604 261.469 118.481 261.148C119.359 260.828 120.071 260.294 120.617 259.559C121.163 258.823 121.436 257.874 121.436 256.687V254.837L115.883 255.987C114.614 256.225 113.688 256.557 113.083 256.996C112.478 257.435 112.181 258.087 112.181 258.93L112.17 258.954Z" fill="white"/>
<path d="M155.771 265.301C153.944 265.301 152.307 264.85 150.836 263.937C149.365 263.023 148.202 261.718 147.336 260.009C146.47 258.301 146.031 256.26 146.031 253.876C146.031 251.491 146.482 249.32 147.395 247.611C148.309 245.903 149.531 244.609 151.049 243.708C152.58 242.806 154.253 242.367 156.08 242.367C157.67 242.367 159.058 242.747 160.244 243.494C161.431 244.242 162.321 245.238 162.914 246.472V232.887H167.636V264.85H163.448L163.187 260.662C162.593 262.133 161.632 263.272 160.28 264.079C158.927 264.886 157.432 265.289 155.783 265.289L155.771 265.301ZM156.792 261.504C158.643 261.504 160.126 260.804 161.241 259.393C162.356 257.981 162.914 256.047 162.914 253.567C162.914 251.277 162.368 249.474 161.265 248.169C160.161 246.864 158.726 246.211 156.97 246.211C155 246.211 153.47 246.887 152.39 248.24C151.299 249.592 150.753 251.455 150.753 253.84C150.753 256.225 151.287 258.099 152.343 259.464C153.399 260.828 154.882 261.516 156.792 261.516V261.504Z" fill="white"/>
<path d="M184.65 265.301C182.443 265.301 180.509 264.85 178.848 263.937C177.187 263.023 175.882 261.706 174.944 259.986C174.007 258.265 173.533 256.213 173.533 253.84C173.533 251.467 173.995 249.415 174.921 247.694C175.846 245.974 177.127 244.657 178.753 243.743C180.378 242.83 182.253 242.379 184.377 242.379C186.5 242.379 188.339 242.818 189.846 243.708C191.341 244.586 192.492 245.796 193.287 247.326C194.082 248.857 194.473 250.589 194.473 252.523C194.473 253.081 194.461 253.591 194.426 254.065C194.402 254.54 194.355 254.931 194.295 255.252H178.16C178.361 257.304 179.038 258.87 180.165 259.95C181.292 261.03 182.763 261.564 184.555 261.564C186.026 261.564 187.212 261.279 188.126 260.721C189.039 260.164 189.751 259.381 190.285 258.384L194.034 260.152C193.275 261.765 192.053 263.035 190.392 263.948C188.731 264.862 186.809 265.313 184.638 265.313L184.65 265.301ZM184.294 246.128C182.68 246.128 181.351 246.603 180.307 247.54C179.263 248.477 178.599 249.854 178.302 251.645H189.894C189.775 249.877 189.217 248.525 188.221 247.564C187.224 246.615 185.919 246.128 184.294 246.128Z" fill="white"/>
<path d="M226.009 250.791C226.009 249.521 225.653 248.537 224.929 247.837C224.206 247.137 223.256 246.781 222.082 246.781C220.99 246.781 220.041 247.065 219.211 247.623C218.392 248.181 217.787 249.106 217.407 250.399L212.246 248.809C212.745 246.864 213.836 245.309 215.533 244.135C217.217 242.96 219.495 242.367 222.343 242.367C225.19 242.367 227.551 243.055 229.331 244.42C231.111 245.784 232.001 247.825 232.001 250.53V259.476C232.001 260.591 232.534 261.148 233.59 261.148C234.089 261.148 234.563 261.077 235.002 260.923L234.646 264.672C233.887 265.052 232.926 265.242 231.775 265.242C230.517 265.242 229.414 264.981 228.489 264.447C227.563 263.913 226.934 263.118 226.614 262.062C225.914 263.118 224.906 263.925 223.589 264.471C222.284 265.016 220.931 265.289 219.555 265.289C217.324 265.289 215.545 264.779 214.239 263.771C212.934 262.762 212.282 261.279 212.282 259.345C212.282 257.696 212.816 256.355 213.872 255.311C214.928 254.267 216.446 253.555 218.416 253.176L225.997 251.633V250.791H226.009ZM218.333 258.776C218.333 259.511 218.606 260.069 219.151 260.448C219.697 260.828 220.35 261.018 221.109 261.018C221.963 261.018 222.758 260.887 223.494 260.626C224.229 260.365 224.834 259.915 225.297 259.286C225.772 258.657 225.997 257.803 225.997 256.747V255.382L221.37 256.308C220.373 256.509 219.614 256.782 219.104 257.126C218.594 257.471 218.333 258.016 218.333 258.776Z" fill="white"/>
<path d="M252.716 242.818V247.314H245.656V257.672C245.656 258.728 245.929 259.499 246.475 259.986C247.021 260.472 247.757 260.709 248.706 260.709C249.465 260.709 250.118 260.603 250.663 260.377C251.209 260.152 251.695 259.855 252.134 259.476L253.107 263.486C252.372 264.043 251.482 264.482 250.438 264.815C249.394 265.147 248.29 265.301 247.104 265.301C244.897 265.301 243.094 264.791 241.706 263.782C240.306 262.774 239.606 261.054 239.606 258.645V247.314H235.548V242.818H239.606V237.752L245.645 236.079V242.83H252.704L252.716 242.818Z" fill="white"/>
<path d="M267.048 265.301C263.584 265.301 260.807 264.293 258.719 262.276C256.631 260.259 255.587 257.447 255.587 253.828C255.587 251.42 256.062 249.367 256.999 247.659C257.936 245.95 259.253 244.645 260.95 243.731C262.635 242.818 264.568 242.367 266.751 242.367C268.935 242.367 270.88 242.818 272.435 243.708C273.989 244.609 275.187 245.82 276.006 247.362C276.824 248.904 277.24 250.66 277.24 252.63C277.24 253.223 277.228 253.781 277.192 254.303C277.168 254.837 277.121 255.299 277.062 255.715H261.496C261.733 257.423 262.326 258.693 263.275 259.523C264.224 260.365 265.47 260.781 267.001 260.781C268.294 260.781 269.338 260.532 270.133 260.033C270.928 259.535 271.545 258.847 271.984 257.957L276.789 259.808C276.089 261.54 274.855 262.893 273.087 263.842C271.319 264.791 269.314 265.277 267.048 265.277V265.301ZM266.692 246.828C263.845 246.828 262.124 248.406 261.531 251.55H271.45C271.272 250.02 270.785 248.857 269.979 248.05C269.172 247.243 268.08 246.84 266.692 246.84V246.828Z" fill="white"/>
<path d="M282.341 264.862V242.818H287.763L287.989 246.959C288.665 245.428 289.662 244.289 290.967 243.518C292.272 242.759 293.779 242.367 295.487 242.367C297.777 242.367 299.675 243.031 301.17 244.372C302.665 245.713 303.424 247.718 303.424 250.387V264.85H297.385V252.108C297.385 250.233 297.006 248.928 296.258 248.204C295.511 247.481 294.562 247.125 293.411 247.125C292.592 247.125 291.785 247.326 291.002 247.718C290.219 248.109 289.591 248.75 289.104 249.64C288.618 250.518 288.38 251.693 288.38 253.164V264.85H282.341V264.862Z" fill="white"/>
<path d="M319.643 242.379C322.586 242.379 324.864 243.008 326.501 244.277C328.138 245.547 329.218 247.065 329.74 248.869L324.092 250.898C323.499 248.228 322.052 246.887 319.726 246.887C318.053 246.887 316.748 247.481 315.823 248.655C314.897 249.83 314.435 251.586 314.435 253.899C314.435 256.213 314.909 257.993 315.87 259.12C316.819 260.247 318.125 260.816 319.774 260.816C322.325 260.816 323.855 259.511 324.353 256.889L329.823 258.657C329.325 260.626 328.209 262.228 326.489 263.462C324.769 264.696 322.538 265.313 319.809 265.313C317.519 265.313 315.514 264.862 313.794 263.948C312.074 263.035 310.745 261.73 309.808 260.021C308.87 258.313 308.396 256.26 308.396 253.852C308.396 251.443 308.87 249.391 309.831 247.682C310.78 245.974 312.109 244.669 313.794 243.755C315.479 242.842 317.436 242.391 319.631 242.391L319.643 242.379Z" fill="white"/>
<path d="M337.547 239.638C335.043 239.638 333.797 238.57 333.797 236.423C333.797 234.275 335.043 233.16 337.547 233.16C340.05 233.16 341.296 234.252 341.296 236.423C341.296 238.594 340.05 239.638 337.547 239.638ZM340.536 242.818V264.862H334.497V242.818H340.536Z" fill="white"/>
<path d="M356.981 242.379C359.187 242.379 361.133 242.83 362.842 243.743C364.55 244.657 365.879 245.962 366.828 247.67C367.777 249.379 368.264 251.431 368.264 253.84C368.264 256.248 367.789 258.313 366.828 260.009C365.867 261.718 364.538 263.023 362.842 263.937C361.133 264.85 359.187 265.301 356.981 265.301C354.774 265.301 352.781 264.85 351.096 263.937C349.411 263.023 348.082 261.718 347.133 260.009C346.172 258.301 345.697 256.248 345.697 253.84C345.697 251.431 346.172 249.379 347.133 247.67C348.082 245.962 349.411 244.657 351.096 243.743C352.781 242.83 354.75 242.379 356.981 242.379ZM356.981 246.876C355.331 246.876 354.05 247.457 353.125 248.62C352.199 249.782 351.736 251.526 351.736 253.84C351.736 256.154 352.199 257.909 353.125 259.06C354.05 260.223 355.331 260.804 356.981 260.804C358.63 260.804 359.864 260.223 360.789 259.06C361.714 257.898 362.177 256.154 362.177 253.84C362.177 251.526 361.714 249.782 360.789 248.62C359.864 247.457 358.594 246.876 356.981 246.876ZM357.123 232.152H362.948L358.535 239.65H354.086L357.123 232.152Z" fill="white"/>
<path d="M373.342 264.862V242.818H378.764L378.989 246.959C379.665 245.428 380.662 244.289 381.967 243.518C383.272 242.759 384.779 242.367 386.487 242.367C388.777 242.367 390.676 243.031 392.171 244.372C393.665 245.713 394.425 247.718 394.425 250.387V264.85H388.386V252.108C388.386 250.233 388.006 248.928 387.259 248.204C386.511 247.481 385.562 247.125 384.411 247.125C383.593 247.125 382.786 247.326 382.015 247.718C381.231 248.109 380.603 248.75 380.116 249.64C379.63 250.518 379.393 251.693 379.393 253.164V264.85H373.354L373.342 264.862Z" fill="white"/>
<path d="M426.684 250.791C426.684 249.521 426.328 248.537 425.605 247.837C424.881 247.137 423.932 246.781 422.757 246.781C421.666 246.781 420.716 247.065 419.886 247.623C419.067 248.181 418.462 249.106 418.082 250.399L412.921 248.809C413.42 246.864 414.511 245.309 416.208 244.135C417.893 242.96 420.171 242.367 423.018 242.367C425.866 242.367 428.227 243.055 430.006 244.42C431.786 245.784 432.676 247.825 432.676 250.53V259.476C432.676 260.591 433.21 261.148 434.266 261.148C434.764 261.148 435.238 261.077 435.677 260.923L435.321 264.672C434.562 265.052 433.601 265.242 432.45 265.242C431.181 265.242 430.089 264.981 429.164 264.447C428.238 263.913 427.61 263.118 427.289 262.062C426.589 263.118 425.581 263.925 424.264 264.471C422.959 265.016 421.606 265.289 420.23 265.289C417.999 265.289 416.22 264.779 414.915 263.771C413.61 262.762 412.957 261.279 412.957 259.345C412.957 257.696 413.491 256.355 414.547 255.311C415.603 254.267 417.121 253.555 419.091 253.176L426.672 251.633V250.791H426.684ZM419.02 258.776C419.02 259.511 419.293 260.069 419.838 260.448C420.384 260.828 421.037 261.018 421.796 261.018C422.65 261.018 423.445 260.887 424.181 260.626C424.916 260.365 425.521 259.915 425.984 259.286C426.459 258.657 426.684 257.803 426.684 256.747V255.382L422.057 256.308C421.06 256.509 420.301 256.782 419.791 257.126C419.281 257.471 419.02 258.016 419.02 258.776Z" fill="white"/>
<path d="M465.742 242.818H472.006L463.63 264.862H456.666L448.289 242.818H454.767L460.189 260.235L465.742 242.818Z" fill="white"/>
<path d="M481.403 242.818V264.862H475.364V242.818H481.403ZM478.532 232.152H484.357L479.944 239.65H475.495L478.532 232.152Z" fill="white"/>
<path d="M497.8 242.379C500.742 242.379 503.02 243.008 504.657 244.277C506.295 245.547 507.374 247.065 507.896 248.869L502.249 250.898C501.656 248.228 500.208 246.887 497.883 246.887C496.21 246.887 494.905 247.481 493.979 248.655C493.054 249.83 492.591 251.586 492.591 253.899C492.591 256.213 493.066 257.993 494.027 259.12C494.976 260.247 496.281 260.816 497.93 260.816C500.493 260.816 502.012 259.511 502.522 256.889L507.991 258.657C507.493 260.626 506.378 262.228 504.657 263.462C502.937 264.696 500.706 265.313 497.978 265.313C495.688 265.313 493.683 264.862 491.962 263.948C490.242 263.035 488.913 261.73 487.976 260.021C487.039 258.313 486.564 256.26 486.564 253.852C486.564 251.443 487.039 249.391 488 247.682C488.949 245.974 490.278 244.669 491.962 243.755C493.647 242.842 495.605 242.391 497.8 242.391V242.379Z" fill="white"/>
<path d="M527.508 242.818V247.314H520.449V257.672C520.449 258.728 520.722 259.499 521.268 259.986C521.813 260.472 522.549 260.709 523.498 260.709C524.257 260.709 524.922 260.603 525.456 260.377C525.99 260.152 526.488 259.855 526.939 259.476L527.912 263.486C527.176 264.043 526.286 264.482 525.242 264.815C524.198 265.135 523.095 265.301 521.908 265.301C519.701 265.301 517.898 264.791 516.51 263.782C515.122 262.774 514.422 261.054 514.422 258.645V247.314H510.364V242.818H514.422V237.752L520.461 236.079V242.83H527.52L527.508 242.818Z" fill="white"/>
<path d="M534.651 239.638C532.147 239.638 530.902 238.57 530.902 236.423C530.902 234.275 532.147 233.16 534.651 233.16C537.154 233.16 538.4 234.252 538.4 236.423C538.4 238.594 537.154 239.638 534.651 239.638ZM537.652 242.818V264.862H531.613V242.818H537.652Z" fill="white"/>
<path d="M544.047 264.862V242.818H549.469L549.695 246.781C550.43 245.309 551.439 244.206 552.72 243.47C554.002 242.735 555.413 242.367 556.98 242.367C558.546 242.367 559.993 242.723 561.274 243.447C562.556 244.17 563.517 245.262 564.158 246.733C564.834 245.262 565.878 244.17 567.29 243.447C568.702 242.723 570.161 242.367 571.656 242.367C573.151 242.367 574.408 242.664 575.607 243.245C576.793 243.838 577.742 244.716 578.454 245.891C579.154 247.065 579.51 248.56 579.51 250.387V264.85H573.471V251.586C573.471 249.972 573.115 248.821 572.391 248.145C571.668 247.469 570.766 247.137 569.674 247.137C568.322 247.137 567.171 247.635 566.234 248.608C565.297 249.593 564.822 251.052 564.822 252.998V264.862H558.783V251.598C558.783 249.984 558.427 248.833 557.703 248.157C556.98 247.481 556.066 247.148 554.951 247.148C554.191 247.148 553.432 247.35 552.685 247.765C551.937 248.181 551.32 248.821 550.834 249.711C550.347 250.589 550.11 251.752 550.11 253.199V264.886H544.071L544.047 264.862Z" fill="white"/>
<path d="M598.268 250.791C598.268 249.521 597.912 248.537 597.188 247.837C596.464 247.137 595.515 246.781 594.341 246.781C593.249 246.781 592.3 247.065 591.469 247.623C590.651 248.181 590.046 249.106 589.666 250.399L584.505 248.809C585.003 246.864 586.095 245.309 587.792 244.135C589.476 242.96 591.754 242.367 594.602 242.367C597.449 242.367 599.81 243.055 601.59 244.42C603.37 245.784 604.259 247.825 604.259 250.53V259.476C604.259 260.591 604.793 261.148 605.849 261.148C606.347 261.148 606.822 261.077 607.261 260.923L606.905 264.672C606.146 265.052 605.185 265.242 604.034 265.242C602.764 265.242 601.673 264.981 600.747 264.447C599.822 263.913 599.193 263.118 598.873 262.062C598.173 263.118 597.164 263.925 595.847 264.471C594.542 265.016 593.19 265.289 591.814 265.289C589.583 265.289 587.803 264.779 586.498 263.771C585.193 262.762 584.541 261.279 584.541 259.345C584.541 257.696 585.075 256.355 586.13 255.311C587.186 254.267 588.705 253.555 590.675 253.176L598.256 251.633V250.791H598.268ZM590.603 258.776C590.603 259.511 590.876 260.069 591.422 260.448C591.968 260.828 592.62 261.018 593.38 261.018C594.234 261.018 595.029 260.887 595.764 260.626C596.5 260.365 597.105 259.915 597.568 259.286C598.042 258.657 598.268 257.803 598.268 256.747V255.382L593.641 256.308C592.644 256.509 591.885 256.782 591.375 257.126C590.864 257.471 590.603 258.016 590.603 258.776Z" fill="white"/>
<path d="M619.825 265.301C617.595 265.301 615.554 264.91 613.715 264.115C611.876 263.32 610.381 262.204 609.242 260.769L612.731 257.245C613.431 258.301 614.38 259.167 615.554 259.843C616.729 260.52 618.129 260.852 619.742 260.852C620.893 260.852 621.807 260.686 622.495 260.342C623.183 259.998 623.527 259.464 623.527 258.728C623.527 258.254 623.361 257.85 623.041 257.518C622.72 257.174 622.068 256.913 621.107 256.699L617.227 255.904C614.664 255.371 612.849 254.576 611.781 253.496C610.702 252.428 610.168 251.04 610.168 249.331C610.168 248.121 610.524 246.994 611.248 245.938C611.971 244.882 613.051 244.016 614.486 243.364C615.922 242.699 617.714 242.367 619.861 242.367C624.322 242.367 627.537 243.731 629.471 246.472L625.853 249.996C625.2 248.964 624.358 248.181 623.314 247.635C622.27 247.089 621.178 246.816 620.027 246.816C617.441 246.816 616.148 247.54 616.148 248.976C616.148 249.45 616.349 249.854 616.764 250.186C617.18 250.53 617.927 250.815 619.019 251.04L623.515 251.965C625.687 252.404 627.253 253.152 628.19 254.196C629.127 255.24 629.602 256.498 629.602 257.969C629.602 260.081 628.759 261.837 627.063 263.213C625.378 264.601 622.958 265.289 619.814 265.289L619.825 265.301Z" fill="white"/>
</svg>
