<svg width="71" height="69" viewBox="0 0 71 69" fill="none" xmlns="http://www.w3.org/2000/svg">
<path d="M35.3042 0C31.1047 0 27.7594 3.41423 27.7594 7.53975C27.7594 11.7364 31.1759 15.0795 35.3042 15.0795C39.5037 15.0795 42.8491 11.6653 42.8491 7.53975C42.8491 3.41423 39.5037 0 35.3042 0ZM10.392 17.4979C9.03959 17.4979 7.68721 17.569 6.47718 17.9247C5.62305 18.1381 4.84009 18.4937 4.34185 18.9916C3.70125 19.7029 3.63007 20.5565 3.91478 21.3389C4.19949 22.0502 4.98245 22.5481 5.83658 22.8326C7.68721 23.4728 9.75137 23.6151 11.6732 23.9707C12.0291 24.0419 12.4561 24.1841 12.6697 24.3975C12.8832 24.682 12.7408 25.1088 12.3849 25.2511C11.7443 25.6067 10.9614 25.6067 10.1784 25.5356C9.53783 25.5356 8.75488 25.4645 8.25663 25.1088C7.82956 24.8954 7.82956 24.4686 7.90074 24.113H3.55889C3.55889 24.7532 3.70125 25.4644 4.12832 26.0335C4.55538 26.5314 5.19598 26.887 5.90776 27.0293C7.04661 27.385 8.25663 27.4561 9.46665 27.4561C11.1037 27.4561 12.7408 27.4561 14.3067 27.1004C15.2321 26.887 16.1574 26.5314 16.7268 25.8912C17.7945 24.8243 17.5098 23.1172 16.1574 22.3347C15.4456 21.908 14.5915 21.6946 13.7373 21.4812C12.4561 21.1967 11.2461 21.0544 9.9649 20.841C9.53783 20.7699 9.03959 20.6988 8.6837 20.4854C8.32781 20.272 8.25663 19.7741 8.6837 19.5607C9.18194 19.2762 9.89372 19.2762 10.5343 19.2762C11.1749 19.2762 11.8867 19.3473 12.4561 19.6318C12.7408 19.7741 12.8832 20.0586 12.8832 20.3431H17.0115C17.0115 19.8452 16.8692 19.2762 16.5133 18.8494C16.0862 18.2803 15.3032 17.9247 14.5203 17.7113C13.0255 17.569 11.6732 17.4979 10.392 17.4979ZM19.2892 17.7824V27.5983H31.3183V25.4645H23.7022V23.5439H30.4641V21.4812H23.7022V19.9163H31.0335V17.7824H19.2892ZM39.1478 17.7824C39.1478 17.7824 35.4466 17.7824 33.5959 17.7824V27.5983H37.7954V20.9833L43.5608 27.5983H49.3263V17.7824H45.1268V24.3264L39.1478 17.7824ZM56.8711 17.7824C56.8711 17.7824 52.3157 24.3264 50.038 27.5983H54.4511L55.5187 25.8201H62.3518L63.3483 27.5983H68.2596L61.7824 17.7824H56.8711ZM59.0776 20.1297L61.213 23.6862H56.8711L59.0776 20.1297ZM0 30.4435L0.0711779 35.7783L20.1433 35.7071C21.1398 35.9205 21.7804 36.5607 21.5669 38.1255L9.18194 59.6779L13.1679 63.4477L32.2436 30.4435H0ZM38.2225 30.4435L57.0135 63.3055L61.1418 59.6067L48.6857 38.0544C48.4721 36.5607 49.0415 35.8494 50.1092 35.636L70.1814 35.7071V30.4435H38.2225ZM35.0907 35.9205L17.4386 66.0795L22.1363 68.3557L33.8807 48.5105C34.3077 48.1548 34.6636 48.0126 35.0907 48.0126C35.5177 48.0126 35.9448 48.1548 36.3719 48.5105L48.1162 68.4268L52.9563 65.9373L35.0907 35.9205Z" fill="#39A900"/>
</svg>
