<svg width="780" height="780" viewBox="0 0 780 780" fill="none" xmlns="http://www.w3.org/2000/svg">
<circle cx="390" cy="390" r="390" fill="white"/>
<path d="M363.168 140.721C360.086 140.483 359.608 139.785 361.022 136.87C364.912 128.835 361.584 120.722 352.909 117.254C348.459 115.477 343.807 116.801 339.304 117.923C338.202 118.2 337.062 118.341 335.704 118.596C336.046 116.092 337.286 114.7 338.736 113.384C340.797 111.52 343.108 109.832 343.358 106.671C343.391 106.287 344.392 105.837 345.021 105.669C350.304 104.242 355.815 103.346 360.278 99.9002C362.848 97.9143 365.074 95.488 367.562 93.3882C370.909 90.5718 374.237 87.688 377.83 85.1887C380.76 83.1512 384.261 82.3877 387.859 82.0274C395.316 81.2712 401.241 78.1887 404.545 71.0752C405.748 68.496 407.349 66.0988 408.799 63.6393C410.357 60.9752 412.686 59.4624 415.814 59.3582C418.393 59.2731 420.633 58.4188 422.651 56.8549C423.648 56.076 424.757 55.4382 425.783 54.7029C429.55 52.0127 433.52 52.3338 437.623 53.8094C439.24 54.3911 440.911 55.0184 442.604 55.2034C447.09 55.7 450.736 59.6701 451.307 64.0862C451.588 66.298 450.833 68.0187 449.12 69.3125C441.103 75.3838 432.901 81.094 422.559 82.6001C416.057 83.5443 411.61 87.1884 408.779 92.9521C407.722 95.0995 406.569 97.1977 405.648 99.3978C404.538 102.059 402.662 103.799 399.882 104.476C393.502 106.015 388.529 109.795 384.237 114.431C378.901 120.187 373.712 126.08 368.693 132.11C366.591 134.629 365.101 137.653 363.159 140.728L363.168 140.721Z" fill="#F2F3F3"/>
<path d="M326.701 198.466C323.618 197.77 320.578 197.325 317.735 196.373C315.526 195.629 313.203 194.583 311.564 193.067C308.818 190.532 305.708 188.526 302.062 188.106C295.205 187.317 291.575 183.381 289.064 177.977C287.944 175.563 286.833 173.141 285.857 170.673C284.96 168.403 284.737 166.097 285.474 163.684C286.566 160.085 286.219 156.686 283.465 153.623C282.844 152.936 282.572 151.563 282.817 150.671C283.394 148.575 284.114 146.433 285.256 144.58C289.925 137.002 290.965 128.983 288.974 120.504C288.876 120.08 288.778 119.648 288.634 119.019C289.155 119.175 289.555 119.284 289.945 119.4C292.361 120.149 294.735 121.042 297.196 121.608C302.918 122.926 308.739 119.656 310.253 114.322C310.697 112.76 310.839 111.126 311.079 109.514C311.388 107.448 312.549 106.092 314.686 105.452C319.938 103.891 325.087 103.61 330.32 105.86C332.824 106.932 335.642 107.356 338.773 108.201C337.735 109.309 336.6 110.373 335.657 111.564C334.246 113.347 332.688 115.09 331.712 117.077C330.461 119.614 331.306 121.121 333.95 122.472C334.512 122.761 335.059 123.174 335.445 123.646C337.343 125.944 338.136 128.68 337.768 131.432C337.373 134.345 334.781 136.058 332.366 137.587C330.899 138.522 329.021 138.867 327.469 139.704C325.172 140.938 322.681 142.075 320.835 143.793C316.359 147.965 316.23 153.831 320.282 158.59C321.906 160.493 324.016 162.037 325.674 163.918C327.24 165.693 328.688 167.616 329.832 169.644C330.864 171.473 330.357 172.163 328.244 172.827C325.835 173.582 323.383 174.218 321.033 175.092C317.674 176.34 316.505 178.634 318.392 181.505C320.363 184.505 323.011 187.15 325.533 189.811C328.328 192.76 328.704 195.285 326.701 198.458L326.701 198.466Z" fill="#F2F3F3"/>
<path d="M339.214 121.332C345.037 118.186 351.989 119.043 356.004 123.305C358.541 125.998 358.701 129.06 357.69 132.292C357.484 132.946 357.123 133.56 356.852 134.195C355.151 138.277 356.369 140.574 360.933 141.854C361.438 141.992 361.934 142.154 362.674 142.384C361.019 146.926 363.369 151.041 364.403 155.249C365.665 160.352 364.51 164.839 361.69 169.041C358.824 173.325 355.718 177.462 352.684 181.651C350.972 184.005 349.49 186.403 349.719 189.423C349.751 189.844 349.422 190.343 349.141 190.729C346.388 194.384 345.477 198.421 346.233 202.844C346.66 205.341 346.329 207.615 344.526 209.715C341.418 213.334 342.976 219.827 347.457 221.9C348.61 222.434 350.189 222.365 351.531 222.252C353.931 222.047 355.116 223.272 354.248 225.382C353.888 226.251 353.366 227.065 352.86 227.871C350.436 231.709 350.483 235.524 352.718 239.485C353.391 240.68 353.771 242.19 353.697 243.526C353.588 245.573 352.236 247.065 349.97 247.379C346.626 247.837 343.261 248.225 339.883 248.426C338.194 248.527 337.56 247.52 338.056 245.915C339.434 241.442 338.581 237.385 335.313 233.772C334.932 233.355 334.719 232.637 334.753 232.081C335.032 227.821 335.05 223.614 333.775 219.409C333.251 217.673 333.64 215.674 333.746 213.805C333.977 209.774 333.403 205.773 331.258 202.352C329.99 200.331 329.986 198.913 330.778 196.946C332.333 193.095 331.505 189.582 328.426 186.531C326.355 184.478 324.19 182.474 322.372 180.234C320.569 178.003 320.806 177.646 323.605 176.759C325.499 176.152 327.429 175.632 329.331 175.048C333.454 173.784 335.041 171.02 333.18 167.313C331.857 164.693 329.881 162.32 327.958 160.012C326.399 158.137 324.405 156.592 322.751 154.773C319.335 151.013 321.231 146.051 324.716 143.981C326.841 142.714 329.131 141.611 331.486 140.783C335.257 139.459 337.89 136.943 340.092 134.022C342.674 130.589 341.266 126.933 340.142 123.371C339.92 122.669 339.52 122.017 339.213 121.356L339.214 121.332Z" fill="#F2F3F3"/>
<path d="M279.856 147.975C276.969 147.198 274.19 146.556 271.486 145.685C268.391 144.686 266.651 142.607 265.988 139.658C264.896 134.846 264.277 133.769 261.023 130.149C262.606 128.841 264.233 127.544 265.802 126.179C268.423 123.901 271.078 121.658 273.572 119.276C276.019 116.94 278.961 115.947 282.439 116.228C283.067 116.281 283.899 116.79 284.214 117.301C287.233 122.148 287.2 127.321 286.543 132.657C285.859 138.283 282.547 142.824 279.839 147.974L279.856 147.975Z" fill="#F2F3F3"/>
<path d="M258.248 132.325C260.596 133.922 261.577 136.027 261.911 138.278C262.913 145.04 267.527 148.206 274.179 149.487C274.638 149.576 275.084 149.742 275.545 149.793C277.433 149.968 278.552 150.639 278.567 152.693C278.574 153.647 279.226 154.778 279.951 155.527C281.916 157.542 282.096 159.87 281.364 162.213C280.209 165.901 280.716 169.387 282.32 172.823C283.792 175.987 285.281 179.136 286.846 182.259C287.326 183.218 288.045 184.074 288.696 184.942C291.216 188.316 294.656 190.203 299.01 190.858C302.796 191.426 306.05 192.976 308.768 195.695C311.15 198.085 314.323 199.32 317.802 199.908C327.113 201.503 328.92 204.47 329.537 211.155C330.026 216.422 329.674 221.747 330.936 226.967C331.134 227.8 330.903 228.716 330.924 229.593C330.953 231.152 330.816 232.298 328.708 232.877C326.71 233.424 325.632 235.312 325.526 237.297C325.437 239.02 325.388 240.892 325.996 242.478C328.261 248.378 327.779 254.323 326.906 260.299C326.659 262.035 326.49 263.83 325.86 265.451C325.15 267.291 324.207 269.148 322.92 270.668C321.025 272.902 318.734 274.842 316.617 276.915C313.707 279.756 311.978 279.97 308.738 278.048C307.675 277.411 307.208 276.64 307.549 275.544C307.868 274.533 308.326 273.561 308.71 272.569C309.35 270.933 310.194 269.334 310.563 267.643C311.164 264.89 309.72 262.743 306.91 261.66C304.368 260.679 302.308 261.277 300.445 263.544C299.97 264.12 299.486 264.703 298.895 265.419C297.295 263.131 296.853 261.013 298.219 258.747C300.445 255.044 301.533 251.088 300.709 246.839C299.457 240.357 296.1 235.507 288.735 233.936C288.433 233.871 288.142 233.738 287.704 233.588C289.099 231.656 290.359 230.035 292.828 229.253C297.655 227.728 299.322 223.807 297.084 219.489C295.595 216.61 295.314 214.168 297.43 211.296C300.442 207.215 298.342 201.054 293.264 198.418C291.248 197.368 288.92 196.81 286.686 196.196C282.912 195.157 281.858 194.102 281.35 190.492C281.277 189.93 281.112 189.37 281.155 188.815C281.49 183.628 278.975 179.495 275.561 175.704C273.124 172.994 270.205 171.401 266.232 171.962C265.655 172.043 264.656 171.441 264.332 170.911C263.686 169.834 263.289 168.601 262.932 167.395C262.123 164.642 260.101 163.003 257.551 161.603C255.506 160.481 253.709 158.971 251.856 157.566C251.586 157.364 251.573 156.767 251.59 156.357C251.823 150.808 251.793 145.235 252.462 139.735C252.848 136.559 255.466 134.298 258.239 132.34L258.248 132.325Z" fill="#F2F3F3"/>
<path d="M406.934 272.183C401.48 271.229 397.459 273.925 393.133 275.805C388.874 277.658 384.734 276.768 380.99 274.421C380.016 273.813 379.413 272.436 379.026 271.305C378.592 270.008 378.472 268.591 378.415 267.224C378.012 257.995 366.102 252.293 357.874 255.606C356.828 256.024 355.79 256.458 354.739 256.844C350.633 258.358 347.345 257.239 344.993 253.418C345.515 253.286 345.987 253.167 346.458 253.056C348.461 252.572 350.528 252.253 352.444 251.562C356.911 249.954 359.079 244.49 357 240.414C356.623 239.678 356.202 238.964 355.808 238.235C354.593 236.008 354.53 233.796 355.818 231.588C356.486 230.434 357.194 229.299 357.757 228.101C358.836 225.794 358.566 223.578 356.883 221.556C355.331 219.696 353.261 219.255 350.935 219.86C349.419 220.257 348.446 219.626 347.76 218.515C346.766 216.883 345.98 214.977 347.361 213.409C350.266 210.111 350.356 206.49 349.974 202.462C349.746 200.101 350.826 197.624 351.471 195.237C351.568 194.863 352.537 194.34 352.928 194.449C356.964 195.55 360.231 193.653 363.61 192.22C364.333 191.915 364.968 191.434 365.655 191.049C368.034 189.703 370.196 189.995 372.143 191.909C374.067 193.791 375.097 196.045 375.596 198.577C375.904 200.176 376.43 201.734 376.821 203.323C378.274 209.221 382.032 213.505 387.377 216.769C390.189 218.487 392.378 220.779 393.502 223.806C394.966 227.76 395.056 231.702 392.927 235.448C389.712 241.098 389.398 247.015 390.92 253.134C392.025 257.546 394.785 260.919 399.011 262.985C403.002 264.943 405.147 268.078 406.95 272.199L406.934 272.183Z" fill="#F2F3F3"/>
<path d="M180.216 148.203L184.718 144.001V141.6L187.29 141L189.22 141.6V143.401L190.506 144.001L196.938 144.602V145.802H191.793L189.22 148.203L188.577 151.205L191.793 152.405L187.29 153.606V154.806H189.22L191.793 161.409L189.22 162.01L190.506 166.212L189.22 170.414H187.29L188.577 175.216L187.29 177.017L188.577 178.817L187.29 179.418L188.577 180.618L187.29 181.819L184.718 189.022H182.788L180.859 187.221L180.216 183.019L182.145 179.418L180.859 177.017V172.815L182.145 170.414H178.929L177.643 168.613V165.611L178.929 162.01L177 158.408L180.216 153.606V148.203Z" fill="#F2F3F3"/>
<path d="M211.73 142.201L213.017 141L213.66 141.6H216.232L214.946 143.401L218.162 145.202L216.232 145.802V150.004L213.66 151.205L212.373 153.606H209.801H209.158V151.205L207.871 150.004V145.802L209.801 144.001L211.73 144.602V142.201Z" fill="#F2F3F3"/>
<path d="M252.455 162.286C254.248 163.339 256.234 164.341 257.996 165.616C259.043 166.376 259.938 167.468 260.557 168.582C261.356 170.016 261.711 171.665 262.449 173.134C263.668 175.563 265.298 176.156 268.152 175.986C269.516 175.905 271.296 176.073 272.245 176.827C275.777 179.649 278.513 183.02 278.675 187.664C278.724 189.162 278.922 190.661 279.12 192.153C279.631 195.98 281.951 198.428 285.851 199.583C287.259 200 288.709 200.281 290.12 200.659C292.395 201.276 294.265 202.41 295.444 204.41C296.6 206.377 296.892 208.363 295.319 210.214C292.54 213.488 292.886 216.894 294.666 220.441C296.445 223.995 295.873 225.077 291.989 226.495C290.539 227.028 289.262 227.975 288.301 228.506C284.847 226.572 281.498 224.543 277.991 222.791C275.482 221.541 272.953 221.824 270.696 223.611C268.081 225.686 265.445 225.017 264.395 221.87C263.002 217.688 263.464 213.416 264.302 209.22C264.458 208.423 265.558 207.66 266.402 207.145C270.897 204.423 271.585 199.025 267.632 195.627C263.538 192.113 258.446 190.259 253.29 188.626C252.453 188.359 251.44 188.647 250.508 188.575C249.171 188.472 247.84 188.277 246.507 188.119C246.462 187.915 246.417 187.703 246.371 187.499C246.765 187.159 247.136 186.793 247.553 186.477C249.607 184.888 250.689 182.791 251.201 180.396C251.667 178.208 250.735 176.51 249.147 174.974C246.902 172.794 246.815 171.371 248.466 168.796C249.896 166.573 251.23 164.29 252.465 162.271L252.455 162.286Z" fill="#F2F3F3"/>
<path d="M213.562 210.144C214.407 209.219 215.052 208.428 215.776 207.704C218.108 205.38 219.231 202.611 219.559 199.431C220.323 191.999 226.733 187.509 234.66 188.285C238.599 188.675 242.671 187.981 246.022 190.769C246.487 191.161 247.469 191.236 248.156 191.129C253.402 190.343 257.302 193.381 261.578 195.302C262.408 195.677 263.152 196.264 263.853 196.848C266.227 198.834 265.997 201.494 263.234 203.01C260.841 204.323 259.615 206.187 259.309 208.749C258.827 212.811 258.57 216.856 259.557 220.897C260.418 224.42 263.598 227.438 266.973 227.283C268.703 227.201 270.368 226.13 272.079 225.551C273.027 225.228 274.128 224.581 274.944 224.792C278.696 225.784 281.813 227.806 284.648 230.92C283.199 231.291 282.02 231.592 280.842 231.878C278.738 232.388 277.26 233.376 276.981 235.622C276.787 237.16 275.614 237.625 274.036 236.996C273.049 236.603 272.133 235.999 271.112 235.752C268.377 235.069 265.799 235.457 263.517 237.111C260.489 239.308 258.205 242.085 256.905 245.424C254.484 251.633 250.174 256.745 246.28 262.106C244.577 264.453 242.091 265.784 239.102 266.132C234.344 266.677 229.561 267.468 224.789 267.431C221.458 267.402 218.064 266.378 214.833 265.402C211.504 264.398 209.6 262.2 209.57 258.634C209.526 252.618 210.884 247.105 214.902 242.294C218.409 238.103 221.253 233.515 221.578 228.095C222.008 221.101 220.133 214.775 213.563 210.137L213.562 210.144Z" fill="#F2F3F3"/>
<path d="M250.226 350.902C246.121 350.656 242.469 350.454 238.828 350.221C235.757 350.014 235.813 349.909 235.194 347.167C234.758 345.228 233.919 343.364 233.281 341.467C232.903 340.336 232.269 339.19 232.28 338.06C232.345 333.368 229.995 329.795 226.6 326.625C225.847 325.921 225.166 325.129 224.554 324.31C222.01 320.911 218.151 319.371 213.889 320.465C211.463 321.087 209.108 322.046 206.862 323.105C203.081 324.886 200.603 324.188 199.091 320.463C198.336 318.597 198.037 316.581 197.4 314.667C195.999 310.485 194.743 306.241 193.02 302.171C190.372 295.892 192.094 290.393 195.814 285.169C196.104 284.767 197.332 284.492 197.781 284.728C199.162 285.462 200.294 286.606 201.683 287.332C202.832 287.936 204.454 288.784 205.388 288.422C206.568 287.973 207.818 286.514 208.05 285.311C208.746 281.804 208.231 278.318 206.229 275.145C203.464 270.773 200.153 266.918 195.404 264.193C193.322 262.999 191.572 261.268 189.727 259.724C187.495 257.863 187.105 255.585 188.213 253.063C188.8 251.742 189.443 250.448 190.044 249.159C196.487 250.892 200.977 248.782 202.068 243.571C202.783 240.173 202.356 236.87 200.083 234.069C198.148 231.691 195.973 229.453 193.679 227.379C191.111 225.056 190.92 223.983 193.537 221.738C195.961 219.667 198.61 217.973 201.8 216.924C204.406 216.065 206.834 214.73 209.258 213.457C210.629 212.734 211.252 213.654 211.976 214.278C215.826 217.6 216.893 221.956 216.932 226.577C216.962 231.212 214.828 235.183 211.954 238.792C209.51 241.869 207.047 244.976 206.265 248.796C205.542 252.332 204.996 255.957 204.999 259.552C205.015 264.279 208.304 267.413 213.451 269.192C222.811 272.417 232.07 271.212 241.322 269.185C244.019 268.594 246.372 267.131 248.014 264.959C252.327 259.259 256.791 253.676 259.633 247.089C260.676 244.68 262.575 242.508 264.477 240.56C266.415 238.576 268.056 238.574 270.631 239.851C272.827 240.943 275.116 241.599 277.239 240.091C278.375 239.284 279.356 238.025 279.856 236.769C280.307 235.633 280.825 235.168 281.97 235.415C284.58 235.974 287.228 236.458 289.757 237.26C294.294 238.701 295.76 242.376 296.672 246.281C297.518 249.911 296.337 253.204 294.519 256.357C292.654 259.585 293.122 262.759 294.997 265.846C295.418 266.537 295.999 267.2 296.657 267.704C298.169 268.864 299.791 268.775 301.148 267.469C301.94 266.718 302.481 265.728 303.32 265.034C303.861 264.586 305.119 264.088 305.363 264.304C305.976 264.844 306.343 265.749 306.526 266.558C306.629 267.029 306.22 267.625 305.981 268.137C305.552 269.049 305.082 269.951 304.637 270.854C302.704 274.791 303.01 277.761 305.549 279.61C309.842 282.733 313.652 282.93 317.425 280.079C318.711 279.11 319.749 277.863 320.904 276.746C322.138 275.557 323.38 274.369 324.613 273.179C324.884 273.226 325.155 273.266 325.426 273.313C325.733 275.733 326.314 278.155 326.273 280.57C326.239 282.466 325.231 284.172 322.999 284.875C322.382 285.071 321.74 285.397 321.283 285.819C317.46 289.348 312.923 291.952 308.446 294.659C305.665 296.345 304.262 298.942 304.165 302.128C304.126 303.435 303.93 304.749 303.685 306.036C303.342 307.828 302.378 309.219 300.736 310.307C297.937 312.154 296.191 314.661 295.954 317.971C295.664 322.021 295.39 326.08 295.017 330.118C294.96 330.773 294.584 331.634 294.049 331.974C289.97 334.542 285.645 336.539 280.618 336.997C278.433 337.2 276.245 337.604 274.13 338.159C268.392 339.66 262.793 338.226 257.269 337.198C251.622 336.14 248.694 338.196 249.357 343.598C249.517 344.901 249.878 346.186 250.038 347.489C250.178 348.582 250.16 349.689 250.217 350.917L250.226 350.902Z" fill="#F2F3F3"/>
<path d="M397.978 277.433C402.469 281.785 401.31 289.843 396.218 292.84C394.696 293.733 393.386 295.088 392.331 296.473C390.411 298.985 389.822 299.128 387.628 296.921C385.551 294.836 383.83 294.238 382.018 294.989C379.484 296.031 377.954 298.272 378.456 300.89C379.078 304.127 378.751 307.284 377.914 310.372C377.528 311.798 376.687 313.351 375.534 314.305C373.508 315.982 371.211 317.479 368.802 318.629C365.497 320.198 362.828 322.231 360.679 325.086C359.551 326.584 357.696 327.635 356.045 328.722C355.493 329.084 354.564 328.951 353.428 329.084C353.798 327.123 354.113 325.492 354.421 323.86C355.072 320.412 352.78 316.168 349.414 314.557C346.611 313.219 343.217 314.628 342.558 317.665C342.01 320.228 341.715 322.875 341.728 325.495C341.752 331.168 336.767 332.838 332.778 331.786C328.414 330.627 324.067 329.328 319.863 327.729C318.494 327.213 317.293 325.716 316.586 324.395C315.381 322.154 313.704 320.837 311.098 320.495C308.326 320.128 306.435 318.799 305.506 316.248C305.215 315.448 304.553 314.758 303.999 313.919C307.459 311.313 308.244 307.579 308.332 303.71C308.39 301.149 309.606 299.44 311.71 298.124C312.874 297.396 314.152 296.829 315.308 296.092C317.06 294.973 318.75 293.772 320.464 292.596C322.385 291.278 324.216 289.822 326.236 288.649C329.528 286.738 330.689 283.778 330.484 280.488C330.307 277.719 329.28 275 328.686 272.253C328.525 271.499 328.338 270.636 328.563 269.944C331.625 260.721 333.123 251.459 329.895 241.929C329.468 240.656 329.448 239.222 329.506 237.869C329.532 237.321 330.149 236.59 330.703 236.337C331.01 236.193 331.862 236.763 332.276 237.175C334.719 239.653 335.246 242.543 334.402 245.747C333.259 250.049 334.543 251.822 339.013 253.136C340.202 253.486 341.248 254.811 341.985 255.909C344.043 258.976 346.98 260.825 350.714 260.901C353.082 260.95 355.608 260.311 357.801 259.419C361.653 257.852 365.27 257.812 368.977 259.684C372.08 261.249 374.045 263.543 374.513 266.849C374.664 267.904 374.823 268.959 374.89 270.025C375.326 276.559 379.86 278.721 384.802 279.783C389.548 280.795 393.986 280.201 397.993 277.449L397.978 277.433Z" fill="#F2F3F3"/>
<path d="M383.733 297.992C384.28 298.521 384.88 299.014 385.384 299.586C387.778 302.31 391.241 302.749 393.682 300.129C395.865 297.78 398.168 295.655 400.704 293.637C404.444 290.653 406.617 282.012 402.871 276.729C402.619 276.373 402.428 275.974 401.88 275.05C404.713 275.219 407.266 274.954 409.505 275.622C411.702 276.28 413.585 277.88 415.378 278.933C413.722 283.483 412.205 287.925 410.47 292.284C409.392 294.993 407.405 296.967 404.52 298.313C396.951 301.835 394.079 309.032 396.801 316.548C397.326 317.989 397.325 319.756 397 321.263C395.92 326.289 396.68 328.232 401.235 330.868C403.964 332.449 404.259 333.861 402.405 336.369C401.176 338.031 399.631 339.155 397.391 339.455C393.771 339.944 390.604 341.297 388.263 344.047C387.066 345.447 385.72 346.041 383.587 345.673C379.133 344.903 376.347 347.077 375.453 351.238C374.85 354.038 373.943 356.781 373.07 359.518C372.833 360.271 372.323 361.023 371.725 361.576C369.536 363.615 368.465 366.069 368.156 368.925C368.073 369.741 367.645 370.638 367.084 371.271C365.944 372.558 364.605 373.703 363.266 374.978C362.938 374.796 362.539 374.672 362.29 374.409C359.518 371.492 356.197 369.419 352.272 367.991C349.264 366.897 349.039 364.497 351.423 362.664C353.781 360.852 354.419 357.621 352.521 355.043C349.484 350.91 346.336 346.825 342.953 342.934C339.825 339.338 334.515 338.463 330.152 340.395C328.004 341.344 326.685 342.853 326.38 345.113C326.241 346.166 326.01 347.214 325.699 348.233C324.58 351.878 322.908 352.777 318.342 351.001C317.192 350.553 316.173 349.733 315.218 348.955C311.131 345.588 310.917 344.343 312.814 339.638C313.381 338.238 313.726 336.546 313.458 335.097C312.731 331.156 308.524 329.735 304.294 331.783C302.552 332.624 300.801 333.449 299.264 334.179L300.352 316.485C300.62 316.439 300.896 316.394 301.164 316.348C301.51 316.794 301.975 317.194 302.185 317.687C303.585 320.94 306.12 322.858 309.789 323.441C311.423 323.702 312.563 324.305 313.255 325.864C314.637 329.008 317.387 330.652 320.824 331.524C323.011 332.081 325.085 333.01 327.273 333.552C329.976 334.217 332.723 334.978 335.484 335.112C340.393 335.351 345.235 331.697 345.481 326.745C345.602 324.242 345.83 321.745 346.132 319.26C346.214 318.599 346.757 317.988 347.086 317.357C347.687 317.695 348.369 317.937 348.864 318.378C350.562 319.881 351.166 321.661 350.46 323.835C350.052 325.081 349.846 326.401 349.675 327.701C349.348 330.199 350.521 331.617 353.205 332.041C356.596 332.577 359.769 331.667 361.677 329.216C364.998 324.952 369.117 321.866 374.102 319.537C375.8 318.748 377.432 317.552 378.635 316.19C379.945 314.703 381.1 312.905 381.644 311.062C382.659 307.636 383.142 304.086 382.42 300.471C382.268 299.702 382.762 298.817 382.962 297.985C383.218 297.992 383.467 297.992 383.724 297.999L383.733 297.992Z" fill="#F2F3F3"/>
<path d="M401.379 306.261C403.405 304.731 404.949 303.073 406.902 302.182C411.832 299.928 414.233 296.073 415.779 291.424C416.785 288.4 418.118 285.466 419.287 282.491C419.72 281.385 420.425 281.118 421.74 281.289C430.275 282.435 438.722 282.304 446.751 278.995C450.995 277.25 455.06 277.059 459.255 279.224C462.357 280.819 465.582 280.679 468.665 279.065C470.464 278.119 472.189 277.037 473.996 276.099C475.443 275.349 476.924 274.585 478.473 274.065C480.639 273.342 482.696 273.473 484.734 274.842C488.491 277.368 492.845 278.155 497.18 276.942C501.474 275.742 504.618 276.914 507.425 279.794C511.902 284.385 516.342 289.013 520.845 293.582C525.159 297.97 529.535 302.314 533.876 306.68C534.281 307.092 534.688 307.496 535.171 307.99C533.658 309.681 532.134 311.008 529.526 310.961C525.783 310.892 522.036 311.164 518.291 311.118C517.281 311.104 516.184 310.605 515.288 310.086C512.045 308.211 508.969 306.075 505.651 304.35C502.67 302.801 499.459 302.996 496.346 304.274C495.563 304.599 494.717 304.882 493.865 304.978C490.242 305.389 486.592 306.116 482.977 305.986C476.981 305.759 470.975 305.152 465.031 304.347C457.714 303.352 450.62 303.579 443.772 306.284C439.787 307.859 435.717 308.801 431.298 308.537C426.88 308.273 422.773 309.802 419.06 311.68C414.654 313.911 410.816 313.225 407.023 310.875C405.146 309.709 403.579 308.097 401.37 306.276L401.379 306.261Z" fill="#F2F3F3"/>
<path d="M400.419 311.157C401.413 311.976 402.425 312.772 403.402 313.613C407.316 316.962 415.775 318.39 420.66 315.381C424.055 313.291 428.317 312.197 432.736 312.593C436.636 312.942 440.32 311.931 443.833 310.49C450.814 307.63 457.981 307.431 465.453 308.598C471.701 309.576 477.985 310.796 484.407 310.025C487.497 309.652 490.611 309.435 493.7 309.078C494.752 308.955 495.887 308.829 496.794 308.379C500.103 306.733 503.228 307.408 506.114 309.153C508.696 310.71 511.103 312.543 513.468 314.389C513.951 314.767 514.262 315.777 514.109 316.372C513.314 319.323 511.897 322.012 509.512 324.14C507.582 325.861 505.644 327.589 503.575 329.155C501.349 330.835 498.78 331.766 495.805 331.743C487.395 331.674 481.418 335.586 477.432 342.174C475.384 345.561 472.871 348.402 469.717 350.894C468.027 352.234 466.65 353.996 465.391 355.726C461.596 360.962 457.448 365.727 450.732 367.906C445.615 369.56 440.572 371.366 436.117 374.385C435.165 375.033 433.746 375.196 432.51 375.347C427.548 375.957 423.692 378.136 421.172 382.185C419.534 384.814 416.806 385.511 413.92 385.928C412.54 386.124 411.117 386.078 409.713 386.133C405.857 386.283 402.225 386.972 398.818 388.868C395.298 390.835 391.427 390.022 387.675 389.287C387.159 389.186 386.575 388.71 386.312 388.26C384.529 385.17 381.481 383.648 378.238 382.331C377.809 382.158 377.362 382.015 376.934 381.834C375.073 381.08 373.243 380.374 373.611 377.893C373.723 377.148 373.354 376.274 373.01 375.533C371.081 371.443 372.268 368.043 375.157 364.744C377.653 361.895 378.717 358.355 379.353 354.736C379.47 354.062 379.487 353.365 379.612 352.691C379.935 350.944 381.056 349.833 382.952 350.279C387.013 351.227 389.766 349.602 392.166 346.84C393.834 344.925 396.293 344.437 398.742 343.979C403.329 343.114 406.985 339.613 407.58 335.597C407.99 332.832 407.041 330.737 404.388 329.254C400.205 326.92 400.413 326.893 401.258 322.318C401.606 320.441 401.11 318.396 400.831 316.451C400.587 314.755 400.11 313.083 399.741 311.396C399.97 311.316 400.199 311.237 400.427 311.158L400.419 311.157Z" fill="#F2F3F3"/>
<path d="M231.465 442.149C230.836 441.995 230.301 441.932 229.833 441.726C226.07 440.098 222.374 440.761 218.696 441.92C216.659 442.565 215.281 443.808 214.639 445.753C214.425 446.406 214.186 447.058 213.89 447.692C212.641 450.344 210.711 450.996 207.896 449.712C206.929 449.275 206.016 448.74 205.048 448.318C201.608 446.818 198.465 447.242 195.48 449.419C193.874 450.594 192.2 451.927 190.318 452.473C187.6 453.264 184.84 452.859 182.288 451.219C179.218 449.238 175.949 447.524 172.57 445.586C173.773 444.348 175.049 442.743 176.628 441.466C181.173 437.794 184.213 433.118 186.99 428.263C187.603 427.192 187.971 425.92 188.087 424.702C188.622 419.109 185.683 416.338 179.662 416.66C178.331 416.728 177.007 416.966 175.687 417.127C173.615 417.391 171.973 416.851 171.063 414.945C170.277 413.294 169.067 411.68 168.816 409.96C168.218 405.927 169.505 405.089 172.83 406.016C176.164 406.944 179.474 407.986 182.698 409.202C191.19 412.39 199.857 413.536 208.869 411.773C214.818 410.61 217.966 407.134 218.598 401.57C218.891 398.96 219.243 396.339 219.305 393.716C219.448 387.333 222.523 382.364 227.365 378.167C228.486 377.196 229.56 376.168 230.736 375.246C231.137 374.929 231.762 374.734 232.302 374.72C233.365 374.691 234.444 374.809 235.508 374.888C238.957 375.149 239.205 375.443 240.063 378.477C240.376 379.58 241.09 380.646 241.863 381.552C242.613 382.434 242.893 383.14 242.402 384.25C240.976 387.481 240.846 390.812 242.024 394.168C243.28 397.745 244.477 401.334 245.826 404.878C247.126 408.28 247.124 411.41 244.772 414.477C242.673 417.203 240.756 420.064 238.976 422.987C237.731 425.036 236.693 427.228 235.852 429.448C234.467 433.092 233.318 436.82 232.064 440.503C231.891 441.019 231.702 441.535 231.482 442.149L231.465 442.149Z" fill="#F2F3F3"/>
<path d="M288.779 358.872C290.774 361.602 291.343 364.495 291.251 367.465C291.122 371.595 291.032 375.75 290.417 379.82C289.984 382.684 288.72 385.444 287.827 388.25C287.273 389.983 286.464 391.678 286.231 393.447C285.648 397.929 288.041 400.954 292.819 401.581C296.758 402.095 300.76 402.939 304.708 401.416C305.948 400.932 306.649 401.54 306.555 402.797C306.356 405.357 306.174 407.919 305.851 410.464C305.787 410.98 305.216 411.488 304.769 411.887C299.66 416.378 294.478 420.841 291.539 426.98C290.73 428.675 290.212 430.504 289.679 432.3C288.853 435.079 286.453 436.896 283.363 436.866C283.288 436.606 283.147 436.326 283.124 436.038C282.949 433.897 282.208 432.048 279.815 431.339C277.323 430.601 274.978 430.856 272.788 432.375C271.541 433.238 270.134 434.007 268.672 434.462C264.784 435.67 261.547 437.484 259.668 441.083C258.1 444.08 255.329 445.867 252.137 447.226C248.927 448.599 245.819 450.196 242.639 451.633C242.204 451.831 241.522 451.86 241.086 451.679C238.401 450.581 236.929 448.363 235.643 446.085C235.292 445.46 235.362 444.457 235.606 443.735C237.471 438.33 239.087 432.817 241.487 427.622C243.209 423.882 246.313 420.728 248.286 417.073C252.487 409.289 256.519 401.418 260.268 393.429C261.584 390.625 261.841 387.394 262.591 384.355C263.034 382.545 263.453 380.726 264.001 378.946C264.116 378.573 264.739 378.277 265.199 378.08C268.229 376.789 269.71 374.685 269.898 371.496C270.329 363.944 270.665 363.592 278.46 361.401C281.842 360.448 285.295 359.71 288.779 358.864L288.779 358.872Z" fill="#F2F3F3"/>
<path d="M371.509 382.442C373.811 383.44 375.626 384.253 377.461 385.014C379.789 385.974 381.577 387.375 383.113 389.365C384.065 390.6 385.907 391.64 387.521 391.961C392.802 393.028 397.847 392.686 402.853 390.142C405.429 388.832 408.918 389.11 411.983 388.604C414.403 388.206 416.966 388.049 419.145 387.126C421.035 386.324 422.866 384.853 424.043 383.242C426.27 380.191 429.117 378.517 432.965 377.817C435.254 377.396 437.431 376.372 439.584 375.462C442.129 374.382 444.535 373.008 447.102 371.976C451.615 370.161 456.557 369.194 460.563 365.923C462.828 395.029 463.091 424.069 462.57 453.581C460.161 452.988 458.031 452.582 455.973 451.932C451.606 450.563 447.18 449.461 442.574 449.961C440.111 450.232 437.735 451.136 435.286 451.586C432.217 452.154 429.115 452.589 426.015 452.992C422.438 453.46 419.004 452.945 415.548 451.863C411.262 450.514 406.727 450.794 403.268 453.384C398.905 456.656 394.055 458.148 388.744 459.187C386.059 459.708 383.511 460.974 381.012 462.118C379.178 462.962 378.296 464.49 378.852 466.499C379.22 467.807 378.815 468.449 377.271 468.62C372.756 469.117 368.309 469.851 364.039 471.471C362.579 472.027 360.658 471.858 359.015 471.612C356.288 471.201 355.237 471.859 355.291 474.473C355.44 482.044 355.612 489.625 355.76 497.196C355.772 497.808 355.685 498.423 355.631 499.295C349.038 498.119 342.266 497.977 337.107 493.299C334.272 490.728 330.871 489.548 327.001 489.131C325.049 488.921 323.016 488.42 321.259 487.594C314.87 484.594 308.948 481.001 304.299 475.718C302.594 473.78 300.17 472.356 297.957 470.853C295.196 468.975 292.326 467.254 289.493 465.465C288.48 464.824 288.121 464.051 288.081 462.816C287.846 454.76 291.739 448.879 298.817 444.731C301.698 443.043 303.47 440.778 303.892 437.697C304.84 430.765 308.529 424.686 310.608 418.116C310.771 417.614 311.191 417.128 311.611 416.758C313.26 415.299 315.017 413.947 316.61 412.439C320.045 409.165 323.941 406.733 328.803 405.598C331.04 405.073 333.197 404.101 335.265 403.101C341.434 400.108 344.259 395.139 341.398 388.414C340.732 386.847 340.202 385.22 339.73 383.587C339.259 381.955 340.073 381.253 341.833 381.613C344.321 382.134 346.567 384.569 346.752 386.959C346.854 388.267 346.872 389.593 347.074 390.891C347.565 393.958 349.812 395.967 353.101 395.869C355.95 395.784 358.818 395.382 361.62 394.837C364.104 394.358 365.383 392.42 366.54 390.466C368.149 387.758 369.838 385.085 371.478 382.409L371.509 382.442Z" fill="#F2F3F3"/>
<path d="M611.612 391.658C610.281 393.353 608.427 394.249 605.754 393.764C602.245 393.128 598.863 393.523 595.63 395.142C594.603 395.662 593.163 395.762 591.96 395.644C587.676 395.209 584.207 396.482 581.395 399.475C578.779 402.255 575.29 403.457 571.491 403.896C566.539 404.476 561.975 405.76 558.241 409.062C557.154 410.028 555.66 410.597 554.338 411.324C552.4 412.386 550.37 412.489 548.393 411.48C545.684 410.102 543.169 410.563 540.516 411.645C539.045 412.246 537.353 412.532 535.738 412.645C531.326 412.939 526.993 413.292 522.835 414.989C521.143 415.678 519.036 415.443 517.114 415.677C515.728 415.842 514.332 416.03 512.972 416.313C510.436 416.835 508.734 418.237 507.803 420.56C506.803 423.072 505.605 423.69 502.766 423.606C500.764 423.548 498.732 423.427 496.756 423.611C491.394 424.119 487.378 427.01 483.785 430.444C481.989 432.158 481.541 434.316 481.999 436.714C482.969 441.832 479.993 447.232 475.082 449.434C474.852 449.536 474.591 449.606 474.332 449.645C471.847 450.007 469.355 450.362 466.646 450.743C466.61 449.981 466.54 448.962 466.528 447.938C466.364 429.031 466.349 410.117 465.977 391.212C465.811 382.587 465.082 373.958 464.317 365.351C464.14 363.38 464.614 362.137 465.717 360.514C468.789 355.987 472.716 352.255 476.789 348.57C478.141 347.341 479.137 345.696 480.047 344.116C483.539 338.01 488.648 334.333 496.341 334.459C499.571 334.513 502.419 333.505 504.937 331.781C510.907 327.706 516.166 323.069 517.962 315.971C518.248 314.826 518.833 314.341 520.176 314.352C522.984 314.38 525.806 314.053 528.608 314.19C531.865 314.346 534.515 313.45 536.605 311.134C537.575 310.061 538.657 309.715 540.265 309.85C544.504 310.212 548.69 309.819 552.681 308.276C557.411 306.443 562.199 306.226 567.211 307.494C573.75 309.148 580.309 308.718 586.544 306.402C591.456 304.573 596.374 304.007 601.645 304.299C604.322 304.443 607.189 303.646 609.764 302.754C615.847 300.638 623.299 302.13 627.669 306.683C630.17 309.289 630.701 312.118 628.906 315.164C627.461 317.619 625.414 319.782 624.14 322.302C621.839 326.829 619.134 330.913 614.952 334.212C612.652 336.027 612.487 338.977 612.988 341.749C613.236 343.105 613.635 344.438 614.076 345.758C615.406 349.758 615.093 353.629 613.519 357.518C611.839 361.655 610.084 365.796 608.926 370.074C607.585 375.03 607.8 380.157 609.076 385.161C609.631 387.325 610.699 389.372 611.619 391.666L611.612 391.658Z" fill="#F2F3F3"/>
<path d="M151.446 478.639C158.999 473.907 162.831 467.403 163.985 459.267C164.498 455.648 167.251 453.07 169.653 450.416C169.893 450.152 170.86 450.194 171.319 450.415C174.338 451.866 177.474 453.185 180.266 454.971C183.744 457.186 187.475 457.99 191.334 456.973C193.735 456.342 195.933 454.839 198.008 453.452C200.524 451.766 201.841 451.511 204.626 452.871C205.101 453.101 205.566 453.353 206.041 453.591C211.314 456.269 215.808 454.779 218.135 449.696C218.68 448.504 219.317 446.915 220.382 446.444C222.555 445.482 224.954 444.897 227.564 445.595C230.467 446.381 232.712 447.608 234.26 450.21C235.154 451.72 236.93 452.764 238.277 454.053C239.239 454.979 240.564 455.817 241 456.944C242.931 461.948 244.743 467 246.311 472.106C247.168 474.885 246.644 475.318 243.641 475.891C242.853 476.037 242.021 476.073 241.283 476.346C236.931 477.969 232.51 478.139 227.882 477.366C224.181 476.75 221.411 478.661 220.809 482.127C220.576 483.476 221.171 485 221.608 486.389C221.844 487.132 222.629 487.713 223.007 488.433C224.059 490.472 223.428 491.434 221.426 492.577C218.719 494.135 216.115 495.901 213.716 497.842C211.946 499.27 212.005 501.552 213.482 503.283C214.015 503.904 214.669 504.593 215.423 504.879C218.455 505.99 219.978 507.514 219.186 510.946C218.62 513.415 221.415 516.092 224.753 517.09C226.446 517.594 228.26 517.756 230.309 518.135C229.772 518.777 229.307 519.33 228.842 519.891C226.021 523.286 226.13 527.058 229.069 530.349C230.442 531.888 231.727 533.506 233.03 535.103C233.307 535.445 233.489 535.851 233.775 536.325C231.4 537.872 229.01 539.132 226.08 539.321C222.352 539.563 218.159 536.422 219.057 532.47C219.307 531.377 219.369 530.234 219.396 529.112C219.462 526.559 218.612 524.331 216.033 523.146C213.34 521.909 210.686 522.199 208.32 523.995C207.964 524.268 207.716 524.656 207.422 524.995L206.869 524.815C206.841 524.061 206.804 523.308 206.776 522.554C206.593 517.027 203.449 513.701 197.525 513.378C194.989 513.234 192.403 513.901 189.852 514.26C188.079 514.51 186.342 514.987 184.566 515.16C183.023 515.308 181.993 514.541 182.493 513.006C183.057 511.242 183.62 509.37 184.714 507.893C186.945 504.904 187.29 501.996 185.484 498.742C185.043 497.957 184.873 496.947 184.895 496.042C184.989 491.275 181.285 488.427 176.646 490.265C172.057 492.082 167.926 491.727 163.515 489.844C157.958 487.474 153.718 484.028 151.454 478.64L151.446 478.639Z" fill="#F2F3F3"/>
<path d="M214.802 500.545C217.649 498.724 219.81 497.025 222.253 495.846C226.781 493.668 227.996 489.812 225.122 485.728C224.824 485.307 224.283 484.941 224.219 484.504C224.08 483.651 223.904 482.61 224.294 481.936C224.636 481.352 225.877 480.721 226.505 480.883C233.043 482.552 239.098 480.465 245.221 479.034C248.905 478.177 250.447 476.286 249.558 472.808C248.175 467.402 246.346 462.086 244.423 456.819C243.813 455.147 244.139 454.431 245.655 453.77C248.261 452.639 250.815 451.413 253.436 450.314C257.189 448.733 260.47 446.613 262.327 443.098C263.951 440.018 266.675 438.585 270.001 437.606C271.597 437.136 272.965 436.047 274.514 435.396C275.544 434.962 276.711 434.59 277.811 434.632C278.175 434.646 278.656 435.992 278.799 436.768C279.239 439.173 280.472 440.293 283.083 440.433C287.314 440.655 291.984 437.51 292.822 433.453C294.414 425.762 300.012 420.719 306.076 415.123C306.171 416.423 306.435 417.252 306.241 417.969C305.793 419.6 305.246 421.218 304.521 422.755C302.406 427.231 300.682 431.808 299.902 436.674C299.5 439.168 298.198 440.934 295.856 442.351C288.106 447.048 283.788 453.639 283.807 462.512C283.805 463.349 283.212 464.499 282.495 464.967C280.103 466.521 277.482 467.759 275.052 469.272C273.474 470.255 271.906 471.362 270.64 472.673C268.135 475.251 265.748 477.944 263.513 480.724C262.221 482.328 260.803 484.087 260.313 485.979C258.441 493.244 254.359 499.09 248.54 504.08C246.912 505.478 245.797 507.434 244.617 509.239C241.699 513.69 237.075 515.552 231.494 514.498C229.658 514.148 227.752 514.15 225.926 513.777C222.954 513.174 221.998 511.722 222.518 508.933C223.015 506.251 221.83 504.351 218.719 502.763C217.586 502.184 216.507 501.523 214.801 500.553L214.802 500.545Z" fill="#F2F3F3"/>
<path d="M427.132 534.451C424.208 532.657 421.33 530.92 418.489 529.139C415.344 527.161 411.922 526.592 408.313 527.446C405.739 528.059 403.388 527.601 401.103 526.604C399.157 525.752 397.345 524.62 395.36 523.882C392.887 522.967 390.342 521.901 387.753 521.661C383.838 521.303 380.607 519.909 377.935 517.401C375.426 515.051 373.069 512.539 370.866 509.936C368.045 506.613 365.148 503.442 360.909 501.592C360.344 501.349 359.733 500.499 359.718 499.925C359.531 492.042 359.453 484.15 359.349 476.263C359.348 476.147 359.421 476.035 359.31 476.362C362.801 475.393 365.98 474.382 369.234 473.647C372.277 472.961 375.395 472.535 378.484 472.046C381.758 471.521 383.178 470.002 382.854 466.899C382.719 465.589 383.111 464.876 384.37 464.487C387.15 463.638 389.863 462.521 392.712 462.025C397.036 461.277 400.842 459.768 404.228 457.143C407.388 454.69 411.079 454.128 414.98 455.391C418.467 456.522 422.013 456.966 425.665 456.619C428.459 456.352 431.248 456.023 434.029 455.678C434.815 455.577 435.667 455.466 436.351 455.127C441.868 452.365 447.459 453.249 453.1 454.803C455.733 455.526 458.373 456.28 461.063 456.751C463.458 457.173 465.605 456.364 467.641 455.068C469.22 454.054 471.106 453.454 472.853 452.675C473.049 452.858 473.245 453.047 473.449 453.23C473.06 454.168 472.711 455.115 472.282 456.035C471.44 457.86 470.148 459.595 469.774 461.495C468.692 466.962 473.483 472.362 479.936 473.128C481.639 473.33 483.399 473.017 485.127 473.089C485.913 473.121 487.053 473.321 487.355 473.803C487.687 474.335 487.439 475.397 487.069 476.033C486.15 477.621 484.778 478.771 482.745 479.068C481.691 479.222 480.635 479.414 479.608 479.671C477.301 480.246 475.431 481.265 474.794 483.675C474.644 484.232 473.996 484.798 473.421 485.104C466.274 488.907 460.071 493.798 454.416 499.34C452.361 501.348 452.125 502.907 454.158 504.888C456.208 506.878 457.024 508.98 456.459 511.689C456.072 513.533 456.883 515.046 458.393 516.376C459.415 517.274 460.102 518.516 460.938 519.612C459.577 520.313 458.252 521.094 456.838 521.707C455.34 522.353 453.631 522.646 452.239 523.439C449.748 524.855 447.153 525.258 444.349 524.757C439.388 523.872 435.422 525.269 432.301 528.972C430.736 530.831 428.966 532.531 427.139 534.459L427.132 534.451Z" fill="#F2F3F3"/>
<path d="M614.291 394.153C619.068 398.979 623.612 403.419 627.963 408.018C630.983 411.204 631.633 415.21 630.776 419.165C630.393 420.947 628.857 422.731 627.36 424.028C623.306 427.544 619.737 431.382 617.024 435.877C616.045 437.5 615.154 439.198 614.515 440.957C613.616 443.445 614.624 445.116 617.375 445.815C618.844 446.19 620.414 446.268 621.942 446.36C624.238 446.497 626.2 447.226 628.006 448.582C632.421 451.883 636.106 455.582 638.222 460.683C639.355 463.424 641.606 465.782 643.384 468.282C650.411 478.163 655.486 488.794 657.775 500.507C658.779 505.626 658.127 506.796 652.966 509.029C652.855 509.077 652.707 509.06 652.407 509.089C650.409 506.66 649.841 503.891 650.392 500.864C651.144 496.725 650.966 492.6 649.655 488.585C648.978 486.515 648.011 484.435 646.746 482.631C644.497 479.436 642.034 476.353 639.43 473.4C638.275 472.083 636.704 470.944 635.078 470.157C631.254 468.301 627.872 469.106 625.399 472.391C623.792 474.526 622.503 476.882 620.992 479.085C620.127 480.335 619.236 481.622 618.095 482.647C615.234 485.234 613.139 485.318 609.891 483.148C608.577 482.271 607.37 481.269 606.091 480.356C604.003 478.852 601.694 477.986 598.999 478.142C594.747 478.392 592.411 481.607 593.778 485.393C594.012 486.034 594.339 486.65 594.74 487.55C593.498 487.654 592.411 487.806 591.316 487.826C577.724 488.036 564.125 488.091 550.548 488.472C543.53 488.673 536.482 489.112 529.543 490.06C525.212 490.654 521.199 491.352 516.774 490.103C514.093 489.346 510.941 490.049 508.001 490.137C505.933 490.199 504.246 489.602 502.846 488.093C500.918 486.017 498.383 485.176 495.479 485.22C491.729 485.274 487.976 485.36 484.23 485.345C482.374 485.335 480.512 485.138 478.654 485.027L478.498 484.336C479.402 484.057 480.296 483.661 481.225 483.523C484.739 483.005 487.731 481.797 489.767 478.881C491.24 476.769 491.739 474.583 490.417 472.35C489.02 469.996 486.612 469.519 483.974 469.958C480.909 470.464 478.142 470.02 475.673 468.106C472.991 466.024 472.475 463.498 473.948 460.564C475.072 458.338 475.824 455.942 476.875 453.681C477.257 452.867 477.987 452.182 478.626 451.5C480.426 449.593 482.449 447.839 484.025 445.787C485.98 443.254 486.562 440.267 485.64 437.19C484.883 434.665 486.038 433.006 487.987 431.503C492.139 428.288 496.735 426.75 502.273 427.414C506.602 427.936 509.367 426.11 510.993 422.302C511.546 421.003 512.413 420.241 513.855 419.986C514.056 419.952 514.244 419.862 514.443 419.859C522.453 419.966 529.729 415.821 537.865 416.439C539.201 416.542 540.669 415.724 541.982 415.144C543.524 414.469 544.903 414.272 546.547 415.045C549.552 416.456 552.661 416.456 555.595 414.857C557.67 413.734 559.763 412.588 561.623 411.196C563.725 409.625 565.985 408.598 568.636 408.222C570.484 407.96 572.323 407.59 574.158 407.273C577.97 406.61 581.23 404.953 583.792 402.263C585.883 400.063 588.387 399.12 591.472 399.499C593.899 399.799 596.02 399.143 598.231 398.244C599.804 397.602 601.762 397.309 603.465 397.511C607.531 397.987 611.254 397.853 614.299 394.161L614.291 394.153Z" fill="#F2F3F3"/>
<path d="M189.254 567.471C182.455 567.483 179.248 565.184 177.156 559.418C176.419 557.383 175.282 555.385 173.913 553.653C171.021 549.986 166.964 548.829 162.313 549.923C159.621 550.56 157.051 550.282 154.68 549.211C151.801 547.907 148.956 546.436 146.362 544.684C141.745 541.565 136.943 538.899 131.368 537.621C124.167 535.966 117.734 533.133 112.998 527.496C111.778 526.044 110.158 524.878 108.851 523.483C106.891 521.397 107.53 519.08 108.663 516.971C109.636 515.177 111.563 514.835 113.658 514.883C116.058 514.941 118.487 514.947 120.852 514.639C123.752 514.254 124.764 513.029 124.806 510.319C124.875 506.101 123.849 502.018 121.6 498.412C119.714 495.386 120.426 492.833 121.846 490.098C125.61 482.807 132.426 480.084 140.491 479.296C142.609 479.089 144.786 479.002 146.896 479.206C147.662 479.283 148.597 480.253 148.99 481.02C152.838 488.541 159.639 492.403 167.858 494.498C171.221 495.358 174.456 494.777 177.65 493.534C180.707 492.345 181.447 492.979 181.544 495.991C181.591 497.38 182.007 498.839 182.625 500.115C183.538 501.983 183.491 503.561 182.14 505.177C180.377 507.287 179.285 509.678 179.069 512.385C178.777 516.056 180.621 518.297 184.539 518.337C186.958 518.365 189.376 517.603 191.8 517.283C193.956 516.994 196.147 516.559 198.296 516.664C201.51 516.826 203.179 518.684 203.374 521.702C203.437 522.705 203.273 523.757 203.563 524.696C204.365 527.294 202.851 528.729 200.779 529.806C198.869 530.8 196.88 531.735 194.817 532.394C191.866 533.334 190.359 535.064 190.087 537.993C189.821 540.851 190.608 543.409 191.793 545.99C192.918 548.459 193.804 551.03 194.59 553.618C194.797 554.297 194.521 555.559 193.985 555.907C191.04 557.83 190.285 560.668 189.834 563.701C189.65 564.93 189.442 566.165 189.236 567.485L189.254 567.471Z" fill="#F2F3F3"/>
<path d="M286.327 468.106C290.092 470.377 294.079 472.684 297.939 475.161C299.526 476.178 301.033 477.423 302.249 478.805C307.651 484.931 314.65 488.937 322.246 492.126C323.733 492.75 325.482 492.885 327.128 493.092C329.908 493.444 332.522 494.081 334.582 496.032C339.423 500.63 345.765 501.691 352.15 502.739C357.674 503.65 362.35 506.068 366.031 510.1C368.99 513.345 371.808 516.729 374.942 519.822C378.522 523.344 382.896 525.427 388.249 525.731C390.289 525.853 392.324 526.866 394.274 527.649C396.855 528.686 399.264 530.217 401.93 530.95C404.164 531.564 406.702 531.669 409.016 531.389C412.098 531.007 414.836 531.233 417.425 532.953C419.671 534.443 422.017 535.792 424.299 537.238C424.73 537.512 425.155 537.878 425.403 538.296C428.602 543.709 433.748 545.9 440.011 544.476C442.332 543.949 442.599 544.189 442.693 546.434C442.779 548.679 443.022 550.917 443.141 553.163C443.17 553.638 443.145 554.326 442.832 554.563C440.518 556.323 438.286 558.25 435.723 559.623C432.954 561.1 430.737 562.781 429.308 565.524C428.669 566.748 427.26 567.834 425.919 568.467C422.325 570.158 419.27 572.261 418.093 576.026C417.597 577.631 417.385 579.331 417.199 581.001C416.873 583.872 415.409 585.845 412.438 586.566C409.468 587.288 406.741 588.217 404.7 590.536C404.077 591.242 402.91 591.878 401.953 591.937C398.226 592.156 394.457 592.38 390.926 590.758C387.725 589.289 384.373 589.336 381.146 590.306C379.829 590.699 378.572 591.856 377.766 592.978C376.56 594.649 375.103 595.57 372.99 595.559C369.806 595.555 366.715 595.146 363.903 593.552C361.957 592.444 359.965 591.395 357.974 590.346C355.147 588.86 352.114 588.028 348.902 588.494C344.043 589.188 340.002 588.032 336.088 585.094C333.116 582.863 329.512 581.222 325.956 579.863C323.842 579.055 321.244 578.969 318.912 579.14C313.233 579.552 309.73 577.615 307.796 572.532C305.753 567.188 301.245 564.462 295.159 565.028C293.383 565.193 292.313 564.533 291.74 563.065C291.281 561.891 290.984 560.657 290.552 559.469C289.213 555.747 286.037 554.155 282.036 555.186C279.425 555.859 279.121 555.679 278.562 553.173C278.451 552.679 278.365 552.186 278.271 551.692C277.399 547.27 275.475 545.396 270.747 544.501C267.461 543.879 264.18 543.171 260.869 542.818C258.777 542.592 256.607 542.835 254.503 543.089C251.37 543.475 249.618 542.851 248.245 540.235C246.709 537.307 243.966 535.671 241.211 533.957C238.146 532.046 235.126 530.06 232.231 527.927C230.359 526.552 230.378 524.221 231.963 522.169C232.783 521.11 233.579 520.019 234.509 519.052C234.899 518.641 235.609 518.289 236.182 518.269C242.694 518.061 246.988 514.963 249.836 509.632C250.67 508.07 252.143 506.756 253.498 505.489C258.837 500.493 262.98 494.852 264.573 487.811C265.038 485.778 266.155 484.202 267.633 482.671C270.101 480.145 272.286 477.378 274.675 474.786C275.483 473.912 276.485 473.127 277.556 472.556C280.429 471.008 283.376 469.588 286.327 468.098L286.327 468.106Z" fill="#F2F3F3"/>
<path d="M541.991 605.396C536.968 606.87 532.37 607.363 527.797 604.749C521.798 601.338 515.414 600.143 508.529 602.102C506.006 602.819 503.702 601.736 502.849 599.43C502.507 598.511 502.853 596.936 503.537 596.186C506.095 593.418 505.872 590.43 504.635 587.365C503.979 585.753 504.385 584.677 505.292 583.274C506.282 581.745 506.952 579.871 507.111 578.091C507.353 575.378 505.332 573.592 502.186 573.52C500.622 573.481 499.008 573.849 497.475 574.238C493.55 575.243 492.521 574.988 489.991 572.047C489.651 571.655 489.327 571.256 489.003 570.857C485.734 566.733 481.168 565.484 476.127 567.654C472.882 569.056 469.694 569.276 466.388 568.172C462.976 567.039 459.585 565.829 456.241 564.529C453.917 563.63 452.442 562.14 451.733 559.641C451.201 557.781 449.456 556.228 448.284 554.523C447.828 553.86 447.174 553.162 447.103 552.438C446.84 549.834 446.811 547.206 446.648 544.593C446.522 542.462 444.312 540.525 441.9 540.52C440.781 540.515 439.639 540.749 438.546 541.001C435.426 541.721 432.045 540.613 429.825 537.9C432.29 535.289 434.611 532.46 437.377 530.069C438.551 529.054 440.607 528.782 442.316 528.489C443.455 528.293 444.704 528.74 445.904 528.773C452.632 528.966 458.101 525.636 463.689 522.925C465.988 521.807 466.038 518.556 463.96 516.626C461.442 514.298 460.494 511.925 460.65 508.572C460.737 506.624 458.848 504.574 457.675 502.219C458.513 501.401 459.6 500.032 460.988 499.031C465.934 495.437 470.964 491.956 476.011 488.485C476.478 488.164 477.246 488.078 477.867 488.1C483.069 488.287 488.274 488.722 493.474 488.684C496.84 488.668 499.715 488.964 502.186 491.514C503.231 492.591 505.19 493.227 506.812 493.41C509.38 493.702 512.014 493.465 514.628 493.435C515.366 493.425 516.113 493.276 516.827 493.388C518.075 493.587 519.581 493.638 520.433 494.332C521.105 494.868 521.059 496.291 521.153 497.327C521.631 502.632 522.084 507.936 522.496 513.245C522.932 518.966 524.197 520.234 530.378 520.418C533.448 520.508 536.525 520.204 539.605 520.133C541.075 520.097 542.559 520.1 544.017 520.241C549.3 520.743 553.639 524.869 554.159 529.758C554.37 531.723 552.956 532.747 551.541 533.654C550.281 534.462 549.313 533.49 548.353 532.789C545.283 530.537 542.205 530.306 538.829 532.096C537.783 532.653 536.649 533.159 535.822 533.938C532.408 537.151 528.001 537.771 523.506 538.208C522.372 538.318 521.234 538.351 520.106 538.5C514.74 539.218 512.356 541.454 511.631 546.509C510.61 553.669 511.351 560.772 512.883 567.806C514.029 573.042 517.908 576.156 523.274 577.19C528.878 578.269 531.065 581.398 531.446 586.387C531.625 588.738 532.276 591.094 532.99 593.375C534.167 597.157 535.934 600.641 539.549 603.05C540.433 603.637 541.1 604.522 541.991 605.396Z" fill="#F2F3F3"/>
<path d="M335.355 589.931C332.991 591.044 330.641 592.175 328.262 593.257C327.059 593.805 325.76 594.169 324.596 594.765C321.867 596.152 319.357 597.056 316.496 594.653C315.36 593.702 313.395 593.577 311.769 593.201C308.123 592.355 305.293 590.52 303.434 587.449C301.899 584.909 299.332 583.787 296.591 582.802C295.447 582.393 294.467 581.606 293.372 581.075C291.666 580.245 289.985 579.006 288.182 578.805C285.103 578.458 281.942 578.765 278.814 578.803C276.906 578.828 274.948 579.13 273.101 578.825C268.489 578.062 263.928 577.014 259.333 576.104C255.246 575.294 251.734 573.504 249.179 570.415C244.519 564.782 238.104 563.275 230.999 563.277C229.673 563.275 228.312 563.426 227.027 563.705C223.59 564.461 222.229 565.968 221.811 569.251C221.493 571.743 220.975 572.208 218.345 572.507C213.011 573.103 207.987 571.896 202.996 570.288C199.915 569.298 196.756 568.49 193.228 567.489C193.217 566.465 193.119 564.956 193.21 563.466C193.319 561.698 194.136 560.283 195.766 559.241C198.104 557.754 198.327 555.482 197.672 553.195C196.927 550.602 195.88 548.083 194.934 545.539C194.408 544.121 193.604 542.763 193.295 541.319C192.567 537.921 193.196 536.998 196.668 535.935C201.772 534.372 205.5 530.899 209.549 527.872C210.07 527.484 210.468 526.943 211.019 526.619C212.945 525.487 215.053 526.403 215.304 528.518C215.409 529.376 215.385 530.305 215.144 531.127C213.146 537.997 219.993 544.488 228.27 542.674C230.799 542.12 233.247 540.872 235.482 539.572C238.955 537.548 242.022 538.095 244.095 541.458C247.223 546.542 249.771 547.57 256.004 546.641C257.728 546.379 259.58 546.599 261.341 546.812C263.793 547.114 266.211 547.692 268.653 548.016C272.304 548.498 273.519 549.508 274.192 552.849C274.389 553.829 274.576 554.832 274.924 555.775C276.011 558.723 278.571 559.968 281.745 559.166C285.257 558.276 285.915 558.633 286.892 561.891C287.181 562.854 287.452 563.831 287.859 564.761C289.095 567.594 291.602 569.014 294.839 568.813C299.857 568.5 302.286 569.978 303.989 574.38C306.263 580.273 311.298 583.596 317.966 582.863C322.132 582.399 325.655 583.478 329.078 585.24C331.296 586.38 333.274 587.908 335.363 589.265L335.37 589.955L335.355 589.931Z" fill="#F2F3F3"/>
<path d="M205.252 283.662C202.626 282.273 200.716 281.113 198.674 280.224C196.752 279.389 194.916 279.86 193.665 281.467C188.813 287.7 186.686 294.392 189.571 302.087C191.493 307.223 193.018 312.49 194.779 317.686C195.362 319.41 195.881 321.207 196.813 322.766C199.279 326.888 203.669 328.026 208.18 325.987C210.218 325.063 212.25 324.092 214.389 323.422C217.812 322.348 219.842 323.174 221.996 325.906C223.264 327.516 224.749 328.984 226.174 330.487C227.699 332.105 228.348 333.964 228.698 336.093C229.095 338.526 229.85 340.95 230.777 343.268C231.812 345.84 231.895 345.706 229.671 347.37C227.438 349.042 225.209 350.768 223.273 352.729C219.905 356.139 219.705 359.66 222.596 363.474C223.785 365.041 225.37 366.367 226.844 367.734C228.711 369.465 228.7 371.386 226.772 373.084C224.931 374.709 222.956 376.241 221.368 378.068C217.631 382.346 215.572 387.252 215.475 392.887C215.423 395.75 214.989 398.622 214.566 401.464C214.128 404.405 212.322 406.273 209.181 407.077C202.873 408.683 196.583 408.385 190.327 406.856C187.877 406.253 185.514 405.306 183.118 404.504C179.844 403.417 176.57 402.323 173.418 401.274C174.491 398.929 176.008 396.509 176.674 393.899C177.438 390.907 178.102 387.654 177.639 384.674C176.59 378.003 175.041 371.371 173.212 364.838C172.492 362.269 170.656 359.897 169.004 357.636C166.802 354.623 168.325 350.475 172.116 349.764C172.309 349.729 172.511 349.687 172.711 349.661C178.27 348.916 180.823 344.605 178.189 339.838C176.959 337.595 175.066 335.622 173.252 333.716C171.36 331.728 169.386 329.851 169.019 327.048C168.742 324.955 169.022 323.096 170.91 321.636C172.921 320.075 174.83 318.43 174.771 315.614C174.681 311.402 174.843 307.158 171.583 303.685C169.14 301.076 165.837 300.591 162.492 302.143C161.844 302.445 160.553 302.399 160.056 301.989C157.105 299.558 154.883 296.737 155.203 292.75C155.54 288.47 153.942 285.066 149.919 282.687C147.439 281.222 146.844 278.087 149.291 275.235C152.336 271.69 153.903 268.041 153.211 263.521C153.121 262.958 153.413 262.247 153.775 261.757C154.146 261.245 154.87 260.537 155.321 260.61C155.954 260.702 156.793 261.349 156.99 261.919C157.675 263.858 158.104 266.045 160.723 266.326C163.597 266.629 166.236 265.648 168.086 263.597C170.3 261.157 172.076 258.435 171.965 254.988C171.898 252.962 172.965 251.654 174.999 250.807C179.712 248.85 180.861 245.664 178.356 241.361C177.307 239.555 176.029 237.821 174.592 236.255C171.601 232.985 169.805 229.166 168.275 225.193C168.168 224.915 168.153 224.612 168.033 224.008C169.87 224.738 171.628 225.122 172.99 226.033C177.027 228.738 180.972 231.577 184.803 234.533C185.745 235.256 186.395 236.55 186.731 237.694C187.335 239.736 187.652 241.863 187.97 243.974C188.052 244.521 187.806 245.157 187.573 245.701C186.581 247.951 185.403 250.127 184.549 252.416C183.358 255.615 184.238 258.565 186.764 260.893C189.141 263.081 191.654 265.222 194.416 266.945C198.544 269.516 201.482 272.969 203.589 277C204.59 278.92 204.67 281.257 205.234 283.677L205.252 283.662Z" fill="#F2F3F3"/>
<path d="M368.878 375.137C369.906 376.888 370.013 378.397 368.935 380.014C366.861 383.137 364.867 386.31 362.897 389.501C362.023 390.913 360.854 391.719 359.073 391.837C357.283 391.955 355.507 392.267 353.708 392.4C351.976 392.529 351.102 391.632 350.958 390.066C350.844 388.819 350.797 387.569 350.7 386.316C350.385 382.26 345.732 378.116 341.409 378.043C337.26 377.974 335.018 380.466 335.981 384.22C336.471 386.101 337.111 387.96 337.862 389.763C339.841 394.515 338.542 397.452 333.62 399.97C331.643 400.983 329.522 401.91 327.346 402.384C321.818 403.58 317.588 406.582 313.733 410.225C312.668 411.231 311.524 412.17 310.42 413.142C310.183 413.089 309.953 413.044 309.716 412.991C309.869 410.498 310.006 408.011 310.184 405.519C310.257 404.462 310.529 403.409 310.544 402.348C310.591 398.624 307.411 396.28 303.653 397.536C300.166 398.699 296.742 398.021 293.347 397.563C290.617 397.198 289.702 395.772 290.215 393.222C290.551 391.522 291.242 389.867 291.93 388.25C295.454 380.007 295.387 371.387 294.758 362.734C294.647 361.17 293.628 359.676 293.152 358.121C292.987 357.569 292.937 356.62 293.276 356.362C297.372 353.252 297.756 348.889 297.937 344.46C297.992 343.022 297.966 341.572 297.805 340.144C297.635 338.716 298.373 338.172 299.677 337.738C301.793 337.028 303.817 336.056 305.94 335.37C306.989 335.029 308.181 335.062 309.316 334.928C309.389 336.041 309.47 337.153 309.535 338.258C309.531 338.312 309.486 338.371 309.458 338.431C307.738 341.869 306.87 345.196 309.835 348.604C313.328 352.617 317.209 355.832 323.139 355.505C326.142 355.343 328.004 353.502 329.018 351.037C329.71 349.358 329.898 347.51 330.533 345.804C330.83 345.016 331.489 344.141 332.251 343.761C334.971 342.397 338.477 343.203 340.522 345.673C343.478 349.243 346.33 352.885 349.146 356.555C349.991 357.652 350.613 358.999 349.009 360.011C343.643 363.417 346.532 369.548 350.769 371.42C352.642 372.245 354.559 373.018 356.295 374.052C357.51 374.783 358.451 375.924 359.52 376.871C362.65 379.631 364.653 379.541 367.424 376.546C367.85 376.083 368.324 375.662 368.879 375.129L368.878 375.137Z" fill="#F2F3F3"/>
<path d="M263.873 374.52C261.014 369.778 256.49 367.857 250.896 367.825C248.17 367.809 245.76 367.084 243.684 365.395C242.705 364.6 242.204 363.579 242.961 362.586C243.493 361.897 244.494 361.259 245.38 361.142C247.152 360.899 249.001 361.165 250.779 360.961C254.01 360.596 255.425 358.341 254.57 355.384C254.358 354.659 254.49 353.853 254.464 353.077C254.404 351.082 254.394 349.09 254.267 347.099C254.209 346.166 253.875 345.255 253.791 344.32C253.532 341.523 254.039 341.367 256.971 341.821C263.728 342.884 270.44 344.408 277.388 342.375C281.676 341.121 286.428 341.366 290.563 339.366C291.554 338.883 292.598 338.488 293.825 337.957C294.053 342.341 294.538 346.585 293.207 350.705C292.449 353.054 290.499 354.564 287.987 355.243C283.89 356.354 279.715 357.251 275.638 358.441C268.362 360.555 266.672 362.693 266.205 369.887C266.052 372.28 265.275 373.819 263.874 374.505L263.873 374.52Z" fill="#F2F3F3"/>
<path d="M232.802 371.907C232.822 368.878 230.764 367.167 228.638 365.475C228.132 365.073 227.681 364.589 227.246 364.113C224.472 361.096 224.509 359.138 227.447 356.261C229.096 354.647 230.816 353.092 232.611 351.409C235.661 355.202 239.497 354.835 243.23 354.926C245.398 354.978 247.571 355.24 249.724 355.539C250.374 355.632 250.947 356.155 251.526 356.972C250.888 357.112 250.26 357.346 249.612 357.369C248.141 357.428 246.669 357.363 245.2 357.4C242.66 357.457 240.897 358.622 239.966 360.814C238.987 363.118 238.974 365.357 240.936 367.287C243.719 370.026 247.182 371.418 251.191 371.325C253.715 371.266 255.923 371.902 258.037 373.105C260.256 374.361 261.506 377.357 260.515 379.591C260.294 380.089 259.457 380.621 258.866 380.663C254.937 380.916 250.991 381.199 247.061 381.073C246.209 381.045 244.952 379.498 244.652 378.457C243.383 374.019 241.747 372.573 236.799 372.153C235.537 372.047 234.28 372.003 232.801 371.914L232.802 371.907Z" fill="#F2F3F3"/>
<path d="M250.318 404.655C248.834 400.073 247.074 395.543 246.001 390.877C245.575 389.038 246.554 386.873 247.154 384.925C247.308 384.446 248.487 384.013 249.227 383.98C252.42 383.822 255.628 383.828 259.072 383.763C258.69 391.589 253.557 397.682 250.318 404.655Z" fill="#F2F3F3"/>
<path d="M320.6 598.158C323.149 597.113 325.409 596.292 327.572 595.286C330.337 594.005 332.981 592.507 335.768 591.274C336.826 590.801 338.133 590.654 339.331 590.624C341.887 590.575 344.469 590.908 346.992 590.701C349.768 590.47 353.104 590.529 355.491 591.722C359.46 593.716 362.139 597.096 366.849 597.525C368.855 597.707 370.896 597.845 372.898 597.684C375.69 597.463 377.705 595.997 379.269 593.828C379.827 593.052 380.916 592.356 381.891 592.157C384.086 591.705 386.188 592.227 388.379 592.926C393.542 594.572 399.092 595.767 404.037 593.046C407.294 591.25 410.304 589.26 413.954 588.009C417.373 586.845 419.538 584.16 419.681 580.467C419.714 579.653 419.848 578.844 419.956 578.034C420.388 574.826 421.963 572.338 425.242 571.003C428.504 569.666 431.008 567.732 432.459 564.545C432.972 563.425 434.516 562.67 435.679 561.861C437.873 560.336 440.239 559.015 442.331 557.383C444.527 555.679 446.269 555.799 446.744 558.417C447.737 563.919 451.871 566.094 456.792 567.71C460.049 568.776 463.286 569.887 466.584 570.83C469.907 571.775 473.135 571.261 476.253 569.954C477.103 569.601 478.024 569.329 478.937 569.181C481.523 568.768 483.776 569.152 485.148 571.598C485.548 572.313 486.215 572.898 486.752 573.552C489.409 576.758 492.806 577.848 496.993 576.714C498.091 576.414 499.185 576.044 500.316 575.887C502.468 575.588 503.238 576.411 502.616 578.357C502.398 579.051 503.302 580.975 502.783 581.527C500.948 583.462 499.164 584.285 500.278 586.723C501.304 588.954 501.469 591.024 499.635 593.224C497.846 595.372 497.265 598.019 499.207 600.593C501.328 603.402 503.949 605.269 507.9 604.712C508.238 604.662 508.581 604.66 508.897 604.562C515.003 602.563 520.581 603.985 525.968 606.888C530.139 609.136 534.547 609.85 539.25 608.623C540.67 608.257 542.154 608.089 543.753 607.804C544.93 610.704 545.156 613.696 544.906 616.682C544.091 626.259 543.169 635.815 541.174 645.267C538.812 656.47 536.88 667.753 534.724 678.999C532.431 690.984 530.005 702.945 527.812 714.944C526.776 720.636 526.137 726.39 525.317 732.111C525.229 732.727 525.083 733.333 524.854 734.47C523.254 733.682 521.745 733.172 520.536 732.299C517.915 730.408 515.412 728.377 512.927 726.331C509.829 723.783 506.705 722.181 502.248 723.633C500.643 724.151 498.316 722.923 496.389 722.287C496.126 722.202 492.97 717.671 494.841 717.589C497.506 712.08 498.526 709.689 502.47 704.878C505.772 700.854 509.444 694.663 512.408 690.416C515.584 685.847 517.508 683.57 516.461 678.275C516.206 676.977 517.326 674.647 516.225 673.773C513.424 671.553 510.237 669.9 506.549 669.175C504.507 668.773 502.493 668.17 500.507 667.546C497.945 666.748 495.923 665.328 494.278 663.232C488.28 655.572 474.535 654.284 467.086 660.557C466.336 661.188 465.546 661.779 464.773 662.385C460.658 665.615 456.568 665.853 451.964 663.144C451.504 662.875 451.009 662.628 450.637 662.279C447.015 658.844 442.486 658.736 437.957 659.585C435.967 659.956 433.86 661.028 432.39 662.339C427.696 666.545 422.383 668.296 415.936 666.853C415.276 666.705 414.59 666.695 413.939 666.531C409.515 665.404 405.533 666.192 401.457 668.118C396.492 670.465 391.108 671.333 385.583 669.463C384.886 669.227 384.201 668.937 383.542 668.626C379.233 666.572 377.8 663.617 379.429 659.43C380.781 655.95 379.992 652.87 377.912 649.947C375.971 647.218 373.267 645.603 369.644 645.456C367.824 645.386 365.979 645.307 364.201 644.968C360.768 644.311 359.968 642.623 361.459 639.75C362.067 638.565 362.836 637.352 362.989 636.093C363.202 634.403 363.513 632.33 362.7 630.983C359.571 625.812 355.349 621.789 348.376 621.411C344.94 621.229 341.478 621.053 338.098 620.486C333.501 619.713 329.374 617.841 325.838 614.909C323.585 613.04 322.632 610.713 322.824 607.995C323.056 604.619 322.966 601.324 320.598 598.182L320.6 598.158Z" fill="#F2F3F3"/>
</svg>
