<svg width="38" height="39" viewBox="0 0 38 39" fill="none" xmlns="http://www.w3.org/2000/svg">
<path d="M2.2386 36.8003C1.64783 36.5582 1.21072 36.1833 1.13124 35.5247C1.31668 32.6561 0.548419 29.3814 1.94984 26.7497C4.5328 21.8949 11.7121 20.1925 16.8489 20.5621C18.5709 20.6871 20.2584 21.1088 21.9062 21.5904C21.9327 21.6919 21.8824 21.7023 21.8373 21.7622C21.5962 22.0824 20.8465 22.6134 20.5074 22.9908C18.3669 25.4013 17.6092 28.7853 18.5232 31.8648C19.1034 33.8223 20.3458 35.556 21.9751 36.7977H2.2386V36.8003Z" fill="white"/>
<path d="M14.5653 1.7417C21.4532 1.20806 26.1396 8.45508 22.6798 14.3745C19.469 19.8671 11.4048 19.9452 7.99532 14.5958C4.59906 9.26985 8.23375 2.23108 14.5653 1.7417Z" fill="white"/>
<path d="M22.4837 34.5173C19.0954 31.1723 19.3815 25.6746 23.3447 22.9049C28.9928 18.9586 36.7364 23.9045 35.4091 30.5814C34.2541 36.3915 26.7781 38.7577 22.4837 34.5173ZM28.6669 25.1539H27.1331V28.374H23.856V30.0868H27.1331V33.3068H28.6669V30.0868H31.9095L32.0129 29.9853V28.4781L31.9095 28.3766H28.6669V25.1565V25.1539Z" fill="white"/>
</svg>
