<svg width="65" height="57" viewBox="0 0 65 57" fill="none" xmlns="http://www.w3.org/2000/svg">
<path d="M4.0625 0C1.7875 0 0 1.7875 0 4.0625C0 6.3375 1.7875 8.125 4.0625 8.125C6.3375 8.125 8.125 6.3375 8.125 4.0625C8.125 1.7875 6.3375 0 4.0625 0ZM16.25 0V8.125H65V0H16.25ZM4.0625 16.25C1.7875 16.25 0 18.0375 0 20.3125C0 22.5875 1.7875 24.375 4.0625 24.375C6.3375 24.375 8.125 22.5875 8.125 20.3125C8.125 18.0375 6.3375 16.25 4.0625 16.25ZM16.25 16.25V24.375H65V16.25H16.25ZM4.0625 32.5C1.7875 32.5 0 34.2875 0 36.5625C0 38.8375 1.7875 40.625 4.0625 40.625C6.3375 40.625 8.125 38.8375 8.125 36.5625C8.125 34.2875 6.3375 32.5 4.0625 32.5ZM16.25 32.5V40.625H65V32.5H16.25ZM4.0625 48.75C1.7875 48.75 0 50.5375 0 52.8125C0 55.0875 1.7875 56.875 4.0625 56.875C6.3375 56.875 8.125 55.0875 8.125 52.8125C8.125 50.5375 6.3375 48.75 4.0625 48.75ZM16.25 48.75V56.875H65V48.75H16.25Z" fill="white"/>
</svg>
