<svg width="58" height="48" viewBox="0 0 58 48" fill="none" xmlns="http://www.w3.org/2000/svg">
<path d="M57.994 13.5879C57.7267 14.6654 57.5863 15.797 57.1592 16.804C56.663 18.0073 56.0177 19.1428 55.2386 20.1837C52.2307 24.0857 49.1423 27.9246 46.0822 31.7876C46.003 31.8881 45.9164 31.9842 45.8029 32.1148C45.6729 31.9647 45.5624 31.8446 45.4609 31.7156C42.2693 27.6635 38.9568 23.7135 35.9117 19.5594C30.7458 12.5058 34.5675 2.32018 43.3655 0.463744C49.9487 -0.922958 56.287 3.31519 57.7401 9.93804C57.8417 10.3973 57.9149 10.8625 58 11.3247L57.994 13.5879ZM45.782 26.3443C45.8955 26.2183 45.9492 26.1657 45.9955 26.1072C48.2193 23.2933 50.467 20.4989 52.6594 17.6594C54.1663 15.7085 54.6606 13.4693 54.2843 11.0291C53.5375 6.19064 48.639 2.85896 43.9316 3.99653C37.5993 5.52731 35.1022 12.8165 39.1525 17.9626C40.6459 19.8611 42.1514 21.752 43.6508 23.646L45.782 26.3443Z" fill="white"/>
<path d="M12.2098 31.9138C10.6944 30.0042 9.2283 28.1665 7.76819 26.3154C5.95388 24.0175 4.07083 21.7767 2.34919 19.4189C-2.88151 12.284 1.07738 2.06743 9.73194 0.25824C17.6049 -1.39057 24.9861 5.08625 24.3869 13.1249C24.2217 15.5732 23.3138 17.9123 21.785 19.8281C18.6505 23.7942 15.5121 27.7563 12.3697 31.7145L12.2098 31.9138ZM12.1993 26.101C12.2631 26.0458 12.324 25.9873 12.3817 25.9257C14.5965 23.1317 16.8248 20.3482 19.0187 17.5317C20.561 15.5532 21.0855 13.2958 20.7015 10.8151C19.9542 5.99159 15.0403 2.667 10.3297 3.80917C3.9976 5.35006 1.50929 12.6258 5.56532 17.7686C7.64763 20.4057 9.73493 23.0383 11.8272 25.6664C11.9408 25.8058 12.0633 25.9422 12.1993 26.101Z" fill="white"/>
<path d="M17.4829 42.295C17.5123 45.2343 15.1288 47.7048 12.2347 47.7319C9.34063 47.759 6.96739 45.3202 6.93796 42.3432C6.91148 39.3979 9.29207 36.9335 12.1862 36.9094C15.0802 36.8852 17.4535 39.315 17.4829 42.295ZM12.1965 44.1038C12.5406 44.1031 12.8768 43.9984 13.163 43.8027C13.4492 43.6069 13.6725 43.329 13.805 43.0037C13.9376 42.6783 13.9733 42.3202 13.9078 41.9741C13.8423 41.628 13.6785 41.3095 13.437 41.0585C13.1954 40.8074 12.8868 40.6351 12.55 40.5631C12.2131 40.4911 11.863 40.5227 11.5436 40.6538C11.2242 40.7849 10.9498 41.0098 10.7547 41.3002C10.5596 41.5906 10.4526 41.9335 10.4471 42.286C10.4439 42.7649 10.6263 43.2256 10.9543 43.5669C11.2822 43.9083 11.729 44.1024 12.1965 44.1068V44.1038Z" fill="white"/>
<path d="M51.0594 42.6038C50.9608 45.627 48.5576 48.0293 45.707 47.9298C42.7725 47.8319 40.4252 45.3452 40.5193 42.435C40.6194 39.4118 43.0138 37.0291 45.8733 37.112C48.8004 37.1949 51.1521 39.6861 51.0594 42.6038ZM45.8026 44.3068C46.1467 44.3003 46.4813 44.1898 46.7643 43.9892C47.0473 43.7887 47.2661 43.5069 47.3934 43.1795C47.5206 42.852 47.5505 42.4933 47.4794 42.1484C47.4082 41.8036 47.2392 41.488 46.9935 41.2411C46.7478 40.9943 46.4364 40.8273 46.0984 40.7611C45.7604 40.6949 45.4107 40.7324 45.0935 40.869C44.7762 41.0055 44.5053 41.235 44.315 41.5286C44.1246 41.8223 44.0231 42.1669 44.0234 42.5194C44.0288 42.9977 44.2191 43.4544 44.5525 43.7894C44.886 44.1244 45.3355 44.3104 45.8026 44.3068Z" fill="white"/>
<path d="M20.1512 40.6615L24.8389 40.6162L24.8413 44.1906L20.155 44.2361L20.1512 40.6615Z" fill="white"/>
<path d="M26.641 40.5977L31.3193 40.6168L31.3601 43.9763L26.6792 43.9625L26.641 40.5977Z" fill="white"/>
<path d="M37.8514 40.6172L37.8503 44.1831L33.1562 44.2349L33.1576 40.6675L37.8514 40.6172Z" fill="white"/>
<path d="M49.9521 12.4232C49.9361 13.5229 49.4907 14.5728 48.7109 15.3484C47.9311 16.1241 46.8788 16.5639 45.779 16.5739C43.5136 16.5649 41.6134 14.6543 41.6268 12.4008C41.6402 10.1474 43.5479 8.23519 45.7998 8.24861C46.9 8.26452 47.9503 8.71014 48.7262 9.49023C49.5021 10.2703 49.9421 11.323 49.9521 12.4232Z" fill="white"/>
<path d="M12.2358 16.373C9.9832 16.3954 8.06435 14.5045 8.04796 12.2366C8.03157 9.96878 9.91467 8.07343 12.1851 8.0481C14.4556 8.02277 16.3461 9.91215 16.3729 12.186C16.3983 14.4359 14.5062 16.3521 12.2358 16.373Z" fill="white"/>
</svg>
