<svg width="27" height="28" viewBox="0 0 27 28" fill="none" xmlns="http://www.w3.org/2000/svg">
<path d="M14.352 2.01807L15.5509 2.16942C20.4356 2.93879 24.4683 6.83608 25.4839 11.76L25.7539 13.6318C25.7341 14.0959 25.7787 14.5676 25.7539 15.0292C25.147 25.9619 11.8179 30.7521 4.5849 22.5464C-2.16014 14.8955 2.94509 2.61338 12.9326 2.01807H14.352ZM14.4065 15.0368C16.4253 14.4768 17.3368 12.0829 16.1404 10.2919C14.9514 8.51104 12.3332 8.51104 11.1442 10.2919C10.7677 10.857 10.2227 12.315 11.0079 12.7262C11.4588 12.9633 12.021 12.706 12.1177 12.199C12.2366 11.5784 12.2143 11.1294 12.8236 10.7485C14.6145 9.63104 16.0958 12.373 14.4337 13.3518C13.8293 13.7074 12.9673 13.3896 12.8855 14.328C12.8509 14.719 12.841 15.6346 12.8905 16.013C12.9648 16.5705 13.6039 16.8505 14.0671 16.5453C14.5675 16.2123 14.352 15.5438 14.4065 15.0368ZM13.4404 17.8368C12.1622 18.0613 12.3827 20.1222 13.755 19.9885C15.1273 19.8548 14.9192 17.577 13.4404 17.8368Z" fill="#71277A"/>
</svg>
