<svg width="50" height="60" viewBox="0 0 50 60" fill="none" xmlns="http://www.w3.org/2000/svg">
<path d="M24.0939 0.027541C11.1836 0.766707 4.40665 15.6399 12.4454 25.7735C19.4536 34.6085 33.3544 33.4898 38.9046 23.7258C45.1034 12.8181 36.6423 -0.691648 24.0939 0.027541ZM0.329441 59.9949H49.623C49.8945 59.7252 49.6682 59.2757 49.6582 58.9461C49.5777 56.334 49.7436 54.1815 49.2308 51.5594C47.6171 43.2838 41.554 36.2267 33.5856 33.3699C28.1661 35.967 21.8064 35.962 16.3819 33.3799C8.53917 36.1668 2.51133 43.059 0.802015 51.1699C0.36966 53.2126 0.304304 54.9206 0.294249 56.9883C0.294249 57.9372 0.238948 58.8962 0.243975 59.8401C0.243975 59.93 0.249003 59.94 0.329441 59.9999V59.9949Z" fill="#000B77"/>
<path d="M0.329118 59.9945C0.24868 59.9345 0.243652 59.9246 0.243652 59.8347C0.243652 58.8907 0.288899 57.9318 0.293926 56.9829C0.303981 54.9152 0.369337 53.2071 0.801692 51.1644C2.511 43.0536 8.53884 36.1663 16.3816 33.3745C21.8061 35.9566 28.1658 35.9616 33.5853 33.3645C41.5537 36.2263 47.6167 43.2783 49.2305 51.554C49.7433 54.176 49.5774 56.3286 49.6579 58.9407C49.6679 59.2753 49.8941 59.7198 49.6227 59.9895H0.329118V59.9945Z" fill="#000B77"/>
<path d="M24.094 0.027541C36.6423 -0.691648 45.0984 12.8181 38.9046 23.7258C33.3544 33.4898 19.4537 34.6086 12.4455 25.7735C4.40671 15.6399 11.1887 0.766707 24.094 0.027541Z" fill="#000B77"/>
</svg>
