<svg width="20" height="26" viewBox="0 0 20 26" fill="none" xmlns="http://www.w3.org/2000/svg">
<path d="M9.63126 13.8217C14.859 14.1235 18.3818 8.45451 15.8015 3.87741C13.4892 -0.21976 7.6981 -0.689206 4.77847 3.01816C1.42947 7.27041 4.25486 13.5115 9.63126 13.8217Z" fill="white"/>
<path d="M19.9655 25.4999C19.998 25.4737 20 25.4693 20 25.4299C20 25.0164 19.9817 24.5963 19.9797 24.1805C19.9756 23.2747 19.9492 22.5264 19.7746 21.6315C19.0841 18.0781 16.6492 15.0607 13.4812 13.8376C11.29 14.9688 8.7211 14.971 6.53193 13.8333C3.31315 15.087 0.864044 18.1765 0.212165 21.8021C0.00502697 22.9508 0.0720416 23.8939 0.0395479 25.0382C0.0354871 25.1848 -0.0558978 25.3796 0.0537633 25.4977L19.9655 25.4977L19.9655 25.4999Z" fill="white"/>
</svg>
