<svg width="53" height="64" viewBox="0 0 53 64" fill="none" xmlns="http://www.w3.org/2000/svg">
<path d="M0.0914863 64C0.00538158 63.937 0 63.9265 0 63.832C0 62.8395 0.0484336 61.8312 0.0538151 60.8335C0.0645782 58.6594 0.134538 56.8635 0.597351 54.7157C2.42708 46.1875 8.87955 38.946 17.2748 36.0105C23.0814 38.7254 29.8891 38.7307 35.6904 36C44.2202 39.009 50.7103 46.4239 52.4378 55.1253C52.9867 57.8822 52.8091 60.1455 52.8952 62.892C52.906 63.2438 53.1481 63.7112 52.8575 63.9948H0.0914863V64Z" fill="white"/>
<path d="M26.0593 0.0294698C39.3899 -0.740086 48.3731 13.7158 41.7933 25.3874C35.897 35.8352 21.1297 37.0323 13.6847 27.5785C5.14474 16.7352 12.3495 0.820402 26.0593 0.0294698Z" fill="white"/>
</svg>
