<svg width="1920" height="1280" viewBox="0 0 1920 1280" fill="none" xmlns="http://www.w3.org/2000/svg">
<path d="M0.0164185 962.685C26.858 953.442 54.7881 948.893 82.4746 943.289C89.9811 941.762 90.7285 942.265 92.1258 949.657C94.4818 962.214 96.2366 974.885 98.8362 987.393C100.087 993.452 102.654 999.251 104.62 1005.16L106.327 1004.82C106.424 1003.34 106.521 1001.85 106.651 1000.37C108.341 981.61 109.852 962.831 111.802 944.085C112.647 935.979 116.855 929.806 124.622 926.362C129.431 924.218 134.127 921.781 138.904 919.572C148.214 915.267 155.866 909.029 162.463 901.134C173.463 887.976 187.729 878.636 201.913 869.409C208.217 865.299 212.133 866.858 215.561 873.405C219.038 880.065 222.304 886.823 225.684 893.532C226.447 895.059 227.276 896.537 228.755 899.315C229.193 896.764 229.551 895.627 229.567 894.474C229.794 883.606 230.444 872.722 230.006 861.871C229.664 853.603 232.232 846.845 237.512 840.883C246.838 830.373 256.181 819.846 265.735 809.531C270.837 804.024 276.296 798.842 281.755 793.677C289.782 786.09 299.384 783.036 310.384 784.287C315.681 784.888 319.434 787.504 322.326 792.052C327.266 799.833 331.88 807.988 337.941 814.843C349.379 827.758 354.481 842.897 357.032 859.516C362.15 893.061 353.441 924.786 344.407 956.398C342.311 963.757 338.347 971.002 333.716 977.126C325.267 988.303 318.719 1000.34 312.496 1012.85C307.378 1023.15 299.595 1032.15 292.95 1041.68C292.154 1042.82 291.13 1043.79 289.603 1045.55C292.885 1045.79 295.355 1046.12 297.841 1046.15C319.385 1046.46 340.085 1050.45 359.437 1060.25C376.383 1068.83 390.6 1080.64 399.163 1097.86C404.508 1108.59 412.746 1114.82 423.746 1118.32C429.075 1120.01 434.388 1121.83 439.506 1124.04C447.923 1127.7 453.772 1133.8 455.169 1143.19C456.94 1155.09 463.602 1163.47 473.822 1168.97C480.548 1172.6 487.763 1175.29 494.749 1178.43C497.235 1179.55 498.681 1178.69 500.322 1176.54C506.025 1169.06 512.037 1161.79 517.886 1154.4C519.056 1152.92 520.226 1151.35 520.973 1149.63C533.452 1120.83 554.639 1100.67 582.813 1087.61C591.213 1083.71 599.873 1080.33 608.615 1077.29C627.348 1070.81 644.279 1060.8 661.209 1050.83C682.201 1038.45 705.046 1032.47 729.158 1031.11C743.034 1030.31 756.958 1030.29 770.866 1029.97C778.958 1029.77 786.627 1031.66 792.801 1036.92C806.157 1048.31 819.188 1060.1 832.348 1071.72C807.002 1059.84 783.621 1068.05 760.419 1078.57C761.134 1079.29 761.865 1079.61 762.58 1079.61C776.959 1079.66 791.322 1079.68 805.702 1079.66C806.628 1079.66 807.733 1079.53 808.448 1079.04C815.662 1074.12 823.786 1072.16 832.348 1071.6C831.065 1072.5 829.911 1073.85 828.498 1074.22C811.567 1078.74 800.616 1090.22 792.037 1104.71C784.498 1117.43 777.284 1130.2 777.317 1145.61C767.178 1168.62 771.5 1194.92 760.533 1217.81C751.856 1235.9 743.895 1254.36 735.673 1272.68C734.715 1274.82 734.195 1277.15 733.48 1279.4H717.167C718.093 1278.82 718.97 1278.07 719.961 1277.65C729.775 1273.61 736.827 1267.03 739.751 1256.53C740.174 1255.02 741.068 1253.62 741.669 1252.16C744.073 1246.36 746.446 1240.55 748.834 1234.75C747.372 1234.91 746.641 1235.45 746.072 1236.15C732.879 1252.24 716.403 1264.05 697.783 1273.05C693.364 1275.2 688.928 1277.29 684.509 1279.42H674.906C677.116 1278.53 679.325 1277.6 681.551 1276.76C709.075 1266.46 732.862 1250.91 750.443 1226.92C753.026 1223.39 754.423 1219.02 756.373 1215.04C756.016 1214.9 755.674 1214.75 755.317 1214.61C751.271 1216.68 747.209 1218.75 743.164 1220.83C748.33 1215.11 755.268 1211.15 758.891 1205.17C762.58 1199.11 762.986 1191.07 765.033 1183.11C756.276 1191.44 749.126 1199.47 740.775 1205.96C716.582 1224.79 687.969 1232.82 658.236 1236.8C630.533 1240.5 602.668 1242.92 574.884 1245.97C573.714 1246.1 572.008 1246.51 571.586 1247.32C568.531 1253.2 565.736 1259.23 562.162 1266.67C577.159 1265.48 590.742 1264.39 604.341 1263.32C603.172 1264.61 601.904 1265.39 600.588 1265.55C591.083 1266.65 581.578 1268.18 572.057 1268.5C560.732 1268.88 560.716 1268.42 555.971 1278.98C555.906 1279.13 555.906 1279.29 555.874 1279.45H550.106C564.615 1251.42 576.817 1222.13 594.739 1195.88C594.04 1195.96 593.601 1196.17 593.309 1196.51C592.367 1197.6 591.457 1198.7 590.579 1199.84C571.472 1224.24 556.361 1250.94 544.354 1279.45H541.478C542.031 1278.67 542.762 1277.98 543.119 1277.13C548.075 1265.21 553.03 1253.28 557.872 1241.31C558.295 1240.27 558.376 1238.78 557.954 1237.77C549.147 1216.88 544.029 1194.98 540.195 1172.76C538.212 1161.31 535.84 1149.71 538.862 1138.08C540.325 1132.49 542.697 1127.13 545.118 1120.4C543.119 1122.53 541.738 1123.62 540.828 1125.02C534.264 1134.99 528.447 1145.52 521.087 1154.86C515.888 1161.45 516.164 1167.71 517.837 1174.87C518.926 1179.53 519.576 1184.29 520.405 1189C521.006 1192.48 521.591 1195.96 522.176 1199.43C521.461 1199.56 520.762 1199.71 520.047 1199.84C517.837 1188.84 515.644 1177.86 513.272 1166.02C508.495 1172.92 503.572 1178.43 502.629 1186.73C500.485 1205.48 503.945 1223.35 509.941 1240.84C514.393 1253.82 519.43 1266.59 524.207 1279.45H521.331C516.798 1267.51 512.102 1255.64 507.796 1243.62C502.256 1228.17 498.844 1212.28 499.526 1195.73C499.624 1193.33 499.851 1190.94 500.111 1187.23C498.779 1188.96 498.21 1189.49 497.869 1190.14C490.801 1203.4 483.701 1216.64 476.795 1229.99C475.918 1231.69 475.625 1234.05 475.918 1235.97C478.144 1250.49 480.565 1264.96 482.937 1279.45H480.061C477.721 1265.87 475.382 1252.29 472.912 1238C471.84 1239.93 470.848 1241.33 470.215 1242.89C467.306 1249.95 464.479 1257.07 461.652 1264.17C459.67 1269.15 458.565 1274.22 460.856 1279.44H452.212C453.869 1273.28 455.705 1267.16 457.07 1260.93C457.379 1259.51 456.583 1257.26 455.494 1256.19C449.369 1250.12 443.065 1244.22 436.663 1238.44C435.379 1237.27 433.462 1236.31 431.772 1236.16C417.75 1235.06 403.728 1234.13 389.69 1233.21C387.74 1233.08 385.791 1233.19 383.028 1233.19C391.055 1247.09 404.265 1254.76 413.022 1266.44C401.6 1257.57 389.268 1249.64 382.216 1236.41C380.673 1233.51 378.885 1232.47 375.603 1232.13C359.875 1230.51 344.196 1228.51 328.5 1226.61C325.641 1226.27 322.814 1225.78 319.093 1225.25C320.214 1226.9 320.572 1227.62 321.091 1228.17C336.949 1245.26 352.807 1262.35 368.682 1279.44H363.888C363.661 1279.02 363.515 1278.54 363.206 1278.2C347.754 1260.77 332.286 1243.34 316.818 1225.91C316.185 1225.2 315.551 1224.25 314.738 1223.99C308.109 1221.93 301.448 1220.01 294.786 1218.07L293.372 1219.32C299.937 1231.13 306.517 1242.95 313.195 1254.94C312.643 1254.75 312.139 1254.7 311.863 1254.44C310.823 1253.45 309.799 1252.44 308.889 1251.33C301.399 1242.22 295.907 1231.99 292.365 1220.76C291.455 1217.87 290.107 1216.29 287.101 1215.39C277.937 1212.62 268.887 1209.49 259.772 1206.53C258.196 1206.01 256.571 1205.65 254.101 1204.99C255.092 1207.07 255.515 1208.25 256.165 1209.29C262.241 1219.04 267.945 1229.08 274.59 1238.44C284.469 1252.36 295.046 1265.78 305.315 1279.42H301.48C301.155 1278.87 300.879 1278.28 300.473 1277.8C281.901 1255.49 265.589 1231.69 252.314 1205.85C251.567 1204.39 249.649 1203.17 247.992 1202.57C239.592 1199.51 230.997 1196.96 222.662 1193.71C214.521 1190.53 206.674 1186.6 198.615 1183.19C190.718 1179.84 182.724 1176.74 173.544 1173.02C174.454 1175.6 174.681 1176.51 175.071 1177.36C187.615 1204.53 201.702 1230.82 219.233 1255.17C225.099 1263.32 231.175 1271.33 237.155 1279.4H233.32C232.573 1278.2 231.923 1276.92 231.046 1275.81C210.476 1249.89 193.302 1221.87 179.735 1191.67C176.989 1185.56 175.965 1177.89 171.562 1173.54C167.012 1169.06 159.311 1167.79 153.023 1165.03C149.189 1163.35 145.419 1161.53 140.723 1159.36C150.96 1188.01 164.023 1214.02 178.029 1239.69C176.241 1238.32 174.811 1236.71 173.658 1234.94C160.156 1213.83 149.124 1191.47 141.536 1167.63C139.342 1160.75 136.174 1156.37 129.854 1152.78C120.722 1147.6 112.452 1140.89 103.759 1134.91C97.7314 1130.77 91.3459 1127.44 83.7257 1126.25C85.5779 1139.13 89.6399 1150.65 95.1642 1161.71C114.093 1199.55 136.678 1235.15 160.871 1269.8C163.048 1272.92 165.014 1276.19 167.077 1279.39H163.243C162.528 1277.99 161.976 1276.48 161.082 1275.23C140.528 1246.64 121.973 1216.8 104.913 1186.02C95.1155 1168.34 85.9354 1150.42 83.2545 1130.05C82.7995 1126.58 81.2397 1125.1 78.1689 1123.59C72.3359 1120.73 66.7466 1117.28 61.4335 1113.55C57.1441 1110.53 53.4396 1106.68 49.4101 1103.27C48.6952 1102.66 47.704 1102.4 46.3392 1101.74C48.9226 1115.79 57.5015 1127.18 58.4439 1140.99C52.9359 1128.3 48.4352 1115.27 43.837 1102.26C43.2359 1100.55 42.5697 1098.33 41.2211 1097.53C30.53 1091.16 19.6601 1085.07 8.82279 1078.91C8.67656 1078.83 8.30285 1079.14 7.9779 1079.3C7.9454 1079.74 7.81542 1080.23 7.89666 1080.69C11.8936 1106.03 17.4992 1130.95 28.434 1154.31C48.8576 1197.92 71.1823 1240.48 99.8923 1279.39H96.0578C95.7654 1278.82 95.5704 1278.2 95.1967 1277.7C71.7022 1246.57 53.9757 1212.04 36.1843 1177.57C21.2037 1148.54 10.5288 1118.08 7.39297 1085.38C6.85679 1079.74 6.06064 1075.06 0.0651622 1073.03C0.0164185 1071.46 0.0164185 1069.87 0.0164185 1068.26C6.23937 1071.85 12.3161 1075.71 18.7015 1079C35.8268 1087.77 52.1235 1097.6 66.5029 1110.66C71.3773 1115.09 78.1689 1117.84 84.5056 1120.18C93.8481 1123.64 103.077 1127.03 110.892 1133.43C125.32 1145.27 141.292 1154.61 158.287 1162.2C176.469 1170.32 194.618 1178.51 212.978 1186.19C220.468 1189.33 228.462 1191.2 236.245 1193.63C238.292 1194.27 240.356 1194.88 242.403 1195.5C240.94 1193.65 239.104 1192.81 237.301 1191.93C211.093 1179.37 184.788 1167.01 158.726 1154.16C148.717 1149.22 139.44 1142.87 129.545 1137.69C116.416 1130.82 102.59 1125.23 89.8511 1117.76C64.7806 1103.04 40.1325 1087.56 15.5819 1071.99C10.6263 1068.86 5.86567 1066.08 0.0326664 1065.38V1059.62C9.63518 1062.02 19.0102 1065.71 30.0751 1065.48C28.7427 1061.6 27.9791 1058.32 26.5493 1055.39C20.6025 1043.26 10.0576 1035.35 0.0164185 1027C0.0164185 1024.43 0.0164185 1021.86 0.0164185 1019.31C10.2689 1023.15 20.5213 1026.96 31.8298 1031.19C30.8712 1004.84 34.3645 980.391 44.3895 957.08C35.8431 956.366 31.4724 958.461 29.1002 965.69C25.022 978.101 21.5449 990.707 17.9054 1003.26C17.093 1006.04 16.638 1008.92 16.0206 1011.76C15.6144 1011.66 15.2082 1011.56 14.802 1011.45C15.1595 993.533 20.895 976.899 28.6452 960.394C21.6911 960.589 16.4756 962.441 13.4209 968.094C8.87153 976.493 4.46835 984.956 0.0164185 993.403C0.0164185 990.528 0.0164185 987.637 0.0164185 984.761C4.12714 978.231 8.22161 971.684 12.9173 964.212C8.01039 965.82 4.01341 967.136 0.0164185 968.452C0.0164185 966.535 0.0164185 964.618 0.0164185 962.685ZM254.361 1193.11C257.611 1183.59 264.321 1176.43 271.097 1169.48C301.691 1138.16 340.215 1124.56 382.769 1120.32C391.429 1119.46 400.154 1119.25 408.846 1118.75C401.242 1113.32 397.505 1105.33 392.94 1097.9C392.176 1096.67 389.739 1095.7 388.195 1095.83C382.005 1096.39 375.863 1097.4 369.705 1098.31C363.401 1099.24 357.113 1100.24 350.809 1101.22C350.695 1100.49 350.565 1099.76 350.451 1099.03C363.287 1096.75 376.107 1094.48 389.203 1092.15C385.449 1086.65 381.956 1081.71 373.913 1081.08C360.135 1079.99 346.763 1081.25 333.57 1084.91C315.421 1089.94 298.783 1098.51 282.324 1107.44C252.753 1123.49 224.059 1140.86 198.371 1162.77C197.104 1163.84 195.934 1165.03 194.52 1166.34C195.641 1167.07 196.129 1167.51 196.697 1167.77C214.733 1175.99 232.768 1184.21 250.835 1192.37C251.924 1192.85 253.273 1192.77 254.508 1192.97C255.45 1193.76 256.295 1194.79 257.383 1195.31C264.321 1198.6 271.357 1201.66 278.229 1205.05C280.667 1206.26 281.82 1205.39 283.494 1203.74C286.305 1200.98 289.522 1198.62 292.576 1196.09C292.869 1196.44 293.161 1196.79 293.47 1197.14C290.253 1200.23 287.036 1203.32 283.478 1206.71C285.2 1207.9 285.898 1208.56 286.727 1208.92C302.065 1215.6 318.102 1219.84 334.642 1222.03C336.088 1222.22 338.152 1220.94 339.273 1219.74C366.781 1190.21 400.917 1174.22 440.822 1170.32C448.654 1169.56 456.615 1170.21 465.779 1170.21C464.171 1168.39 463.651 1167.64 462.984 1167.07C456.242 1161.36 452.326 1154.09 450.652 1145.44C449.401 1139 449.174 1139 442.691 1139.69C418.043 1142.28 394.337 1148.57 371.46 1158.04C370.128 1158.59 368.795 1159.13 367.431 1159.6C366.261 1159.99 365.058 1160.28 363.872 1160.61C389.674 1145.97 417.507 1138.81 446.98 1137.18C446.737 1136.31 446.72 1135.79 446.477 1135.45C445.908 1134.68 445.339 1133.85 444.592 1133.3C435.136 1126.28 424.071 1121.22 412.827 1121.33C394.873 1121.51 376.741 1123.57 359.063 1126.88C325.3 1133.2 295.404 1147.89 271.292 1172.94C265.231 1179.24 260.016 1186.36 254.394 1193.11H254.361ZM154.713 1146.72C167.354 1153.14 178.971 1159.13 190.718 1164.83C191.742 1165.34 193.968 1164.36 195.105 1163.42C200.142 1159.23 204.789 1154.58 209.907 1150.49C239.299 1127 271.828 1108.61 305.623 1092.41C323.642 1083.77 342.539 1078 362.881 1078.61C367.398 1078.74 371.915 1079.09 377.748 1079.42C375.701 1077.57 374.612 1076.49 373.442 1075.55C364.1 1068.06 353.62 1062.65 342.295 1058.95C339.045 1057.89 335.308 1057.15 332.01 1057.63C302.959 1061.96 273.745 1065.59 244.97 1071.36C198.192 1080.75 154.323 1098.07 114.142 1124.14C113.281 1124.69 112.582 1125.5 111.672 1126.35C112.452 1127 112.874 1127.58 113.427 1127.78C126.783 1132.2 140.155 1136.55 152.097 1144.33C152.812 1144.8 154.843 1144.22 155.639 1143.45C171.302 1128.48 189.435 1117.24 208.981 1108.14C211.174 1107.12 213.53 1106.43 215.805 1105.59C216.016 1106.03 216.227 1106.45 216.439 1106.89C194.813 1117.66 174.405 1130.26 154.762 1146.7L154.713 1146.72ZM772.637 1143L771.24 1142.37C770.736 1142.69 770.168 1142.95 769.729 1143.36C754.927 1157.59 737.298 1167.07 718.077 1173.73C681.649 1186.34 643.791 1190.79 605.56 1192.69C602.278 1192.85 600.247 1193.71 598.703 1196.59C590.644 1211.47 582.455 1226.27 574.364 1241.13C573.811 1242.14 573.617 1243.34 573.113 1244.89C574.624 1244.8 575.566 1244.8 576.492 1244.69C596.136 1242.22 615.78 1239.78 635.424 1237.27C657.618 1234.42 679.764 1231.27 701 1223.82C724.998 1215.39 746.039 1202.55 761.556 1181.87C762.921 1180.05 763.831 1177.75 764.383 1175.52C766.024 1168.93 767.243 1162.23 768.868 1155.65C769.924 1151.4 771.386 1147.24 772.653 1143.03L772.637 1143ZM63.5133 1094.67C64.7969 1096.2 65.1218 1096.8 65.6092 1097.12C79.9237 1106.19 94.2218 1115.27 108.65 1124.16C109.576 1124.72 111.753 1124.37 112.744 1123.64C134.679 1107.16 159.083 1095.37 184.609 1085.79C224.189 1070.92 265.329 1062.8 307.199 1057.94C313.569 1057.2 319.938 1056.53 326.307 1055.83L326.047 1053.88C269.553 1046.73 214.83 1053.25 162.187 1076.62C175.266 1068.14 189.938 1063.74 204.236 1058.61C195.804 1058.38 187.534 1058.4 179.263 1058.37C176.095 1058.37 172.667 1057.42 169.775 1058.3C143.209 1066.42 116.644 1074.63 90.2573 1083.33C81.256 1086.29 72.7421 1090.71 63.497 1094.67H63.5133ZM339.305 1222.55C341.515 1223.12 342.717 1223.62 343.952 1223.73C373.702 1226.45 403.436 1229.18 433.202 1231.71C434.989 1231.86 437.215 1230.85 438.694 1229.68C450.311 1220.52 462.773 1212.7 476.454 1207.17C482.531 1204.71 486.641 1201.27 489.192 1195.31C490.947 1191.2 493.547 1187.43 495.757 1183.5C495.399 1183.09 495.042 1182.68 494.684 1182.29C471.076 1185.09 448.459 1191.85 426.232 1200.25C444.787 1189.17 465.243 1183.98 486.349 1180.62C481.816 1177.97 477.445 1175.72 472.928 1173.78C470.637 1172.81 468.119 1171.9 465.682 1171.83C431.415 1170.88 399.504 1178.93 370.339 1197.24C359.225 1204.21 349.07 1212.36 339.289 1222.53L339.305 1222.55ZM600.556 1086.45C585.835 1091.13 571.391 1096.51 560.293 1107C547.831 1118.8 538.927 1133.17 540.438 1151.45C542.859 1180.56 550.008 1208.69 558.977 1236.41C559.026 1236.57 559.497 1236.6 559.871 1236.71C560.18 1236.44 560.618 1236.19 560.862 1235.82C567.296 1225.72 573.795 1215.66 580.034 1205.43C580.863 1204.06 580.928 1201.74 580.441 1200.15C577.094 1189.36 575.55 1178.35 575.81 1167.09C575.842 1165.84 576.167 1164.6 576.362 1163.35C576.574 1163.42 576.785 1163.47 576.996 1163.53C578.783 1175.67 580.571 1187.82 582.358 1199.95C582.862 1199.99 583.382 1200.02 583.885 1200.05C588.402 1194.33 592.968 1188.65 597.371 1182.85C597.923 1182.13 597.875 1180.77 597.761 1179.76C596.12 1165.66 593.813 1151.59 592.854 1137.44C591.684 1120.11 590.303 1102.49 600.556 1086.44V1086.45ZM602.652 1190.38C602.879 1190.76 603.107 1191.13 603.318 1191.51C605.056 1191.38 606.795 1191.31 608.517 1191.12C623.904 1189.26 639.339 1187.69 654.661 1185.45C680.008 1181.74 705.062 1176.72 728.752 1166.49C744.122 1159.85 758.518 1151.64 770.314 1139.52C771.906 1137.88 772.621 1135.41 773.758 1133.32C773.303 1133.06 772.848 1132.81 772.393 1132.55C770.151 1134.03 767.99 1135.64 765.667 1136.97C763.457 1138.24 761.069 1139.23 758.762 1140.35C758.469 1139.9 758.16 1139.44 757.868 1138.99C765.846 1132.25 778.064 1129.19 778.73 1116.16C767.812 1120.35 757.088 1124.94 746.072 1128.64C714.031 1139.39 681.291 1146.05 647.252 1144.72C645.741 1144.66 643.759 1145.53 642.719 1146.65C629.282 1161.16 615.991 1175.78 602.652 1190.37V1190.38ZM599.174 1179.53C600.361 1178.92 600.702 1178.83 600.913 1178.62C614.188 1164.56 627.462 1150.5 640.639 1136.32C641.695 1135.19 642.215 1133.3 642.443 1131.69C643.743 1122.55 644.035 1113.16 646.245 1104.24C650.063 1088.82 655.019 1073.7 659.584 1058.14C657.505 1059.29 655.246 1060.67 652.89 1061.83C640.298 1068.05 628.015 1075.06 614.951 1080.08C606.681 1083.25 602.018 1088.45 599.093 1095.97C597.598 1099.81 596.055 1103.96 596.087 1107.98C596.217 1125.85 596.819 1143.7 597.468 1161.57C597.68 1167.4 598.557 1173.2 599.174 1179.53ZM257.205 826.361C256.165 826.913 255.515 827.075 255.125 827.498C248.122 834.954 241.07 842.361 234.279 849.98C233.369 851.003 233.515 853.18 233.564 854.805C233.921 869.474 234.783 884.159 234.49 898.811C234.409 903.051 234.49 906.852 235.969 910.767C237.853 915.754 239.511 920.823 241.265 925.858C240.599 926.118 239.949 926.362 239.283 926.622C237.122 921.131 234.815 915.706 232.849 910.15C231.874 907.405 231.5 904.903 227.617 904.497C225.96 904.318 224.01 901.898 223.133 900.046C219.087 891.55 215.366 882.875 211.499 874.298C210.833 872.836 210.004 871.455 209.046 869.652C202.742 879.87 225.602 950.778 238.763 963.562C239.689 962.474 240.827 961.515 241.525 960.313C250.787 943.922 259.999 927.515 269.098 911.027C269.634 910.069 269.293 908.217 268.724 907.128C257.595 886.043 253.451 863.593 255.547 839.925C255.937 835.555 256.62 831.201 257.221 826.344L257.205 826.361ZM204.545 950.063C208.64 959.436 212.734 968.825 217.332 979.335C223.864 975.063 229.177 971.636 234.441 968.143C236.749 966.616 236.749 965.024 235.14 962.587C220.484 940.381 211.272 916.047 207.307 889.731C206.462 884.126 205.796 878.489 204.935 871.975C194.309 880 183.878 886.465 181.132 900.582C176.761 922.967 179.231 944.507 186.526 965.706C189.613 974.673 193.464 983.364 197.087 992.494C203.7 987.555 209.533 983.202 215.594 978.67C208.948 970.32 204.464 961.06 204.561 950.079L204.545 950.063ZM133.769 1002.24C134.208 1002.05 134.647 1001.85 135.085 1001.67C139.066 1011.08 143.047 1020.48 147.223 1030.34C150.602 1027.61 153.445 1025.1 156.549 1022.92C158.807 1021.33 158.97 1019.77 158.157 1017.23C154.778 1006.58 151.431 995.905 148.522 985.119C144.168 968.971 141.422 952.613 144.282 935.833C145.094 931.089 146.475 926.443 147.791 921.001C138.367 925.111 129.789 928.929 121.128 932.567C117.586 934.062 116.14 936.499 115.864 940.267C115.182 949.348 113.931 958.396 113.394 967.477C112.744 978.475 110.681 989.862 112.679 1000.42C115.555 1015.66 121.502 1030.33 126.214 1045.22C126.506 1046.17 127.384 1046.91 128.424 1048.36C134.565 1042.69 140.35 1037.33 145.988 1032.13C140.301 1022.22 135.719 1012.73 133.769 1002.22V1002.24ZM213.904 1000.27C215.935 1001.72 217.836 1003.1 219.769 1004.43C235.855 1015.56 252.347 1025.89 271.99 1029.63C274.297 1030.07 276.946 1030.64 279.042 1029.92C285.525 1027.73 291.91 1025.15 298.166 1022.37C305.493 1019.12 308.369 1012.65 310.059 1005.96H280.618C282.616 1004.9 284.729 1004.48 286.873 1004.32C292.755 1003.91 298.686 1003.86 304.535 1003.15C307.281 1002.81 310.969 1002.05 312.318 1000.14C316.185 994.67 319.077 988.497 322.57 982.243C295.81 989.765 271.454 985.037 250.023 970.596C237.756 980.668 226.009 990.317 213.904 1000.26V1000.27ZM347.088 923.877C323.935 944.085 298.442 941.941 271.877 932.827C264.711 944.605 257.53 956.414 250.364 968.192C266.58 981.334 301.984 987.198 320.783 979.644C324.065 978.328 327.688 976.33 329.67 973.585C340.28 958.851 344.212 941.599 347.088 923.893V923.877ZM162.317 911.157L161.114 910.475C157.686 913.902 153.218 916.794 151.122 920.904C148.571 925.875 147.645 931.82 146.703 937.457C144.623 949.949 146.183 962.376 149.01 974.543C152.454 989.407 156.516 1004.12 160.578 1020.03C173.122 1011.19 184.788 1002.97 196.421 994.768C179.182 961.45 169.206 928.133 181.002 891.355C177.167 894.1 173.365 896.781 170.555 900.257C168.166 903.197 166.038 906.901 165.339 910.556C163.958 917.736 163.373 925.095 162.967 932.421C162.593 938.968 162.885 945.547 162.885 952.11C162.479 952.11 162.073 952.11 161.667 952.11C158.32 938.497 159.912 924.851 162.301 911.19L162.317 911.157ZM283.965 909.598H311.083C311.148 910.15 311.229 910.719 311.294 911.271C309.734 911.709 308.158 912.522 306.598 912.505C299.937 912.457 293.275 912.083 286.613 912.018C285.102 912.018 282.73 912.229 282.194 913.171C278.814 919.101 275.857 925.257 272.234 932.34C283.266 933.851 293.454 936.011 303.739 936.499C318.963 937.213 332.839 932.746 344.18 922.09C346.324 920.075 348.794 917.509 349.298 914.845C352.011 900.566 354.27 886.205 356.382 871.829C356.691 869.701 355.472 867.329 354.66 863.756C348.957 872.43 342.62 878.067 334.772 881.592C322.261 887.213 309.23 890.721 295.29 889.812C293.892 889.714 291.585 890.575 291.114 891.631C288.628 897.122 286.597 902.824 283.965 909.598ZM672.745 1111.06C678.838 1107.54 684.086 1104.6 689.22 1101.46C690.033 1100.97 690.455 1099.68 690.845 1098.68C695.898 1085.92 700.805 1073.1 705.94 1060.38C710.067 1050.16 716.907 1042.43 727.436 1038.4C728.053 1038.17 728.687 1038.01 729.304 1037.82C727.403 1036.6 726.347 1036.42 725.307 1036.52C708.685 1038.25 692.551 1041.73 677.148 1048.55C668.114 1052.55 662.363 1058.97 659.552 1068.18C655.685 1080.86 651.737 1093.53 648.422 1106.37C646.31 1114.57 645.302 1123.07 643.612 1132.49C651.753 1126.35 658.561 1120.87 665.742 1115.94C668.976 1113.71 670.292 1111.4 670.438 1107.42C670.633 1102.26 671.981 1097.12 672.843 1091.98C673.509 1092.09 674.175 1092.2 674.841 1092.32C674.175 1098.2 673.509 1104.08 672.713 1111.06H672.745ZM82.0521 947.756C81.6134 947.382 81.191 947.025 80.7523 946.651C79.2575 948.032 77.259 949.137 76.3491 950.843C74.2531 954.774 72.3684 958.884 70.9711 963.091C62.8958 987.263 65.333 1011.24 72.3359 1035.18C73.5382 1039.33 75.4717 1041.18 79.7612 1041.6C89.6074 1042.59 99.4049 1044.04 109.235 1045.26C113.996 1045.84 118.772 1046.34 123.468 1046.88C119.227 1034.84 115.214 1023.5 111.233 1012.2C105.384 1014.7 103.613 1014.07 100.526 1008.04C93.8319 994.963 91.9796 980.7 90.4523 966.389C89.7049 959.322 89.1687 952.24 88.535 945.157C88.1289 944.946 87.7389 944.718 87.3327 944.507C86.3091 945.758 84.6356 946.879 84.3593 948.276C82.832 955.927 81.4022 963.611 80.4436 971.343C79.9074 975.729 80.3461 980.229 80.3461 984.68C79.8262 984.648 79.29 984.615 78.7701 984.583C75.5205 971.993 78.0876 959.826 82.0684 947.74L82.0521 947.756ZM270.057 906.56C270.512 906.511 270.983 906.462 271.438 906.414C272.234 905.082 273.079 903.782 273.81 902.434C278.116 894.425 282.226 886.303 286.76 878.408C288.628 875.143 288.287 873.21 285.98 870.107C281.723 864.373 278.489 857.891 274.817 851.702C275.451 851.312 276.085 850.922 276.735 850.532C281.04 857.323 285.33 864.129 290.107 871.699C292.04 868.223 293.113 865.9 294.542 863.837C297.012 860.295 296.411 857.339 294.705 853.375C290.708 844.051 287.166 834.418 284.615 824.59C282.73 817.329 282.698 809.596 281.82 801.929C281.3 802.091 280.748 802.107 280.472 802.384C273.94 808.735 267.408 815.054 260.99 821.52C260.081 822.446 259.496 823.989 259.317 825.321C256.831 844.473 256.685 863.561 261.949 882.323C264.256 890.51 267.327 898.503 270.04 906.576L270.057 906.56ZM74.9518 948.698C67.4128 950.55 61.1573 952.581 54.7556 953.507C48.9876 954.335 46.3392 957.438 44.5357 962.539C37.0617 983.575 34.1533 1005.26 34.397 1027.48C34.4295 1030.78 35.6968 1032.39 38.8814 1033.09C47.1354 1034.89 55.3406 1036.94 63.5945 1038.81C65.6905 1039.28 67.8515 1039.41 70.7761 1039.8C61.3198 1008.85 58.5901 978.897 74.968 948.698H74.9518ZM184.43 1021.78C193.708 1033.33 203.587 1043.4 215.513 1051.32C216.682 1052.09 218.583 1052.09 220.094 1051.95C231.695 1050.75 243.28 1049.41 254.849 1048.08C255.937 1047.95 257.27 1047.82 258.001 1047.16C263.103 1042.51 268.074 1037.73 273.469 1032.63C268.351 1031.38 263.834 1030.51 259.447 1029.16C242.841 1023.99 228.657 1014.57 215.155 1003.91C213.839 1002.87 211.012 1001.9 210.069 1002.57C201.507 1008.66 193.204 1015.12 184.398 1021.78H184.43ZM648.211 1142.04C648.389 1142.45 648.552 1142.85 648.731 1143.26C650.453 1143.26 652.208 1143.45 653.897 1143.23C672.859 1140.73 691.966 1138.91 710.733 1135.4C733.22 1131.19 754.797 1123.6 775.789 1114.44C782.792 1111.39 787.065 1106.12 788.073 1099.51C786.643 1100.11 785.343 1100.67 784.043 1101.2C768.949 1107.51 753.562 1112.82 736.973 1113.08C723.244 1113.29 709.498 1113.16 695.768 1113.27C693.77 1113.29 691.414 1113.35 689.838 1114.34C677.018 1122.42 664.312 1130.69 651.623 1138.97C650.372 1139.78 649.364 1141 648.227 1142.02L648.211 1142.04ZM778.876 1036.18C778.665 1035.95 778.519 1035.62 778.275 1035.53C777.674 1035.31 777.04 1035.14 776.423 1035.07C763.62 1033.56 751.141 1033.02 742.53 1045.39C741.36 1047.08 739.8 1048.52 738.338 1050C737.558 1050.8 736.583 1051.4 735.689 1052.08L734.39 1050.81C738.712 1045.82 743.05 1040.84 747.372 1035.85C747.112 1035.48 746.868 1035.1 746.608 1034.73C733.09 1037.73 719.572 1041.73 712.39 1055.02C705.192 1068.32 699.733 1082.55 693.542 1096.39C693.25 1097.04 693.266 1097.82 693.039 1099.03C694.273 1098.62 695.037 1098.47 695.687 1098.13C710.586 1090.42 725.486 1082.73 740.32 1074.9C741.75 1074.14 743.082 1072.71 743.878 1071.26C751.986 1056.37 761.849 1043.29 778.486 1037.02C778.681 1036.94 778.746 1036.5 778.876 1036.21V1036.18ZM792.882 1093.34H775.334C775.302 1092.8 775.269 1092.28 775.237 1091.75C780.534 1091.28 785.847 1090.29 791.127 1090.45C796.912 1090.63 799.463 1087.07 802.777 1082.73C799.121 1082.73 796.164 1082.81 793.207 1082.73C781.72 1082.34 770.249 1081.81 758.778 1081.55C755.756 1081.48 752.327 1081.43 749.728 1082.72C735.543 1089.7 721.538 1097.08 707.499 1104.37C703.909 1106.24 700.399 1108.27 696.142 1110.62C719.263 1116.02 783.93 1104.34 792.898 1093.34H792.882ZM292.43 887.927C295.387 887.927 297.451 888.106 299.465 887.895C311.781 886.612 323.724 883.866 334.837 878.213C341.629 874.753 347.494 870.14 351.686 863.658C352.45 862.488 353.539 860.929 353.295 859.824C351.703 852.937 349.785 846.13 347.965 839.324C346.584 839.681 346.194 839.665 345.983 839.844C336.446 848.209 325.43 852.482 312.659 852.173C311.44 852.141 309.685 853.359 309.052 854.48C304.892 861.839 300.847 869.295 296.996 876.832C295.29 880.163 294.104 883.769 292.414 887.911L292.43 887.927ZM309.718 834.532C310.222 834.077 310.807 833.752 311.099 833.264C315.551 825.695 319.987 818.125 324.309 810.473C324.763 809.661 324.926 808.232 324.52 807.452C322.083 802.79 319.71 798.046 316.704 793.758C315.388 791.89 312.789 790.314 310.514 789.843C302.228 788.121 294.559 790.233 288.092 795.561C286.337 797.007 284.875 799.996 284.891 802.254C285.086 819.408 289.083 835.766 296.102 851.41C296.687 852.725 297.499 853.96 298.621 855.974C301.805 850.143 304.372 845.188 307.199 840.396C308.467 838.235 308.142 836.903 306.501 835.035C304.47 832.745 303.056 829.886 301.366 827.27C301.919 826.88 302.488 826.507 303.04 826.117C305.217 828.862 307.394 831.624 309.702 834.515L309.718 834.532ZM162.739 1058.4C162.739 1057.91 162.739 1057.42 162.723 1056.94C161.244 1056.84 159.733 1056.48 158.304 1056.68C135.703 1059.91 113.086 1062.99 90.5498 1066.55C69.3788 1069.9 48.2727 1073.33 26.728 1070.94C25.4931 1070.79 24.2096 1070.92 22.9585 1070.92C22.926 1071.23 22.9097 1071.52 22.8772 1071.83C31.2612 1076.74 39.6613 1081.64 47.3628 1086.14C51.7173 1084.13 55.4868 1082.37 59.2401 1080.64C59.5813 1081.34 59.9225 1082.03 60.2474 1082.73C57.0953 1084.39 53.927 1086.03 50.7911 1087.67C59.9875 1095.32 59.955 1095.19 69.5087 1089.65C73.9119 1087.1 78.4938 1084.63 83.287 1083.01C98.0888 1077.97 112.988 1073.23 127.936 1068.6C139.489 1065.03 151.138 1061.79 162.756 1058.41L162.739 1058.4ZM78.4613 1063.51C78.7538 1062.99 79.0625 1062.46 79.355 1061.94C74.4969 1057.23 69.8987 1052.19 64.6831 1047.9C61.5798 1045.35 57.6803 1043.44 53.8295 1042.23C43.9508 1039.13 33.8771 1036.68 23.9496 1033.79C18.8315 1032.29 13.8434 1030.39 8.79029 1028.69C9.76517 1031.12 11.325 1032.59 12.9173 1034.01C21.9511 1042.15 29.8476 1050.96 31.5374 1063.74C31.6674 1064.75 33.5684 1066.23 34.7057 1066.29C49.3938 1067.17 63.9682 1065.92 78.4451 1063.53L78.4613 1063.51ZM181.944 1023.8C173.3 1030.42 164.007 1037.56 154.112 1045.14C157.312 1048.44 159.75 1053.23 162.821 1053.69C170.684 1054.84 178.841 1054.08 187.55 1054.08C185.389 1051.59 183.634 1049.58 181.896 1047.58C186.932 1049.2 190.929 1052.78 195.479 1053.77C200.126 1054.79 205.309 1053.26 210.232 1052.86C200.759 1043.13 191.693 1033.82 181.944 1023.81V1023.8ZM747.794 1070.43C768.202 1061.53 788.463 1053.07 811.713 1058.2C804.483 1051.75 797.188 1045.68 789.421 1040.25C787.358 1038.81 783.572 1038.37 781.119 1039.15C765.196 1044.23 755.951 1056.74 747.778 1070.43H747.794ZM326.453 810.165C321.595 823.826 317.013 836.676 312.301 849.931C324.536 849.493 335.113 845.285 344.44 837.829C345.171 837.244 345.48 835.181 345.057 834.239C340.865 824.947 333.635 818.043 326.453 810.165ZM67.4453 1044.96C71.8322 1050.05 76.0891 1054.16 79.29 1058.97C81.4347 1062.17 83.3682 1063.06 87.0078 1062.46C99.7624 1060.38 112.549 1058.54 125.353 1056.69C130.39 1055.96 135.459 1055.44 140.512 1054.82C140.512 1054.4 140.512 1053.98 140.512 1053.56C116.4 1050.71 92.2883 1047.87 67.4615 1044.95L67.4453 1044.96ZM238.406 974.137C238.032 973.65 237.658 973.163 237.268 972.675C201.621 995.353 167.532 1020.13 135.475 1047.6C135.93 1048.37 136.385 1049.14 136.84 1049.92C139.082 1048.94 141.617 1048.36 143.502 1046.91C167.857 1028.28 192.099 1009.53 216.406 990.837C223.701 985.216 231.078 979.693 238.406 974.121V974.137ZM481.393 1209.41C481.117 1209.1 480.841 1208.79 480.581 1208.5C466.218 1214.48 452.765 1222 439.571 1232.12C447.906 1233.38 454.926 1234.7 462.026 1235.4C464.219 1235.61 467.745 1234.85 468.639 1233.34C473.253 1225.57 477.218 1217.42 481.41 1209.41H481.393ZM466.12 1238.18C456.29 1237.49 447.5 1236.88 438.71 1236.26C438.564 1236.73 438.434 1237.19 438.288 1237.66C444.933 1243.39 451.578 1249.13 458.744 1255.31C461.246 1249.5 463.407 1244.46 466.12 1238.18ZM299.547 1026.54L298.669 1025.41C291.309 1029.01 283.867 1032.49 276.653 1036.37C275.321 1037.08 274.216 1039.52 274.249 1041.11C274.297 1042.84 275.792 1045.97 276.702 1045.99C280.195 1046.07 285.054 1046.39 286.938 1044.35C291.829 1039.05 295.42 1032.55 299.514 1026.54H299.547ZM801.883 1061.6C784.238 1059.97 768.738 1066.36 753.708 1074.4C769.55 1069.35 784.677 1061.7 801.883 1061.6ZM260.503 938.838C261.023 939.114 261.543 939.374 262.063 939.65C268.984 926.524 275.906 913.399 282.828 900.273C282.291 899.981 281.739 899.705 281.203 899.412C274.297 912.554 267.408 925.696 260.503 938.838ZM147.759 1049.95C147.889 1050.39 148.019 1050.83 148.149 1051.27C150.813 1051.64 153.462 1052.01 157.134 1052.52C155.46 1049.76 154.437 1048.07 153.169 1045.97C151.155 1047.45 149.448 1048.68 147.759 1049.93V1049.95Z" fill="white" fill-opacity="0.26"/>
<path d="M1407.36 1279.42C1403.45 1266.26 1399.51 1253.12 1395.63 1239.96C1394.72 1236.91 1393.86 1233.82 1393.08 1230.74C1391.05 1222.81 1391.41 1222.08 1399.16 1219.98C1406.55 1217.98 1414.09 1216.46 1421.43 1214.31C1429.54 1211.94 1437.55 1209.21 1445.53 1206.42C1448 1205.56 1450.21 1203.95 1452.27 1201.8C1448.26 1201.8 1444.26 1201.87 1440.25 1201.8C1423.01 1201.48 1405.75 1201.33 1388.53 1200.65C1382.62 1200.42 1377.5 1197.65 1374.26 1192.24C1371.06 1186.89 1367.72 1181.63 1364.6 1176.24C1359.54 1167.53 1353 1160.38 1344.61 1154.63C1330.46 1144.92 1320.26 1131.22 1309.42 1118.23C1308.33 1116.93 1307.66 1115.17 1307.13 1113.52C1305.96 1109.88 1306.38 1107.02 1310.26 1104.78C1318.83 1099.84 1327.11 1094.43 1335.45 1087.96C1330.7 1088.17 1325.96 1088.29 1321.23 1088.64C1311.82 1089.34 1302.43 1090.63 1293.04 1090.71C1289.17 1090.74 1284.84 1089.03 1281.46 1086.94C1261.11 1074.37 1242.82 1059.1 1225.26 1042.97C1217.15 1035.51 1213.7 1025.58 1215.6 1014.63C1216.22 1011.11 1218.85 1007.39 1221.6 1004.89C1228.65 998.488 1236.94 993.354 1243.52 986.564C1255.64 974.04 1270.7 968.354 1286.98 963.692C1306.87 957.99 1326.59 960.719 1346.37 962.49C1358.11 963.529 1369.8 965.527 1381.4 967.688C1391.88 969.637 1401.14 974.689 1410.37 980.001C1418.88 984.907 1427.83 989.277 1437.01 992.802C1452.24 998.666 1466.1 1006.24 1478.48 1017.1C1492.16 1029.11 1506.95 1039.83 1521.19 1051.2C1550.05 1074.2 1572.65 1102.19 1588.14 1135.8C1601.82 1165.5 1618.03 1193.65 1637.12 1220.27C1649.88 1238.08 1658.05 1258.29 1663.7 1279.45H1624.35C1624.81 1278.32 1625.28 1277.18 1625.9 1275.67C1614.83 1269.79 1607.41 1260.98 1604.43 1248.05C1589.24 1260.72 1571.08 1264.93 1553.77 1272.08C1554.63 1274.71 1555.41 1277.08 1556.19 1279.45H1550.42C1545.63 1264.39 1541.28 1249.19 1535.96 1234.33C1527.69 1211.16 1517 1189.25 1500.2 1170.81C1472.63 1140.55 1445.12 1110.23 1417.55 1079.97C1415.47 1077.68 1413.1 1075.63 1410.87 1073.47C1413.41 1078.38 1416.27 1082.91 1419.48 1087.17C1424.18 1093.39 1428.92 1099.59 1434.04 1105.49C1441.68 1114.3 1449.56 1122.89 1457.47 1131.45C1466.78 1141.52 1475.85 1151.87 1485.71 1161.37C1498.84 1174.03 1510.6 1187.57 1518.38 1204.19C1520.54 1208.81 1521.86 1213.81 1524.07 1218.39C1533.56 1238.01 1540.84 1258.45 1546.59 1279.44H1540.82C1539.05 1272.44 1537.28 1265.42 1535.44 1258.17C1494.03 1277.07 1452.45 1279.84 1409.04 1267.11C1410.56 1271.67 1411.85 1275.55 1413.15 1279.44H1407.38L1407.36 1279.42ZM1520.93 1217.92C1510.11 1223.43 1500.25 1229.06 1489.9 1233.58C1465.66 1244.17 1440.59 1249.34 1414.23 1242.69C1409.39 1241.47 1404.73 1239.61 1399.3 1237.8C1401.87 1245.55 1403.93 1252.75 1406.71 1259.67C1407.62 1261.94 1410.09 1264.54 1412.37 1265.17C1420.02 1267.33 1427.85 1269.14 1435.73 1270.29C1468.83 1275.13 1500.72 1270.08 1531.59 1257.82C1532.65 1257.39 1533.93 1255.04 1533.61 1254.1C1529.55 1242.01 1525.22 1230 1520.93 1217.92ZM1392.84 1224.79C1395.24 1226.35 1396.56 1227.89 1398.02 1228.02C1406.73 1228.84 1415.45 1229.42 1424.19 1229.86C1427.44 1230.02 1430.73 1229.55 1434.01 1229.37C1434.01 1229.83 1434.01 1230.3 1434.01 1230.75C1421.85 1234.54 1409.65 1233.5 1397.21 1230.13C1397.17 1235.24 1400.89 1235.93 1403.79 1237.01C1424.44 1244.72 1445.35 1244.19 1466.42 1238.76C1484.05 1234.23 1500.1 1226.06 1516.32 1218.13C1520.56 1216.07 1520.92 1213.84 1518.69 1210.41C1513.56 1202.52 1508.46 1194.61 1503.11 1186.86C1500.87 1183.61 1498.07 1180.77 1496.19 1178.54C1483.47 1184.59 1471.46 1190.29 1459.45 1195.99C1462.18 1201.5 1461.81 1203.95 1455.89 1206.79C1448.01 1210.56 1439.97 1214.35 1431.59 1216.64C1419.47 1219.93 1406.99 1221.9 1392.82 1224.79H1392.84ZM1400.16 1073.05C1397.95 1071.56 1396.26 1070.04 1394.3 1069.15C1378 1061.79 1361.67 1054.5 1345.28 1047.35C1344.14 1046.85 1342.13 1047.33 1340.97 1048.07C1317.85 1062.6 1292.73 1068.75 1265.52 1066.32C1264.38 1066.23 1263.21 1066.44 1261.94 1066.52C1262.2 1067.28 1262.2 1067.69 1262.41 1067.84C1270.68 1074.37 1278.94 1080.94 1287.34 1087.31C1288.31 1088.04 1290.26 1087.67 1291.74 1087.52C1307.6 1086.06 1323.47 1084.57 1339.33 1083.02C1340.71 1082.89 1342.14 1082.59 1343.41 1082.03C1348.09 1079.99 1352.7 1077.76 1357.38 1075.71C1358.94 1075.03 1360.63 1074.64 1362.27 1074.12C1362.5 1074.71 1362.74 1075.31 1362.97 1075.89C1357.29 1078.57 1351.55 1081.16 1345.96 1084.03C1344.48 1084.78 1343.34 1086.34 1342.27 1087.69C1340.49 1089.93 1339.35 1093.11 1337.07 1094.48C1329.03 1099.37 1320.61 1103.65 1312.36 1108.2C1311.22 1108.84 1310.2 1109.63 1308.8 1110.58C1318.91 1115.95 1383.64 1089.13 1400.2 1073.07L1400.16 1073.05ZM1310.85 1114.3C1315.58 1119.18 1319.66 1122.95 1323.21 1127.18C1326.51 1131.08 1330.59 1133.33 1335.4 1134.16C1341.36 1135.19 1347.41 1136.31 1353.42 1136.42C1381.95 1136.97 1407.04 1126.2 1431.05 1112.13C1431.26 1112 1431.31 1111.58 1431.52 1111.14C1426.75 1105.77 1421.92 1100.36 1417.11 1094.95C1401.71 1106.32 1394.9 1109.44 1389.86 1107.86C1398.47 1103.18 1407.46 1098.31 1417.42 1092.92C1411.94 1085.88 1407.43 1080.07 1402.73 1074.04C1375.52 1095.95 1345.42 1108.72 1310.85 1114.3ZM1475.18 1157.9C1471.7 1154.86 1468.78 1152.63 1466.26 1150C1464.31 1147.95 1462.75 1147.6 1460.05 1148.72C1449.43 1153.12 1438.75 1157.44 1427.93 1161.37C1413.75 1166.52 1399.17 1170.29 1383.92 1169.66C1377.94 1169.41 1371.99 1168.18 1365.31 1167.28C1370.06 1176.02 1374.67 1184.33 1379.06 1192.76C1380.86 1196.22 1383.41 1197.32 1387.18 1197.27C1401.89 1197.09 1416.61 1197.08 1431.31 1197.09C1439.86 1197.09 1448.24 1196.3 1456.22 1193.05C1468.75 1187.96 1481.22 1182.78 1493.74 1177.63C1493.78 1176.98 1493.83 1176.33 1493.88 1175.67C1487.98 1170.26 1482.09 1164.85 1476.24 1159.47C1466.96 1165.89 1457.86 1171.22 1447.69 1174.22C1447.45 1173.73 1447.2 1173.25 1446.97 1172.76C1455.94 1168.03 1464.93 1163.29 1475.18 1157.88V1157.9ZM1411.28 987.799C1421.2 1013.84 1418.44 1038.47 1405.93 1061.16C1417 1072.47 1427.64 1083.33 1438.62 1094.56C1449.09 1076.64 1459.36 1058.85 1462.36 1037.99C1462.85 1034.57 1463.86 1030.59 1462.65 1027.65C1459.73 1020.43 1456.01 1013.48 1451.96 1006.82C1448.32 1000.83 1441.87 999.446 1436.06 998.228C1437.26 1008.3 1438.4 1017.88 1439.55 1027.45C1438.9 1027.55 1438.25 1027.65 1437.6 1027.74C1437.21 1025.62 1436.74 1023.5 1436.43 1021.36C1435.68 1016.15 1435.44 1010.8 1434.14 1005.75C1433.23 1002.24 1431.7 997.886 1429 996.067C1423.8 992.575 1417.57 990.609 1411.29 987.815L1411.28 987.799ZM1403.77 1061.13C1413 1043.76 1416.74 1021.25 1413.03 1002.78C1411.07 992.997 1408.24 983.624 1397.73 978.88C1383.67 972.561 1368.87 969.816 1353.73 968.24C1352.93 968.159 1352.09 968.533 1350.82 968.793C1373.05 990.105 1373.29 1015.48 1366.34 1042.59C1378.68 1048.7 1391.08 1054.84 1403.77 1061.13ZM1354.17 1154.14C1358.78 1158.2 1361.27 1164.54 1368.24 1165.12C1375.08 1165.69 1381.93 1167.25 1388.71 1166.93C1414.58 1165.69 1437.65 1154.42 1461.92 1146.15C1461.32 1145.01 1461.08 1144.25 1460.61 1143.68C1453.38 1134.94 1445.98 1126.32 1438.9 1117.45C1435.58 1113.3 1432.95 1113.16 1428.31 1116.08C1405.33 1130.57 1380.65 1140.14 1352.9 1138.99C1346.29 1138.71 1339.71 1137.38 1331.73 1136.37C1339.23 1142.92 1344.08 1151.27 1354.67 1150.93C1367.26 1150.52 1379.85 1150.03 1392.46 1149.61C1393.4 1149.58 1394.35 1149.69 1395.29 1149.72C1381.93 1154.79 1368.22 1155.1 1354.2 1154.14H1354.17ZM1342.35 1032.57C1341.74 1022.79 1341.18 1013.98 1340.63 1005.16C1342.01 1006.28 1342.82 1007.52 1342.92 1008.84C1343.49 1015.79 1343.83 1022.77 1344.4 1029.73C1344.53 1031.2 1344.9 1033.51 1345.85 1033.97C1352.02 1036.82 1358.37 1039.29 1366.22 1042.51C1366.51 1029.74 1367.75 1017.93 1366.82 1006.3C1365.67 991.844 1359.37 979.254 1347.65 970.076C1345.39 968.305 1342.32 966.941 1339.51 966.664C1326.15 965.381 1312.78 964.423 1299.38 963.659C1296.86 963.513 1294.26 964.796 1291.37 965.495C1296.31 969.767 1300.94 972.805 1304.33 976.866C1315.46 990.187 1320.63 1005.9 1321.69 1023.11C1321.77 1024.5 1322.74 1026.66 1323.81 1027.01C1329.37 1028.96 1335.07 1030.44 1342.39 1032.57H1342.35ZM1462.28 1121.8C1463.29 1121.1 1463.99 1120.74 1464.54 1120.22C1480.01 1105.43 1491.69 1088.09 1499.1 1068C1499.67 1066.44 1498.85 1063.5 1497.62 1062.28C1487.43 1052.24 1476.98 1042.45 1465.77 1031.76C1465.37 1034.42 1465.2 1035.93 1464.91 1037.41C1463.71 1043.34 1462.88 1049.37 1461.14 1055.13C1456.97 1069.01 1449.65 1081.37 1441.79 1093.44C1440.98 1094.69 1440.46 1097.37 1441.19 1098.2C1448.01 1106.17 1455.15 1113.91 1462.28 1121.8ZM1235.12 1043.29C1234.96 1043.71 1234.79 1044.15 1234.63 1044.57C1242.28 1051.01 1249.9 1057.46 1257.62 1063.81C1258.25 1064.33 1259.44 1064.29 1260.37 1064.34C1286.75 1065.77 1311.91 1061.18 1335.43 1048.78C1337.02 1047.94 1338.54 1046.95 1341.05 1045.43C1329.99 1040.71 1319.98 1036.58 1310.13 1032.13C1307.16 1030.78 1305.5 1031.12 1303.23 1033.56C1298.01 1039.13 1291.34 1042.71 1284.82 1046.39C1284.48 1045.91 1284.14 1045.43 1283.8 1044.95C1290.25 1040.04 1296.7 1035.15 1303.64 1029.87C1296.11 1025.66 1289.73 1021.38 1282.72 1028.54C1282.3 1028.98 1281.62 1029.19 1281.07 1029.5C1266.83 1037.64 1251.45 1041.99 1235.12 1043.29ZM1463.92 1123.42C1472.19 1132.46 1480.12 1141.11 1488.71 1150.52C1496.56 1141.67 1504.87 1133.95 1511.17 1124.85C1525.37 1104.4 1524.88 1110.96 1514.44 1087.46C1511.38 1080.59 1506.77 1074.4 1502.87 1067.9C1502.41 1067.98 1501.96 1068.06 1501.49 1068.14C1494.37 1089.96 1482.28 1108.38 1463.92 1123.41V1123.42ZM1575.53 1179.92C1564.37 1196.88 1548.34 1206.66 1531.24 1215.3C1533.43 1219.33 1535.38 1222.92 1537.56 1226.92C1545.49 1222.84 1553.04 1218.96 1560.58 1215.06C1560.77 1215.45 1560.99 1215.84 1561.18 1216.21C1554.99 1222.52 1546.74 1225.44 1538.34 1229.06C1540.56 1234.49 1542.71 1239.69 1544.92 1245.05C1563.42 1237.64 1579.46 1227.6 1593.9 1215C1594.7 1214.3 1595.2 1212.36 1594.85 1211.4C1590.49 1199.95 1584.29 1189.62 1575.51 1179.91L1575.53 1179.92ZM1523.36 1112.61C1514.32 1127.79 1503.65 1140.92 1489.22 1151.27C1493.93 1156.53 1498.33 1161.47 1502.96 1166.65C1508.39 1161.84 1513.4 1157.42 1518.38 1152.99C1518.87 1153.53 1519.37 1154.06 1519.86 1154.58C1514.99 1159.32 1510.11 1164.05 1504.98 1169.06C1508.16 1173.2 1511.51 1177.55 1514.91 1181.97C1526.61 1173.54 1538.71 1166.54 1546.88 1154.09C1533.48 1143.42 1526.52 1129.24 1523.36 1112.61ZM1530.49 1213.44C1546.69 1203.85 1562.63 1194.1 1574.33 1177.8C1565.8 1170.4 1557.54 1163.27 1548.8 1155.72C1540.66 1169.06 1528.31 1176.37 1516.37 1183.45C1521.13 1193.57 1525.66 1203.2 1530.47 1213.44H1530.49ZM1320.01 1026.36C1318.39 1010.18 1314.37 996.23 1305.99 984.111C1301.93 978.247 1295.77 973.812 1290.38 968.923C1289.37 968.013 1287.24 967.412 1286.01 967.802C1279.54 969.93 1273.19 972.415 1266.72 974.803C1267.22 976.038 1267.29 976.59 1267.6 976.882C1276.7 985.736 1281.93 996.311 1282.46 1009.14C1282.51 1010.28 1284.07 1011.81 1285.31 1012.39C1291.37 1015.27 1297.49 1018.03 1303.72 1020.55C1308.7 1022.56 1313.84 1024.17 1320.01 1026.35V1026.36ZM1265.48 1013.12C1256.52 1008.8 1248.21 1004.74 1239.83 1000.86C1238.95 1000.45 1237.36 1000.73 1236.48 1001.28C1232.57 1003.73 1228.57 1006.16 1225.04 1009.11C1223.13 1010.72 1221.21 1013.22 1220.8 1015.58C1219.16 1025.34 1223.01 1033.38 1229.92 1040.07C1230.76 1040.9 1232.6 1041.29 1233.8 1041.05C1242.87 1039.23 1252.1 1037.88 1260.85 1035.04C1269.84 1032.13 1278.34 1027.7 1287.06 1023.94C1286.96 1023.37 1286.88 1022.81 1286.79 1022.22C1280.6 1019.51 1274.42 1016.8 1268.91 1014.37C1265.09 1017.33 1261.89 1019.8 1258.69 1022.29C1258.24 1021.73 1257.78 1021.2 1257.33 1020.65C1259.9 1018.27 1262.48 1015.9 1265.48 1013.12ZM1658.51 1276.68C1658.44 1276.24 1658.51 1275.42 1658.21 1274.76C1652.97 1262.59 1647.78 1250.41 1642.32 1238.34C1641.54 1236.62 1639.67 1235.02 1637.92 1234.13C1628.8 1229.52 1619.01 1228.58 1608.98 1229.71C1607.99 1229.83 1606.33 1231.73 1606.43 1232.65C1608.17 1250.36 1613.81 1265.78 1631.53 1273.75C1633.7 1274.73 1635.82 1276.42 1638.05 1276.53C1644.76 1276.9 1651.52 1276.66 1658.51 1276.66V1276.68ZM1580.92 1133.2C1577.25 1126.59 1572.9 1119.93 1569.71 1112.74C1564.17 1100.21 1554.26 1094.75 1541.34 1093.4C1538.64 1093.13 1535.93 1092.9 1533.23 1092.97C1530.16 1093.05 1527.11 1093.52 1523.55 1093.86C1525.26 1099.04 1526.77 1103.23 1527.99 1107.49C1529.85 1114.08 1531.51 1120.73 1533.27 1127.36C1534.05 1130.28 1535.35 1131.4 1538.77 1130.46C1542.71 1129.37 1547.01 1128.64 1551.03 1129.03C1560.79 1129.99 1570.49 1131.69 1580.94 1133.2H1580.92ZM1553.22 1269.82C1559.1 1267.4 1564.46 1265.37 1569.68 1262.98C1579.1 1258.68 1588.46 1254.24 1597.77 1249.73C1602.26 1247.55 1604.48 1244.35 1602.5 1238.97C1601.31 1235.72 1601.23 1232.07 1600.4 1228.67C1599.4 1224.58 1598.13 1220.55 1596.7 1215.56C1581.57 1230.41 1564.77 1240.5 1545.52 1247.06C1546.74 1250.12 1547.69 1252.54 1548.96 1255.74C1560.03 1250.44 1570.51 1245.42 1580.97 1240.42C1572.28 1249.47 1560.99 1253.64 1549.25 1257.59C1550.65 1261.91 1551.9 1265.78 1553.2 1269.84L1553.22 1269.82ZM1536.16 1133.33C1537.85 1135.88 1538.74 1137.82 1540.14 1139.25C1545.39 1144.59 1550.8 1149.79 1556.16 1155C1560.84 1159.57 1565.86 1163.19 1573.03 1161.6C1574.33 1161.31 1575.89 1161.81 1577.25 1162.22C1584.03 1164.21 1590.78 1166.31 1598.31 1168.6C1594.25 1160.33 1590.2 1152.75 1586.75 1144.92C1584.61 1140.04 1581.15 1136.91 1576.27 1136.03C1566.27 1134.24 1556.16 1132.85 1546.05 1131.76C1543.1 1131.43 1539.98 1132.68 1536.16 1133.33ZM1594.13 1194.9C1594.13 1195.88 1594 1196.39 1594.15 1196.8C1597.71 1206.37 1601.22 1215.94 1605.02 1225.41C1605.39 1226.35 1607.55 1226.92 1608.95 1227.05C1617.01 1227.8 1625.08 1228.33 1633.14 1229C1634.26 1229.1 1635.37 1229.47 1636.47 1229.71C1631.19 1220.32 1625.99 1211.16 1619.01 1203.66C1612.74 1196.93 1603.83 1194.09 1594.12 1194.88L1594.13 1194.9ZM1280.11 1009.39C1280.03 1008.3 1280.08 1007.06 1279.83 1005.9C1278.03 997.188 1274.53 989.244 1268.96 982.259C1264.09 976.151 1263.81 975.778 1257.88 980.732C1251.41 986.125 1245.56 992.266 1238.92 998.585C1253.48 1002.4 1266.62 1005.86 1280.12 1009.4L1280.11 1009.39ZM1529.94 1064.6C1518.64 1055.23 1507.68 1045.3 1495.8 1036.6C1489.97 1032.32 1482.39 1031.11 1474.43 1033.77C1475.36 1034.89 1475.83 1035.74 1476.53 1036.29C1488.15 1045.55 1499.41 1055.16 1508.26 1067.28C1508.8 1068.03 1510.42 1068.5 1511.41 1068.32C1517.25 1067.28 1523.05 1066.02 1529.94 1064.6ZM1511.67 1071.78C1515.38 1078.54 1519.08 1085.3 1522.87 1092.22C1533.87 1088.29 1544.43 1090.81 1556.37 1093.91C1554.44 1091.33 1553.53 1089.88 1552.41 1088.64C1547.92 1083.67 1543.45 1078.67 1538.81 1073.86C1532.96 1067.8 1519.21 1066.76 1511.67 1071.8V1071.78ZM1613.34 1194.36C1606.87 1187.18 1605.75 1175.8 1595.37 1171.36C1586.85 1167.72 1578.32 1164.07 1569.11 1164C1576.39 1173.15 1583.47 1182.1 1590.64 1190.95C1591.24 1191.68 1592.44 1192.2 1593.42 1192.32C1599.8 1193.05 1606.22 1193.65 1613.32 1194.38L1613.34 1194.36ZM1455.7 1006.89C1460.65 1015.06 1464.85 1022.16 1469.27 1029.11C1470 1030.26 1471.77 1031.63 1472.94 1031.51C1478.04 1031.04 1483.09 1030.08 1487.97 1029.32C1482.69 1021.93 1466.94 1010.62 1455.68 1006.89H1455.7ZM1332.43 1034.21C1332.18 1034.78 1331.94 1035.36 1331.7 1035.93C1345.81 1041.84 1359.93 1047.76 1374.05 1053.69C1374.26 1053.17 1374.49 1052.65 1374.7 1052.13C1360.6 1046.15 1346.51 1040.19 1332.41 1034.21H1332.43Z" fill="white" fill-opacity="0.26"/>
<path d="M1729.92 1279.42C1727.48 1269.33 1722.98 1260.45 1714.3 1254.34C1703.94 1247.05 1696.8 1237.25 1690.89 1226.27C1680.2 1206.43 1669.03 1186.86 1658.57 1166.91C1646.4 1143.7 1642.62 1119.53 1652.2 1094.31C1656.12 1084.03 1657.08 1073.59 1652.19 1063.53C1638.96 1036.32 1646.66 1013.42 1666.76 993.517C1689.83 970.677 1713.51 948.439 1740.56 930.212C1755.9 919.881 1772.49 912.099 1789.69 905.455C1794.83 903.474 1799.52 900.338 1804.4 897.674C1825.44 886.141 1847.86 878.36 1871.08 872.658C1887.85 868.548 1904.61 864.373 1920 856.169V861.936C1917.11 863.301 1914.13 864.503 1911.37 866.095C1909.97 866.907 1908.38 868.207 1907.88 869.636C1901.88 886.823 1898.86 904.497 1899.17 922.772C1899.62 951.233 1911.92 976.574 1920 1003.02V1019.33C1915.6 1004.03 1912.02 988.416 1906.61 973.488C1894.15 939.114 1892.12 904.952 1905.65 870.481C1905.83 870.01 1905.59 869.36 1905.51 868.32C1903.38 869.246 1901.43 869.685 1899.95 870.773C1892.23 876.475 1884.61 882.291 1877.04 888.187C1876 889 1874.9 890.38 1874.75 891.615C1872.83 907.275 1870.05 922.935 1869.53 938.659C1868.82 960.07 1874.38 980.749 1880.09 1001.28C1884.69 1017.75 1888.82 1034.39 1888.15 1051.72C1888.04 1054.81 1887.73 1057.89 1887.44 1061.94C1889.5 1060.51 1890.77 1059.65 1892.02 1058.76C1903.33 1050.67 1912.74 1040.79 1920 1028.91V1039.47C1910.36 1052.29 1897.38 1061.45 1885.16 1071.44C1884.68 1071.85 1884.19 1072.27 1883.7 1072.69C1871.65 1082.98 1864.61 1096.04 1862.06 1111.63C1858.89 1130.95 1861.51 1149.89 1865.78 1168.65C1868.92 1182.43 1869.18 1195.47 1860.84 1207.75C1856.76 1213.76 1856.29 1220.88 1857.79 1227.67C1861.56 1244.74 1864.06 1261.89 1863.36 1279.42H1857.59C1858.91 1268.85 1858.83 1258.63 1853.64 1248.7C1842.82 1228.04 1827.44 1211.34 1809.66 1196.7C1789.3 1179.96 1768.6 1163.63 1748.03 1147.13C1747.69 1146.85 1747.19 1146.8 1746.39 1146.52C1746.13 1147.86 1745.69 1149.04 1745.69 1150.23C1745.69 1159.49 1745.84 1168.75 1745.77 1178.01C1745.76 1181.4 1747.51 1182.98 1750.29 1184.5C1784.2 1203.14 1814.45 1226.53 1840.08 1255.54C1846.3 1262.59 1850.52 1271.41 1855.66 1279.41H1853.74C1849.13 1272.71 1845.13 1265.47 1839.78 1259.44C1813.98 1230.41 1783.57 1206.97 1750.39 1186.99C1749.53 1186.47 1748.49 1186.24 1746.91 1185.64C1747.22 1187.64 1747.37 1189.04 1747.64 1190.38C1751.92 1210.87 1760.82 1229.7 1768.83 1248.83C1769.32 1250 1770.54 1251.27 1771.71 1251.71C1788.42 1257.99 1802.01 1269.28 1816.32 1279.41H1810.55C1798.48 1270.03 1786.28 1260.87 1772.37 1254.44C1772.03 1254.76 1771.67 1255.1 1771.33 1255.43C1774.81 1263.42 1778.29 1271.41 1781.76 1279.41H1775.99C1770.52 1266.46 1765.06 1253.49 1759.58 1240.55C1752.13 1222.87 1743.56 1205.38 1741.61 1186.13C1740.09 1170.96 1740.15 1155.51 1740.93 1140.24C1741.78 1123.36 1743.73 1106.48 1746.1 1089.73C1750.75 1057.02 1763.94 1027.32 1778.85 998.114C1804.53 947.789 1840.66 907.112 1887.81 876.102C1888.41 875.695 1888.93 875.159 1889.49 874.688C1889.31 874.315 1889.13 873.941 1888.95 873.551C1885.94 874.704 1882.61 875.387 1879.98 877.109C1872.23 882.161 1864.19 887.002 1857.25 893.061C1841.85 906.528 1827.08 920.709 1811.98 934.533C1800.87 944.719 1792.19 956.675 1785.69 970.222C1775.07 992.413 1764.67 1014.73 1753.8 1036.81C1740.46 1063.89 1734.43 1092.63 1734.5 1122.56C1734.55 1142.37 1736.07 1162.17 1736.59 1181.97C1737.1 1201.33 1742.48 1218.73 1753.54 1234.94C1762.64 1248.26 1768.05 1263.66 1772.16 1279.36H1767.37C1764.28 1271.01 1761.21 1262.66 1758.12 1254.31C1757.37 1254.31 1756.61 1254.31 1755.86 1254.31C1752.66 1262.66 1749.46 1271.01 1746.24 1279.36H1742.41C1746.54 1270.55 1750.68 1261.78 1754.73 1252.94C1755.25 1251.79 1755.72 1250.02 1755.2 1249.09C1749.79 1239.22 1744.16 1229.44 1738.58 1219.58C1731.38 1224.61 1719.78 1239.91 1717.88 1247.01C1717.55 1248.22 1718.51 1250.38 1719.57 1251.24C1728.58 1258.58 1733.08 1268.42 1735.68 1279.39H1729.92V1279.42ZM1834.32 906.365C1839.57 901.947 1844.77 897.447 1850.1 893.126C1855.27 888.935 1860.58 884.922 1865.83 880.829C1835.43 886.953 1808 899.9 1780.38 914.033C1781.47 914.309 1781.92 914.585 1782.31 914.52C1795.83 911.97 1809.32 912.213 1822.8 914.829C1824.02 915.072 1825.79 914.715 1826.7 913.935C1829.45 911.547 1831.9 908.818 1834.47 906.219L1834.34 906.365H1834.32ZM1857.95 1161.97C1857.95 1159.67 1858 1158.79 1857.95 1157.91C1857.12 1145.35 1856.34 1132.78 1855.38 1120.22C1855.27 1118.76 1854.26 1117.37 1853.61 1115.95C1849.61 1107.28 1845.52 1098.65 1841.67 1089.91C1840.86 1088.08 1840.86 1085.87 1840.48 1083.82C1840.86 1083.74 1841.21 1083.64 1841.59 1083.56C1845.88 1093.45 1850.18 1103.35 1854.47 1113.26C1855.15 1113.14 1855.84 1113.03 1856.52 1112.93C1857.19 1107.18 1859.31 1101.14 1858.26 1095.71C1852.6 1066.88 1846.01 1038.22 1840.04 1009.44C1835.93 989.57 1832.2 969.621 1828.56 949.673C1827.73 945.125 1828 940.381 1827.73 935.004C1826.49 936.093 1825.79 936.515 1825.37 937.132C1815.56 950.924 1805.68 964.651 1796.08 978.588C1794.14 981.383 1792.76 984.859 1792.15 988.205C1787.66 1012.75 1791.12 1036.61 1799.15 1059.92C1808.93 1088.34 1825.08 1113.3 1841.75 1137.98C1846.88 1145.58 1852.03 1153.2 1857.95 1161.96V1161.97ZM1872.1 892.574C1870.25 893.841 1868.98 894.49 1867.97 895.416C1858.53 904.026 1848.83 912.376 1839.82 921.424C1828.04 933.25 1828.28 933.494 1830.77 950.079C1831.14 952.597 1831.55 955.131 1832.08 957.633C1840.03 995.596 1847.99 1033.54 1855.95 1071.49C1857.43 1078.56 1858.89 1085.64 1860.6 1093.91C1861.8 1091.98 1862.22 1091.16 1862.77 1090.45C1868.07 1083.51 1872.54 1075.63 1878.96 1069.96C1884.74 1064.85 1886.06 1059.54 1886.06 1052.55C1886.07 1033.09 1880.83 1014.65 1875.58 996.23C1867.78 968.89 1863.88 941.291 1868.35 912.928C1869.37 906.398 1870.74 899.916 1872.12 892.574H1872.1ZM1748.81 1109.89C1747.92 1120.11 1747.24 1128.98 1746.29 1137.83C1745.94 1141.18 1746.76 1143.5 1749.54 1145.63C1766.78 1158.87 1783.92 1172.24 1801.05 1185.63C1822.11 1202.06 1841.52 1220.01 1853.95 1244.24C1854.15 1244.63 1854.78 1244.79 1855.92 1245.5C1854.98 1241.13 1854.18 1237.58 1853.43 1234.02C1851.79 1226.12 1849.81 1217.59 1853.87 1210.51C1858.5 1202.47 1854.91 1197.53 1850.38 1192.04C1849.76 1191.29 1849.22 1190.5 1848.56 1189.82C1833.41 1173.8 1818.32 1157.72 1803.08 1141.78C1785.37 1123.28 1770.57 1103.09 1765.16 1077.39C1763.6 1069.98 1762.43 1062.49 1760.95 1054.3C1760.2 1055.65 1759.57 1056.37 1759.39 1057.16C1756.11 1072.77 1752.79 1088.37 1749.75 1104.01C1749.46 1105.51 1750.6 1107.64 1751.69 1108.98C1759.84 1119.04 1768.16 1128.96 1776.38 1138.95C1777.62 1140.47 1778.61 1142.17 1779.72 1143.8C1779.18 1144.2 1778.66 1144.61 1778.12 1145.01C1768.72 1133.74 1759.31 1122.47 1748.8 1109.88L1748.81 1109.89ZM1788.78 994.134C1788.42 993.972 1788.07 993.793 1787.73 993.631C1787.5 994.021 1787.24 994.411 1787.04 994.817C1779.16 1011.56 1771.25 1028.3 1763.45 1045.09C1762.83 1046.44 1762.83 1048.2 1762.96 1049.74C1765.69 1084.86 1780.04 1114.44 1804.96 1139.3C1819.33 1153.62 1833.02 1168.62 1846.72 1183.59C1851.06 1188.34 1854.41 1193.99 1858.26 1199.3C1864.38 1191.57 1863.6 1172.79 1857.33 1164.28C1839.49 1140.08 1821.94 1115.68 1808.23 1088.81C1794.96 1062.82 1786.64 1035.54 1787.79 1005.98C1787.95 1002.01 1788.44 998.066 1788.78 994.118V994.134ZM1659.76 1091.54C1660.39 1091.05 1661.15 1090.53 1661.84 1089.9C1682.52 1071.02 1706.66 1060.79 1734.85 1060.92C1737.91 1060.92 1738.48 1059.24 1739.39 1057.11C1744.46 1045.39 1749.62 1033.72 1754.76 1022.03C1755.68 1019.91 1756.64 1017.82 1757.85 1015.15C1734.76 1013.43 1712.64 1013.45 1691.16 1020.65C1676.69 1025.49 1664.55 1033.74 1655.78 1046.46C1654.75 1047.94 1653.53 1050.1 1653.91 1051.56C1655.13 1056.25 1657.06 1060.77 1658.98 1066.1C1668.84 1055.26 1679.73 1047.69 1693.36 1044.74C1692.29 1046.17 1690.79 1046.93 1689.41 1047.86C1680.28 1053.95 1671.13 1060.04 1662.06 1066.24C1661.02 1066.96 1659.85 1068.39 1659.84 1069.53C1659.64 1076.75 1659.74 1084 1659.74 1091.54H1659.76ZM1652.62 1047.14C1662.65 1030.85 1676.61 1021.82 1693.29 1016.71C1710.82 1011.35 1728.84 1010.69 1746.93 1012.28C1758.8 1013.32 1758.77 1013.71 1763.95 1003C1768.24 994.134 1772.52 985.265 1777.15 975.664C1774.74 975.811 1773.2 975.843 1771.69 976.022C1760.9 977.256 1750.1 978.329 1739.34 979.807C1716.25 982.975 1694.07 988.904 1673.31 1000.02C1661.93 1006.09 1655.7 1015.32 1652.41 1027.14C1650.71 1033.32 1650.02 1039.59 1652.64 1047.16L1652.62 1047.14ZM1728.79 1144.71C1728.27 1144.35 1727.77 1143.97 1727.25 1143.62C1718.72 1150.15 1710.17 1156.69 1701.64 1163.22C1702.2 1160.98 1703.09 1158.95 1704.63 1157.78C1711.31 1152.7 1718.2 1147.87 1724.99 1142.9C1726.32 1141.93 1728.58 1140.86 1728.65 1139.73C1729.01 1133.27 1728.83 1126.77 1728.83 1119.96C1721.48 1119.83 1716.14 1123.04 1710.95 1126.41C1692.81 1138.27 1678.82 1154.06 1668.08 1172.78C1667.3 1174.14 1667.41 1176.77 1668.22 1178.17C1673.76 1187.7 1679.58 1197.06 1685.33 1206.47C1686.13 1207.75 1687.02 1208.98 1688.06 1210.54C1688.82 1209.55 1689.33 1209.11 1689.57 1208.56C1697.74 1190.04 1710.45 1175.44 1727.48 1164.54C1728.53 1163.87 1729.75 1162.38 1729.74 1161.31C1729.64 1155.78 1729.17 1150.24 1728.83 1144.72L1728.79 1144.71ZM1730.99 1089.94C1729.87 1089.94 1729.23 1089.9 1728.63 1089.94C1727.67 1090.06 1726.73 1090.2 1725.79 1090.4C1696.22 1097.06 1673.36 1113.11 1657.34 1138.95C1654.95 1142.8 1654.07 1146.25 1655.76 1150.55C1658.26 1156.94 1660.34 1163.5 1662.68 1169.95C1663.09 1171.05 1663.97 1172 1664.63 1173.04C1665.25 1172.6 1665.59 1172.47 1665.74 1172.22C1666.32 1171.27 1666.86 1170.29 1667.38 1169.3C1676.69 1151.5 1689.8 1137.12 1706.4 1125.88C1712.42 1121.82 1718.61 1118.31 1726.18 1118C1727.15 1117.97 1728.79 1116.52 1728.89 1115.6C1729.74 1107.2 1730.29 1098.78 1730.97 1089.91L1730.99 1089.94ZM1670.72 996.539C1671.07 996.896 1671.42 997.27 1671.76 997.627C1676.57 995.272 1681.32 992.754 1686.21 990.609C1712.12 979.254 1739.65 975.648 1767.55 974.625C1775.15 974.349 1780.07 972.789 1782.59 965.057C1783.99 960.752 1787.12 957.016 1789.42 952.987C1790 951.98 1790.36 950.843 1791.07 949.186C1770.86 949.04 1751.4 948.13 1732.04 951.59C1721.86 953.409 1712.94 957.178 1705.41 964.586C1696.31 973.553 1686.74 982.065 1677.34 990.739C1675.18 992.737 1672.92 994.622 1670.69 996.539H1670.72ZM1653.14 1139.73C1654.12 1139.38 1654.31 1139.36 1654.41 1139.26C1654.72 1138.91 1655.05 1138.56 1655.27 1138.16C1671.63 1109.54 1695.78 1092.38 1728.78 1088.17C1729.87 1088.03 1731.59 1087.25 1731.78 1086.47C1733.7 1078.65 1735.36 1070.78 1737.08 1062.98C1736.25 1062.7 1735.96 1062.49 1735.67 1062.51C1705.25 1064.52 1679.08 1075.93 1657.6 1097.73C1656.72 1098.6 1655.89 1099.69 1655.47 1100.84C1650.92 1113.48 1650.74 1126.38 1653.16 1139.75L1653.14 1139.73ZM1714.2 1248.33C1719.58 1235.37 1726.28 1225.6 1735.93 1218.03C1736.51 1217.58 1736.53 1216.04 1736.4 1215.06C1734.63 1202.13 1732.76 1189.22 1730.96 1176.28C1730.5 1173.08 1730.18 1169.87 1729.72 1166.05C1727.95 1167.25 1726.88 1167.9 1725.89 1168.65C1711.34 1179.6 1700.1 1193.31 1691.65 1209.41C1690.04 1212.48 1689.99 1214.8 1691.91 1217.72C1695.42 1223.05 1698.2 1228.88 1701.9 1234.07C1705.28 1238.79 1709.48 1242.92 1714.19 1248.33H1714.2ZM1774.55 931.317C1774.65 932.032 1774.76 932.746 1774.86 933.477C1763.74 935.199 1752.66 937.425 1741.48 938.481C1733.3 939.26 1729.66 945.661 1723.94 949.543C1724.7 950.096 1725.19 950.177 1725.61 950.079C1745.77 945.011 1766.2 945.547 1786.64 947.334C1790.8 947.691 1793.79 947.513 1796.4 943.711C1798.82 940.203 1802.09 937.23 1805.16 934.208C1810.81 928.669 1816.61 923.276 1822.51 917.671C1802.45 909.842 1751.92 921.424 1743.89 934.891C1753.82 933.737 1764.17 932.519 1774.52 931.317H1774.55Z" fill="white" fill-opacity="0.26"/>
<path d="M980.155 1279.42C979.603 1272.26 978.872 1265.11 978.563 1257.95C978.059 1246.62 977.864 1235.28 977.475 1223.95C977.41 1221.96 977.117 1219.98 976.808 1216.8C969.399 1226.14 960.772 1231.69 950.6 1234.6C936.14 1238.73 922.02 1238.44 909.412 1229.08C894.951 1218.36 894.74 1197.87 908.795 1188.16C915.895 1183.25 923.613 1182.91 931.737 1185.23C948.326 1189.99 962.478 1198.49 973.559 1211.84C974.062 1212.44 974.664 1212.96 975.232 1213.5C975.314 1213.58 975.525 1213.5 976.11 1213.5C973.51 1195.65 970.927 1177.84 968.311 1159.86C966.133 1161.5 963.989 1163.6 961.438 1164.96C954.711 1168.57 947.53 1168.26 940.413 1166.41C922.264 1161.71 909.022 1150.47 899.225 1134.86C897.973 1132.86 897.047 1130.54 896.479 1128.25C894.903 1121.78 894.838 1115.3 900.151 1110.4C905.415 1105.54 911.93 1105.54 918.202 1107.88C930.388 1112.43 940.673 1120.11 949.756 1129.22C956.011 1135.53 961.503 1142.59 968.229 1149.33C966.978 1144.79 965.955 1140.14 964.427 1135.69C960.219 1123.47 955.784 1111.32 951.429 1099.14C951.055 1098.08 950.958 1096.41 950.259 1096.1C948.391 1095.26 944.946 1093.99 944.442 1094.66C938.999 1101.8 931.493 1102.81 923.678 1101.58C907.04 1098.94 891.458 1093.32 878.232 1082.55C870.839 1076.53 867.85 1066.63 870.677 1059.37C873.455 1052.22 878.801 1048.47 886.454 1048.16C901.938 1047.56 914.449 1054.47 924.896 1064.91C931.85 1071.86 937.472 1080.12 943.728 1087.77C944.881 1089.16 946.197 1090.43 948.391 1091.21C948.179 1090.07 948.082 1088.89 947.725 1087.8C943.468 1075.08 939.259 1062.33 934.775 1049.69C934.206 1048.11 932.321 1046.49 930.68 1045.89C913.653 1039.57 898.396 1030.29 885.251 1017.9C874.479 1007.75 871.278 994.832 874.918 980.537C878.102 968.013 887.721 962.993 899.956 967.444C903.92 968.89 908.063 970.986 911.004 973.926C925.53 988.432 936.936 1004.89 939.016 1026.04C939.552 1031.48 938.171 1037.1 937.862 1042.64C937.732 1044.87 937.537 1047.38 938.398 1049.32C942.574 1058.82 947.091 1068.18 951.494 1077.58C952.29 1079.27 953.151 1080.91 954.289 1083.17C956.888 1079.09 957.798 1075.96 956.482 1071.57C950.893 1052.96 952.079 1034.47 960.544 1017.01C962.721 1012.51 967.417 1008.4 971.966 1006.06C983.502 1000.11 994.648 1005.83 997.898 1018.42C1004.27 1043.18 988.523 1070.16 963.745 1076.95C958.172 1078.48 955.036 1085.02 957.278 1090.29C962.868 1103.46 968.392 1116.67 973.689 1129.26C974.062 1127.57 974.712 1124.69 975.362 1121.83C978.514 1108.14 985.533 1096.73 996.127 1087.59C1005.29 1079.68 1020.06 1078.13 1030.82 1083.69C1040.97 1088.94 1045.7 1102.18 1040.58 1114.07C1038.13 1119.77 1034.31 1125.34 1029.79 1129.6C1020.86 1138.06 1009.78 1143.29 997.963 1146.65C990.554 1148.77 983.129 1148.33 974.924 1144.22C975.265 1147.39 975.265 1149.64 975.768 1151.8C979.505 1167.98 983.437 1184.11 987.093 1200.33C988.084 1204.74 988.312 1209.34 988.994 1214.67C989.969 1213.57 990.603 1213.19 990.684 1212.72C993.04 1198.82 1001.41 1188.6 1011.71 1179.94C1022.51 1170.86 1034.99 1171.17 1047.49 1175.91C1054.16 1178.44 1057.02 1184.46 1056.07 1192.42C1054.73 1203.56 1047.97 1211.06 1038.63 1216.23C1024.64 1223.96 1010.1 1223.44 995.575 1217.69C989.059 1215.11 988.734 1215.22 988.848 1222.35C989.173 1241.38 989.449 1260.4 989.725 1279.42H987.808C987.938 1278.15 988.231 1276.89 988.182 1275.64C987.532 1259.38 986.476 1243.11 986.281 1226.85C986.086 1210.92 983.795 1195.42 979.749 1180.04C976.613 1168.16 972.681 1156.25 971.593 1144.14C969.594 1121.83 959.407 1102.66 950.958 1082.73C950.568 1081.79 949.869 1080.98 949.317 1080.12C949.187 1082.02 949.626 1083.66 950.129 1085.28C954.175 1098.41 958.237 1111.52 962.266 1124.63C963.241 1127.81 964.005 1131.08 965.012 1134.24C966.751 1139.69 969.318 1144.95 970.26 1150.5C971.95 1160.56 972.454 1170.81 973.867 1180.93C975.85 1194.98 978.693 1208.94 980.237 1223.02C981.293 1232.65 980.513 1242.46 980.952 1252.18C981.358 1261.26 982.316 1270.32 983.015 1279.4H980.139L980.155 1279.42ZM934.58 1040.3C934.889 1041.1 935.197 1041.89 935.506 1042.69L936.773 1042.45C936.773 1036.45 937.602 1030.33 936.627 1024.5C933.264 1004.61 922.313 988.855 907.868 975.42C904.96 972.724 900.849 970.888 896.982 969.751C888.127 967.136 881.612 970.839 878.476 979.465C873.618 992.834 877.42 1007.13 889.118 1017.62C901.564 1028.8 915.765 1037.38 930.859 1044.49C931.477 1044.78 932.24 1044.78 932.923 1044.93C933.15 1044.54 933.394 1044.13 933.621 1043.74C927.268 1039.64 920.899 1035.53 914.546 1031.4L915.213 1030.41C919.713 1033.15 924.23 1035.9 928.731 1038.66C921.874 1024.24 910.939 1013.3 900.346 1002C902.23 1002.42 903.823 1003.12 905.009 1004.25C910.387 1009.47 916.106 1014.44 920.802 1020.22C925.904 1026.51 930.031 1033.58 934.596 1040.32L934.58 1040.3ZM976.841 1144.75C981.634 1145.14 985.94 1146.26 990.002 1145.68C1005.84 1143.39 1019.38 1136 1030.51 1124.69C1033.97 1121.18 1036.55 1116.37 1038.26 1111.7C1042.17 1100.91 1037.33 1089.29 1027.58 1085.64C1016.66 1081.56 1006.27 1082.41 997.167 1090.61C985.712 1100.96 978.758 1113.76 976.126 1128.9C975.525 1132.36 975.346 1135.9 974.924 1139.91C984.981 1130.59 994.291 1121.96 1003.6 1113.34C1003.89 1113.61 1004.2 1113.89 1004.49 1114.15C998.743 1126.75 983.795 1131.25 976.825 1144.74L976.841 1144.75ZM974.875 1217.09C957.083 1213.86 939.406 1216.34 922.362 1208.06C939.682 1210.14 955.637 1212.05 971.593 1213.97C971.706 1213.52 971.804 1213.06 971.918 1212.59C960.447 1207.68 948.976 1202.76 937.927 1198.04C948.082 1199.37 957.587 1204.03 968.034 1209.78C966.962 1208.09 966.751 1207.49 966.328 1207.13C955.215 1197.32 942.509 1190.43 927.983 1187.36C916.74 1184.99 906.585 1190.63 902.799 1200.76C898.883 1211.26 904.05 1223.26 915.245 1229.34C924.165 1234.16 933.686 1235.28 943.614 1233.55C955.41 1231.48 965.581 1226.35 974.875 1217.07V1217.09ZM965.743 1154.44C966.003 1154.03 966.247 1153.64 966.507 1153.23C966.117 1152.45 965.808 1151.61 965.305 1150.93C956.986 1139.46 947.513 1129 935.652 1121.2C928.796 1116.7 921.37 1112.51 913.62 1110.09C904.505 1107.24 897.161 1114.98 898.851 1124.43C899.338 1127.21 899.972 1130.38 901.645 1132.47C907.186 1139.43 912.645 1146.61 919.209 1152.5C928.211 1160.58 939.146 1165.17 951.527 1165.24C958.936 1165.27 964.931 1161.84 967.06 1156.74C953.818 1159.1 950.958 1159 947.335 1156.35H961.779C947.757 1149.24 934.466 1142.5 921.175 1135.74C921.517 1135.04 921.842 1134.36 922.183 1133.66C936.708 1140.58 951.218 1147.5 965.743 1154.42V1154.44ZM939.812 1086.65C929.592 1072.4 918.43 1059.08 901.044 1053.35C896.852 1051.96 892.287 1051.09 887.9 1051.1C876.006 1051.12 869.28 1061.81 874.593 1072.42C876.526 1076.27 879.565 1080.12 883.074 1082.54C896.544 1091.81 911.475 1097.89 927.805 1099.72C933.93 1100.41 939.698 1098.44 944.8 1091.91C934.076 1092.58 924.604 1092.32 915.846 1086.96C923.336 1088.53 930.421 1090.04 937.521 1091.54C937.7 1090.92 937.862 1090.3 938.041 1089.68C931.899 1086.65 925.774 1083.59 919.632 1080.56C919.941 1079.92 920.266 1079.3 920.574 1078.67C926.976 1081.33 933.378 1083.98 939.779 1086.65H939.812ZM961.422 1075.42C974.907 1071.31 985.014 1063.45 991.041 1051.05C996.468 1039.89 998.353 1028.2 993.787 1016.26C990.652 1008.09 983.275 1004.97 975.054 1007.86C966.913 1010.72 962.559 1017.15 960.04 1024.82C956.06 1036.97 955.101 1049.53 956.255 1062.23C956.547 1065.38 957.506 1068.45 958.172 1071.57C958.838 1071.54 959.521 1071.51 960.187 1071.47C956.271 1059.44 959.732 1048.31 963.29 1037.21C962.77 1047.09 957.977 1056.64 960.512 1066.75C960.967 1066.86 961.405 1066.96 961.86 1067.07C964.704 1059.52 967.547 1051.98 970.374 1044.43C970.992 1044.64 971.609 1044.85 972.243 1045.06C969.789 1053.1 967.336 1061.13 964.866 1069.17L965.825 1069.87C971.073 1063.04 976.321 1056.2 982.024 1048.8C977.637 1060.14 969.789 1067.92 961.438 1075.42H961.422ZM996.517 1215.81C1008.02 1219.87 1019.52 1221.02 1031.03 1216.6C1041.69 1212.51 1049.88 1205.7 1052.8 1194.12C1054.72 1186.49 1051.68 1179.87 1044.55 1178.07C1038.63 1176.58 1032.15 1175.75 1026.17 1176.53C1013.09 1178.23 994.226 1199.08 992.764 1212.2C992.764 1212.31 992.926 1212.46 993.008 1212.57C1002.27 1214.64 1000.76 1204.27 1006.7 1200.6C1004.87 1204.22 1003.57 1206.79 1002.27 1209.37C1002.66 1209.85 1003.03 1210.3 1003.42 1210.77C1010.21 1207.25 1017.01 1203.72 1023.78 1200.2C1016.99 1209.55 1006.88 1212.75 996.55 1215.82L996.517 1215.81Z" fill="white" fill-opacity="0.26"/>
<path d="M1138.56 1279.42C1139.01 1272.89 1139.16 1266.33 1140.03 1259.86C1140.93 1253.23 1143.67 1247.21 1148.91 1242.79C1155.84 1236.94 1159.45 1229.44 1159.56 1220.58C1159.87 1196.14 1168.32 1173.95 1178.3 1152.26C1183.35 1141.28 1189.02 1130.49 1195.34 1120.19C1203.65 1106.66 1214.13 1106.94 1226.28 1115.3C1236.14 1122.09 1246.1 1128.79 1255.69 1135.97C1265.44 1143.28 1273.97 1151.93 1275.92 1164.59C1276.96 1171.28 1276.32 1178.27 1276.24 1185.12C1276.09 1196.44 1275.2 1207.8 1275.79 1219.09C1276.06 1224.22 1277.95 1230.15 1281.13 1234.1C1291.89 1247.48 1294.42 1263.57 1297.93 1279.44H1288.33C1292.55 1276.51 1292.85 1272.71 1291.25 1268.15C1289.74 1263.79 1289.11 1259.12 1287.45 1254.81C1285.73 1250.29 1283.26 1246.05 1280.73 1240.92C1273.43 1249.73 1265.87 1256.21 1256.35 1260.14C1255.49 1260.5 1254.96 1262.43 1254.84 1263.7C1254.37 1268.93 1254.11 1274.19 1253.77 1279.44H1248.98C1250.81 1270.89 1251.5 1262.28 1248.72 1253.85C1242.8 1235.9 1241.19 1217.35 1240.38 1198.64C1239.6 1180.75 1238.43 1162.9 1232.86 1145.68C1231.58 1141.73 1230.23 1137.8 1228.75 1133.93C1227.29 1130.08 1225.65 1126.32 1223.63 1121.41C1227.09 1139.13 1231.02 1155.43 1233.36 1171.95C1238.43 1207.64 1244.44 1243.26 1245.14 1279.44H1240.35C1239.13 1262.25 1237.96 1245.05 1236.6 1227.88C1236.5 1226.54 1235.26 1225.05 1234.18 1224.09C1216.4 1208.37 1202.04 1189.9 1190.61 1169.17C1187.69 1163.86 1185.71 1158.04 1182.7 1151.11C1181.37 1157.67 1175.68 1161.89 1178.72 1167.89C1185.94 1182.12 1193.56 1196.14 1201.05 1210.24C1201.97 1211.97 1203.11 1213.6 1204.13 1215.27C1203.78 1215.47 1203.43 1215.66 1203.08 1215.87C1191.25 1201.92 1183.25 1185.75 1175.91 1168.68C1174.59 1172.43 1173.23 1176.37 1173.96 1179.84C1175.47 1186.97 1177.37 1194.22 1180.44 1200.81C1194.04 1230.05 1212.74 1255.87 1234.58 1279.47H1230.75C1230.18 1278.54 1229.69 1277.57 1229.04 1276.71C1218.45 1263.1 1207.24 1249.92 1197.39 1235.79C1186.05 1219.51 1176.02 1202.32 1172.48 1182.29C1172.4 1181.86 1172.24 1181.45 1171.99 1180.67C1168.01 1188.39 1165.95 1198.72 1166.76 1204.16C1170 1225.55 1179.78 1244.11 1191.75 1261.7C1195.78 1267.63 1199.83 1273.54 1203.86 1279.47H1200.98C1199.84 1277.75 1198.75 1275.98 1197.54 1274.32C1183.45 1255.17 1170.99 1235.2 1166.1 1211.44C1166.03 1211.13 1165.45 1210.92 1164.6 1210.3C1164.42 1213.42 1164.31 1216.08 1164.11 1218.73C1163.46 1227.78 1161.95 1236.47 1155.06 1243.33C1154.12 1244.27 1153.99 1246.98 1154.61 1248.41C1159.03 1258.82 1163.72 1269.12 1168.32 1279.47H1165.45C1160.85 1268.73 1156.25 1257.99 1151.64 1247.22C1143.76 1254.24 1141.35 1268.8 1146.24 1279.47H1138.56V1279.42ZM1224.13 1116.31C1223.81 1116.57 1223.48 1116.83 1223.16 1117.09C1236.51 1139.12 1242.58 1163.27 1244.14 1188.87C1252.39 1181.06 1258.14 1172.17 1262.06 1162.1C1266.49 1150.72 1266.59 1150.54 1257.44 1142.66C1248.13 1134.63 1238.55 1126.93 1229.01 1119.17C1227.56 1118 1225.76 1117.25 1224.12 1116.31H1224.13ZM1234.78 1221.82L1235.91 1221.23C1234.94 1213.34 1234.18 1205.39 1232.86 1197.56C1232.45 1195.21 1230.99 1192.48 1229.15 1190.99C1214.82 1179.32 1203.11 1165.55 1194.42 1149.24C1192.66 1145.94 1190.96 1142.63 1189.01 1138.92C1185.2 1144.25 1183.16 1149.04 1186.41 1154.87C1188.19 1158.07 1189.25 1161.66 1190.94 1164.91C1201.52 1185.25 1216.09 1202.6 1231.53 1219.32C1232.45 1220.31 1233.69 1221.01 1234.78 1221.85V1221.82ZM1246.28 1225.15C1246.86 1225.26 1247.43 1225.39 1248.02 1225.51C1260.82 1211.23 1274.13 1197.35 1272.31 1175.57C1271.71 1168.39 1272.18 1161.23 1266.82 1154.4C1262.93 1169.43 1256.13 1181.61 1245.14 1191.31C1244.53 1191.86 1244.02 1192.98 1244.07 1193.81C1244.74 1204.26 1245.52 1214.7 1246.26 1225.13L1246.28 1225.15ZM1230.68 1189.65C1231.14 1189.41 1231.59 1189.15 1232.05 1188.91C1230.86 1180.41 1229.92 1171.87 1228.36 1163.43C1227.94 1161.1 1226 1158.85 1224.31 1156.99C1220.9 1153.2 1216.74 1150.02 1213.67 1145.99C1208.06 1138.6 1203.03 1130.77 1197.55 1122.84C1195.54 1126.14 1193.12 1129.35 1191.54 1132.96C1190.73 1134.81 1190.63 1137.72 1191.54 1139.47C1199.05 1154.03 1208.16 1167.51 1219.75 1179.21C1223.29 1182.8 1227.04 1186.18 1230.7 1189.67L1230.68 1189.65ZM1254.34 1258.9C1263.8 1254.19 1271.14 1248.39 1277.3 1241.17C1277.96 1240.39 1277.83 1238.09 1277.17 1237.12C1271.12 1228.15 1269.94 1218.2 1270.72 1207.77C1270.88 1205.7 1270.73 1203.62 1270.73 1202.16C1263.26 1210.74 1255.82 1219.17 1248.55 1227.78C1247.71 1228.77 1247.47 1230.8 1247.77 1232.15C1249.76 1240.82 1251.98 1249.45 1254.32 1258.9H1254.34ZM1225.71 1155.56C1226.23 1155.3 1226.77 1155.04 1227.29 1154.78C1224.65 1141.72 1222.07 1128.66 1219.32 1115.63C1219.13 1114.68 1217.8 1113.61 1216.77 1113.29C1211.35 1111.6 1206.55 1112.35 1202.38 1116.73C1199.88 1119.36 1199.29 1121.61 1201.45 1124.59C1206.49 1131.56 1211.28 1138.69 1216.48 1145.53C1219.23 1149.12 1222.61 1152.23 1225.71 1155.56Z" fill="white" fill-opacity="0.26"/>
<path d="M960.008 1279.42C948.228 1268.39 934.564 1261.88 918.105 1263.03C908.405 1263.71 900.914 1270.39 898.558 1279.42H895.682C897.259 1268 907.657 1259.52 921.289 1259.8C938.155 1260.14 952.29 1267.14 963.843 1279.42H960.008Z" fill="white" fill-opacity="0.26"/>
<path d="M48.9713 1279.42C38.7513 1268.07 28.4989 1256.73 18.3114 1245.36C12.186 1238.5 6.10926 1231.58 0.0162964 1224.71C0.0162964 1222.79 0.0162964 1220.88 0.0162964 1218.94C17.6128 1239.1 35.2093 1259.26 52.822 1279.4H48.9875L48.9713 1279.42Z" fill="white" fill-opacity="0.26"/>
<path d="M1063.69 1279.42C1061.46 1271.04 1055.63 1266.91 1047.36 1266.34C1034.47 1265.47 1022.3 1266.88 1014.71 1279.42H1010.88C1020.04 1265.01 1032.07 1260.93 1052.17 1264.25C1060.31 1265.6 1065.23 1271.07 1066.56 1279.42H1063.69Z" fill="white" fill-opacity="0.26"/>
<path d="M0.0162964 1257.34C2.71345 1261.28 5.50809 1265.16 8.07526 1269.17C10.3175 1272.68 13.0309 1275.08 17.3691 1275.86C21.5773 1276.61 25.6393 1278.2 29.7662 1279.41H0.0162964C0.0162964 1276.85 0.0162964 1274.29 0.0162964 1271.74C2.25851 1272.26 4.50072 1272.78 6.74293 1273.3C6.98665 1272.97 7.23037 1272.65 7.47409 1272.32C4.98816 1269.25 2.50223 1266.17 0.0162964 1263.1C0.0162964 1261.18 0.0162964 1259.26 0.0162964 1257.33V1257.34Z" fill="white" fill-opacity="0.26"/>
<path d="M267.847 1279.42C261.413 1271.56 254.881 1263.78 248.561 1255.83C244.352 1250.55 240.437 1245.05 236.375 1239.64L237.496 1238.76C249.21 1252.31 260.925 1265.87 272.656 1279.42H267.863H267.847Z" fill="white" fill-opacity="0.26"/>
<path d="M1837.43 1279.42C1831.04 1273.02 1824.72 1266.56 1818.26 1260.22C1815.33 1257.36 1812.11 1254.79 1809.56 1251.5C1822.24 1258.69 1832.57 1268.67 1842.24 1279.42H1837.44H1837.43Z" fill="white" fill-opacity="0.26"/>
<path d="M0.0162964 1153.69C6.223 1167.77 12.446 1181.86 18.6527 1195.94C18.4252 1196.12 18.1977 1196.3 17.9865 1196.46C17.0766 1195.18 15.9717 1193.99 15.2731 1192.59C10.9511 1184.07 6.71044 1175.49 2.42099 1166.94C1.64109 1165.38 0.828692 1163.86 0.0162964 1162.31C0.0162964 1159.44 0.0162964 1156.55 0.0162964 1153.67L0.0162964 1153.69Z" fill="white" fill-opacity="0.26"/>
<path d="M134.419 1279.42C130.454 1272.48 126.49 1265.53 122.526 1258.6C122.915 1258.35 123.305 1258.12 123.695 1257.88C128.553 1265.06 133.412 1272.24 138.253 1279.42H134.419Z" fill="white" fill-opacity="0.26"/>
<path d="M1919.98 950.209C1918.6 946.164 1917.21 942.119 1915.82 938.09C1916.23 937.895 1916.65 937.7 1917.06 937.505C1918.03 938.854 1919.01 940.218 1919.98 941.567V950.209Z" fill="white" fill-opacity="0.26"/>
<path d="M106.278 1229.47C109.121 1234.42 111.964 1239.39 114.792 1244.35C114.093 1244.76 113.394 1245.14 112.696 1245.55C109.868 1240.58 107.041 1235.61 104.214 1230.65C104.897 1230.26 105.595 1229.88 106.278 1229.47Z" fill="white" fill-opacity="0.26"/>
<path d="M186.217 1252.47C189.873 1257.75 193.529 1263.03 197.168 1268.33C196.486 1268.8 195.787 1269.27 195.105 1269.74C191.417 1264.44 187.728 1259.15 184.04 1253.85C184.771 1253.4 185.486 1252.93 186.217 1252.47Z" fill="white" fill-opacity="0.26"/>
<path d="M641.955 1253.17C638.868 1257.73 633.847 1259.44 627.706 1257.54C632.125 1256.19 636.545 1254.83 641.955 1253.17Z" fill="white" fill-opacity="0.26"/>
<path d="M226.512 1224.32C224.497 1221.07 222.483 1217.82 220.468 1214.56C221.118 1214.15 221.752 1213.74 222.401 1213.34L228.608 1223C227.91 1223.44 227.211 1223.88 226.512 1224.32Z" fill="white" fill-opacity="0.26"/>
<path d="M526.904 1216.73C527.846 1220.11 528.788 1223.51 529.747 1226.89C529.016 1227.1 528.285 1227.32 527.553 1227.54C526.579 1224.12 525.62 1220.73 524.645 1217.32C525.393 1217.12 526.156 1216.93 526.904 1216.72V1216.73Z" fill="white" fill-opacity="0.26"/>
<path d="M1795.7 1243.28C1793.01 1241.91 1790.33 1240.53 1786.85 1238.76C1791.43 1237.22 1793.92 1238.4 1795.7 1243.28Z" fill="white" fill-opacity="0.26"/>
<path d="M494.781 1268.78C494.002 1266.26 493.222 1263.76 492.442 1261.24C493.108 1261.02 493.758 1260.8 494.424 1260.58C495.285 1263.06 496.13 1265.56 496.991 1268.05C496.26 1268.29 495.513 1268.54 494.781 1268.78Z" fill="white" fill-opacity="0.26"/>
<path d="M1915.09 919.068V908.655C1915.52 908.655 1915.94 908.639 1916.36 908.623V919.036C1915.94 919.036 1915.52 919.052 1915.09 919.068Z" fill="white" fill-opacity="0.26"/>
<path d="M350.939 1168.54C346.828 1171.04 342.701 1173.52 338.59 1176.02C338.168 1175.36 337.762 1174.68 337.339 1174.01C341.434 1171.49 345.544 1168.96 349.639 1166.44C350.078 1167.14 350.5 1167.84 350.939 1168.54Z" fill="white" fill-opacity="0.26"/>
<path d="M247.683 1093.31C243.491 1095.19 239.299 1097.08 235.107 1098.96C234.782 1098.26 234.457 1097.58 234.132 1096.88C238.308 1094.9 242.468 1092.92 246.643 1090.92L247.683 1093.31Z" fill="white" fill-opacity="0.26"/>
<path d="M266.125 1140.64C276.913 1130.05 288.742 1121.13 304.86 1118.11C291.423 1125.93 278.782 1133.28 266.125 1140.64Z" fill="white" fill-opacity="0.26"/>
<path d="M328.679 1107.67C332.075 1106.3 335.471 1104.94 338.867 1103.57C339.143 1104.29 339.435 1105 339.711 1105.73C336.299 1107.05 332.887 1108.38 329.475 1109.7C329.215 1109.02 328.939 1108.35 328.679 1107.67Z" fill="white" fill-opacity="0.26"/>
<path d="M717.622 1190.69C727.874 1185.25 738.143 1179.79 748.298 1174.4C747.16 1179.29 726.542 1190.95 717.622 1190.69Z" fill="white" fill-opacity="0.26"/>
<path d="M655.928 1207.57C649.039 1211.19 641.663 1213.03 633.864 1213.44C633.717 1212.9 633.555 1212.36 633.409 1211.83C640.753 1209.86 648.113 1207.88 655.457 1205.91C655.62 1206.47 655.766 1207.02 655.928 1207.57Z" fill="white" fill-opacity="0.26"/>
<path d="M690.423 1199.04C693.331 1198.34 696.256 1197.63 699.164 1196.93C699.343 1197.61 699.521 1198.3 699.7 1198.96C696.792 1199.77 693.9 1200.59 690.991 1201.4C690.796 1200.62 690.601 1199.82 690.423 1199.04Z" fill="white" fill-opacity="0.26"/>
<path d="M151.561 1082.16C149.042 1083.41 146.54 1084.65 144.021 1085.9C143.713 1085.27 143.388 1084.65 143.079 1084.02L150.602 1080.26C150.927 1080.9 151.236 1081.53 151.561 1082.16Z" fill="white" fill-opacity="0.26"/>
<path d="M404.589 1210.98C407.221 1209.33 409.837 1207.67 412.47 1206.01C412.876 1206.66 413.282 1207.31 413.704 1207.98C411.072 1209.62 408.424 1211.26 405.792 1212.88C405.402 1212.25 404.996 1211.62 404.606 1210.98H404.589Z" fill="white" fill-opacity="0.26"/>
<path d="M577.646 1121.07C577.386 1123.52 577.126 1125.97 576.866 1128.44C576.167 1128.38 575.469 1128.31 574.786 1128.23C575.03 1125.78 575.257 1123.31 575.501 1120.86C576.216 1120.92 576.947 1121 577.662 1121.07H577.646Z" fill="white" fill-opacity="0.26"/>
<path d="M618.136 1122.56V1140.37C615.081 1136.96 614.821 1129.08 618.136 1122.56Z" fill="white" fill-opacity="0.26"/>
<path d="M131.478 977.987C131.933 982.178 132.388 986.385 132.843 990.576C132.128 990.658 131.429 990.739 130.715 990.82C130.178 986.629 129.642 982.454 129.106 978.263C129.886 978.166 130.682 978.084 131.462 977.987H131.478Z" fill="white" fill-opacity="0.26"/>
<path d="M293.064 956.219H319.548C314.04 960.605 299.985 961.093 293.064 956.219Z" fill="white" fill-opacity="0.26"/>
<path d="M165.582 964.033C166.119 966.681 166.671 969.329 167.207 971.977C166.541 972.123 165.891 972.269 165.225 972.399C164.591 969.751 163.958 967.119 163.34 964.472C164.088 964.325 164.835 964.179 165.582 964.033Z" fill="white" fill-opacity="0.26"/>
<path d="M202.709 1016.02C213.416 1025.96 225.261 1034.11 239.738 1039.38C230.379 1041.58 208.087 1027.47 202.709 1016.02Z" fill="white" fill-opacity="0.26"/>
<path d="M1497.38 1248.59C1507.09 1244.35 1516.06 1240.45 1525.05 1236.54C1522.43 1242.25 1506.62 1249.38 1497.38 1248.59Z" fill="white" fill-opacity="0.26"/>
<path d="M1436.84 1178.09C1432.58 1179.03 1428.32 1179.97 1424.08 1180.91C1423.92 1180.18 1423.76 1179.47 1423.59 1178.74C1427.83 1177.76 1432.09 1176.8 1436.33 1175.83C1436.51 1176.58 1436.67 1177.34 1436.85 1178.09H1436.84Z" fill="white" fill-opacity="0.26"/>
<path d="M1388.58 1018.83C1387.47 1009.89 1386.43 1001.48 1385.41 993.224C1390.37 996.912 1392.33 1011.08 1388.58 1018.83Z" fill="white" fill-opacity="0.26"/>
<path d="M1415.03 1145.47C1412.46 1146.33 1409.88 1147.17 1407.31 1148.04C1407.09 1147.4 1406.84 1146.77 1406.61 1146.13L1414.22 1143.16C1414.49 1143.93 1414.77 1144.69 1415.05 1145.47H1415.03Z" fill="white" fill-opacity="0.26"/>
<path d="M1456.04 1104.06C1464.38 1092.43 1471.61 1080.3 1475.85 1066.55C1474.64 1081.89 1467.45 1094.1 1456.04 1104.06Z" fill="white" fill-opacity="0.26"/>
<path d="M1487.12 1120.92C1490.19 1116.5 1493.26 1112.1 1496.32 1107.68C1496.84 1108.04 1497.36 1108.38 1497.88 1108.74C1496.03 1114 1492.48 1118.15 1488.86 1122.24C1488.28 1121.8 1487.69 1121.36 1487.12 1120.92Z" fill="white" fill-opacity="0.26"/>
<path d="M1615.92 1248.26C1620.01 1247.61 1624.13 1246.98 1628.22 1246.33L1628.58 1248.46C1624.52 1249.21 1620.44 1249.97 1616.37 1250.72C1616.23 1249.9 1616.08 1249.08 1615.92 1248.26Z" fill="white" fill-opacity="0.26"/>
<path d="M1539.73 1110.33C1543.03 1110.49 1546.33 1110.66 1549.64 1110.82C1549.63 1111.39 1549.61 1111.97 1549.6 1112.54H1539.67C1539.7 1111.81 1539.72 1111.06 1539.75 1110.33H1539.73Z" fill="white" fill-opacity="0.26"/>
<path d="M1574.24 1148.12H1559.75C1562.82 1145.47 1569.42 1145.22 1574.24 1148.12Z" fill="white" fill-opacity="0.26"/>
<path d="M1819.88 1020.69C1817.51 1007.7 1815.12 994.686 1812.75 981.691C1813.4 981.577 1814.05 981.447 1814.7 981.333C1818.22 994.134 1820.66 1007.11 1821.98 1020.32C1821.28 1020.45 1820.58 1020.58 1819.86 1020.69H1819.88Z" fill="white" fill-opacity="0.26"/>
<path d="M1850.07 946.375C1851.71 957.535 1853.33 968.695 1854.98 979.871C1851.21 976.85 1847.52 953.718 1848.57 946.603C1849.08 946.521 1849.57 946.456 1850.07 946.375Z" fill="white" fill-opacity="0.26"/>
<path d="M1787.12 1150.93C1791.41 1153.82 1795.69 1156.71 1801.08 1160.35C1794.31 1160.35 1788.39 1156.5 1787.12 1150.93Z" fill="white" fill-opacity="0.26"/>
<path d="M1711.86 1038.08C1714.48 1037.57 1717.11 1037.07 1719.73 1036.56L1720.17 1038.58C1717.57 1039.2 1714.97 1039.81 1712.37 1040.43C1712.19 1039.65 1712.03 1038.86 1711.85 1038.08H1711.86Z" fill="white" fill-opacity="0.26"/>
<path d="M1834.44 906.219C1830.43 905.91 1826.41 905.601 1821.8 905.26C1826.95 901.15 1833.38 902.044 1834.32 906.365L1834.44 906.235V906.219Z" fill="white" fill-opacity="0.26"/>
<path d="M980.35 1129.78C982.755 1120.66 987.174 1113.63 994.193 1106.87C989.352 1114.9 985.078 1121.96 980.35 1129.78Z" fill="white" fill-opacity="0.26"/>
<path d="M997.46 1137.74C1003.84 1133.41 1010.23 1129.09 1016.62 1124.77C1016.88 1125.15 1017.12 1125.52 1017.38 1125.91C1010.99 1130.21 1004.61 1134.54 998.223 1138.84C997.979 1138.47 997.72 1138.09 997.476 1137.72L997.46 1137.74Z" fill="white" fill-opacity="0.26"/>
<path d="M934.58 1040.3C931.509 1029.21 928.438 1018.11 925.92 1009C930.762 1017.33 935.799 1027.83 934.58 1040.28V1040.3Z" fill="white" fill-opacity="0.26"/>
<path d="M950.552 1225.02H938.512C938.512 1224.81 938.479 1224.6 938.479 1224.4H950.6C950.6 1224.61 950.568 1224.82 950.552 1225.02Z" fill="white" fill-opacity="0.26"/>
<path d="M939.341 1132.15C934.629 1129.43 929.917 1126.72 925.205 1123.99C925.432 1123.6 925.66 1123.21 925.887 1122.81C930.648 1125.52 935.409 1128.25 940.153 1130.96L939.324 1132.13L939.341 1132.15Z" fill="white" fill-opacity="0.26"/>
<path d="M908.681 1063.3C913.458 1065.71 918.251 1068.11 923.028 1070.52C922.833 1070.92 922.622 1071.31 922.427 1071.72C917.65 1069.31 912.873 1066.89 908.08 1064.49L908.681 1063.3Z" fill="white" fill-opacity="0.26"/>
<path d="M1034.47 1208.97L1019.13 1215.71C1018.96 1215.29 1018.78 1214.87 1018.58 1214.46C1023.7 1212.22 1028.82 1209.99 1033.94 1207.75C1034.11 1208.16 1034.29 1208.56 1034.47 1208.98V1208.97Z" fill="white" fill-opacity="0.26"/>
<path d="M1023.23 1185.88C1019.1 1187.93 1014.96 1189.98 1010.83 1192.03C1010.64 1191.64 1010.44 1191.23 1010.25 1190.84C1014.37 1188.78 1018.5 1186.73 1022.64 1184.67C1022.84 1185.07 1023.05 1185.48 1023.24 1185.88H1023.23Z" fill="white" fill-opacity="0.26"/>
</svg>
