<svg width="207" height="170" viewBox="0 0 207 170" fill="none" xmlns="http://www.w3.org/2000/svg">
<path d="M0.0365059 40.5468C2.38875 39.5564 4.47345 38.7778 6.46841 37.8245C9.01942 36.6107 11.4594 35.1915 14.0308 34.023C15.0073 33.5745 16.2121 33.4342 17.3174 33.4055C19.6743 33.3571 22.0556 33.6706 24.3829 33.4733C26.9431 33.2532 30.0198 33.3069 32.2206 34.4336C35.8804 36.3181 38.3488 39.5141 42.6927 39.9172C44.5424 40.0881 46.4254 40.217 48.2715 40.064C50.8467 39.8522 52.706 38.464 54.1502 36.4106C54.6654 35.6766 55.6702 35.0165 56.5692 34.8282C58.5941 34.3992 60.5323 34.8919 62.553 35.5514C67.3133 37.1054 72.4314 38.2323 76.9946 35.6543C79.9996 33.9529 82.7765 32.0685 86.1439 30.8821C89.298 29.7784 91.2966 27.2362 91.4312 23.7422C91.4625 22.9716 91.5861 22.2066 91.6866 21.4402C92.0867 18.4037 93.5415 16.0493 96.5664 14.7832C99.576 13.5162 101.887 11.6845 103.227 8.6683C103.7 7.6081 105.125 6.89255 106.198 6.1262C108.223 4.68181 110.406 3.43091 112.336 1.88517C114.364 0.27171 115.97 0.383774 116.406 2.86023C117.318 8.06564 121.129 10.1213 125.668 11.6471C128.671 12.6532 131.656 13.7023 134.696 14.5929C137.76 15.4849 140.738 14.9959 143.615 13.7576C144.399 13.4226 145.248 13.165 146.09 13.0248C148.476 12.6323 150.553 12.9936 151.818 15.3069C152.186 15.984 152.801 16.5363 153.296 17.1549C155.744 20.1874 158.876 21.216 162.739 20.1405C163.752 19.8561 164.761 19.5053 165.804 19.3552C167.789 19.0708 168.499 19.8496 167.924 21.6908C167.722 22.3481 168.555 24.1678 168.076 24.6905C166.382 26.5229 164.736 27.3026 165.761 29.6087C166.706 31.7187 166.858 33.6776 165.165 35.7601C163.513 37.7936 162.976 40.2993 164.765 42.7327C166.719 45.3894 169.136 47.1545 172.78 46.625C173.091 46.5776 173.408 46.5747 173.699 46.482C179.332 44.5868 184.476 45.9286 189.442 48.6723C193.288 50.7962 197.353 51.4694 201.692 50.305C203.002 49.9577 204.37 49.7978 205.845 49.5267C206.929 52.2705 207.135 55.1009 206.902 57.9267C206.145 66.9892 205.288 76.0309 203.441 84.9759C201.255 95.5778 199.466 106.255 197.47 116.898C195.347 128.24 193.102 139.559 191.071 150.913C190.111 156.3 189.519 161.745 188.759 167.158C188.677 167.742 188.542 168.315 188.33 169.391C186.855 168.646 185.464 168.165 184.349 167.339C181.933 165.552 179.626 163.632 177.335 161.698C174.479 159.288 171.6 157.775 167.487 159.151C166.007 159.643 163.862 158.483 162.085 157.882C161.843 157.801 158.934 153.517 160.66 153.438C163.121 148.223 164.064 145.96 167.705 141.406C170.753 137.595 174.144 131.735 176.88 127.715C179.813 123.39 181.589 121.234 180.627 116.225C180.393 114.996 181.427 112.791 180.412 111.965C177.83 109.866 174.891 108.305 171.491 107.62C169.607 107.241 167.751 106.673 165.919 106.083C163.557 105.329 161.693 103.988 160.177 102.005C154.65 94.7615 141.974 93.5517 135.1 99.4918C134.407 100.09 133.679 100.649 132.965 101.224C129.168 104.282 125.395 104.51 121.151 101.95C120.727 101.696 120.27 101.462 119.927 101.133C116.589 97.8843 112.412 97.7856 108.234 98.5918C106.399 98.9441 104.455 99.9592 103.098 101.201C98.7662 105.184 93.8651 106.844 87.92 105.483C87.311 105.343 86.6787 105.334 86.0783 105.18C81.9983 104.116 78.3255 104.865 74.5644 106.689C69.9841 108.913 65.0178 109.738 59.923 107.972C59.2805 107.749 58.6488 107.476 58.0415 107.181C54.0686 105.241 52.7485 102.446 54.2544 98.4836C55.5037 95.1896 54.7773 92.2762 52.861 89.5114C51.0725 86.931 48.5796 85.404 45.2383 85.2677C43.5598 85.2028 41.8586 85.1291 40.2186 84.809C37.0532 84.1904 36.3165 82.5933 37.6931 79.8736C38.255 78.7526 38.9652 77.6037 39.1068 76.413C39.3041 74.8137 39.5928 72.8521 38.8442 71.5781C35.9609 66.6872 32.0701 62.8831 25.6394 62.5301C22.4699 62.36 19.277 62.1959 16.1605 61.6612C11.9212 60.9334 8.11541 59.165 4.85673 56.3924C2.77965 54.6259 1.90206 52.4243 2.08109 49.8528C2.29788 46.6581 2.21669 43.541 0.0351717 40.5688L0.0365059 40.5468Z" fill="#000B77"/>
</svg>
