<svg width="26" height="27" viewBox="0 0 26 27" fill="none" xmlns="http://www.w3.org/2000/svg">
<path d="M8.69678 27C8.69678 27 8.65021 26.6511 8.62984 26.5609C8.60656 26.4708 8.53961 26.369 8.46103 26.2557C8.38245 26.1423 8.28058 26.0289 8.28058 26.0289L8.15543 25.7236C8.03028 25.4183 8.15543 25.52 8.202 25.3834C8.24857 25.2467 8.12342 25.0345 8.06521 24.9094C8.00991 24.7844 7.68102 24.7408 7.66938 24.6826C7.65774 24.6274 7.66938 24.4559 7.69266 24.1971C7.71595 23.9383 7.8411 23.9935 7.91968 23.7784C7.99826 23.5632 7.93132 23.3364 7.90804 23.2259C7.88475 23.1125 7.8411 23.0776 7.70431 22.909C7.56751 22.7404 7.36378 22.9555 7.36378 22.9555C7.36378 22.9555 7.20661 22.8305 7.1193 22.7287C7.03198 22.627 7.00288 22.4816 7.01452 22.2781C7.02616 22.0745 7.13967 21.8594 7.11639 21.7576C7.0931 21.6558 7.00288 21.4523 6.94758 21.3854C6.89228 21.3185 6.76713 21.3389 6.68855 21.3622C6.60996 21.3854 6.57504 21.3854 6.35966 21.3738C6.14429 21.3622 5.82704 21.429 5.82704 21.429C5.82704 21.429 5.60003 21.4639 5.18092 21.4174C4.76181 21.3709 4.80837 21.4726 4.80837 21.4726C4.80837 21.4726 4.69487 21.6209 4.60464 21.7111C4.51442 21.8012 4.51441 21.746 4.31068 21.6645C4.10695 21.586 3.91486 21.6645 3.91486 21.6645C3.91486 21.6645 3.72276 21.7896 3.57433 21.8216C3.42589 21.8565 3.38224 21.8099 3.21343 21.7314C3.04462 21.6529 3.24835 21.461 3.16686 21.2691C3.08828 21.0772 2.9282 20.862 2.9282 20.862C2.9282 20.862 2.80305 20.7603 2.71283 20.33C2.6226 19.8996 2.7594 20.1148 2.79141 20.0247C2.82634 19.9345 2.88163 19.7194 2.86999 19.4926C2.85835 19.2658 2.64298 19.0622 2.64298 19.0622L2.30245 18.7453C2.30245 18.7453 1.98521 18.6087 1.89498 18.4953C1.80476 18.3819 1.91826 18.3034 1.95028 18.19C1.9852 18.0766 1.97356 17.9196 1.91535 17.8963C1.86006 17.873 1.81349 17.9079 1.58647 17.8294C1.35945 17.7509 1.39438 17.7509 1.24594 17.1287C1.09751 16.5065 1.21102 16.7885 1.2343 16.6664C1.25758 16.5414 1.35945 16.5094 1.48169 16.4192C1.60684 16.3291 2.03468 16.4425 2.03468 16.4425C2.03468 16.4425 2.28207 16.4774 2.45961 16.4076C2.63715 16.3407 2.5673 16.1256 2.55566 15.9569C2.54402 15.7883 2.52073 15.8435 2.45961 15.8086C2.39849 15.7737 2.45961 15.4132 2.45961 15.4132V15.1748C2.45961 15.1748 2.59932 15.073 2.7594 15.0381C2.91656 15.0032 2.99805 15.0614 3.20179 15.0934C3.40552 15.1283 3.53067 15.1399 3.66456 15.1283C3.80135 15.1166 3.89157 15.1283 4.04874 15.1515C4.20591 15.1748 4.22919 15.3202 4.25247 15.355C4.27576 15.3899 4.35434 15.4452 4.42128 15.4917C4.48822 15.5382 4.59009 15.4917 4.60173 15.4568C4.61337 15.4219 4.60173 15.3318 4.60173 15.1166C4.60173 14.9015 4.60173 14.8346 4.6483 14.6194C4.69487 14.4043 4.79673 14.349 4.88696 14.224C4.97718 14.099 4.87532 13.942 4.86367 13.7501C4.85203 13.5582 4.78509 13.4448 4.73852 13.3314C4.69195 13.218 4.59009 13.0493 4.51151 12.9243C4.43292 12.7993 4.47658 12.8574 4.25247 12.776C4.02545 12.6975 3.86829 12.6742 3.86829 12.6742C3.86829 12.6742 3.65291 12.651 3.51903 12.5608C3.38224 12.4707 3.40552 12.4242 3.27164 12.2119C3.13485 11.9968 2.86417 11.6246 2.86417 11.6246C2.86417 11.6246 2.42178 11.1507 2.26461 11.014C2.10745 10.8773 1.25758 10.1446 1.25758 10.1446C1.25758 10.1446 0.9287 9.89458 0.704593 9.78409C0.477575 9.67069 0.364067 9.56892 0.364067 9.56892C0.364067 9.56892 0.105034 9.29851 0.0351829 9.11824C-0.0317583 8.93797 0.000255808 8.84784 0.102123 8.71118C0.20399 8.57452 0.419365 8.58615 0.474664 8.50765C0.529963 8.42914 0.756981 8.26922 0.756981 8.26922C0.756981 8.26922 0.847206 8.07732 0.882132 7.94066C0.917058 7.80401 0.85885 7.78365 0.815192 7.68189C0.768625 7.58012 0.678398 7.5336 0.588173 7.44346C0.497948 7.35333 0.474664 7.27482 0.474664 7.21667C0.474664 7.15852 0.486307 7.05966 0.541606 6.94626C0.596905 6.83287 0.631831 7.00151 0.666757 7.0364C0.701683 7.07129 1.09751 7.1149 1.09751 7.1149L1.4002 6.68167L1.69125 6.39091C1.81058 6.43452 1.75819 6.38219 1.83095 6.33276C1.90371 6.28333 1.88916 6.231 1.96192 6.1176C2.03468 6.0042 2.11036 6.02746 2.11036 6.02746C2.11036 6.02746 2.22969 5.98094 2.43633 6.00129C2.64298 6.02164 2.51782 6.14668 2.55566 6.32695C2.5935 6.51013 2.55857 6.51885 2.46252 6.62643C2.36357 6.73692 2.41887 6.72528 2.25006 6.85903C2.08125 6.99569 2.18312 6.79216 2.07543 6.75727C1.97065 6.72238 1.97647 6.76599 1.88916 6.84741C1.79893 6.92882 1.85423 6.95789 1.83386 7.17306C1.81349 7.38822 1.82513 7.43474 1.8455 7.67026C1.86588 7.90287 1.98521 7.8389 2.27043 7.86507C2.55566 7.89123 2.74193 7.89996 2.93693 7.83599C3.13194 7.77202 3.0097 7.67026 3.13194 7.56849C3.25418 7.46672 3.26873 7.34751 3.22507 7.08001C3.18141 6.81252 3.24545 6.78634 3.32694 6.66423C3.40843 6.54211 3.38515 6.52757 3.33858 6.37638C3.29201 6.22518 3.2338 6.30078 3.19888 6.13504C3.16395 5.96931 3.16977 5.60586 3.17268 5.4314C3.17559 5.25695 3.25418 5.26567 3.05917 5.01561C2.86417 4.76556 2.99514 4.78591 3.05626 4.57075C3.11447 4.35559 3.16686 4.35559 3.20179 4.10554C3.23671 3.85548 3.24836 3.98341 3.10283 3.76534C2.95731 3.55018 2.97186 3.7072 2.81469 3.47749C2.65753 3.24779 2.69245 3.14312 2.69245 3.14312C2.69245 3.14312 2.61969 3.08788 2.53238 3.08788C2.44506 3.08788 2.3461 3.07915 2.29372 3.00646C2.24424 2.93377 2.24715 2.89597 2.14528 2.8291C2.04342 2.76222 2.07252 2.8291 1.98521 2.93377C1.89498 3.03844 1.85423 3.01809 1.71744 2.93377C1.58065 2.84945 1.70871 2.82037 1.76401 2.68372C1.81931 2.54706 1.88334 2.59358 2.07252 2.50926C2.26461 2.42494 2.15401 2.44239 2.15693 2.28829C2.15984 2.13709 2.14819 2.13127 2.25588 2.08184C2.36066 2.03242 2.83798 1.98298 3.04462 1.98008C3.25127 1.97717 3.3706 1.99752 3.48992 1.92193C3.60925 1.84633 3.64709 1.74456 4.00217 1.57301C4.35725 1.40437 4.13023 1.50033 4.54061 1.1834C4.95099 0.866468 4.69196 1.04674 4.97427 0.869375C5.25368 0.692011 5.24495 0.700735 5.41667 0.520463C5.58838 0.340192 5.25659 0.119212 5.45159 0L5.85324 0.159919L6.09772 0.613504C6.09772 0.613504 6.21123 1.20084 6.21123 1.25899C6.21123 1.31714 6.32474 1.65443 6.35966 1.76782C6.39459 1.88122 6.43825 2.11674 6.52847 2.20978C6.6187 2.30282 6.6187 2.31155 6.9243 2.40168C7.2299 2.49182 7.24154 2.43657 7.42199 2.52671C7.60244 2.61684 7.73923 2.53834 7.75087 2.76513C7.76251 2.99193 7.7043 3.1373 7.75087 3.29722C7.79744 3.45423 7.90804 3.66939 7.75087 3.88456C7.59371 4.09972 7.45692 4.2451 7.45692 4.2451C7.45692 4.2451 6.97086 4.61728 6.93594 4.68706C6.90101 4.75393 6.83407 4.81209 6.74385 4.91385C6.65362 5.01562 6.43825 5.42268 6.43825 5.42268L6.35966 5.88499L6.16757 6.22518C6.16757 6.22518 6.08899 6.29206 6.03078 6.47233C5.97548 6.6526 5.97548 7.3417 5.96384 7.38822C5.95219 7.43474 5.77174 7.78365 5.59129 7.96392C5.41084 8.1442 5.26241 8.48439 5.24204 8.71118C5.22166 8.93797 5.21875 9.12987 5.21875 9.32177C5.21875 9.51368 5.17219 9.88585 5.21875 10.0574C5.26532 10.226 5.26532 10.4645 5.38756 10.5895C5.51271 10.7145 5.7048 11.0314 5.7048 11.0314C5.7048 11.0314 5.8416 11.2582 5.93182 11.3804C6.02205 11.5025 6.46444 12.0578 6.46444 12.0578H10.379C10.379 12.0578 11.3861 10.543 11.4094 10.4994C11.4326 10.4528 11.4879 9.99052 11.4879 9.99052C11.4879 9.99052 11.5229 9.77536 11.5782 9.59509C11.6335 9.41482 11.7353 9.26653 11.7353 9.26653C11.7353 9.26653 11.8139 9.1415 11.9391 9.08626C12.0642 9.03101 12.2097 8.9845 12.2097 8.9845C12.2097 8.9845 12.4804 9.13278 12.5503 9.16477C12.6172 9.19966 12.6521 9.2549 12.8093 9.26653C12.9665 9.27816 13.0363 9.26653 13.0363 9.26653C13.0363 9.26653 13.0596 9.19965 13.0596 9.03974C13.0596 8.87982 13.1149 8.69082 13.1149 8.69082C13.1149 8.69082 13.1702 8.54254 13.2953 8.48729C13.4205 8.43205 13.4525 8.42042 13.6009 8.39716C13.7494 8.3739 13.8512 8.35064 13.8512 8.35064C13.8512 8.35064 14.0201 8.35064 14.1336 8.09186C14.2471 7.83308 14.0433 8.02498 14.3257 7.67316C14.608 7.32425 14.5177 7.458 14.7098 7.28936C14.9019 7.12072 14.9689 6.94917 14.9689 6.94917C14.9689 6.94917 14.867 6.85904 15.0242 6.72238C15.1813 6.58572 15.1726 6.53048 15.3065 6.56537C15.4433 6.60026 15.4549 6.63224 15.6674 6.63224C15.8799 6.63224 16.0632 6.67876 16.0632 6.67876C16.0632 6.67876 16.5056 6.74564 16.6511 6.67876C16.7996 6.61189 16.8985 6.49849 16.8985 6.49849L17.1692 6.48686C17.1692 6.48686 17.3846 6.52175 17.4864 6.45197C17.5883 6.3851 17.6116 6.26879 17.7251 6.11178C17.8386 5.95477 17.9172 5.72798 17.9172 5.72798C17.9172 5.72798 18.1093 5.57969 18.3683 5.6611C18.6273 5.73961 18.7874 5.81812 18.7874 5.81812L19.1047 6.21355L19.4656 6.54211C19.4656 6.54211 19.8148 6.78053 19.94 6.85903C20.0651 6.93754 19.94 6.53048 20.2106 7.03931C20.4813 7.54814 20.5512 7.61501 20.5599 7.74004C20.5716 7.86507 20.6734 7.9552 20.6152 8.13547C20.5599 8.31574 20.4901 8.41751 20.4668 8.60941C20.4435 8.80131 20.8393 9.06009 20.8742 9.10661C20.9092 9.15314 21.0227 9.22001 21.043 9.33341C21.0663 9.4468 21.043 9.57183 21.043 9.57183C21.043 9.57183 20.7724 9.72884 20.6705 9.78699C20.5686 9.84514 20.5017 9.944 20.5017 9.944C20.5017 9.944 20.4551 10.1475 20.4668 10.2377C20.4784 10.3278 20.4784 10.4296 20.4784 10.4296L20.036 11.1855L20.2165 11.738C20.2165 11.738 20.3416 11.8863 20.4318 11.9415C20.5221 11.9968 20.7374 11.9415 20.8044 12.0549C20.8713 12.1683 20.9965 12.2236 20.9965 12.2236C20.9965 12.2236 20.9383 11.8834 21.0518 11.8834C21.1653 11.8834 21.337 11.8601 21.337 11.8601C21.337 11.8601 21.2817 11.4647 21.3254 11.4298C21.3719 11.3949 21.5524 11.3164 21.6426 11.3745C21.7328 11.4298 21.791 11.3513 21.8347 11.5316C21.8813 11.7118 22.0268 11.7583 21.9016 11.9154C21.7765 12.0724 21.6746 12.2207 21.6746 12.2207C21.6746 12.2207 21.6281 12.3224 21.6193 12.3689C21.6077 12.4155 21.6077 12.526 21.6077 12.526C21.6077 12.526 21.663 12.6277 21.6077 12.7411C21.5524 12.8545 21.5175 13.0232 21.5175 13.0232C21.5175 13.0232 21.4622 13.1249 21.4622 13.2732C21.4622 13.4215 21.4971 13.4884 21.5175 13.5785C21.5407 13.6686 21.4389 13.3314 21.596 13.8286C21.7532 14.3258 21.954 14.506 21.9511 14.5845C21.9482 14.663 21.9424 14.7532 21.9511 14.8113C21.9599 14.8666 22.7952 14.8113 22.7952 14.8113L24.9227 12.7324H25.1876C25.1876 12.7324 25.272 12.9417 25.3244 12.9912C25.3738 13.0406 25.3244 13.3633 25.3244 13.4651C25.3244 13.5669 25.3913 13.9071 25.4088 13.9914C25.4262 14.0757 25.5106 14.256 25.5601 14.3025C25.6096 14.349 25.7639 14.4333 25.7639 14.5526C25.7639 14.6718 25.8133 14.6805 25.7639 14.8375C25.7144 14.9945 26.3751 14.8927 25.6794 15.1951C24.9838 15.5004 24.7801 15.5353 24.7801 15.5353L24.5094 15.7563C24.5094 15.7563 24.3726 15.8755 24.2388 16.0616C24.102 16.2477 24.102 16.332 23.8837 16.5355C23.6625 16.7391 23.7149 16.7885 23.4413 16.96C23.1706 17.1287 22.9145 17.3148 22.9145 17.3148L22.3382 17.6201C22.3382 17.6201 22.2887 17.5852 21.8463 17.9603C21.404 18.3353 21.3545 18.5883 21.4389 18.8064C21.5233 19.0274 21.6077 19.2309 21.6077 19.2309L21.6746 19.638L21.4039 19.8589L20.9965 20.1119L20.8946 20.3154L20.7316 20.7341V20.1119L20.4668 20.7341L20.1059 21.051C20.1059 21.051 19.71 21.5715 19.745 21.7169C19.7799 21.8652 19.8934 21.9989 19.9254 22.2025C19.9603 22.406 20.1408 22.3595 19.9603 22.7113C19.7799 23.0602 19.6547 23.1183 19.7013 23.3568C19.7479 23.5952 19.8265 23.7289 19.8148 23.8074C19.8032 23.886 19.5063 24.4384 19.5063 24.4384H19.1192C19.1192 24.4384 19.0348 24.6681 19.0232 24.6972C19.0115 24.7263 18.866 24.9065 18.866 24.9065C18.866 24.9065 18.5313 24.985 18.4818 24.9734C18.4323 24.9618 18.2723 24.8716 18.182 24.8222C18.0918 24.7728 18.0685 24.6914 17.8473 24.6797C17.6261 24.6681 17.4049 24.6681 17.3729 24.6739C17.338 24.6797 17.0382 24.6855 17.012 24.703C16.9829 24.7204 16.8258 24.8048 16.7675 24.8949C16.7093 24.985 16.6482 25.1333 16.5347 25.1653C16.4212 25.1973 16.2524 25.1711 16.2058 25.2002C16.1593 25.2293 16.0254 25.3572 16.0254 25.3572L15.9788 25.7526C15.9788 25.7526 15.8595 26.0056 15.8158 26.0579C15.7693 26.1074 15.5277 26.2382 15.5277 26.2382C15.5277 26.2382 15.3851 26.183 15.2803 26.2557C15.1726 26.3283 15.1493 26.3865 15.0998 26.4417C15.0504 26.497 15.3531 26.5435 14.8961 26.5987C14.4392 26.654 14.3373 26.5987 14.3373 26.5987C14.3373 26.5987 14.218 26.2935 14.1889 26.1742C14.1598 26.055 14.1161 25.8631 14.1161 25.8631L13.8949 25.7439C13.8949 25.7439 13.7086 25.6421 13.7814 25.5462C13.8542 25.4502 13.9065 25.3601 13.9065 25.3601C13.9065 25.3601 13.924 25.2758 13.86 25.2176C13.7989 25.1624 13.6155 25.0868 13.6009 25.081C13.5835 25.0752 13.3244 25.142 13.2721 25.1944C13.2226 25.2438 13.0625 25.2496 13.0625 25.2496L12.8035 25.113C12.8035 25.113 12.7074 24.8629 12.623 24.8135C12.5386 24.7641 12.3465 24.6448 12.2883 24.6507C12.2301 24.6565 12.137 24.7524 12.137 24.7524C12.137 24.7524 11.9856 24.9094 11.9856 24.9734C11.9856 25.0374 11.9973 25.3514 11.9973 25.3514C11.9973 25.3514 11.9914 25.7992 12.0322 25.898C12.0729 25.9998 12.1341 26.2091 12.1166 26.2644C12.0991 26.3196 12.0206 26.3603 11.9536 26.372C11.8867 26.3836 11.7382 26.3894 11.7382 26.3894C11.7382 26.3894 11.5229 26.3051 11.4792 26.2935C11.4326 26.2818 11.2813 26.2033 11.1329 26.2033C10.9844 26.2033 10.8447 26.2498 10.7428 26.2818C10.641 26.3138 10.4372 26.4068 10.4372 26.4068C10.4372 26.4068 10.2102 26.5464 10.1433 26.6191C10.0763 26.6889 9.74455 26.6656 9.7562 26.779L8.69387 26.9855L8.69678 27Z" fill="#000B77"/>

</svg>
