<svg width="131" height="40" viewBox="0 0 131 40" fill="none" xmlns="http://www.w3.org/2000/svg">
<path d="M0.185072 32.7015C2.15446 31.1938 3.65606 29.5583 5.55504 28.6804C10.3485 26.4576 12.6825 22.6573 14.1855 18.0732C15.1642 15.0921 16.4599 12.1991 17.5968 9.26578C18.0175 8.17597 18.7025 7.91193 19.9819 8.08114C28.2798 9.21052 36.4928 9.08191 44.2992 5.81953C48.4255 4.09873 52.3783 3.91052 56.4563 6.04457C59.4722 7.6177 62.6079 7.47929 65.6059 5.88872C67.3551 4.95582 69.0318 3.88866 70.7885 2.96386C72.1955 2.22411 73.6356 1.47109 75.1416 0.958881C77.2482 0.246259 79.2473 0.375064 81.2289 1.72508C84.8823 4.21535 89.1152 4.99138 93.3306 3.79545C97.5049 2.6123 100.562 3.7678 103.292 6.60695C107.644 11.1334 111.962 15.696 116.339 20.201C120.534 24.527 124.788 28.8106 129.009 33.1152C129.403 33.5211 129.798 33.9193 130.268 34.4062C128.797 36.074 127.315 37.3822 124.779 37.3354C121.14 37.2676 117.497 37.5357 113.856 37.4907C112.874 37.477 111.808 36.9846 110.936 36.4734C107.784 34.6246 104.792 32.5182 101.566 30.8178C98.6686 29.29 95.5457 29.4827 92.5193 30.7431C91.7584 31.0636 90.9355 31.3422 90.1076 31.4372C86.5849 31.8424 83.0354 32.5593 79.5209 32.4303C73.6909 32.2068 67.8514 31.6084 62.072 30.815C54.958 29.8338 48.0611 30.0574 41.403 32.7248C37.5287 34.2775 33.5713 35.2065 29.2749 34.946C24.9786 34.6856 20.9861 36.193 17.3758 38.0444C13.0915 40.2445 9.36043 39.5676 5.67231 37.2509C3.84786 36.1014 2.32413 34.5118 0.176136 32.7163L0.185072 32.7015Z" fill="#000B77"/>
</svg>
