<svg width="21" height="28" viewBox="0 0 21 28" fill="none" xmlns="http://www.w3.org/2000/svg">
<path d="M15.1199 27.3926C12.825 26.7508 10.6152 26.2214 8.46641 25.5013C6.00585 24.6752 4.6253 22.9493 4.10203 20.4978C3.24123 16.4977 2.75087 15.6033 0.167796 12.598C1.42906 11.5081 2.72515 10.4271 3.97516 9.28964C6.06333 7.39194 8.17807 5.52266 10.1654 3.53842C12.1151 1.59211 14.4568 0.76213 17.2223 0.990085C17.7218 1.03377 18.3823 1.45586 18.6324 1.8799C21.0263 5.90596 20.9919 10.2071 20.4612 14.6458C19.9088 19.3244 17.268 23.1056 15.1058 27.3918L15.1199 27.3926Z" fill="#000B77"/>
</svg>
