<svg width="78" height="144" viewBox="0 0 78 144" fill="none" xmlns="http://www.w3.org/2000/svg">
<path d="M7.30196 0.0137272C9.565 1.57495 10.5113 3.63204 10.8334 5.8331C11.7994 12.4438 16.2472 15.5388 22.6609 16.7911C23.1032 16.8785 23.5329 17.0409 23.9774 17.0905C25.7973 17.2614 26.8764 17.9177 26.8906 19.9258C26.898 20.858 27.5263 21.9641 28.2252 22.6958C30.1198 24.6664 30.2935 26.9418 29.5873 29.232C28.4736 32.8383 28.9623 36.2462 30.509 39.6047C31.928 42.6979 33.3637 45.7769 34.873 48.8301C35.3357 49.7671 36.0282 50.6045 36.6561 51.453C39.0856 54.7514 42.4024 56.5962 46.5994 57.2369C50.2502 57.7914 53.3871 59.3072 56.0072 61.9656C58.3032 64.3015 61.3629 65.5095 64.7168 66.084C73.6933 67.6431 75.4356 70.5438 76.0305 77.079C76.5017 82.2281 76.1621 87.4341 77.3793 92.5375C77.5697 93.3519 77.3476 94.2474 77.3676 95.1046C77.3951 96.6288 77.2632 97.7494 75.2309 98.3155C73.3043 98.8502 72.2653 100.696 72.1637 102.637C72.0776 104.321 72.0306 106.151 72.616 107.701C74.7999 113.469 74.3357 119.281 73.4941 125.123C73.2553 126.821 73.093 128.576 72.4855 130.16C71.801 131.959 70.8917 133.775 69.6508 135.26C67.8241 137.445 65.6152 139.341 63.5742 141.368C60.7685 144.145 59.1014 144.354 55.9785 142.476C54.9533 141.853 54.5035 141.099 54.8321 140.028C55.1398 139.039 55.5811 138.089 55.9515 137.119C56.5679 135.52 57.382 133.956 57.7379 132.304C58.3167 129.612 56.9254 127.513 54.2163 126.455C51.7649 125.495 49.7794 126.08 47.9827 128.296C47.525 128.859 47.0588 129.429 46.4889 130.13C44.9462 127.892 44.5202 125.821 45.8374 123.606C47.9828 119.987 49.0325 116.119 48.2373 111.965C47.031 105.628 43.7938 100.887 36.694 99.3505C36.4021 99.2873 36.1223 99.1568 35.6996 99.01C37.0449 97.1221 38.2598 95.5368 40.6399 94.7721C45.2937 93.2817 46.9008 89.4478 44.743 85.2267C43.3072 82.4127 43.0363 80.0254 45.0766 77.2176C47.9798 73.2275 45.9553 67.2041 41.0604 64.6274C39.1167 63.6006 36.8719 63.0555 34.7185 62.4553C31.0797 61.4394 30.0633 60.4082 29.5739 56.879C29.5033 56.3294 29.3447 55.782 29.3856 55.2391C29.7089 50.1684 27.2844 46.128 23.9925 42.4214C21.6436 39.7718 18.8288 38.215 14.9994 38.7631C14.4431 38.843 13.4797 38.2544 13.1675 37.7355C12.544 36.6827 12.1615 35.4778 11.8174 34.2981C11.0374 31.6072 9.08859 30.0044 6.63004 28.6359C4.65852 27.5392 2.92578 26.0632 1.13886 24.6899C0.879102 24.4923 0.866545 23.9083 0.882827 23.5078C1.10776 18.0828 1.07834 12.6348 1.72393 7.25795C2.096 4.15213 4.61962 1.94177 7.29308 0.0283364L7.30196 0.0137272Z" fill="#000B77"/>
</svg>
