<svg width="114" height="99" viewBox="0 0 114 99" fill="none" xmlns="http://www.w3.org/2000/svg">
<path d="M82.5993 22.8172C83.1333 23.3397 83.718 23.827 84.2089 24.393C86.5429 27.0849 89.9188 27.5193 92.2981 24.9292C94.4268 22.6073 96.6715 20.5069 99.144 18.5121C102.79 15.5622 104.908 7.02032 101.256 1.79752C101.011 1.44564 100.825 1.05137 100.29 0.13816C103.052 0.305556 105.541 0.0428306 107.723 0.703593C109.865 1.35428 111.701 2.9361 113.448 3.97642C111.834 8.47413 110.356 12.8652 108.664 17.1744C107.613 19.8527 105.676 21.8033 102.864 23.134C95.485 26.6159 92.6859 33.7302 95.3388 41.1596C95.8505 42.5846 95.8497 44.3309 95.5331 45.8206C94.4804 50.7889 95.2206 52.7102 99.6609 55.3155C102.322 56.8784 102.609 58.2744 100.802 60.7537C99.6034 62.3967 98.0976 63.508 95.9138 63.8045C92.3854 64.2876 89.2981 65.6247 87.016 68.3433C85.8492 69.7278 84.5368 70.3146 82.4577 69.9512C78.1157 69.1901 75.3995 71.3386 74.5279 75.4524C73.9399 78.22 73.0563 80.9314 72.2054 83.6372C71.9744 84.3815 71.4768 85.1249 70.8941 85.6716C68.7597 87.6869 67.7156 90.1128 67.4152 92.9362C67.334 93.7431 66.9166 94.6293 66.3696 95.2548C65.258 96.5278 63.953 97.6589 62.6482 98.9202C62.3278 98.7399 61.9393 98.6168 61.6964 98.357C58.9943 95.4742 55.7567 93.4244 51.9309 92.013C48.9983 90.9314 48.7784 88.559 51.1025 86.7468C53.4011 84.956 54.0231 81.7615 52.1733 79.2138C49.2127 75.1281 46.1442 71.0895 42.8458 67.2438C39.7964 63.6889 34.6202 62.8237 30.3669 64.7335C28.2736 65.6712 26.9871 67.1634 26.6901 69.3972C26.5542 70.4382 26.3298 71.474 26.0263 72.4819C24.9351 76.0846 23.3054 76.9738 18.854 75.2181C17.7333 74.7749 16.74 73.964 15.8087 73.1953C11.8244 69.8671 11.6161 68.6367 13.4658 63.9848C14.0184 62.6013 14.3541 60.9289 14.0935 59.4962C13.3841 55.6006 9.28315 54.1955 5.16019 56.2204C3.46121 57.0518 1.75509 57.8675 0.25676 58.5886L1.31692 41.0979C1.57828 41.0525 1.84768 41.0075 2.10904 40.9621C2.44592 41.4037 2.89877 41.7988 3.1036 42.2861C4.46839 45.5015 6.93947 47.3976 10.5168 47.9744C12.1094 48.2318 13.2208 48.8276 13.8951 50.3697C15.2422 53.4767 17.9236 55.1022 21.2736 55.9639C23.406 56.5144 25.4272 57.4335 27.5606 57.9687C30.1956 58.6263 32.8734 59.3784 35.5645 59.5109C40.3505 59.7473 45.0707 56.1349 45.3108 51.2399C45.4285 48.7654 45.6508 46.2973 45.9451 43.8412C46.0252 43.1874 46.5547 42.5838 46.8754 41.9598C47.4612 42.294 48.1256 42.5334 48.6083 42.9686C50.2637 44.4553 50.8521 46.2143 50.1643 48.3632C49.7663 49.5951 49.566 50.9004 49.3993 52.1847C49.0799 54.6546 50.2232 56.0566 52.8404 56.4756C56.1459 57.0053 59.239 56.1052 61.099 53.6827C64.3365 49.4673 68.3519 46.4172 73.2109 44.1152C74.8664 43.3348 76.4574 42.1521 77.6299 40.8062C78.907 39.3364 80.0329 37.5588 80.5636 35.7374C81.5527 32.3507 82.0241 28.8408 81.3194 25.2671C81.1715 24.5076 81.6528 23.633 81.8482 22.8099C82.0982 22.8174 82.3407 22.8168 82.5908 22.8243L82.5993 22.8172Z" fill="#000B77"/>
</svg>
