<svg width="51" height="37" viewBox="0 0 51 37" fill="none" xmlns="http://www.w3.org/2000/svg">
<path d="M21.2141 36.8836C18.4201 32.1834 13.9981 30.2797 8.53088 30.2478C5.86612 30.2322 3.51135 29.5135 1.48188 27.8393C0.524914 27.0518 0.0353239 26.0391 0.775583 25.055C1.29501 24.3723 2.27319 23.7404 3.13911 23.624C4.87141 23.3834 6.67852 23.6465 8.41657 23.4447C11.5741 23.0832 12.9574 20.8479 12.1222 17.9175C11.9146 17.1984 12.044 16.3999 12.0178 15.6304C11.9594 13.6533 11.9494 11.6791 11.8259 9.70571C11.7686 8.78072 11.4425 7.87784 11.3609 6.95138C11.1076 4.17915 11.6031 4.02488 14.4684 4.47501C21.0729 5.52807 27.6334 7.03923 34.4238 5.02416C38.6153 3.78075 43.2594 4.02383 47.3012 2.04181C48.2701 1.56299 49.2904 1.17177 50.489 0.645438C50.7119 4.99007 51.1861 9.19637 49.8853 13.2797C49.1446 15.6077 47.2389 17.1048 44.7836 17.7777C40.7791 18.8789 36.6982 19.7681 32.7133 20.9472C25.6019 23.0426 23.9502 25.1619 23.4938 32.2913C23.3446 34.6629 22.5851 36.1885 21.2151 36.8683L21.2141 36.8836Z" fill="#000B77"/>
</svg>
