<svg width="208" height="127" viewBox="0 0 208 127" fill="none" xmlns="http://www.w3.org/2000/svg">
<path d="M55.0884 0.647386C58.7586 2.89189 62.6449 5.17243 66.4077 7.62169C67.955 8.62692 69.4239 9.85718 70.6099 11.2235C75.8754 17.2794 82.6985 21.2392 90.1038 24.3918C91.5534 25.0081 93.2585 25.1421 94.8623 25.3466C97.5727 25.6947 100.121 26.324 102.129 28.2533C106.848 32.7979 113.031 33.8466 119.255 34.8826C124.64 35.7834 129.198 38.1737 132.787 42.1595C135.671 45.3674 138.418 48.7125 141.474 51.7699C144.964 55.2519 149.227 57.3103 154.446 57.6113C156.434 57.7318 158.418 58.7329 160.319 59.5068C162.835 60.5324 165.184 62.0458 167.782 62.7701C169.96 63.377 172.434 63.481 174.69 63.2041C177.694 62.8271 180.364 63.0501 182.887 64.7503C185.077 66.2233 187.364 67.5568 189.589 68.9861C190.009 69.2566 190.423 69.6188 190.665 70.0317C193.783 75.383 198.799 77.5483 204.905 76.1414C207.167 75.6198 207.428 75.8577 207.519 78.0768C207.603 80.2954 207.841 82.508 207.957 84.7286C207.985 85.1975 207.96 85.8777 207.655 86.1119C205.4 87.8517 203.223 89.7571 200.725 91.1146C198.026 92.5748 195.865 94.236 194.472 96.9472C193.849 98.1579 192.475 99.2312 191.168 99.8566C187.665 101.528 184.686 103.607 183.539 107.329C183.055 108.916 182.848 110.596 182.667 112.247C182.35 115.085 180.922 117.036 178.026 117.749C175.13 118.462 172.473 119.38 170.483 121.672C169.875 122.371 168.738 122.999 167.805 123.057C164.171 123.274 160.497 123.495 157.055 121.893C153.935 120.44 150.667 120.487 147.522 121.445C146.237 121.834 145.013 122.978 144.226 124.087C143.051 125.739 141.63 126.648 139.57 126.638C136.467 126.634 133.453 126.229 130.712 124.654C128.815 123.559 126.873 122.522 124.932 121.485C122.177 120.016 119.22 119.193 116.089 119.655C111.352 120.34 107.413 119.198 103.597 116.293C100.7 114.088 97.1863 112.466 93.7201 111.122C91.6593 110.323 89.1269 110.239 86.8539 110.407C81.3178 110.815 77.9023 108.899 76.0168 103.876C74.0258 98.5926 69.6313 95.8983 63.698 96.4578C61.9668 96.6209 60.9235 95.9679 60.3649 94.5171C59.9181 93.3564 59.6284 92.1364 59.2066 90.9619C57.9022 87.283 54.8055 85.709 50.9051 86.7287C48.3596 87.3939 48.0634 87.2151 47.5185 84.7388C47.4107 84.2497 47.3271 83.7622 47.2355 83.2741C46.3853 78.9027 44.5095 77.0504 39.9003 76.1659C36.697 75.5505 33.4988 74.8511 30.2712 74.5023C28.2321 74.2791 26.1165 74.5186 24.0648 74.7695C21.0112 75.1512 19.303 74.5345 17.9647 71.9488C16.4673 69.0548 13.7934 67.4374 11.1081 65.7428C8.1194 63.8537 5.17558 61.8907 2.35373 59.7818C0.52893 58.4228 0.547384 56.1184 2.09261 54.0905C2.89146 53.0436 3.668 51.9648 4.57448 51.0087C4.95466 50.6029 5.64654 50.2542 6.20535 50.2344C12.5535 50.0295 16.7394 46.9667 19.5155 41.6969C20.3283 40.1531 21.7647 38.8538 23.0852 37.6011C28.2898 32.6624 32.329 27.0862 33.8823 20.1262C34.3354 18.1163 35.4239 16.5585 36.8652 15.0451C39.2712 12.5485 41.4007 9.81301 43.7299 7.25048C44.5177 6.38678 45.494 5.61112 46.5384 5.04636C49.3384 3.51573 52.2115 2.11208 55.0888 0.639748L55.0884 0.647386Z" fill="#000B77"/>
</svg>
