<svg width="140" height="83" viewBox="0 0 140 83" fill="none" xmlns="http://www.w3.org/2000/svg">
<path d="M27.8948 4.01581C28.8665 4.82728 29.8558 5.61678 30.81 6.45022C34.6357 9.7692 42.9036 11.1842 47.6784 8.20221C50.9964 6.13025 55.1619 5.04653 59.481 5.43888C63.2925 5.78509 66.8941 4.78238 70.3269 3.35476C77.1509 0.520027 84.1552 0.322569 91.4583 1.47941C97.5656 2.44857 103.707 3.65784 109.984 2.89409C113.004 2.52425 116.048 2.30939 119.067 1.95486C120.095 1.83288 121.205 1.70816 122.091 1.2627C125.325 -0.368922 128.38 0.300022 131.2 2.02986C133.724 3.57278 136.077 5.38949 138.388 7.21906C138.86 7.59321 139.164 8.59459 139.015 9.18454C138.238 12.1093 136.853 14.7746 134.521 16.8833C132.635 18.589 130.741 20.3018 128.718 21.8533C126.543 23.5184 124.032 24.4414 121.125 24.4187C112.905 24.3505 107.063 28.2277 103.167 34.757C101.165 38.1144 98.7091 40.9298 95.6263 43.4C93.9739 44.7282 92.6283 46.4743 91.3982 48.189C87.6887 53.3781 83.6348 58.1009 77.0706 60.2602C72.0692 61.8999 67.1398 63.6899 62.7856 66.682C61.8554 67.3245 60.4682 67.4861 59.26 67.6356C54.4105 68.2401 50.6416 70.3999 48.1783 74.4128C46.5781 77.0189 43.911 77.7097 41.0906 78.1224C39.7419 78.3171 38.3511 78.2712 36.9784 78.3262C33.2099 78.4741 29.6601 79.1574 26.3296 81.0366C22.8894 82.986 19.1057 82.1807 15.439 81.4516C14.9346 81.3519 14.3637 80.8796 14.1071 80.434C12.3643 77.3718 9.38494 75.8627 6.215 74.5571C5.79595 74.3858 5.35891 74.2441 4.94033 74.0651C3.12208 73.3175 1.33332 72.6178 1.69301 70.1592C1.80258 69.4209 1.44188 68.5543 1.10559 67.8198C-0.779644 63.766 0.380719 60.396 3.20407 57.1268C5.64393 54.3028 6.68301 50.7949 7.30555 47.208C7.41901 46.5391 7.43651 45.849 7.55805 45.1806C7.87368 43.4489 8.96942 42.348 10.8224 42.7905C14.7923 43.73 17.4828 42.1192 19.8283 39.3816C21.4585 37.4838 23.8618 36.9998 26.2553 36.5458C30.7392 35.6888 34.312 32.2193 34.8937 28.2382C35.2947 25.498 34.3672 23.4221 31.7744 21.9518C27.6852 19.6382 27.8893 19.6122 28.7151 15.0777C29.0548 13.2168 28.5699 11.1908 28.2979 9.26219C28.0595 7.58132 27.5927 5.92501 27.2323 4.25212C27.4558 4.17351 27.6793 4.0949 27.9028 4.01629L27.8948 4.01581Z" fill="#000B77"/>
</svg>
