<svg width="94" height="94" viewBox="0 0 94 94" fill="none" xmlns="http://www.w3.org/2000/svg">
<path d="M0.942792 33.6312C8.26692 28.978 11.9827 22.5823 13.1027 14.5816C13.5998 11.0231 16.2696 8.48778 18.5983 5.87844C18.8311 5.61827 19.7691 5.65988 20.2142 5.87733C23.1423 7.30434 26.1828 8.60102 28.8899 10.3575C32.2629 12.5353 35.8807 13.326 39.6231 12.3262C41.9518 11.7054 44.0833 10.227 46.0953 8.8632C48.5352 7.20537 49.8124 6.95516 52.5129 8.29218C52.9735 8.51819 53.4247 8.7665 53.8848 9.0001C58.9987 11.6339 63.3562 10.1685 65.6126 5.16997C66.1418 3.99823 66.7591 2.43564 67.792 1.97254C69.8993 1.02598 72.2253 0.450793 74.7561 1.13753C77.5711 1.91006 79.7489 3.11636 81.2498 5.67591C82.1164 7.16083 83.8388 8.18711 85.1447 9.45484C86.0783 10.3648 87.3628 11.1893 87.786 12.2969C89.6582 17.218 91.4151 22.1854 92.9356 27.2071C93.7668 29.9394 93.2586 30.3658 90.3466 30.9283C89.5822 31.0725 88.7762 31.1075 88.0605 31.3765C83.8398 32.9721 79.553 33.1389 75.0651 32.3792C71.4763 31.7731 68.7899 33.6522 68.2055 37.0606C67.9804 38.3879 68.5568 39.8857 68.9804 41.2524C69.2095 41.9825 69.9707 42.5543 70.3378 43.2623C71.3578 45.2669 70.7458 46.2127 68.8046 47.337C66.1794 48.8693 63.6545 50.6058 61.3281 52.5143C59.611 53.9188 59.668 56.1623 61.1003 57.8643C61.6179 58.4748 62.2521 59.1532 62.9827 59.4337C65.923 60.5262 67.3998 62.0252 66.6325 65.3997C66.0834 67.8274 68.7937 70.4602 72.0302 71.4412C73.6723 71.9369 75.4311 72.0968 77.4183 72.4687C76.8977 73.1 76.4467 73.6441 75.9952 74.1958C73.2606 77.5348 73.3654 81.244 76.216 84.4797C77.5472 85.9928 78.7932 87.5845 80.0566 89.1544C80.3256 89.4907 80.5024 89.89 80.7796 90.3563C78.4767 91.8777 76.1588 93.1162 73.3178 93.3021C69.7019 93.5401 65.6366 90.4518 66.5072 86.5655C66.7492 85.4906 66.8093 84.3667 66.836 83.2635C66.8997 80.7531 66.0759 78.5622 63.574 77.3972C60.9628 76.1799 58.3891 76.4658 56.0955 78.2315C55.7496 78.5001 55.5094 78.8817 55.224 79.2149L54.688 79.0376C54.6606 78.2969 54.6251 77.5558 54.5977 76.815C54.4207 71.3795 51.3712 68.109 45.6266 67.7912C43.1672 67.6498 40.6595 68.3054 38.1863 68.6583C36.4671 68.9046 34.7826 69.3739 33.06 69.5438C31.564 69.6893 30.5646 68.9354 31.0501 67.4258C31.5973 65.6913 32.143 63.8501 33.2037 62.3982C35.3675 59.4589 35.7016 56.5991 33.9501 53.3996C33.5227 52.627 33.3578 51.6342 33.3796 50.7441C33.4708 46.0562 29.8783 43.2556 25.3795 45.0629C20.9302 46.8504 16.9239 46.5009 12.6468 44.6493C7.25733 42.3188 3.14581 38.9305 0.950804 33.6317L0.942792 33.6312Z" fill="#000B77"/>
</svg>
