<svg width="44" height="128" viewBox="0 0 44 128" fill="none" xmlns="http://www.w3.org/2000/svg">
<path d="M18.3694 2.64066C24.0291 -0.460876 30.7873 0.384107 34.6909 4.58466C37.1571 7.2393 37.3126 10.258 36.3297 13.4444C36.1294 14.0891 35.7785 14.6941 35.5149 15.3197C33.8608 19.3438 35.0452 21.6076 39.4815 22.8694C39.9728 23.0061 40.4547 23.1651 41.1743 23.3921C39.5652 27.8695 41.8497 31.9261 42.8555 36.0732C44.0816 41.1044 42.9593 45.5273 40.2182 49.6688C37.4319 53.8915 34.4125 57.9703 31.4627 62.0992C29.799 64.4195 28.3582 66.7839 28.5807 69.7608C28.612 70.1751 28.2921 70.6674 28.0192 71.048C25.3429 74.6512 24.4571 78.6302 25.1921 82.99C25.607 85.4516 25.2858 87.6928 23.5324 89.7633C20.5119 93.3303 22.0257 99.7308 26.3824 101.774C27.5029 102.301 29.0381 102.233 30.3423 102.121C32.6754 101.919 33.8271 103.127 32.9838 105.207C32.6337 106.064 32.1258 106.866 31.6343 107.661C29.2776 111.444 29.3237 115.204 31.4965 119.109C32.1504 120.286 32.5195 121.775 32.4477 123.092C32.3415 125.11 31.0275 126.581 28.8249 126.89C25.574 127.342 22.3033 127.724 19.0195 127.923C17.3776 128.022 16.7609 127.029 17.2436 125.447C18.5827 121.037 17.7533 117.038 14.5764 113.478C14.2065 113.066 13.9996 112.358 14.0328 111.81C14.3035 107.611 14.3211 103.465 13.0816 99.3185C12.5729 97.6074 12.9502 95.6368 13.0538 93.7948C13.2785 89.8215 12.7198 85.8772 10.6356 82.5049C9.40245 80.5131 9.39855 79.1151 10.1688 77.176C11.6802 73.3801 10.8747 69.9172 7.88196 66.9099C5.86912 64.8861 3.76473 62.9102 1.99672 60.7027C0.244311 58.5038 0.475202 58.1511 3.19554 57.2773C5.03693 56.6786 6.9134 56.1661 8.76144 55.5907C12.7695 54.3443 14.3127 51.6195 12.5034 47.966C11.2175 45.3829 9.29631 43.0439 7.42762 40.7692C5.91184 38.9206 3.97339 37.3978 2.3656 35.6048C-0.955454 31.8978 0.888241 27.0069 4.2756 24.9667C6.34179 23.7172 8.56736 22.63 10.8571 21.8141C14.5223 20.5087 17.0821 18.0289 19.2229 15.1494C21.7327 11.7653 20.3637 8.16137 19.271 4.65055C19.0551 3.95771 18.6669 3.31553 18.368 2.66349L18.3694 2.64066Z" fill="#000B77"/>
</svg>
