<svg width="82" height="183" viewBox="0 0 82 183" fill="none" xmlns="http://www.w3.org/2000/svg">
<path d="M55.9947 59.2964C53.4421 57.9271 51.585 56.7832 49.599 55.9066C47.7306 55.0829 45.9453 55.5476 44.729 57.1316C40.012 63.2778 37.9437 69.8749 40.7482 77.4625C42.6175 82.526 44.1001 87.7188 45.8127 92.8416C46.3787 94.5412 46.8838 96.3135 47.7901 97.8505C50.1875 101.915 54.4558 103.037 58.8415 101.026C60.8231 100.115 62.7994 99.1575 64.8786 98.4967C68.2071 97.4379 70.1808 98.2527 72.2744 100.946C73.5081 102.534 74.9518 103.981 76.337 105.463C77.8201 107.058 78.4505 108.891 78.7908 110.99C79.1773 113.389 79.911 115.779 80.8122 118.064C81.8192 120.6 81.8998 120.467 79.7369 122.108C77.5655 123.757 75.399 125.459 73.5167 127.392C70.242 130.753 70.0477 134.225 72.8584 137.986C74.0141 139.53 75.5549 140.838 76.9886 142.186C78.8034 143.892 78.7934 145.786 76.9187 147.46C75.1289 149.063 73.2077 150.573 71.6639 152.374C68.031 156.593 66.0291 161.429 65.9342 166.985C65.884 169.808 65.4625 172.64 65.0509 175.441C64.6252 178.341 62.8694 180.183 59.8149 180.975C53.6819 182.559 47.566 182.265 41.4833 180.758C39.1013 180.163 36.8044 179.229 34.4746 178.439C31.2913 177.367 28.1085 176.288 25.0438 175.254C26.0867 172.942 27.5612 170.556 28.2089 167.983C28.9519 165.033 29.5977 161.826 29.147 158.888C28.1272 152.31 26.6213 145.771 24.8435 139.331C24.1427 136.798 22.3581 134.459 20.7522 132.23C18.611 129.259 20.092 125.17 23.7777 124.469C23.9652 124.434 24.1611 124.393 24.3562 124.366C29.7606 123.632 32.2428 119.383 29.6825 114.682C28.4866 112.471 26.6459 110.526 24.8818 108.646C23.042 106.686 21.123 104.836 20.7667 102.072C20.4968 100.008 20.7691 98.1759 22.6054 96.7365C24.5605 95.1973 26.4159 93.5757 26.3585 90.7992C26.2718 86.6458 26.4287 82.4615 23.259 79.038C20.8841 76.4648 17.6729 75.9875 14.4206 77.5168C13.79 77.8147 12.5354 77.7692 12.0521 77.3656C9.18286 74.9687 7.02211 72.1869 7.33289 68.2563C7.66121 64.0365 6.10753 60.6804 2.19548 58.3349C-0.215579 56.8901 -0.793952 53.7993 1.58497 50.9872C4.5453 47.4922 6.06908 43.8948 5.39616 39.4386C5.30891 38.8833 5.5932 38.1824 5.94487 37.6996C6.30595 37.1944 7.00921 36.496 7.44813 36.5684C8.06325 36.6592 8.87897 37.2969 9.07061 37.8585C9.73655 39.7705 10.1539 41.9271 12.7003 42.2036C15.4951 42.5029 18.0604 41.5354 19.8595 39.5132C22.0123 37.1075 23.7386 34.4238 23.6302 31.0254C23.5659 29.0277 24.6032 27.7385 26.5802 26.9034C31.1625 24.9734 32.2798 21.8327 29.8448 17.5905C28.8244 15.8099 27.582 14.0998 26.1844 12.556C23.2767 9.33172 21.5302 5.56671 20.0428 1.64933C19.9385 1.37564 19.9244 1.07685 19.8073 0.481538C21.5933 1.20093 23.3033 1.57959 24.6272 2.47723C28.552 5.14437 32.3882 7.94364 36.1126 10.8584C37.0285 11.5709 37.6605 12.8467 37.9871 13.9742C38.5743 15.9883 38.8825 18.0848 39.1916 20.1662C39.2717 20.7058 39.0322 21.3329 38.8062 21.8693C37.8416 24.0873 36.696 26.2332 35.866 28.4899C34.7077 31.6434 35.563 34.5523 38.0192 36.8478C40.3307 39.0046 42.7739 41.116 45.4598 42.8142C49.4732 45.3492 52.3297 48.7538 54.3778 52.728C55.3512 54.6204 55.4292 56.9245 55.9777 59.3106L55.9947 59.2964Z" fill="#000B77"/>
</svg>
