<svg width="74" height="79" viewBox="0 0 74 79" fill="none" xmlns="http://www.w3.org/2000/svg">
<path d="M4.67441 22.0522C5.49544 21.1394 6.123 20.3601 6.82718 19.6465C9.09397 17.3546 10.1863 14.6249 10.5054 11.4893C11.2477 4.16247 17.4805 -0.264771 25.1879 0.500326C29.0173 0.88522 32.976 0.200831 36.2349 2.94984C36.687 3.33629 37.6418 3.40942 38.309 3.30473C43.4097 2.52913 47.2018 5.52436 51.3588 7.41875C52.1666 7.78856 52.8892 8.3671 53.5716 8.94321C55.879 10.9012 55.6556 13.5232 52.9697 15.018C50.6424 16.3131 49.451 18.1507 49.1528 20.6765C48.6843 24.6816 48.4346 28.6693 49.394 32.654C50.2313 36.1271 53.3233 39.1028 56.605 38.9503C58.2864 38.8689 59.906 37.8136 61.5688 37.2421C62.4908 36.9237 63.5611 36.2857 64.3545 36.4943C68.0029 37.4717 71.0335 39.4659 73.7894 42.5358C72.3809 42.9011 71.2345 43.1983 70.089 43.4803C68.0435 43.9827 66.6061 44.9574 66.3349 47.1716C66.1463 48.688 65.0062 49.146 63.4721 48.5259C62.5122 48.1393 61.6214 47.5429 60.6287 47.2994C57.9694 46.6264 55.4636 47.0092 53.245 48.6394C50.3007 50.8061 48.0795 53.5438 46.816 56.8361C44.4621 62.9575 40.2717 67.9975 36.4855 73.2835C34.8299 75.5971 32.4129 76.9097 29.5066 77.253C24.8798 77.7899 20.2302 78.5699 15.5898 78.5331C12.3514 78.5049 9.05154 77.4951 5.90999 76.5332C2.67345 75.5425 0.822029 73.3754 0.793326 69.8596C0.749794 63.929 2.07064 58.4936 5.97717 53.7496C9.3872 49.6173 12.1519 45.0944 12.4677 39.7509C12.8857 32.8551 11.0634 26.6181 4.67487 22.0446L4.67441 22.0522Z" fill="#000B77"/>
</svg>
