<svg width="78" height="78" viewBox="0 0 78 78" fill="none" xmlns="http://www.w3.org/2000/svg">
<path d="M76.9945 39.6108C77.9928 41.3344 78.0959 42.8207 77.0495 44.4128C75.0359 47.4874 73.0998 50.6124 71.1868 53.7541C70.3378 55.1445 69.203 55.9378 67.4734 56.0542C65.7357 56.1702 64.0106 56.4776 62.264 56.6082C60.582 56.7351 59.734 55.8522 59.594 54.3102C59.4833 53.0828 59.4371 51.8518 59.3429 50.6178C59.0375 46.6245 54.5196 42.5437 50.3221 42.4724C46.2935 42.4037 44.1162 44.858 45.0513 48.5537C45.5267 50.4059 46.1482 52.2364 46.8777 54.0124C48.7997 58.6912 47.5378 61.5824 42.759 64.0621C40.8391 65.0596 38.7795 65.9723 36.6663 66.4393C31.2984 67.6169 27.1911 70.5722 23.448 74.1598C22.414 75.15 21.3034 76.0744 20.2312 77.0318C20.0009 76.9796 19.7782 76.9356 19.5479 76.8835C19.6967 74.4283 19.8291 71.9798 20.0019 69.5261C20.0731 68.4852 20.3371 67.4484 20.3521 66.4041C20.3973 62.7372 17.3094 60.4292 13.6605 61.6652C10.2747 62.8103 6.9504 62.1434 3.65333 61.6918C1.00266 61.3328 0.113789 59.9286 0.612073 57.4183C0.938916 55.7444 1.60924 54.1143 2.27726 52.5221C5.6992 44.4062 5.6341 35.9186 5.02362 27.3981C4.91573 25.8581 3.92628 24.3867 3.46366 22.8557C3.30343 22.312 3.25537 21.3783 3.58474 21.1236C7.56167 18.0613 7.93473 13.7658 8.11051 9.40498C8.16412 7.98921 8.138 6.56099 7.98172 5.15539C7.81741 3.7493 8.53412 3.21293 9.79961 2.78611C11.8544 2.08671 13.8201 1.13015 15.8815 0.454038C16.8999 0.119055 18.0571 0.15106 19.1598 0.0195413C19.2303 1.11478 19.3088 2.2105 19.3717 3.29764C19.3684 3.35085 19.3247 3.40921 19.2969 3.46857C17.6267 6.85384 16.7842 10.1291 19.6638 13.485C23.0546 17.4364 26.8231 20.602 32.5819 20.2797C35.4974 20.1207 37.3057 18.3078 38.29 15.8804C38.9617 14.2274 39.1445 12.4075 39.7614 10.7284C40.0499 9.95242 40.6898 9.09096 41.4289 8.71615C44.07 7.37331 47.4751 8.16715 49.4608 10.5991C52.3307 14.1146 55.0997 17.7003 57.8348 21.3145C58.6548 22.3941 59.2587 23.72 57.7011 24.7166C52.491 28.0704 55.2966 34.1072 59.4108 35.9511C61.2291 36.7632 63.0907 37.5245 64.7757 38.5421C65.9556 39.2621 66.8695 40.3856 67.9077 41.3182C70.9468 44.0353 72.892 43.9472 75.5823 40.9976C75.9962 40.5421 76.456 40.1274 76.9949 39.6032L76.9945 39.6108Z" fill="#000B77"/>
</svg>
