<svg width="181" height="114" viewBox="0 0 181 114" fill="none" xmlns="http://www.w3.org/2000/svg">
<path d="M137.976 0.510613C142.62 5.26867 147.038 9.64629 151.269 14.1807C154.206 17.3227 154.837 21.2722 154.004 25.1711C153.631 26.9285 152.139 28.6867 150.683 29.9658C146.741 33.4319 143.271 37.2169 140.633 41.6481C139.682 43.2481 138.814 44.922 138.193 46.6567C137.319 49.1093 138.3 50.7577 140.974 51.4469C142.402 51.8161 143.929 51.8934 145.415 51.9834C147.647 52.1187 149.554 52.8378 151.311 54.1742C155.603 57.4289 159.187 61.0761 161.243 66.1051C162.345 68.8074 164.533 71.1325 166.262 73.5977C173.095 83.3393 178.029 93.8214 180.255 105.369C181.23 110.417 180.596 111.57 175.578 113.771C175.471 113.818 175.327 113.802 175.035 113.83C173.092 111.436 172.541 108.706 173.076 105.721C173.807 101.64 173.635 97.5732 172.359 93.6152C171.701 91.5739 170.761 89.5231 169.531 87.745C167.344 84.595 164.949 81.5546 162.418 78.6434C161.295 77.3455 159.768 76.2216 158.187 75.4458C154.469 73.6163 151.181 74.4101 148.776 77.6484C147.214 79.7538 145.96 82.0766 144.491 84.2487C143.65 85.4811 142.784 86.7501 141.675 87.76C138.892 90.3109 136.856 90.3938 133.697 88.2544C132.42 87.3901 131.247 86.4023 130.003 85.5019C127.973 84.0191 125.728 83.1649 123.107 83.3193C118.974 83.5653 116.702 86.7353 118.031 90.4674C118.259 91.1 118.577 91.7074 118.966 92.5943C117.759 92.6968 116.702 92.8466 115.637 92.8661C102.422 93.0735 89.2005 93.1277 75.9994 93.504C69.1767 93.7015 62.3235 94.1341 55.577 95.0697C51.3664 95.6547 47.4639 96.3425 43.1619 95.1116C40.5553 94.3654 37.4908 95.0582 34.6323 95.1446C32.6216 95.2061 30.9808 94.6177 29.6202 93.1297C27.7453 91.0833 25.2808 90.254 22.4572 90.2968C18.8108 90.3508 15.1625 90.4352 11.5202 90.4207C9.71537 90.4106 7.90553 90.2169 6.09865 90.1074L5.94652 89.4259C6.82563 89.1507 7.69558 88.7603 8.59851 88.6241C12.0147 88.1131 14.9241 86.922 16.9038 84.0475C18.3358 81.9648 18.821 79.8093 17.5359 77.6078C16.1774 75.2872 13.8362 74.8168 11.2711 75.2495C8.29081 75.7488 5.60111 75.3107 3.20076 73.4235C0.5928 71.3709 0.090887 68.8807 1.52358 65.9882C2.61577 63.7932 3.34732 61.4313 4.36908 59.2014C4.74013 58.3989 5.45005 57.7238 6.07115 57.051C7.82131 55.1709 9.78801 53.4415 11.3212 51.4184C13.2216 48.921 13.787 45.976 12.8908 42.9424C12.155 40.4533 13.2778 38.8178 15.1731 37.3361C19.2099 34.1661 23.6784 32.6494 29.0632 33.3042C33.2716 33.819 35.9599 32.0187 37.5416 28.2645C38.0787 26.9831 38.9221 26.2321 40.3237 25.9809C40.5192 25.9469 40.7019 25.8587 40.8955 25.8552C48.6833 25.9605 55.7578 21.8746 63.6681 22.4839C64.9677 22.5856 66.3949 21.7783 67.6708 21.2063C69.17 20.5409 70.5117 20.3472 72.1098 21.1087C75.0319 22.5005 78.0544 22.5003 80.9065 20.9238C82.9242 19.8162 84.9593 18.6868 86.7674 17.3143C88.8118 15.7653 91.0091 14.7526 93.5866 14.3817C95.3835 14.124 97.1708 13.7587 98.9549 13.4467C102.662 12.7928 105.832 11.1592 108.322 8.50659C110.356 6.33811 112.79 5.40852 115.79 5.78134C118.149 6.07715 120.212 5.43061 122.361 4.54488C123.89 3.91187 125.794 3.62237 127.45 3.82207C131.404 4.29087 135.023 4.15882 137.984 0.518718L137.976 0.510613Z" fill="#000B77"/>
</svg>
