<svg width="111" height="83" viewBox="0 0 111 83" fill="none" xmlns="http://www.w3.org/2000/svg">
<path d="M27.7878 82.7488C24.8143 82.5913 24.3342 81.9574 25.6153 79.2455C29.1392 71.771 25.7116 64.3664 17.2645 61.3446C12.9315 59.7969 8.48909 61.1076 4.1857 62.2301C3.13204 62.5065 2.03801 62.6594 0.737998 62.9208C0.997816 60.6081 2.15375 59.3023 3.51311 58.0618C5.44619 56.3042 7.62491 54.7051 7.77775 51.7888C7.7992 51.4348 8.75073 51.0011 9.35113 50.8333C14.3982 49.4157 19.6793 48.4809 23.881 45.2203C26.3 43.341 28.3763 41.0628 30.7139 39.0803C33.8581 36.4209 36.9823 33.6998 40.3724 31.3274C43.1377 29.3935 46.4866 28.6213 49.9408 28.2183C57.0987 27.3746 62.7176 24.4191 65.7029 17.804C66.7894 15.4054 68.2652 13.1665 69.5926 10.8732C71.0193 8.38941 73.2203 6.95041 76.2289 6.79259C78.7093 6.66323 80.8415 5.83239 82.7418 4.35249C83.6798 3.61558 84.7297 3.00641 85.6972 2.30909C89.2497 -0.242406 93.0811 -0.0252945 97.0715 1.25225C98.6442 1.75579 100.27 2.30037 101.905 2.43726C106.238 2.80571 109.857 6.38913 110.528 10.444C110.86 12.475 110.181 14.0742 108.567 15.2994C101.016 21.0481 93.2778 26.468 83.3627 28.0594C77.1286 29.0573 72.9478 32.5006 70.3814 37.8636C69.4228 39.8617 68.3711 41.8164 67.5453 43.8603C66.55 46.3325 64.7916 47.9722 62.1343 48.6502C56.0347 50.1931 51.3511 53.7722 47.3464 58.1257C42.3686 63.5315 37.5349 69.0595 32.8693 74.711C30.9156 77.0721 29.5646 79.8856 27.7794 82.7559L27.7878 82.7488Z" fill="#000B77"/>
</svg>
