<svg width="125" height="81" viewBox="0 0 125 81" fill="none" xmlns="http://www.w3.org/2000/svg">
<path d="M66.4925 80.3123C63.6609 78.5504 60.8741 76.8445 58.1221 75.095C55.0767 73.1527 51.7627 72.5942 48.2678 73.4324C45.7746 74.0346 43.4977 73.5846 41.285 72.6059C39.401 71.7688 37.6459 70.658 35.7229 69.9328C33.3287 69.0343 30.8633 67.987 28.3566 67.7514C24.5645 67.3998 21.4362 66.0308 18.8478 63.5684C16.4186 61.2601 14.1355 58.7934 12.0024 56.2368C9.26985 52.9743 6.46408 49.8595 2.3593 48.0433C1.81178 47.8046 1.22012 46.9698 1.20613 46.4059C1.02509 38.6641 0.948962 30.9136 0.848367 23.1691C0.847261 23.0549 0.918138 22.945 0.810391 23.2657C4.19179 22.3141 7.27061 21.3213 10.4213 20.5992C13.3684 19.9256 16.3883 19.5075 19.3799 19.0268C22.5502 18.5113 23.9252 17.0196 23.6121 13.9723C23.4814 12.686 23.861 11.9862 25.0804 11.6035C27.7722 10.7699 30.3997 9.67368 33.1589 9.18655C37.3461 8.45117 41.0325 6.97019 44.3118 4.39165C47.3721 1.98247 50.9461 1.43056 54.7244 2.67158C58.1013 3.78174 61.535 4.21814 65.0721 3.87708C67.7775 3.61495 70.4785 3.2917 73.1725 2.9528C73.9331 2.85433 74.7587 2.74456 75.4211 2.41187C80.7638 -0.300301 86.1784 0.568123 91.6415 2.09388C94.1917 2.80391 96.7479 3.54477 99.3532 4.00704C101.672 4.42154 103.752 3.62688 105.724 2.35395C107.253 1.35856 109.079 0.769217 110.771 0.00435363C110.961 0.183261 111.15 0.369737 111.348 0.549128C110.971 1.4698 110.634 2.4005 110.218 3.30359C109.403 5.09557 108.152 6.80023 107.79 8.66533C106.742 14.0347 111.382 19.3379 117.63 20.0895C119.28 20.2884 120.985 19.9808 122.658 20.0518C123.419 20.0827 124.523 20.279 124.816 20.7532C125.137 21.2749 124.897 22.3181 124.538 22.9431C123.649 24.5023 122.32 25.6316 120.352 25.9231C119.331 26.0743 118.308 26.2634 117.313 26.5151C115.079 27.0797 113.268 28.0809 112.651 30.4479C112.506 30.9946 111.878 31.55 111.322 31.8511C104.4 35.5861 98.3924 40.3885 92.9163 45.8318C90.9262 47.8037 90.6969 49.3345 92.6664 51.28C94.6513 53.2341 95.4414 55.2984 94.8948 57.9588C94.5201 59.7699 95.3051 61.2556 96.7674 62.5617C97.7576 63.4435 98.4223 64.6632 99.2322 65.7395C97.9139 66.4281 96.6311 67.195 95.2619 67.7968C93.8105 68.4317 92.1552 68.7194 90.8075 69.4975C88.395 70.8883 85.8822 71.2838 83.1663 70.792C78.3619 69.9225 74.5215 71.2953 71.4991 74.9318C69.9835 76.7574 68.2687 78.4264 66.5 80.3204L66.4925 80.3123Z" fill="#000B77"/>
</svg>
