<svg width="86" height="99" viewBox="0 0 86 99" fill="none" xmlns="http://www.w3.org/2000/svg">
<path d="M0.292144 84.3498C2.95036 82.5624 4.96703 80.8944 7.24789 79.7373C11.4743 77.5998 12.6087 73.8155 9.92559 69.8065C9.64792 69.3936 9.14266 69.0348 9.08266 68.6052C8.9536 67.7681 8.78892 66.7463 9.15262 66.0847C9.47244 65.5117 10.6307 64.8924 11.2173 65.0509C17.3201 66.6893 22.9729 64.6415 28.6887 63.2364C32.1274 62.3954 33.567 60.5391 32.7373 57.1256C31.4455 51.8199 29.7385 46.6022 27.9436 41.4322C27.374 39.7917 27.6782 39.0884 29.0936 38.4397C31.5265 37.3302 33.9107 36.1264 36.3572 35.0482C39.8606 33.4964 42.9229 31.4151 44.6568 27.965C46.1723 24.9423 48.7154 23.5355 51.8206 22.5747C53.3101 22.1132 54.5875 21.0451 56.0333 20.4059C56.9946 19.9796 58.0838 19.6146 59.1106 19.6564C59.4503 19.6701 59.8993 20.9911 60.0328 21.7524C60.4443 24.1129 61.595 25.2119 64.0323 25.3498C67.9817 25.5676 72.341 22.4803 73.1232 18.4989C74.6092 10.9495 79.8357 6.0002 85.4964 0.507864C85.5844 1.78339 85.8308 2.59739 85.6504 3.30091C85.2318 4.90203 84.7211 6.48975 84.0448 7.99863C82.07 12.3918 80.4609 16.884 79.7329 21.6596C79.3576 24.1076 78.1419 25.8412 75.9557 27.2323C68.7215 31.8425 64.6907 38.3118 64.7079 47.0204C64.7063 47.8416 64.1528 48.9703 63.4836 49.4302C61.2508 50.9553 58.8041 52.1704 56.535 53.6553C55.0625 54.6198 53.5983 55.7065 52.4164 56.9935C50.0785 59.5234 47.85 62.1667 45.7637 64.895C44.5573 66.4695 43.2336 68.1962 42.7768 70.0535C41.029 77.1834 37.2189 82.9214 31.7865 87.8197C30.2669 89.1919 29.226 91.1113 28.1242 92.8824C25.4002 97.2513 21.0836 99.0789 15.8741 98.0443C14.1608 97.7009 12.3808 97.7031 10.6765 97.3374C7.902 96.7448 7.01024 95.3199 7.49529 92.5822C7.95873 89.9496 6.85275 88.0854 3.94906 86.5264C2.89115 85.958 1.88437 85.3092 0.291701 84.3574L0.292144 84.3498Z" fill="#000B77"/>
</svg>
