<svg width="55" height="94" viewBox="0 0 55 94" fill="none" xmlns="http://www.w3.org/2000/svg">
<path d="M42.8194 93.5109C39.818 92.8241 36.8582 92.3846 34.0901 91.4442C31.9391 90.7094 29.6771 89.6773 28.0808 88.1805C25.4075 85.6776 22.3796 83.6963 18.829 83.2822C12.1526 82.5026 8.61868 78.6164 6.17348 73.2814C5.08302 70.8973 4.00108 68.5061 3.05104 66.0694C2.17791 63.8285 1.9608 61.5509 2.67824 59.1693C3.74119 55.6153 3.4038 52.2594 0.721646 49.2357C0.117087 48.5564 -0.147873 47.2016 0.0911483 46.321C0.65247 44.2513 1.35375 42.1365 2.46554 40.3066C7.01134 32.825 8.02398 24.9073 6.08572 16.5354C5.99004 16.1165 5.89481 15.69 5.75485 15.0695C6.26215 15.2226 6.65113 15.3304 7.0316 15.4452C9.38407 16.1845 11.6956 17.0667 14.0913 17.625C19.6625 18.9266 25.3308 15.6976 26.8043 10.4318C27.2367 8.88978 27.3749 7.27633 27.6086 5.68398C27.9098 3.64436 29.0403 2.30527 31.1207 1.67401C36.2347 0.132661 41.2478 -0.144884 46.3436 2.07651C48.7817 3.13465 51.5248 3.55337 54.5737 4.38843C53.563 5.48233 52.4582 6.53227 51.5394 7.70825C50.1654 9.46864 48.6486 11.1898 47.6983 13.1518C46.481 15.6561 47.3029 17.1441 49.8776 18.4783C50.4253 18.7639 50.9576 19.1711 51.3329 19.6375C53.181 21.9069 53.9535 24.6083 53.5951 27.3253C53.2109 30.2014 50.687 31.8921 48.3354 33.4019C46.9072 34.3252 45.0786 34.6657 43.5675 35.4921C41.3305 36.7106 38.9055 37.8335 37.1076 39.53C32.7495 43.6493 32.6244 49.4405 36.5692 54.1396C38.1503 56.0179 40.205 57.5424 41.8197 59.3998C43.344 61.1523 44.7545 63.0508 45.868 65.0538C46.8725 66.8589 46.3792 67.5405 44.3215 68.196C41.9759 68.9413 39.589 69.5693 37.3008 70.4327C34.0298 71.665 32.8917 73.9293 34.7297 76.7642C36.6487 79.7263 39.2267 82.3382 41.6827 84.9657C44.4039 87.8771 44.7694 90.3702 42.8199 93.5033L42.8194 93.5109Z" fill="#70267A"/>
</svg>
