<svg width="171" height="133" viewBox="0 0 171 133" fill="none" xmlns="http://www.w3.org/2000/svg">
<path d="M81.589 17.3026C83.8323 18.2887 85.6019 19.093 87.3908 19.8448C89.6606 20.7942 91.403 22.1789 92.9001 24.1462C93.8282 25.3666 95.6245 26.3946 97.1973 26.7121C102.346 27.7671 107.264 27.4295 112.144 24.9143C114.654 23.6189 118.056 23.894 121.044 23.3935C123.404 23.0003 125.902 22.8454 128.026 21.9325C129.868 21.1404 131.653 19.6861 132.801 18.0935C134.971 15.0772 137.747 13.4225 141.498 12.7308C143.729 12.3145 145.851 11.302 147.95 10.4029C150.431 9.33541 152.776 7.97636 155.279 6.95617C159.679 5.16253 164.497 4.20609 168.402 0.973169C170.61 29.7449 170.866 58.4519 170.358 87.6258C168.01 87.0392 165.933 86.6376 163.927 85.9952C159.67 84.6419 155.356 83.5532 150.865 84.0469C148.465 84.315 146.148 85.2085 143.761 85.6536C140.769 86.2152 137.745 86.6447 134.723 87.0436C131.236 87.5063 127.889 86.997 124.519 85.9273C120.341 84.5941 115.92 84.8699 112.548 87.4306C108.296 90.6654 103.567 92.1404 98.3898 93.1669C95.7725 93.6823 93.2885 94.9334 90.8521 96.0648C89.0641 96.8985 88.2048 98.4089 88.7471 100.395C89.1051 101.688 88.7111 102.323 87.2058 102.492C82.804 102.983 78.4689 103.709 74.307 105.31C72.8837 105.859 71.0109 105.692 69.4093 105.45C66.751 105.044 65.7256 105.694 65.7791 108.278C65.9235 115.762 66.0916 123.255 66.2359 130.74C66.2477 131.345 66.1624 131.953 66.1101 132.815C59.6833 131.652 53.0813 131.512 48.0522 126.888C45.2889 124.346 41.9736 123.18 38.2004 122.767C36.2977 122.56 34.3154 122.065 32.6032 121.249C26.3745 118.282 20.6016 114.731 16.0694 109.508C14.4076 107.592 12.0443 106.185 9.88778 104.699C7.19606 102.843 4.39801 101.142 1.63633 99.3734C0.648461 98.7391 0.2988 97.9749 0.259622 96.7547C0.0311991 88.7906 3.82617 82.9775 10.7256 78.8767C13.5339 77.2087 15.2617 74.9697 15.6726 71.9233C16.5971 65.0707 20.1938 59.0617 22.2199 52.567C22.3792 52.0711 22.7882 51.5904 23.1983 51.2247C24.805 49.7825 26.5184 48.4464 28.0715 46.9551C31.4193 43.719 35.2178 41.3145 39.9568 40.1925C42.1378 39.6736 44.2406 38.7135 46.2562 37.725C52.2703 34.7655 55.0246 29.8543 52.2355 23.2056C51.5859 21.6573 51.0693 20.0482 50.6095 18.4349C50.1496 16.8216 50.9433 16.1267 52.6591 16.4835C55.0847 16.9981 57.2742 19.4056 57.4543 21.7679C57.5537 23.0607 57.5712 24.3715 57.7682 25.6549C58.2471 28.6863 60.438 30.6727 63.644 30.5759C66.421 30.4915 69.217 30.0942 71.9488 29.5551C74.3696 29.0814 75.6171 27.1657 76.7443 25.2349C78.3127 22.5574 79.9598 19.9152 81.5586 17.2701L81.589 17.3026Z" fill="#000B77"/>
</svg>
