<svg width="94" height="88" viewBox="0 0 94 88" fill="none" xmlns="http://www.w3.org/2000/svg">
<path d="M79.7853 87.9031C73.1492 87.915 70.018 85.6392 67.9769 79.9322C67.2574 77.9176 66.1473 75.9407 64.8109 74.2261C61.9883 70.5962 58.028 69.4512 53.4876 70.5334C50.86 71.1641 48.352 70.8894 46.0372 69.8288C43.2266 68.5387 40.4504 67.082 37.9175 65.3486C33.4114 62.2608 28.7243 59.6223 23.2824 58.3568C16.2527 56.7189 9.97345 53.9148 5.35133 48.3352C4.15994 46.8979 2.57916 45.7437 1.30344 44.3626C-0.610609 42.2986 0.0139256 40.005 1.1196 37.9169C2.06877 36.1415 3.95041 35.803 5.99479 35.8503C8.33794 35.9079 10.7085 35.9136 13.017 35.6087C15.8479 35.2281 16.8359 34.0149 16.877 31.3331C16.944 27.1574 15.9428 23.1164 13.7478 19.5475C11.9063 16.5522 12.6017 14.0252 13.9877 11.3176C17.6618 4.10108 24.3148 1.40595 32.187 0.625345C34.2547 0.420898 36.38 0.334988 38.4393 0.536501C39.1872 0.612513 40.1001 1.57281 40.4829 2.33227C44.2394 9.77675 50.8777 13.5996 58.9005 15.6734C62.1828 16.5243 65.3411 15.9488 68.4582 14.7189C71.4426 13.5423 72.1653 14.169 72.2597 17.1504C72.3058 18.526 72.7119 19.9694 73.315 21.2331C74.2063 23.0817 74.1602 24.6434 72.8414 26.2431C71.1207 28.3322 70.0548 30.6988 69.8438 33.3779C69.5589 37.0112 71.3584 39.2293 75.1834 39.2694C77.5445 39.2975 79.9045 38.5432 82.2703 38.2265C84.3754 37.9399 86.5135 37.5097 88.611 37.6138C91.7491 37.7733 93.3774 39.6129 93.5685 42.6002C93.6297 43.5932 93.4695 44.6342 93.753 45.5641C94.5359 48.1347 93.0579 49.556 91.035 50.6221C89.1709 51.6058 87.2294 52.5312 85.2155 53.1837C82.3351 54.1135 80.8637 55.8265 80.599 58.7248C80.3385 61.5543 81.1075 64.0858 82.2636 66.6407C83.3616 69.0847 84.2269 71.6297 84.9941 74.1917C85.1961 74.8635 84.9262 76.1126 84.4036 76.4567C81.5289 78.3608 80.7922 81.1692 80.3513 84.1718C80.1724 85.388 79.9688 86.6104 79.7682 87.9174L79.7853 87.9031Z" fill="#000B77"/>
</svg>
