<svg width="62" height="87" viewBox="0 0 62 87" fill="none" xmlns="http://www.w3.org/2000/svg">
<path d="M61.2896 81.7338C55.9727 80.7911 52.0533 83.4564 47.8354 85.3147C43.6837 87.1464 39.648 86.2661 35.9984 83.9462C35.049 83.3449 34.4607 81.9842 34.084 80.8661C33.6607 79.5843 33.5435 78.1832 33.4881 76.8318C33.0955 67.7088 21.485 62.0725 13.4638 65.347C12.4448 65.7602 11.4329 66.189 10.4076 66.5711C6.4056 68.0672 3.1997 66.9614 0.907284 63.1843C1.4162 63.0543 1.8759 62.9367 2.33512 62.8266C4.28751 62.3475 6.30263 62.0331 8.17042 61.3498C12.5256 59.7602 14.639 54.3583 12.6124 50.3293C12.2443 49.6023 11.8346 48.8958 11.4499 48.1755C10.2661 45.9745 10.2046 43.7879 11.4603 41.6045C12.1112 40.4645 12.8015 39.3421 13.3501 38.1575C14.4015 35.8775 14.1383 33.6864 12.4978 31.6874C10.9849 29.8494 8.96672 29.4131 6.70005 30.011C5.2216 30.4039 4.27353 29.7796 3.60466 28.6821C2.63573 27.0686 1.86912 25.1839 3.21566 23.6341C6.04773 20.3744 6.13538 16.7952 5.76258 12.8128C5.54041 10.4786 6.59391 8.03019 7.22179 5.6709C7.31692 5.30137 8.26146 4.78417 8.64285 4.89154C12.5771 5.98018 15.7616 4.10522 19.0558 2.68878C19.761 2.38686 20.3797 1.9112 21.0493 1.53053C23.3684 0.200525 25.4763 0.489134 27.3739 2.38109C29.2491 4.24106 30.2535 6.4695 30.7402 8.97293C31.0404 10.5536 31.5531 12.0936 31.9347 13.6639C33.3511 19.4941 37.0138 23.7296 42.2247 26.9559C44.9664 28.654 47.0998 30.9202 48.1953 33.9124C49.6231 37.8209 49.7102 41.7171 47.6351 45.4209C44.5005 51.006 44.1945 56.8544 45.6784 62.9033C46.7555 67.2654 49.4465 70.5994 53.5654 72.6413C57.4564 74.5775 59.5475 77.6761 61.3047 81.7501L61.2896 81.7338Z" fill="#000B77"/>
</svg>
