<svg width="141" height="70" viewBox="0 0 141 70" fill="none" xmlns="http://www.w3.org/2000/svg">
<path d="M140.079 63.4105C137.768 64.5145 135.472 65.6347 133.146 66.7071C131.971 67.2502 130.701 67.611 129.563 68.2024C126.896 69.5766 124.443 70.4723 121.646 68.0911C120.536 67.1484 118.616 67.0243 117.026 66.6515C113.463 65.8135 110.697 63.9948 108.88 60.9512C107.38 58.4336 104.87 57.3216 102.191 56.3452C101.073 55.9395 100.116 55.1596 99.0456 54.634C97.3778 53.8111 95.7345 52.5826 93.9721 52.3836C90.9626 52.0399 87.8734 52.3442 84.8165 52.3816C82.9514 52.4068 81.0373 52.7054 79.2325 52.404C74.7248 51.647 70.2666 50.6089 65.7758 49.7069C61.7813 48.9042 58.3481 47.1296 55.8518 44.0678C51.2963 38.4853 45.0264 36.9917 38.0825 36.9932C36.7862 36.9914 35.4564 37.1412 34.1999 37.4183C30.8406 38.1669 29.5104 39.6606 29.1025 42.9149C28.7908 45.3841 28.2848 45.8449 25.7145 46.1422C20.5013 46.7324 15.5908 45.5362 10.7125 43.9428C7.70109 42.9616 4.61402 42.1601 1.16581 41.1678C1.15437 40.1535 1.05866 38.6579 1.14817 37.1812C1.25437 35.4291 2.05243 34.026 3.64636 32.9938C5.93148 31.5196 6.14901 29.2674 5.50852 27.0016C4.78116 24.431 3.75762 21.9347 2.8328 19.4135C2.31843 18.0078 1.53301 16.6624 1.23085 15.231C0.519435 11.8628 1.13396 10.9478 4.52794 9.89414C9.51568 8.34574 13.1598 4.90357 17.1174 1.90279C17.6268 1.51898 18.0159 0.981987 18.5539 0.661348C20.4368 -0.460889 22.4965 0.447242 22.7422 2.54323C22.8446 3.39415 22.8212 4.31426 22.5854 5.12934C20.6333 11.9377 27.3249 18.3716 35.4148 16.5735C37.8869 16.0245 40.2792 14.7872 42.4639 13.499C45.8589 11.4931 48.8563 12.0358 50.8825 15.3685C53.9396 20.4071 56.4301 21.4259 62.5223 20.505C64.2071 20.2462 66.0169 20.4634 67.738 20.6753C70.1344 20.9741 72.498 21.5474 74.885 21.8687C78.4535 22.3461 79.6406 23.3472 80.2988 26.6585C80.4911 27.6301 80.6739 28.6241 81.0143 29.5586C82.0769 32.4797 84.5787 33.7141 87.6815 32.9192C91.1137 32.0368 91.7566 32.3906 92.7114 35.6201C92.9939 36.5741 93.2593 37.5424 93.6571 38.465C94.8644 41.272 97.3151 42.6799 100.479 42.4801C105.384 42.1707 107.758 43.6354 109.422 47.9983C111.645 53.8388 116.566 57.132 123.084 56.4059C127.155 55.9461 130.598 57.0149 133.944 58.7613C136.112 59.891 138.045 61.4058 140.087 62.7505L140.094 63.4345L140.079 63.4105Z" fill="#000B77"/>
</svg>
