<svg width="36" height="30" viewBox="0 0 36 30" fill="none" xmlns="http://www.w3.org/2000/svg">
<path d="M8.09843 20.589C8.1182 17.6033 6.11678 15.916 4.04975 14.2476C3.55793 13.8511 3.11937 13.3738 2.69641 12.9051C-0.000738294 9.93039 0.0356766 7.9999 2.89163 5.16318C4.49531 3.57213 6.16804 2.03873 7.91285 0.379847C10.878 4.11942 14.6076 3.75727 18.2372 3.8474C20.3458 3.89882 22.4581 4.15672 24.5519 4.4517C25.1831 4.54343 25.7403 5.05846 26.304 5.86419C25.6831 6.00225 25.0727 6.23263 24.4426 6.25555C23.0124 6.31401 21.5816 6.2502 20.1528 6.28582C17.683 6.34238 15.9691 7.49131 15.0643 9.65183C14.1126 11.9241 14.0997 14.131 16.0074 16.0342C18.7131 18.7344 22.0796 20.1073 25.9783 20.0151C28.432 19.9576 30.5783 20.5842 32.6343 21.7707C34.7919 23.0091 36.0072 25.9627 35.0435 28.1655C34.8284 28.6567 34.0148 29.1803 33.44 29.2218C29.6205 29.4716 25.7831 29.7508 21.9621 29.6262C21.1336 29.5989 19.9122 28.0734 19.6198 27.0473C18.3858 22.6717 16.7957 21.2461 11.9848 20.8322C10.7579 20.7273 9.53544 20.6838 8.09796 20.5966L8.09843 20.589Z" fill="#000B77"/>
</svg>
