<svg width="37" height="47" viewBox="0 0 37 47" fill="none" xmlns="http://www.w3.org/2000/svg">
<path d="M2.89062 7.05L6.9375 2.9375V0.5875L9.25 0L10.9844 0.5875V2.35L12.1406 2.9375L17.9219 3.525V4.7H13.2969L10.9844 7.05L10.4062 9.9875L13.2969 11.1625L9.25 12.3375V13.5125H10.9844L13.2969 19.975L10.9844 20.5625L12.1406 24.675L10.9844 28.7875H9.25L10.4062 33.4875L9.25 35.25L10.4062 37.0125L9.25 37.6L10.4062 38.775L9.25 39.95L6.9375 47H5.20312L3.46875 45.2375L2.89062 41.125L4.625 37.6L3.46875 35.25V31.1375L4.625 28.7875H1.73438L0.578125 27.025V24.0875L1.73438 20.5625L0 17.0375L2.89062 12.3375V7.05Z" fill="#000B77"/>
<path d="M31.2188 1.175L32.375 0L32.9531 0.5875H35.2656L34.1094 2.35L37 4.1125L35.2656 4.7V8.8125L32.9531 9.9875L31.7969 12.3375H29.4844H28.9062V9.9875L27.75 8.8125V4.7L29.4844 2.9375L31.2188 3.525V1.175Z" fill="#000B77"/>
</svg>
