<svg width="95" height="95" viewBox="0 0 95 95" fill="none" xmlns="http://www.w3.org/2000/svg">
<path d="M91.514 41.0531C95.8747 45.338 94.7498 53.2728 89.8057 56.2231C88.3276 57.1024 87.0554 58.4367 86.0309 59.8012C84.1665 62.2745 83.5944 62.4153 81.4643 60.2416C79.4475 58.1892 77.7768 57.5996 76.0174 58.3398C73.5565 59.3655 72.0704 61.5718 72.5581 64.1495C73.1618 67.3369 72.8446 70.4457 72.0324 73.4862C71.6575 74.8901 70.8404 76.4198 69.7209 77.359C67.7534 79.0097 65.5229 80.4843 63.1843 81.6166C59.9755 83.1615 57.3829 85.1634 55.2968 87.9742C54.2012 89.4488 52.3998 90.484 50.7974 91.5542C50.2607 91.9107 49.359 91.7798 48.2563 91.9113C48.6148 89.98 48.9215 88.3736 49.2201 86.7667C49.8525 83.3719 47.6265 79.1935 44.358 77.6069C41.6366 76.29 38.3408 77.677 37.7007 80.667C37.1695 83.1906 36.8826 85.7976 36.8953 88.377C36.919 93.963 32.0782 95.6073 28.2047 94.5715C23.9675 93.4297 19.7465 92.1515 15.6643 90.5766C14.3347 90.0688 13.1683 88.5944 12.4824 87.294C11.3122 85.0869 9.68428 83.7905 7.15299 83.4539C4.46222 83.0925 2.62579 81.7834 1.72352 79.2721C1.44123 78.4845 0.798222 77.8047 0.260675 76.9787C3.61989 74.4129 4.38207 70.7361 4.46808 66.9267C4.52434 64.4049 5.705 62.7218 7.74758 61.4266C8.87774 60.7093 10.119 60.1513 11.2416 59.4259C12.9425 58.3236 14.5838 57.1414 16.2478 55.9834C18.1134 54.6851 19.8907 53.2518 21.8524 52.0966C25.0494 50.2153 26.1759 47.3006 25.9778 44.0615C25.8049 41.335 24.8081 38.6578 24.2315 35.9527C24.0752 35.2108 23.8933 34.3606 24.1117 33.6795C27.0851 24.598 28.5394 15.4778 25.4054 6.09478C24.9903 4.84133 24.9713 3.4288 25.0279 2.09713C25.0526 1.55696 25.6516 0.837981 26.1899 0.588335C26.4883 0.44621 27.3156 1.00751 27.7176 1.41333C30.0892 3.85345 30.6009 6.6996 29.7818 9.85419C28.6718 14.0897 29.9183 15.8361 34.2591 17.1291C35.4134 17.4737 36.4291 18.7788 37.1444 19.8597C39.1427 22.8799 41.9946 24.7007 45.6204 24.7755C47.9196 24.8233 50.3726 24.1938 52.5026 23.3159C56.2426 21.7726 59.7545 21.7337 63.3536 23.5769C66.3673 25.1175 68.275 27.377 68.7297 30.6316C68.876 31.6704 69.0304 32.7097 69.0956 33.7588C69.5186 40.1929 73.9214 42.3213 78.7199 43.3675C83.3282 44.3639 87.638 43.7783 91.5291 41.0693L91.514 41.0531Z" fill="#000B77"/>
</svg>
