<svg width="50" height="66" viewBox="0 0 50 66" fill="none" xmlns="http://www.w3.org/2000/svg">
<path d="M6.82256 0.321056C8.56351 1.35769 10.4927 2.34468 12.2042 3.60086C13.2218 4.34943 14.0907 5.42478 14.6926 6.52212C15.4685 7.93529 15.813 9.5589 16.5305 11.0067C17.7142 13.3986 19.2973 13.983 22.0696 13.8152C23.395 13.7353 25.1243 13.9011 26.0456 14.6439C29.4766 17.4238 32.134 20.7446 32.2916 25.3181C32.3391 26.794 32.5314 28.271 32.7242 29.7404C33.2204 33.5102 35.4739 35.9211 39.2622 37.0589C40.6303 37.47 42.0389 37.7462 43.4094 38.1193C45.6193 38.7264 47.4358 39.844 48.5807 41.8137C49.7033 43.7516 49.9874 45.7074 48.4597 47.5304C45.7598 50.7554 46.096 54.111 47.8249 57.6044C49.5534 61.1055 48.9976 62.1708 45.2248 63.5677C43.816 64.0929 42.5758 65.0252 41.6422 65.5486C38.287 63.6433 35.0341 61.645 31.6277 59.9197C29.1899 58.6882 26.7331 58.9667 24.5408 60.7266C22.0012 62.7706 19.4401 62.1117 18.4201 59.0123C17.0673 54.893 17.5157 50.6844 18.3299 46.5513C18.4821 45.7668 19.5504 45.015 20.3703 44.5075C24.7362 41.8262 25.4048 36.509 21.5652 33.1624C17.5877 29.7006 12.6414 27.8744 7.63355 26.2658C6.82007 26.0028 5.83656 26.2866 4.93087 26.2164C3.63251 26.1148 2.33967 25.922 1.04454 25.7672C1.00036 25.566 0.956638 25.3573 0.912459 25.1562C1.29516 24.8207 1.65518 24.4609 2.06057 24.1497C4.05589 22.584 5.10714 20.5183 5.60442 18.1596C6.05716 16.0043 5.15198 14.3315 3.60902 12.8184C1.42806 10.6713 1.34393 9.26956 2.9471 6.73367C4.33605 4.54351 5.63197 2.29429 6.83151 0.306343L6.82256 0.321056Z" fill="#000B77"/>
</svg>
