<svg width="77" height="78" viewBox="0 0 77 78" fill="none" xmlns="http://www.w3.org/2000/svg">
<path d="M61.3763 67.2747C60.764 67.1229 60.2432 67.0607 59.7875 66.8572C56.1239 65.2506 52.5251 65.9045 48.945 67.049C46.9613 67.6861 45.6199 68.9128 44.995 70.8331C44.7864 71.4783 44.5537 72.122 44.2656 72.7471C43.0497 75.3659 41.1705 76.0093 38.4307 74.7417C37.4884 74.3098 36.6004 73.7817 35.6571 73.365C32.3087 71.8846 29.2488 72.3035 26.3422 74.4526C24.7788 75.6124 23.1495 76.9287 21.317 77.4678C18.671 78.2482 15.9835 77.8482 13.499 76.229C10.5103 74.2732 7.32813 72.5811 4.03825 70.6683C5.20991 69.4466 6.45199 67.862 7.9892 66.6013C12.4138 62.976 15.3731 58.3593 18.0767 53.5665C18.6735 52.5089 19.0321 51.2532 19.1453 50.0515C19.6656 44.5297 16.8049 41.7938 10.9425 42.1116C9.6471 42.1784 8.35765 42.4139 7.07284 42.5731C5.05554 42.8333 3.45756 42.3005 2.57086 40.4186C1.80608 38.7888 0.627508 37.1952 0.383367 35.4976C-0.198467 31.5153 1.05417 30.6886 4.29154 31.6039C7.53694 32.5196 10.7593 33.5487 13.8987 34.7487C22.166 37.8964 30.6039 39.0274 39.3773 37.2874C45.169 36.1392 48.2341 32.7069 48.8495 27.2139C49.1348 24.6381 49.4772 22.0505 49.5374 19.461C49.6772 13.1589 52.6701 8.25362 57.3844 4.11048C58.4755 3.15162 59.5217 2.1365 60.6664 1.22678C61.0566 0.91387 61.6655 0.721311 62.1909 0.707265C63.2257 0.678197 64.2759 0.795395 65.3123 0.873511C68.6702 1.13059 68.9109 1.42055 69.7463 4.41612C70.0515 5.50551 70.7464 6.55731 71.4992 7.45201C72.2293 8.32237 72.5018 9.01967 72.0238 10.1151C70.636 13.3049 70.5093 16.594 71.6563 19.9068C72.8788 23.4383 74.0441 26.9817 75.3574 30.4805C76.6227 33.8387 76.621 36.9288 74.3311 39.9568C72.2875 42.6478 70.4215 45.472 68.6889 48.3579C67.4768 50.3803 66.4659 52.5449 65.647 54.7365C64.2991 58.334 63.1801 62.0143 61.959 65.6502C61.7909 66.1601 61.6067 66.6691 61.3924 67.2757L61.3763 67.2747Z" fill="#000B77"/>
</svg>
