<svg width="122" height="118" viewBox="0 0 122 118" fill="none" xmlns="http://www.w3.org/2000/svg">
<path d="M109.336 116.442C104.439 117.899 99.9566 118.386 95.4988 115.803C89.6504 112.43 83.4267 111.249 76.7149 113.186C74.2557 113.895 72.0093 112.824 71.1777 110.545C70.8449 109.636 71.1817 108.079 71.8489 107.338C74.3422 104.602 74.1253 101.647 72.9189 98.6177C72.2801 97.0242 72.6759 95.9605 73.56 94.5742C74.5244 93.0625 75.1781 91.2103 75.3333 89.4504C75.5685 86.7686 73.5987 85.0025 70.5321 84.9315C69.0071 84.8927 67.4334 85.2569 65.9394 85.6412C62.1133 86.6347 61.1103 86.3825 58.6439 83.4756C58.3119 83.0879 57.9964 82.6934 57.6809 82.299C54.4934 78.2226 50.0427 76.9878 45.1286 79.1332C41.9656 80.5193 38.8573 80.7368 35.6344 79.6453C32.3081 78.5246 29.0027 77.3286 25.743 76.0434C23.4775 75.1555 22.0395 73.682 21.3487 71.2121C20.8298 69.3731 19.1289 67.8377 17.9865 66.1523C17.5413 65.4973 16.9043 64.8077 16.8346 64.0911C16.5785 61.5174 16.5501 58.9192 16.3915 56.3361C16.2686 54.23 14.1139 52.3148 11.7625 52.3102C10.6718 52.3054 9.55873 52.5366 8.49304 52.786C5.45175 53.4978 2.15636 52.4019 -0.00849495 49.7202C2.39454 47.1392 4.65709 44.3428 7.35406 41.9787C8.49774 40.9758 10.502 40.7066 12.1682 40.417C13.2789 40.2239 14.4967 40.6654 15.6665 40.698C22.225 40.8887 27.5562 37.5967 33.0037 34.9168C35.2446 33.8118 35.2939 30.5979 33.268 28.6905C30.8134 26.3895 29.8889 24.0434 30.0413 20.7285C30.1257 18.8035 28.2847 16.7771 27.141 14.4483C27.9577 13.6399 29.0175 12.2872 30.3705 11.2969C35.1922 7.74427 40.096 4.30378 45.0154 0.871911C45.471 0.554861 46.2196 0.470065 46.8244 0.491406C51.8963 0.676281 56.9695 1.10632 62.0387 1.06892C65.3207 1.05339 68.1233 1.3458 70.5323 3.86617C71.5507 4.93126 73.4601 5.56019 75.0412 5.74027C77.545 6.0299 80.1129 5.79492 82.6603 5.76551C83.3802 5.75552 84.1083 5.60815 84.8047 5.71929C86.0211 5.91557 87.4888 5.96624 88.32 6.65233C88.9748 7.18221 88.93 8.58879 89.0214 9.61301C89.4874 14.8572 89.9293 20.0999 90.3304 25.3478C90.7554 31.0031 91.9885 32.2574 98.0143 32.4388C101.007 32.5283 104.007 32.2276 107.01 32.1569C108.442 32.1211 109.889 32.1246 111.31 32.2644C116.46 32.7604 120.69 36.8387 121.197 41.6718C121.403 43.6144 120.024 44.6261 118.645 45.5228C117.416 46.3215 116.473 45.3605 115.537 44.6681C112.544 42.4417 109.544 42.2138 106.252 43.9828C105.233 44.5337 104.128 45.0336 103.322 45.8042C99.9936 48.9802 95.6976 49.593 91.3157 50.0243C90.21 50.1335 89.1009 50.1658 88.001 50.3136C82.7698 51.0229 80.4458 53.2334 79.7389 58.2303C78.7442 65.3084 79.4661 72.3298 80.9599 79.283C82.0765 84.4594 85.8579 87.5378 91.0892 88.5596C96.5521 89.626 98.684 92.7193 99.0558 97.6514C99.2301 99.9751 99.8647 102.304 100.56 104.559C101.708 108.298 103.43 111.741 106.955 114.123C107.817 114.703 108.467 115.578 109.336 116.442Z" fill="#000B77"/>
</svg>
