<svg width="163" height="149" viewBox="0 0 163 149" fill="none" xmlns="http://www.w3.org/2000/svg">
<path d="M144.724 90.1409C143.42 91.825 141.603 92.7158 138.984 92.2337C135.545 91.6018 132.231 91.9938 129.063 93.6034C128.057 94.1199 126.645 94.2191 125.466 94.1015C121.268 93.6699 117.869 94.9345 115.114 97.9088C112.55 100.671 109.13 101.865 105.408 102.302C100.556 102.878 96.0832 104.154 92.4237 107.436C91.3582 108.395 89.8941 108.961 88.5993 109.683C86.6994 110.738 84.711 110.841 82.7734 109.838C80.1187 108.469 77.6538 108.927 75.0541 110.002C73.6125 110.6 71.9543 110.884 70.3715 110.996C66.0483 111.288 61.8027 111.639 57.7281 113.325C56.07 114.01 54.0044 113.777 52.1219 114.009C50.7634 114.173 49.3955 114.36 48.0624 114.641C45.5776 115.16 43.9091 116.552 42.9974 118.861C42.0175 121.358 40.8429 121.972 38.0616 121.888C36.0992 121.831 34.1081 121.71 32.1717 121.893C26.9176 122.398 22.9822 125.27 19.4609 128.683C17.7005 130.386 17.2618 132.53 17.7104 134.914C18.6613 139.999 15.7446 145.366 10.9327 147.553C10.7072 147.655 10.4512 147.724 10.1971 147.763C7.76247 148.123 5.32027 148.476 2.66529 148.854C2.62992 148.097 2.56132 147.084 2.54986 146.067C2.3889 127.279 2.37457 108.484 2.01034 89.6982C1.84751 81.1266 1.13244 72.5523 0.383585 63.9991C0.209843 62.0406 0.674596 60.8061 1.75532 59.1931C4.76567 54.6944 8.61362 50.9855 12.6049 47.3239C13.93 46.103 14.9064 44.4683 15.7977 42.8978C19.22 36.8302 24.2263 33.1761 31.7655 33.302C34.9305 33.3553 37.7207 32.3541 40.1886 30.6405C46.0393 26.591 51.1928 21.9835 52.9526 14.9297C53.2328 13.7918 53.8063 13.3107 55.1217 13.3211C57.8739 13.3494 60.6394 13.0242 63.3851 13.1599C66.5764 13.3148 69.173 12.4251 71.2216 10.1239C72.1717 9.05741 73.2324 8.71363 74.8083 8.84766C78.9621 9.20722 83.0638 8.81677 86.9749 7.28297C91.6101 5.462 96.3024 5.24597 101.214 6.50609C107.621 8.14947 114.049 7.72289 120.159 5.42157C124.973 3.60372 129.792 3.04119 134.957 3.33118C137.58 3.47479 140.39 2.68267 142.914 1.7962C148.874 -0.306338 156.177 1.17572 160.46 5.70079C162.911 8.29004 163.431 11.1011 161.671 14.1281C160.256 16.5677 158.249 18.7174 157.001 21.221C154.746 25.7194 152.095 29.7779 147.997 33.0559C145.743 34.8595 145.582 37.7909 146.073 40.5462C146.316 41.893 146.707 43.2179 147.139 44.5299C148.442 48.5047 148.136 52.3512 146.593 56.2152C144.947 60.327 143.227 64.442 142.092 68.6926C140.778 73.6175 140.989 78.7119 142.24 83.6845C142.783 85.8348 143.83 87.8693 144.732 90.1491L144.724 90.1409Z" fill="#000B77"/>
</svg>
